<svg version="1.1" xmlns="http://www.w3.org/2000/svg" xmlns:xlink="http://www.w3.org/1999/xlink" width="199.32862" height="199.32862" viewBox="0,0,199.32862,199.32862"><g transform="translate(-140.33569,-80.33576)"><g data-paper-data="{&quot;isPaintingLayer&quot;:true}" fill-rule="nonzero" stroke="none" stroke-linecap="butt" stroke-linejoin="miter" stroke-miterlimit="10" stroke-dasharray="" stroke-dashoffset="0" style="mix-blend-mode: normal"><path d="M169.52669,250.47337c-38.92133,-38.92133 -38.92133,-102.02528 0.00001,-140.94661c38.92133,-38.92133 102.02528,-38.92134 140.94662,0c38.92133,38.92133 38.92134,102.02528 0,140.94662c-38.92133,38.92133 -102.02528,38.92134 -140.94662,0z" fill="none" stroke-width="0"/><g stroke-width="1"><path d="M235.23502,173.80068c-0.20616,-0.2789 -0.48507,-0.45472 -0.61239,-0.75183c-1.70983,-3.91076 0.50324,-7.68209 4.52619,-8.44906c2.39294,-0.45677 4.46553,0.52851 6.21781,2.95581c0.08488,0.11722 0.19704,0.19099 0.33651,0.22131c0.71544,0.16977 1.57947,-0.03941 2.18883,0.11522c3.44995,0.87311 4.98394,3.27412 4.91118,6.74228c-0.03031,1.75227 1.15806,3.00733 0.90341,5.03853c-0.1425,1.11259 -0.89737,2.10999 -1.33088,3.21654c-0.05189,0.13432 -0.02511,0.28694 0.06971,0.39715c0.4406,0.51333 0.71445,0.95091 0.82159,1.31269c1.70375,5.81462 -3.99565,10.40447 -9.20394,7.02723c-0.1162,-0.07192 -0.26475,-0.06089 -0.36683,0.02727c-2.48188,2.09787 -5.05167,2.36971 -7.70936,0.81551c-0.48202,-0.28192 -0.97315,-0.96101 -1.57947,-1.27632c-0.1168,-0.06211 -0.25478,-0.07622 -0.38501,-0.03941c-5.03547,1.47032 -9.38582,-3.4742 -7.1182,-8.252c0.05645,-0.11519 0.03462,-0.2534 -0.05457,-0.34561c-3.82284,-3.92592 -1.6401,-10.02552 3.90469,-10.13162c1.38645,-0.02831 2.56878,0.45272 3.54698,1.44306c0.0849,0.0849 0.17583,0.16169 0.27283,0.23039c0.32538,0.22435 0.55277,0.20313 0.6821,-0.06367c0.0384,-0.08287 0.03134,-0.16067 -0.02122,-0.23344z" fill="#9749fc"/><path d="M233.82532,167.06746c-0.06669,0.36177 -0.18392,0.576 -0.35167,0.6427c-1.64718,-1.13785 -3.40246,-1.54108 -5.26588,-1.20962c-0.05542,0.01072 -0.10401,0.04372 -0.13439,0.09127c-0.03039,0.04756 -0.03987,0.10554 -0.02629,0.16033l0.11824,0.49416c0.02853,0.11177 -0.03273,0.22781 -0.1425,0.26981l-3.16196,1.15503c-0.12769,0.0474 -0.22562,0.15216 -0.26439,0.28274c-0.03877,0.13057 -0.01382,0.27179 0.06734,0.38119c0.54569,0.73569 1.20758,1.32076 1.98569,1.75529c0.28699,0.15766 0.3163,0.35469 0.08792,0.59117c-0.51539,0.53153 -0.66291,0.9398 -0.44263,1.22477c-0.16773,-0.0667 -0.31024,0.06365 -0.42745,0.39109l-0.22434,0.03638c-0.06211,0.00952 -0.12416,-0.0135 -0.1637,-0.06063c-0.42643,-0.47899 -0.46383,-0.98122 -0.11216,-1.5067c0.07478,-0.10712 0.06264,-0.20614 -0.03637,-0.2971c-0.54975,-0.48909 -1.02469,-1.02469 -1.42485,-1.60676c-1.16716,-1.70073 1.79168,-2.67689 2.9437,-2.9255c0.1334,-0.02829 0.20411,-0.11116 0.2122,-0.24859c0.04852,-0.85491 0.5184,-1.23992 1.37636,-1.29145c1.76136,-0.10609 4.29883,0.13946 5.38716,1.6704z" fill="#3d8004"/><path d="M233.47366,167.71018l-0.43957,3.84104c-0.01618,0.14551 -0.09499,0.20008 -0.23647,0.16371c-2.36866,-0.61844 -4.53628,-0.22132 -6.50277,1.19143c-0.22029,-0.28496 -0.07275,-0.69321 0.44262,-1.22478c0.22839,-0.23646 0.19909,-0.43351 -0.08791,-0.59116c-0.7781,-0.43453 -1.44,-1.01964 -1.9857,-1.75529c-0.08115,-0.1094 -0.10609,-0.25061 -0.06734,-0.3812c0.03877,-0.13057 0.13671,-0.2353 0.26439,-0.28274l3.16196,-1.15503c0.10976,-0.04203 0.17103,-0.15804 0.1425,-0.26981l-0.11822,-0.49415c-0.01358,-0.05479 -0.0041,-0.11276 0.0263,-0.16032c0.03039,-0.04756 0.07896,-0.08058 0.13438,-0.09129c1.86343,-0.33146 3.61873,0.07176 5.26589,1.20963z" fill="#9ad915"/><path d="M225.86734,173.29741c0.11722,-0.32742 0.25971,-0.45777 0.42745,-0.39109c1.96651,-1.41272 4.1341,-1.80985 6.50277,-1.19142c0.14147,0.03637 0.2203,-0.01819 0.23648,-0.16371l0.43957,-3.84104c0.16773,-0.0667 0.28498,-0.28092 0.35167,-0.6427c3.2317,-4.30488 8.46422,-4.96577 11.92329,-0.55478c0.0869,0.11115 0.20112,0.17079 0.34256,0.17886c5.09105,0.29306 7.66188,2.84768 7.71239,7.66391c0.00405,0.55783 0.1162,1.12269 0.33651,1.69465c0.85491,2.23732 0.67402,4.44736 -0.54266,6.63012c-0.07275,0.12936 -0.07681,0.26273 -0.01213,0.40015c0.48809,1.05196 0.92463,2.08271 0.97921,3.23472c0.26982,5.58117 -5.49326,9.30702 -10.44991,6.4664c-0.11116,-0.06268 -0.2203,-0.05861 -0.3274,0.01214c-3.30647,2.26763 -6.50074,2.11101 -9.5829,-0.46989c-0.10392,-0.08448 -0.23883,-0.1199 -0.36985,-0.09702c-5.50236,1.07016 -9.76781,-3.741 -8.1065,-9.08875c0.04243,-0.13946 0.01921,-0.26579 -0.06972,-0.37895c-2.44143,-3.13266 -2.3717,-6.28654 0.20918,-9.46163zM235.25621,174.03409c-0.12934,0.26679 -0.35671,0.288 -0.6821,0.06368c-0.09702,-0.06872 -0.18796,-0.14552 -0.27284,-0.2304c-0.9782,-0.99033 -2.16052,-1.47134 -3.54698,-1.44306c-5.5448,0.10609 -7.72755,6.20568 -3.90469,10.13162c0.08921,0.09219 0.11103,0.2304 0.05457,0.34561c-2.26764,4.77781 2.08271,9.72234 7.1182,8.25201c0.13026,-0.03681 0.2682,-0.02269 0.38502,0.03941c0.60632,0.31529 1.09744,0.99437 1.57947,1.27632c2.6577,1.5542 5.22748,1.28235 7.70936,-0.81551c0.10207,-0.08817 0.25061,-0.09917 0.36683,-0.02727c5.20829,3.37721 10.9077,-1.21265 9.20392,-7.02725c-0.10712,-0.36176 -0.38095,-0.79933 -0.82156,-1.31269c-0.09484,-0.11018 -0.12165,-0.26283 -0.06972,-0.39714c0.43351,-1.10654 1.18838,-2.10393 1.33087,-3.21654c0.25466,-2.03117 -0.93373,-3.28625 -0.90339,-5.03852c0.07276,-3.46816 -1.46124,-5.86918 -4.9112,-6.74228c-0.60934,-0.15461 -1.47336,0.05455 -2.18883,-0.11521c-0.13946,-0.03032 -0.25161,-0.10408 -0.33651,-0.2213c-1.75227,-2.4273 -3.82487,-3.41258 -6.21781,-2.95581c-4.02293,0.767 -6.236,4.53833 -4.52618,8.44907c0.12733,0.29711 0.40624,0.47292 0.61238,0.75182c0.05256,0.07275 0.05962,0.15059 0.02123,0.23343z" fill="#6b0fde"/><path d="M234.07997,174.06439c0.16919,0.05341 0.30095,0.18712 0.35193,0.35704c0.05099,0.16991 0.01455,0.35409 -0.09728,0.49182c-0.97012,1.18839 -1.52893,2.53947 -1.67648,4.05325c-0.02966,0.29938 -0.27367,0.53314 -0.57602,0.55176c-1.58048,0.08893 -2.9558,0.68412 -4.12601,1.78561c-0.07209,0.06908 -0.17565,0.0943 -0.27143,0.06613c-0.09579,-0.02816 -0.16919,-0.10544 -0.1924,-0.20254c-0.8711,-3.52675 0.48406,-5.91666 4.06538,-7.16972c0.73568,-0.2587 1.57644,-0.23646 2.52229,0.0667z" fill="#a26dfe"/><path d="M235.2441,173.38533c-0.45776,-0.85795 -0.74575,-1.37028 -0.3092,-2.34645c1.36624,-3.07607 3.73393,-4.23918 7.10305,-3.48938c0.64674,0.14552 1.1995,0.44162 1.65827,0.88826c0.05255,0.05246 0.07891,0.12565 0.07188,0.19958c-0.00704,0.07392 -0.04675,0.14083 -0.10826,0.18242c-1.55825,1.03277 -2.45155,2.46568 -2.67995,4.2988c-0.01097,0.0887 -0.06038,0.1681 -0.1351,0.21712c-0.07471,0.04903 -0.16723,0.06278 -0.25295,0.03753c-1.51783,-0.43455 -2.99119,-0.32541 -4.42007,0.32738c-0.34256,0.15542 -0.74786,0.0177 -0.92767,-0.31528z" fill="#a26dfe"/><path d="M233.58583,181.56155c-0.44059,0.4204 -0.6033,0.88219 -0.48809,1.38543c0.03435,0.14349 0.11217,0.25567 0.23342,0.33651c0.9115,0.61238 1.8422,0.69625 2.79211,0.25163c0.70029,-0.33043 1.04591,-1.1126 0.62147,-1.81594c-0.17898,-0.29142 -0.49778,-0.4675 -0.83976,-0.46383l-1.64313,0.03032c0.50324,-4.21796 2.85375,-6.05916 7.0515,-5.52357c0.25769,1.37937 1.8523,1.51883 2.32523,0.21525c0.44869,-1.23083 0.33953,-3.21955 -1.63707,-2.9164c2.44346,-3.17912 5.17696,-3.56415 8.20049,-1.15504c0.67099,0.53355 1.00043,1.1581 0.9883,1.87353c-0.00605,0.2203 -0.10205,0.27184 -0.28801,0.15461c-1.5734,-0.98528 -5.76306,-1.93114 -6.70286,0.40319c-0.03671,0.09231 -0.00375,0.19774 0.07902,0.25268c0.08278,0.05495 0.19274,0.04439 0.26355,-0.02531c2.34646,-2.31614 5.68119,0.20615 6.48459,2.67083c0.60428,1.84524 0.43756,3.68137 -0.5002,5.50843c-1.37331,2.67084 -5.18404,1.13987 -6.86659,-0.30619l0.33954,-1.16414c0.0384,-0.13943 0.02423,-0.27284 -0.04245,-0.40018c-0.39411,-0.72959 -0.94688,-1.28236 -1.65829,-1.65829c-0.49111,-0.26071 -0.63966,-0.57903 -0.99438,-0.89129c-0.16495,-0.14251 -0.39633,-0.1794 -0.5974,-0.09525c-0.2011,0.08417 -0.33723,0.27487 -0.35147,0.49239c-0.06669,1.18636 -0.67099,1.83513 -1.81288,1.94628c-0.22658,0.02372 -0.40454,0.20466 -0.42451,0.43163c-0.01995,0.22693 0.12371,0.43618 0.34266,0.4991c0.24455,0.07072 0.42443,0.25667 0.53963,0.55783c0.59623,1.58651 1.71992,2.14433 3.37113,1.67345c0.15158,0.00607 0.34761,-0.08084 0.58814,-0.26072c0.1354,-0.09903 0.25062,-0.08083 0.34561,0.05458c1.20052,1.67346 1.57442,3.50453 1.12169,5.49325c-0.07227,0.31878 -0.25711,0.60249 -0.52144,0.80034c-3.41359,2.58899 -8.27323,1.41577 -9.63441,-2.83151c-0.26071,-0.81853 -0.13441,-1.61383 0.37894,-2.38586c0.09906,-0.14754 0.06165,-0.24354 -0.11217,-0.28801c-0.33753,-0.09093 -0.58005,0.0869 -0.72759,0.53355c-0.384,1.16414 -0.50326,2.32625 -0.35775,3.48635c0.01055,0.07473 -0.01742,0.14972 -0.07433,0.19929c-0.05692,0.04957 -0.13503,0.06696 -0.20761,0.04626c-2.94267,-0.85692 -4.30183,-2.60616 -4.07751,-5.2477c0.17886,-2.10088 1.27328,-3.05584 3.27717,-3.47724c0.15812,-0.03243 0.32231,0.00998 0.44498,0.11487c0.12267,0.10489 0.19003,0.26051 0.18257,0.42173c-0.01616,0.33954 0.17988,0.69727 0.58814,1.0732z" fill="#a26dfe"/><path d="M233.58583,181.56155l0.67604,-0.27586l1.64313,-0.03031c0.34199,-0.00368 0.66078,0.17244 0.83977,0.46384c0.42444,0.70334 0.07882,1.4855 -0.62148,1.81593c-0.9499,0.44464 -1.8806,0.36076 -2.79211,-0.25163c-0.12125,-0.08085 -0.19907,-0.19302 -0.23342,-0.33651c-0.1152,-0.50323 0.04751,-0.96505 0.48809,-1.38544z" fill="#6b0fde"/><path d="M242.00154,173.06094c1.97659,-0.30315 2.08574,1.68559 1.63707,2.9164c-0.47292,1.30359 -2.06756,1.16413 -2.32524,-0.21526c-0.04851,-1.01459 0.18089,-1.91496 0.68819,-2.70114z" fill="#6b0fde"/><path d="M243.65981,182.4377c-0.24859,0.61643 -0.67807,1.08026 -1.28843,1.39151c-1.6512,0.4709 -2.77492,-0.0869 -3.37112,-1.67346c-0.11522,-0.30114 -0.29508,-0.48708 -0.53964,-0.55781c-0.21896,-0.06288 -0.3626,-0.27215 -0.34266,-0.4991c0.01995,-0.22693 0.19795,-0.4079 0.42453,-0.43163c1.14189,-0.11116 1.74619,-0.75992 1.81288,-1.94628c0.01425,-0.21751 0.15039,-0.40827 0.35146,-0.4924c0.2011,-0.08417 0.43248,-0.04726 0.59741,0.09525c0.3547,0.31226 0.50325,0.63057 0.99436,0.89129c0.71141,0.37593 1.26417,0.92869 1.65829,1.65829c0.06669,0.12735 0.08085,0.26072 0.04245,0.40018zM241.0466,181.77074l-0.52749,-0.33955c-0.11143,-0.07294 -0.25863,-0.05834 -0.35353,0.03509c-0.0949,0.09344 -0.1118,0.2404 -0.04058,0.35294c1.33694,2.17366 3.63489,-0.30013 1.46729,-1.49762c-0.09945,-0.05288 -0.22199,-0.03231 -0.29875,0.05011c-0.07675,0.08242 -0.08849,0.20616 -0.02867,0.30156l0.34559,0.53354c0.10568,0.16138 0.08369,0.37475 -0.05271,0.51115c-0.1364,0.1364 -0.3498,0.15841 -0.51116,0.05273z" fill="#6b0fde"/><path d="M241.0466,181.77074c0.16138,0.10568 0.37475,0.08366 0.51116,-0.05274c0.1364,-0.1364 0.15842,-0.34976 0.05272,-0.51114l-0.3456,-0.53355c-0.05984,-0.09541 -0.04806,-0.21913 0.02868,-0.30155c0.07675,-0.08242 0.19928,-0.10298 0.29874,-0.05009c2.16759,1.19749 -0.13036,3.67128 -1.4673,1.49763c-0.07121,-0.11254 -0.05431,-0.25949 0.04057,-0.35293c0.0949,-0.09344 0.24211,-0.10805 0.35353,-0.0351z" fill="#ffe1f0"/><path d="M248.24666,184.85995c1.2288,-0.14552 2.32927,-0.73264 3.30141,-1.76135c0.12531,-0.13339 0.23038,-0.11925 0.31528,0.04244c0.53053,0.99132 1.7947,2.75877 0.94889,3.95017c-2.00895,2.84161 -4.64443,3.80971 -7.90641,2.90428c-0.14957,-0.04043 -0.19705,-0.13238 -0.14248,-0.27588c0.83874,-2.21306 0.56285,-4.26547 -0.82763,-6.15718c-0.0485,-0.0687 -0.05556,-0.14046 -0.02121,-0.21524c0.0145,-0.03041 0.04298,-0.05177 0.07623,-0.05722c0.03325,-0.00543 0.06703,0.00574 0.0905,0.02993c1.19648,1.21262 2.58496,1.72599 4.16545,1.54004z" fill="#a26dfe"/></g></g></g></svg>