<svg version="1.1" xmlns="http://www.w3.org/2000/svg" xmlns:xlink="http://www.w3.org/1999/xlink" width="127.88325" height="128.47038" viewBox="0,0,127.88325,128.47038"><g transform="translate(-176.05837,-115.76481)"><g data-paper-data="{&quot;isPaintingLayer&quot;:true}" fill-rule="nonzero" stroke-linejoin="miter" stroke-miterlimit="10" stroke-dasharray="" stroke-dashoffset="0" style="mix-blend-mode: normal"><path d="M301.94163,180c0,34.37154 -27.73221,62.23519 -61.94162,62.23519c-34.20942,0 -61.94162,-27.86364 -61.94162,-62.23519c0,-34.37154 27.73221,-62.23519 61.94162,-62.23519c34.20941,0 61.94162,27.86365 61.94162,62.23519z" fill="#ffffff" stroke="#000000" stroke-width="4" stroke-linecap="butt"/><path d="M204.5824,181.22142c0,-17.98972 2.31779,-21.95265 16.71142,-25.65055c1.80714,-3.93759 5.56545,-6.94846 10.17514,-7.18109c2.58033,-0.13021 3.76664,2.39831 6.54677,2.39831c2.11978,0 1.14464,-2.55147 4.22879,-3.97861c3.61073,-1.67081 10.32014,-1.03618 11.48859,2.51705c2.59204,-0.02126 5.23629,-1.77368 7.71994,-1.2744c14.52848,2.92064 12.24602,17.95414 10.24602,33.91929c11.41667,16.15313 -4.78019,32.1 -30.51666,32.1c-25.73647,0 -36.6,-7.11353 -36.6,-32.85z" fill="#f7caa0" stroke="none" stroke-width="0" stroke-linecap="butt"/><g fill="none" stroke="#654524" stroke-width="4" stroke-linecap="round"><path d="M213.61218,184.93028c0,0 3.30634,5.57143 6.28572,5.57143c1.5051,0 6.15086,-3.98376 9.30139,-4.19725c2.77063,0.30596 -1.44719,-24.32788 -2.18133,-25.71027c-2.31295,-4.35534 6.13932,17.35643 2.14324,25.71754c-2.77168,5.79925 10.04041,6.15154 23.02049,5.37736c-4.01256,15.45568 4.41368,12.2412 4.41368,12.2412"/><path d="M252.01289,191.79231c-8.81712,3.17738 -45.88623,-28.22076 14.375,-14.3"/><path d="M239.58789,156.39231c0,0 6.38389,10.94287 4.3,16.2"/><path d="M255.38789,155.79231c0,0 6.14699,14.73334 4.0631,19.99047"/></g></g></g></svg>