<svg version="1.1" xmlns="http://www.w3.org/2000/svg" xmlns:xlink="http://www.w3.org/1999/xlink" width="204.13136" height="362.98116" viewBox="0,0,204.13136,362.98116"><g transform="translate(-137.93432,1.49059)"><g data-paper-data="{&quot;isPaintingLayer&quot;:true}" fill-rule="nonzero" stroke-linecap="butt" stroke-linejoin="miter" stroke-miterlimit="10" stroke-dasharray="" stroke-dashoffset="0" style="mix-blend-mode: normal"><path d="M138.77315,361.41554v-158.20314h202.62864v158.20314z" fill="#fffeb9" stroke="none" stroke-width="0"/><path d="M223.67871,361.49058v-290.97078h32.76744v290.97078z" fill="#fceb9f" stroke="none" stroke-width="0"/><path d="M223.67871,360.99058v-290.47078h32.76744v290.47078z" fill="#fcf2a2" stroke="none" stroke-width="0"/><path d="M142.35741,110.74192l56.45072,6.19552c0,0 -44.43141,146.2152 -59.6343,198.2124c-3.69503,12.63783 3.18358,-204.40792 3.18358,-204.40792z" fill="#fcf2a2" stroke="none" stroke-width="0"/><path d="M323.31071,360.14201l-28.43507,-249.23609l43.5629,-7.19553l2.70866,256.66027z" data-paper-data="{&quot;index&quot;:null}" fill="#fcf2a2" stroke="none" stroke-width="0"/><path d="M137.93432,268.58146v-26.99418h203.88229v26.99418z" fill="#fcf2a2" stroke="none" stroke-width="0"/><path d="M138.65836,339.71722v-26.99418h202.61546v26.99418z" fill="#fcf2a2" stroke="none" stroke-width="0"/><path d="M138.95322,130.10734v-131.59792h201.82683v131.59792z" fill="#d2924a" stroke="none" stroke-width="0"/><path d="M139.1186,166.77024v-37.79186h202.14382v37.79186z" fill="#ba7518" stroke="none" stroke-width="0"/><path d="M138.66515,204.16328v-37.79186h203.40053v37.79186z" fill="#dbae57" stroke="none" stroke-width="0"/><path d="M138.92689,176.73727v-11.43105h202.51552v11.43105z" fill="#cfa150" stroke="none" stroke-width="0"/><path d="M138.24539,177.87857v-3.06369h203.49622v3.06369z" fill="#fbc488" stroke="none" stroke-width="0"/><g><path d="M164.59573,168.33781l9.4,-15.53334l127.8,-0.2l11.4,15.73334z" fill="#e5d5a6" stroke="none" stroke-width="0"/><path d="M160.21238,171.27335l14.73334,-20.56666l0.9,0.6v19.96667z" data-paper-data="{&quot;index&quot;:null}" fill="#dfcaa1" stroke="none" stroke-width="0"/><path d="M162.21241,180.15446v-8.33333c0,0 31.27065,0 51.58331,0c29.31219,0 107.41669,0 107.41669,0v8.33333z" fill="#eee2b7" stroke="none" stroke-width="0"/><path d="M158.24793,177.5051v-5.28571h17.42857v5.28571z" fill="#edd9bb" stroke="none" stroke-width="0"/><path d="M303.16952,177.50511v-5.28571h17.42857v5.28571z" fill="#edd9bb" stroke="none" stroke-width="0"/><path d="M303.21238,172.67335v-19.96667l0.9,-0.6l14.73334,20.56667z" fill="#dfcaa1" stroke="none" stroke-width="0"/><path d="M161.06241,209.87114v-32.33333h159.66667v32.33333z" fill="#e8ddad" stroke="none" stroke-width="NaN"/><path d="M157.31882,206.03282v-28.37718h18.30786v28.37718z" fill="#e5d4aa" stroke="none" stroke-width="0"/><path d="M303.06883,206.03282v-28.37718h18.30786v28.37718z" fill="#e5d4aa" stroke="none" stroke-width="0"/><path d="M159.72907,350.05668v-143.66667h159.625v143.66667z" fill="#fef8d5" stroke="none" stroke-width="0"/><path d="M157.38435,268.41274v-26.54166h17.84848v26.54166z" fill="#f7f1ca" stroke="none" stroke-width="NaN"/><path d="M302.68738,268.47335v-26.54167h19.66667v26.54167z" fill="#f7f1ca" stroke="none" stroke-width="NaN"/><path d="M175.31239,326.30668v-119.5h127.5v119.5z" fill="#f7f2c7" stroke="none" stroke-width="0"/><path d="M175.49171,339.71722v-26.99418h127.94879v26.99418z" fill="#f3eec2" stroke="none" stroke-width="0"/><path d="M161.06237,349.92972l14,-22.70967l128.66667,-1.29032l17.33333,24z" fill="#ebe0a9" stroke="none" stroke-width="0"/><path d="M218.17873,325.74057v-118.97078h32.76744v118.97078z" fill="#f3eec2" stroke="none" stroke-width="0"/><path d="M156.01375,203.17179c-0.00222,-9.23651 0.00554,-18.47304 0.02324,-27.70955c0.00332,-1.87918 1.62021,-4.99343 2.63948,-6.74644c2.2477,-3.87124 4.34601,-7.5167 6.59703,-11.68011c1.0403,-1.92566 1.90131,-3.34888 2.58303,-4.26965c1.24836,-1.68883 3.11094,-2.55094 5.58773,-2.58635c8.2759,-0.11289 35.80874,-0.15384 44.0802,-0.12285l10.93384,0.00001c24.40937,0.00886 48.78886,-0.00442 73.13846,-0.03984c2.48011,-0.00332 4.80419,2.40706 6.21191,4.28292c3.50824,4.67249 7.04856,9.32062 10.62099,13.94442c0.28996,0.37407 0.6939,0.73706 1.21184,1.08899c1.41658,0.95619 2.40707,2.21229 2.97149,3.76831c0.30324,0.83445 0.45154,2.09609 0.4449,3.78491c-0.02877,8.4087 -0.01771,16.82184 0.0332,25.23939" fill="none" stroke="#e7bc68" stroke-width="2"/><path d="M323.09108,227.87665v-25.75069" fill="none" stroke="#dbae4f" stroke-width="2"/><path d="M323.09112,227.87665l0.05976,7.00209" fill="none" stroke="#e5c46b" stroke-width="2"/><path d="M323.15088,234.87874l-0.04648,2.20786" fill="none" stroke="#fbd587" stroke-width="2"/><path d="M323.8348,255.21434c-0.27446,0.00222 -0.49691,-0.07746 -0.66734,-0.23904c-0.07648,-0.07437 -0.11961,-0.17618 -0.11953,-0.28222l0.05644,-17.60648" fill="none" stroke="#ebca6e" stroke-width="2"/><path d="M323.23057,314.98608c0.11067,-0.34751 0.16822,-0.89975 0.17264,-1.65673c0.05534,-9.72346 0.07082,-19.44803 0.04648,-29.1737c0,-0.00664 0.01439,-0.58765 0.04316,-1.74305c0.1328,-5.54125 -0.07636,-11.65687 0.04316,-19.53878c0.00443,-0.38956 -0.04869,-1.3878 -0.15936,-2.99473c-0.10845,-1.5693 0.04427,-3.12422 0.45818,-4.66474" fill="none" stroke="#fcec94" stroke-width="2"/><path d="M318.8015,298.1399l0.38181,-2.4934c0.01328,-0.09518 0.06861,-0.14276 0.166,-0.14276c0.36521,-0.00221 0.69169,0.08189 0.97943,0.25232c0.0996,0.05755 0.20363,0.06862 0.31209,0.03321l1.12219,-0.35193c0.11289,-0.03321 0.22244,-0.02657 0.32869,0.01992c0.25011,0.10845 0.50244,0.09518 0.75699,-0.03985c0.07747,-0.03985 0.1162,-0.01549 0.1162,0.07304l0.26561,19.49563" fill="none" stroke="#f9db73" stroke-width="2"/><path d="M318.8015,298.1399c-0.03763,-0.50466 -0.05865,-1.00267 -0.06308,-1.49405c-0.07083,-13.63897 -0.02767,-27.27239 0.12948,-40.9003" fill="none" stroke="#fdf3ac" stroke-width="2"/><path d="M318.86794,255.74556c0.21913,-5.41177 0.30324,-10.83348 0.25233,-16.26516c-0.01328,-1.50733 0.21249,-3.14082 0.22908,-4.73115" fill="none" stroke="#fbea9d" stroke-width="2"/><path d="M319.02733,227.18275l0.32205,7.5665" fill="none" stroke="#f7e293" stroke-width="2"/><path d="M319.02732,227.18275c-0.26119,-7.78231 -0.34197,-15.56131 -0.24237,-23.33697" fill="none" stroke="#f2d78a" stroke-width="2"/><path d="M301.61668,172.74973c4.62822,-0.23462 9.24316,-0.3143 13.84481,-0.23905c1.22843,0.01992 2.42034,0.34197 3.57574,0.96614c0.15397,0.08339 0.24582,0.249 0.23573,0.42498c-0.47477,7.39718 -0.16268,14.85412 -0.19257,22.2679c-0.01328,3.48832 -0.11177,6.04701 -0.29548,7.67607" fill="none" stroke="#f6de98" stroke-width="2"/><path d="M306.57845,172.63351c-4.29179,0.18813 -101.84001,0.26561 -106.24468,0.2324c-9.25644,-0.06861 -18.49516,-0.10071 -27.71618,-0.09628" fill="none" stroke="#fae69d" stroke-width="2"/><path d="M161.29939,201.17973c-0.04206,-7.20904 -0.01107,-12.12943 0.09296,-14.76116c0.18371,-4.69019 0.25565,-8.38325 0.21581,-11.07917c-0.01107,-0.7769 0.1162,-1.35903 0.3818,-1.74637c0.27446,-0.39841 0.63746,-0.70497 1.089,-0.91967c0.32537,-0.15494 0.77469,-0.23351 1.34796,-0.23572c2.73134,-0.01328 5.46156,0.09739 8.19068,0.33201" fill="none" stroke="#f7e293" stroke-width="2"/><path d="M161.31926,229.56657c-0.32316,-0.31208 -0.48694,-0.72268 -0.49137,-1.23176c-0.11731,-9.51319 -0.13612,-17.9396 -0.05644,-25.27923c0.00664,-0.64409 0.34529,-1.25832 0.5279,-1.87586" fill="none" stroke="#f2d78a" stroke-width="2"/><path d="M161.19642,234.49359l0.12284,-4.92702" fill="none" stroke="#f7e293" stroke-width="2"/><path d="M161.19641,234.4936c-0.03763,1.13547 -0.01771,2.27759 0.05976,3.42634c0.11289,1.63349 0.17043,2.77118 0.17265,3.41306c0.01992,4.73889 -0.0996,9.335 -0.35858,13.78837" fill="none" stroke="#fbea9d" stroke-width="2"/><path d="M160.71835,302.19372c0.10181,-4.0306 0.14608,-6.79292 0.1328,-8.28696c-0.10845,-12.46366 -0.11177,-24.92731 -0.00996,-37.39096c0.00222,-0.30324 0.07858,-0.76805 0.22909,-1.39444" fill="none" stroke="#fdf3ac" stroke-width="2"/><path d="M156.08019,279.6237l-0.01328,-1.99205c-0.00093,-0.04424 0.02128,-0.08566 0.05893,-0.10987c0.03765,-0.0242 0.08552,-0.02785 0.12699,-0.00966c0.02877,0.01328 0.05643,0.03209 0.083,0.05644c0.07968,0.07304 0.10735,0.03874 0.08301,-0.10292c-0.03321,-0.18371 0.05201,-0.29991 0.25565,-0.34861c0.16822,-0.03763 0.27445,0.00997 0.31873,0.14276c0.46039,0.08632 0.70939,-0.07083 0.74702,-0.47145c0.00664,-0.09518 0.05092,-0.17043 0.1328,-0.22577c0.37628,-0.25233 0.78797,-0.40284 1.23507,-0.45153c0.0841,-0.00885 0.15493,-0.04427 0.21248,-0.10625l0.85659,-0.92963c0.12395,-0.13502 0.19256,-0.11177 0.20584,0.06972c0.09296,1.36456 0.21913,2.71252 0.22245,4.10364c0.01771,7.64951 0.05533,15.29791 0.11288,22.9452" fill="none" stroke="#f9db73" stroke-width="2"/><path d="M155.28998,255.14462c0.31096,0.00181 0.5626,0.25346 0.56441,0.56441l0.22577,23.91467" fill="none" stroke="#fcec94" stroke-width="2"/><path d="M156.06022,226.68473l-0.02324,28.00835c-0.00182,0.22789 -0.1856,0.41169 -0.41169,0.41169" fill="none" stroke="#ebca6e" stroke-width="2"/><path d="M156.01375,203.17179l0.04648,23.51294" fill="none" stroke="#dbae4f" stroke-width="2"/><path d="M311.77487,167.01126c-1.28377,0.19257 -100.92634,0.59453 -102.26102,0.53919c-2.27095,-0.09739 -3.41528,-0.14608 -3.43299,-0.14608c-13.59027,-0.03985 -27.18054,-0.02213 -40.77081,0.05312c-0.10155,0.00069 -0.18736,-0.0751 -0.19921,-0.17596c-0.12285,-1.1222 0.65073,-2.0817 1.18527,-2.99141c0.03321,-0.05534 0.2313,-0.47921 0.5943,-1.2716c0.27557,-0.60094 0.78354,-1.09895 1.06907,-1.57372c0.60426,-0.98939 1.1222,-1.86258 1.62021,-2.99805c0.42497,-0.9739 0.90639,-1.92123 1.44424,-2.842c0.05534,-0.09518 0.13391,-0.16158 0.23573,-0.19921c0.55113,-0.20585 1.1067,-0.39177 1.66669,-0.55778c0.52678,-0.15494 1.10006,-0.23683 1.71982,-0.24568c5.18821,-0.07746 10.3753,-0.14608 15.56131,-0.20585c0.60205,-0.00664 1.10117,0.00332 1.49737,0.02988c2.26431,0.15273 107.83193,-1.1502 110.09956,-1.06388" fill="none" stroke="#f7e293" stroke-width="2"/><path d="M318.8015,298.1399c0.01549,15.3123 0.00774,30.63676 -0.02324,45.9734c-0.00332,1.587 0.0498,2.63948 -0.83002,4.02396" fill="none" stroke="#fbe79a" stroke-width="2"/><path d="M160.71835,302.19372l-0.0166,12.43709" fill="none" stroke="#fbe79a" stroke-width="2"/><path d="M156.48519,348.21363c-0.24126,-0.56885 -0.363,-1.10228 -0.36522,-1.60029c-0.04206,-7.9461 -0.01328,-18.34797 0.08633,-31.20561c0.01771,-2.09166 0.00442,-4.30727 -0.03985,-6.64684c-0.18592,-9.71682 -0.2147,-19.42922 -0.08632,-29.13719" fill="none" stroke="#f9e182" stroke-width="2"/><path d="M158.85911,352.01847c-1.20408,-1.01373 -1.99538,-2.28201 -2.37387,-3.80483" fill="none" stroke="#f8d770" stroke-width="2"/><path d="M323.03797,336.84228c0.03763,1.98764 0.02766,5.24464 -0.02989,9.77105c-0.02213,1.80834 -0.58101,3.34666 -1.67665,4.61494" fill="none" stroke="#f8d770" stroke-width="2"/><path d="M323.23054,314.98607l-0.19257,21.85621" fill="none" stroke="#f9e182" stroke-width="2"/><path d="M160.64866,327.44973l0.05311,-12.8189" fill="none" stroke="#fae18a" stroke-width="2"/><path d="M156.48519,348.21363c0.16379,-0.45153 0.2324,-1.17532 0.20585,-2.17135c-0.01771,-0.74592 -0.04648,-1.48741 -0.08632,-2.22447c-0.04427,-0.81896 -0.06308,-1.55712 -0.05644,-2.2145c0.02657,-2.24439 0.05312,-4.48878 0.07968,-6.73316c0.00442,-0.54228 0.07414,-1.83823 0.20917,-3.88783c0.11621,-1.71317 -0.13612,-3.49606 0.01328,-5.17604c0.16269,-1.8825 -0.0664,-3.69194 0.19257,-5.58772c0.13944,-1.03256 -0.02325,-2.45688 -0.15605,-4.0306c-0.22576,-2.66271 -0.02545,-5.2856 0.60094,-7.86863c0.09963,-0.41031 0.48027,-0.68842 0.89975,-0.65738l1.18527,0.08301c0.17043,0.01328 0.23019,-0.06198 0.17928,-0.22577l-0.04315,-0.13612c-0.01504,-0.04036 -0.00145,-0.08579 0.03329,-0.11127c0.03473,-0.02546 0.08214,-0.02477 0.11612,0.0017c0.08632,0.06198 0.16158,0.13169 0.22576,0.20917c0.05312,0.0664 0.08632,0.15604 0.0996,0.26893c0.10292,0.82671 0.32205,1.65341 0.33201,2.46352c0.07304,5.74156 0.11731,11.48643 0.1328,17.23463" fill="none" stroke="#f5c650" stroke-width="2"/><path d="M317.46356,348.63528c0.80568,0.4294 1.3712,0.27114 1.69657,-0.47477c0.14387,-0.33423 0.20031,-0.82338 0.16932,-1.46749c-0.11289,-2.33071 -0.20253,-4.66253 -0.26893,-6.99545c-0.03652,-1.21516 0.22576,-2.56975 0.22244,-3.87455c0,-0.03985 0.00886,-0.07414 0.02657,-0.10292c0.02877,-0.04648 0.04315,-0.04316 0.04315,0.00996l-0.00332,0.30877c-0.00227,0.03723 0.02159,0.07105 0.05743,0.08141c0.03584,0.01036 0.07405,-0.00553 0.09198,-0.03824l0.09629,-0.16601c0.05312,-0.08854 0.11399,-0.09296 0.1826,-0.01328l0.14941,0.17264c0.05976,0.07083 0.11178,0.0653 0.15605,-0.0166c0.32537,-0.63081 0.77359,-1.15761 1.34464,-1.58036c0.09075,-0.0664 0.19145,-0.10735 0.30212,-0.12285c0.36964,-0.05312 0.63967,-0.23684 0.8101,-0.55113c0.06198,-0.11509 0.10071,-0.10735 0.11621,0.02324l0.38181,3.01465" fill="none" stroke="#f5c650" stroke-width="2"/><path d="M317.46353,348.63528l0.48473,-0.49802" fill="none" stroke="#fae18a" stroke-width="2"/><path d="M317.46356,348.63528c-0.6286,0.33423 -1.43982,0.50133 -2.43364,0.50133c-77.71466,0.04648 -128.03739,0.04759 -150.96821,0.00332c-2.23332,-0.00443 -3.34777,-1.14875 -3.34334,-3.43298c0.00886,-6.09349 -0.01438,-12.17923 -0.06972,-18.25722" fill="none" stroke="#f8d878" stroke-width="2"/><path d="M321.33142,351.22829c-0.97832,1.00931 -2.0972,1.74194 -3.35662,2.1979c-0.84109,0.30545 -2.09498,0.45818 -3.76167,0.45818c-20.66872,0.00885 -41.33634,0.0487 -62.00284,0.11953c-0.44046,0.00221 -0.88315,0.00664 -1.32804,0.01328c-8.31574,0.12838 -16.63037,0.10071 -24.9439,-0.083c-2.42588,-0.05312 -4.63817,-0.07747 -6.63688,-0.07304c-18.35351,0.04206 -36.70812,0.03652 -55.06384,-0.0166c-0.93406,-0.00443 -1.75079,-0.1328 -2.45023,-0.38513c-1.04252,-0.37849 -2.01862,-0.85879 -2.92833,-1.44092" fill="none" stroke="#f9dd7c" stroke-width="2"/><path d="M323.09108,202.12596v25.75069l0.05976,7.00209l-0.04647,2.20786l-0.05644,17.60649c-0.00008,0.10604 0.04304,0.20783 0.11953,0.28221c0.17043,0.16158 0.39288,0.24126 0.66734,0.23905c-0.41391,1.54053 -0.56663,3.09544 -0.45817,4.66474c0.11067,1.60693 0.16379,2.60518 0.15936,2.99473c-0.11953,7.88191 0.08964,13.99754 -0.04316,19.53878c-0.02877,1.15539 -0.04316,1.73641 -0.04316,1.74305c0.02434,9.72568 0.00886,19.45025 -0.04647,29.1737c-0.00443,0.75698 -0.06197,1.30923 -0.17264,1.65673l-0.26561,-19.49563c0,-0.08854 -0.03874,-0.11289 -0.11621,-0.07304c-0.25455,0.13502 -0.50687,0.1483 -0.75698,0.03984c-0.10625,-0.04648 -0.2158,-0.05312 -0.32869,-0.01992l-1.12219,0.35193c-0.10845,0.03542 -0.21249,0.02434 -0.31209,-0.03321c-0.28774,-0.17043 -0.61422,-0.25454 -0.97942,-0.25233c-0.09739,0 -0.15273,0.0476 -0.16601,0.14276l-0.38181,2.49339c-0.03763,-0.50466 -0.05865,-1.00266 -0.06308,-1.49404c-0.07083,-13.63897 -0.02767,-27.2724 0.12948,-40.9003c0.21913,-5.41177 0.30324,-10.83348 0.25233,-16.26516c-0.01328,-1.50733 0.21249,-3.14082 0.22908,-4.73114l-0.32205,-7.56651c-0.26119,-7.78231 -0.34197,-15.56131 -0.24236,-23.33697c0.18371,-1.62906 0.28221,-4.18774 0.29548,-7.67607c0.02988,-7.41378 -0.28221,-14.87073 0.19257,-22.26791c0.01009,-0.17597 -0.08176,-0.34158 -0.23573,-0.42497c-1.15539,-0.62418 -2.34731,-0.94623 -3.57574,-0.96615c-4.60165,-0.07525 -9.21659,0.00442 -13.84481,0.23905c-0.64853,0.03099 -2.1293,0.04648 -4.4423,0.04648c-25.75068,0.00886 -51.50137,0.00332 -77.25207,-0.0166c-1.43206,0 -2.84311,-0.15715 -4.23313,-0.47145c-0.25897,-0.05755 -0.59762,0.02435 -1.01595,0.24569c-0.46703,-0.27668 -0.89864,-0.25011 -1.29484,0.07968c-4.29179,0.18813 -8.64,0.26561 -13.04467,0.2324c-9.25644,-0.06861 -18.49516,-0.10071 -27.71619,-0.09628c-2.72912,-0.23462 -5.45935,-0.34529 -8.19068,-0.33201c-0.57327,0.00222 -1.02259,0.08078 -1.34796,0.23573c-0.45154,0.2147 -0.81453,0.52126 -1.08899,0.91967c-0.26561,0.38735 -0.39289,0.96946 -0.38181,1.74637c0.03985,2.69592 -0.03209,6.38898 -0.2158,11.07917c-0.10403,2.63173 -0.13502,7.55212 -0.09296,14.76116c-0.1826,0.61754 -0.52126,1.23175 -0.5279,1.87586c-0.07968,7.33963 -0.06087,15.76604 0.05644,25.27924c0.00442,0.50908 0.16822,0.91967 0.49138,1.23175l-0.12285,4.92702c-0.03763,1.13547 -0.0177,2.27759 0.05976,3.42634c0.11289,1.63349 0.17043,2.77118 0.17264,3.41306c0.01992,4.73889 -0.0996,9.335 -0.35857,13.78837c-0.15052,0.62639 -0.22688,1.09121 -0.22909,1.39444c-0.10181,12.46366 -0.09849,24.9273 0.00996,37.39096c0.01328,1.49405 -0.03099,4.25637 -0.1328,8.28697c-0.05755,-7.64729 -0.09518,-15.2957 -0.11288,-22.94521c-0.00332,-1.39112 -0.12948,-2.73908 -0.22245,-4.10364c-0.01328,-0.1815 -0.0819,-0.20474 -0.20585,-0.06972l-0.85658,0.92963c-0.05755,0.06198 -0.12838,0.09739 -0.21248,0.10625c-0.4471,0.0487 -0.8588,0.19921 -1.23508,0.45154c-0.0819,0.05534 -0.12616,0.1306 -0.1328,0.22577c-0.03763,0.40062 -0.28664,0.55777 -0.74702,0.47145c-0.04427,-0.1328 -0.15051,-0.18039 -0.31873,-0.14276c-0.20363,0.0487 -0.28886,0.1649 -0.25565,0.34861c0.02435,0.14166 -0.00332,0.17596 -0.083,0.10292c-0.02657,-0.02434 -0.05424,-0.04316 -0.08301,-0.05644c-0.04147,-0.01819 -0.08934,-0.01454 -0.12699,0.00966c-0.03765,0.0242 -0.05987,0.06562 -0.05894,0.10986l0.01328,1.99206l-0.22576,-23.91468c-0.00181,-0.31096 -0.25346,-0.5626 -0.56441,-0.56441l0.33533,-0.03985c0.22609,0 0.40987,-0.1838 0.41169,-0.41169l0.02324,-28.00835l-0.04648,-23.51294c-0.00222,-9.23651 0.00554,-18.47303 0.02324,-27.70954c0.00332,-1.87918 1.62022,-4.99344 2.63949,-6.74644c2.2477,-3.87124 4.346,-7.51669 6.59703,-11.6801c1.0403,-1.92566 1.90131,-3.34888 2.58303,-4.26965c1.24836,-1.68883 3.11094,-2.55094 5.58773,-2.58635c8.2759,-0.11289 16.54959,-0.15383 24.82106,-0.12284c0.79904,-0.17486 1.61025,4.55518 0.23905,4.50538c-2.26763,-0.08632 -4.53526,0.0166 -6.79957,-0.13612c-0.3962,-0.02657 -0.89532,-0.03653 -1.49737,-0.02989c-5.18599,0.05976 -10.3731,0.12838 -15.56131,0.20585c-0.61975,0.00886 -1.19302,0.09074 -1.71981,0.24569c-0.55999,0.16601 -1.11556,0.35193 -1.66669,0.55777c-0.10181,0.03763 -0.18039,0.10403 -0.23572,0.19921c-0.53786,0.92077 -1.01927,1.86811 -1.44425,2.84201c-0.49802,1.13547 -1.01595,2.00866 -1.62021,2.99804c-0.28553,0.47477 -0.79351,0.97278 -1.06907,1.57372c-0.363,0.79239 -0.56109,1.21626 -0.59429,1.2716c-0.53454,0.90971 -1.30812,1.86921 -1.18528,2.9914c0.01184,0.10086 0.09766,0.17666 0.19921,0.17597c13.59027,-0.07525 27.18054,-0.09296 40.77082,-0.05312c0.01771,0 1.16203,0.04869 3.43298,0.14608c1.33468,0.05534 2.6439,-0.01328 3.92767,-0.20585c0.32094,0.25897 0.8101,0.30988 1.46749,0.15273c1.62685,-0.05534 3.25701,-0.10513 4.8905,-0.14941c1.55381,-0.04427 3.18619,-0.05755 4.89715,-0.03985c20.91884,0.20363 35.09787,0.24347 42.53711,0.11953c9.96029,-0.16601 19.92059,-0.18151 29.88089,-0.04648c4.89603,0.06861 9.77548,0.12838 14.63832,0.17929c0.14581,0.00104 0.27925,-0.08178 0.34304,-0.2129c0.0638,-0.13112 0.04659,-0.28723 -0.04424,-0.40131c-2.6273,-3.24484 -5.18157,-6.58376 -7.66279,-10.01674c-0.58434,-0.8101 -0.76695,-2.16802 -2.12819,-2.2477c-1.57594,-0.09075 -5.20038,-0.12173 -10.87332,-0.09296c-10.06876,0.05091 -20.13861,0.05091 -30.20958,0c-1.08567,-0.00664 -2.33735,0.10624 -3.32342,0.09628c-6.8549,-0.0664 -13.70979,-0.16158 -20.56469,-0.28553c-3.22714,-0.05976 -9.36267,-0.00607 -9.36267,-0.00607c0,0 -1.18196,-0.26395 0.53121,-4.33661c24.40937,0.00886 48.78886,-0.00442 73.13846,-0.03984c2.48011,-0.00332 4.80419,2.40707 6.21191,4.28293c3.50824,4.67249 7.04857,9.32062 10.62099,13.94441c0.28996,0.37407 0.6939,0.73706 1.21184,1.08899c1.41658,0.95619 2.40707,2.2123 2.97149,3.76832c0.30324,0.83445 0.45153,2.09609 0.44489,3.78491c-0.02877,8.4087 -0.0177,16.82183 0.03321,25.23939z" fill="#fbe685" stroke="none" stroke-width="1"/><path d="M160.71835,302.19372l-0.0166,12.43709l-0.05311,12.8189c-0.01549,-5.7482 -0.05976,-11.49307 -0.1328,-17.23463c-0.00996,-0.8101 -0.22908,-1.63681 -0.33201,-2.46352c-0.01328,-0.11289 -0.04648,-0.20253 -0.0996,-0.26893c-0.06419,-0.07747 -0.13944,-0.1472 -0.22576,-0.20917c-0.03397,-0.02647 -0.08139,-0.02716 -0.11612,-0.00169c-0.03473,0.02546 -0.04833,0.0709 -0.03329,0.11126l0.04316,0.13612c0.05091,0.16379 -0.00885,0.23904 -0.17928,0.22576l-1.18528,-0.083c-0.41948,-0.03104 -0.80013,0.24707 -0.89974,0.65738c-0.62639,2.58303 -0.82671,5.20592 -0.60094,7.86863c0.1328,1.57373 0.29549,2.99804 0.15605,4.0306c-0.25897,1.89578 -0.02988,3.70523 -0.19257,5.58772c-0.14941,1.67997 0.10292,3.46287 -0.01328,5.17604c-0.13502,2.04961 -0.20474,3.34555 -0.20917,3.88783c-0.02657,2.24439 -0.05311,4.48878 -0.07968,6.73316c-0.00664,0.65738 0.01218,1.39555 0.05644,2.21451c0.03985,0.73706 0.06861,1.47855 0.08632,2.22446c0.02657,0.99603 -0.04206,1.71981 -0.20585,2.17134c-0.24126,-0.56885 -0.363,-1.10227 -0.36521,-1.60029c-0.04206,-7.9461 -0.01328,-18.34797 0.08632,-31.20561c0.01771,-2.09166 0.00443,-4.30728 -0.03984,-6.64684c-0.18592,-9.71683 -0.2147,-19.42922 -0.08632,-29.13719l-0.01328,-1.99205c-0.00093,-0.04424 0.02128,-0.08566 0.05893,-0.10987c0.03765,-0.0242 0.08552,-0.02785 0.12699,-0.00966c0.02877,0.01328 0.05643,0.0321 0.083,0.05644c0.07968,0.07304 0.10735,0.03873 0.08301,-0.10293c-0.03321,-0.18371 0.05201,-0.29991 0.25564,-0.34861c0.16822,-0.03763 0.27446,0.00996 0.31873,0.14276c0.46039,0.08632 0.70939,-0.07083 0.74702,-0.47145c0.00664,-0.09518 0.05091,-0.17043 0.1328,-0.22577c0.37628,-0.25233 0.78797,-0.40284 1.23507,-0.45153c0.0841,-0.00885 0.15494,-0.04427 0.21248,-0.10625l0.85659,-0.92963c0.12395,-0.13502 0.19257,-0.11178 0.20585,0.06972c0.09296,1.36456 0.21912,2.71253 0.22244,4.10365c0.01771,7.64951 0.05534,15.29791 0.11289,22.9452z" fill="#f6cf61" stroke="none" stroke-width="1"/><path d="M323.23057,314.98608l-0.19257,21.85621l-0.38181,-3.01465c-0.01549,-0.13059 -0.05423,-0.13833 -0.1162,-0.02324c-0.17043,0.3143 -0.44047,0.49802 -0.81011,0.55113c-0.11067,0.01549 -0.21137,0.05644 -0.30212,0.12285c-0.57106,0.42275 -1.01927,0.94955 -1.34464,1.58036c-0.04427,0.0819 -0.09628,0.08742 -0.15604,0.0166l-0.1494,-0.17264c-0.06862,-0.07968 -0.12948,-0.07526 -0.18261,0.01328l-0.09628,0.16601c-0.01794,0.03271 -0.05615,0.04859 -0.09199,0.03824c-0.03584,-0.01036 -0.05969,-0.04417 -0.05742,-0.08141l0.00332,-0.30877c0,-0.05312 -0.01439,-0.05644 -0.04316,-0.00996c-0.0177,0.02877 -0.02656,0.06308 -0.02656,0.10292c0.00332,1.3048 -0.25897,2.65939 -0.22244,3.87455c0.0664,2.33292 0.15605,4.66474 0.26893,6.99545c0.03099,0.64409 -0.02545,1.13326 -0.16933,1.46749c-0.32537,0.74592 -0.8909,0.90418 -1.69657,0.47477l0.48474,-0.49802c0.87983,-1.38448 0.82671,-2.43696 0.83002,-4.02396c0.03099,-15.33664 0.03873,-30.66111 0.02324,-45.97341l0.38181,-2.49339c0.01328,-0.09518 0.06861,-0.14276 0.166,-0.14276c0.36521,-0.00221 0.69169,0.0819 0.97943,0.25233c0.0996,0.05755 0.20363,0.06861 0.31208,0.0332l1.1222,-0.35193c0.11289,-0.03321 0.22244,-0.02656 0.32869,0.01993c0.25011,0.10845 0.50243,0.09518 0.75698,-0.03985c0.07747,-0.03985 0.1162,-0.01549 0.1162,0.07304z" fill="#f6cf61" stroke="none" stroke-width="1"/><path d="M160.6486,327.44972c0.05534,6.07799 0.07858,12.16374 0.06972,18.25722c-0.00442,2.28423 1.11002,3.42855 3.34334,3.43298c22.93081,0.04427 73.25356,0.04316 150.96821,-0.00332c0.99381,0 1.80503,-0.16711 2.43363,-0.50133c0.80568,0.4294 1.3712,0.27114 1.69657,-0.47477c0.14387,-0.33423 0.20031,-0.82338 0.16933,-1.46749c-0.11289,-2.33071 -0.20253,-4.66253 -0.26893,-6.99545c-0.03652,-1.21516 0.22577,-2.56975 0.22245,-3.87455c0,-0.03985 0.00885,-0.07414 0.02656,-0.10292c0.02877,-0.04648 0.04316,-0.04316 0.04316,0.00996l-0.00332,0.30877c-0.00227,0.03723 0.02158,0.07105 0.05742,0.08141c0.03584,0.01036 0.07405,-0.00553 0.09199,-0.03824l0.09629,-0.16601c0.05312,-0.08854 0.11399,-0.09296 0.1826,-0.01328l0.14941,0.17264c0.05976,0.07083 0.11177,0.0653 0.15604,-0.0166c0.32537,-0.63081 0.77358,-1.15761 1.34464,-1.58036c0.09075,-0.0664 0.19146,-0.10735 0.30213,-0.12285c0.36964,-0.05312 0.63967,-0.23684 0.8101,-0.55113c0.06198,-0.11509 0.10071,-0.10735 0.1162,0.02324l0.38181,3.01465c0.03763,1.98764 0.02767,5.24465 -0.02988,9.77105c-0.02213,1.80834 -0.58102,3.34666 -1.67665,4.61494c-0.97832,1.00931 -2.0972,1.74194 -3.35662,2.1979c-0.84109,0.30545 -2.09498,0.45818 -3.76167,0.45818c-20.66872,0.00885 -41.33634,0.0487 -62.00284,0.11953c-0.44046,0.00221 -0.88314,0.00664 -1.32804,0.01328c-8.31574,0.12838 -16.63037,0.10071 -24.9439,-0.08301c-2.42588,-0.05312 -4.63818,-0.07747 -6.63688,-0.07304c-18.3535,0.04206 -36.70812,0.03652 -55.06384,-0.0166c-0.93406,-0.00443 -1.75079,-0.1328 -2.45023,-0.38513c-1.04252,-0.37849 -2.01862,-0.8588 -2.92833,-1.44093c-1.20408,-1.01373 -1.99538,-2.28201 -2.37387,-3.80483c0.16379,-0.45153 0.2324,-1.17532 0.20585,-2.17135c-0.01771,-0.74592 -0.04647,-1.4874 -0.08632,-2.22446c-0.04427,-0.81896 -0.06308,-1.55713 -0.05644,-2.21451c0.02657,-2.24439 0.05311,-4.48877 0.07968,-6.73316c0.00442,-0.54228 0.07414,-1.83823 0.20917,-3.88784c0.11621,-1.71317 -0.13612,-3.49606 0.01328,-5.17603c0.16269,-1.8825 -0.0664,-3.69195 0.19257,-5.58772c0.13944,-1.03256 -0.02325,-2.45687 -0.15605,-4.0306c-0.22576,-2.66271 -0.02545,-5.2856 0.60094,-7.86864c0.09963,-0.41031 0.48027,-0.68842 0.89974,-0.65738l1.18528,0.083c0.17043,0.01328 0.23019,-0.06198 0.17928,-0.22577l-0.04316,-0.13612c-0.01504,-0.04036 -0.00144,-0.08578 0.03329,-0.11126c0.03473,-0.02546 0.08214,-0.02478 0.11612,0.00169c0.08632,0.06198 0.16158,0.1317 0.22576,0.20917c0.05312,0.0664 0.08632,0.15604 0.0996,0.26893c0.10292,0.82671 0.32205,1.65341 0.33201,2.46352c0.07304,5.74156 0.11731,11.48643 0.1328,17.23463z" fill="#f3bc3e" stroke="none" stroke-width="1"/><path d="M196.75178,154.43052v-4.38084h34.23776v4.38084z" fill="#fbe685" stroke="none" stroke-width="0"/><path d="M176.101,268.58146v-26.99418h126.54896v26.99418z" fill="#f3eec2" stroke="none" stroke-width="0"/></g></g></g></svg>