<svg version="1.1" xmlns="http://www.w3.org/2000/svg" xmlns:xlink="http://www.w3.org/1999/xlink" width="100" height="100" viewBox="0,0,100,100"><g transform="translate(-190,-130)"><g data-paper-data="{&quot;isPaintingLayer&quot;:true}" fill-rule="nonzero" stroke="none" stroke-linecap="butt" stroke-linejoin="miter" stroke-miterlimit="10" stroke-dasharray="" stroke-dashoffset="0" style="mix-blend-mode: normal"><path d="M190,180c0,-27.61424 22.38576,-50 50,-50c27.61424,0 50,22.38576 50,50c0,27.61424 -22.38576,50 -50,50c-27.61424,0 -50,-22.38576 -50,-50z" fill="none" stroke-width="0"/><path d="M240.93619,184.03933c-0.20851,0.60386 -0.64448,0.79612 -1.30791,0.57678c-0.78393,-0.2559 -0.63771,-1.0642 -0.65396,-1.72628c-0.04604,-1.72493 -0.04604,-3.46881 0,-5.23165c0.00263,-0.08544 -0.04123,-0.16562 -0.11461,-0.20948c-0.07338,-0.04386 -0.16476,-0.04453 -0.23877,-0.00174l-1.43383,0.81237c-0.19716,0.11069 -0.44605,0.06466 -0.59303,-0.10967c-0.25996,-0.3114 -0.20851,-0.62688 0.15435,-0.94641l2.72549,-1.76284c0.27846,-0.17877 0.63204,-0.19226 0.92331,-0.03522c0.29128,0.15704 0.47433,0.45983 0.47802,0.79073z" fill="#5486af" stroke-width="1"/></g></g></svg>