<svg version="1.1" xmlns="http://www.w3.org/2000/svg" xmlns:xlink="http://www.w3.org/1999/xlink" width="100" height="100" viewBox="0,0,100,100"><g transform="translate(-190,-130)"><g data-paper-data="{&quot;isPaintingLayer&quot;:true}" fill-rule="nonzero" stroke="none" stroke-linecap="butt" stroke-linejoin="miter" stroke-miterlimit="10" stroke-dasharray="" stroke-dashoffset="0" style="mix-blend-mode: normal"><path d="M190,180c0,-27.61424 22.38576,-50 50,-50c27.61424,0 50,22.38576 50,50c0,27.61424 -22.38576,50 -50,50c-27.61424,0 -50,-22.38576 -50,-50z" fill="none" stroke-width="0"/><path d="M243.46248,179.4102c0.15594,2.37224 -0.92149,5.01384 -3.59616,5.18081c-0.67576,0.04411 -2.95664,-0.16067 -2.78967,-1.22235c0.12917,-0.81122 1.194,-0.13232 1.60355,-0.04726c1.8603,0.3875 2.72193,-0.70884 2.98026,-2.38327c0.00945,-0.05671 -0.00998,-0.06931 -0.05828,-0.0378c-1.67758,1.10894 -4.30027,0.89628 -4.94768,-1.35467c-0.18692,-0.65003 -0.17485,-1.30636 0.03623,-1.96899c0.62063,-1.94221 2.87788,-2.58962 4.67044,-1.91386c1.52479,0.57652 2.09028,2.26828 2.10131,3.74738zM239.88804,180.44499c0.85099,0.03417 1.57839,-0.87251 1.62468,-2.02513c0.02223,-0.55351 -0.11879,-1.09088 -0.39204,-1.49388c-0.27325,-0.403 -0.65635,-0.63862 -1.06501,-0.65503c-0.85099,-0.03417 -1.57839,0.87251 -1.62468,2.02513c-0.02223,0.55351 0.11879,1.09088 0.39204,1.49388c0.27325,0.403 0.65635,0.63862 1.06501,0.65503z" fill="#5486af" stroke-width="1"/></g></g></svg>