<svg version="1.1" xmlns="http://www.w3.org/2000/svg" xmlns:xlink="http://www.w3.org/1999/xlink" width="100" height="100" viewBox="0,0,100,100"><g transform="translate(-190,-130)"><g data-paper-data="{&quot;isPaintingLayer&quot;:true}" fill-rule="nonzero" stroke="none" stroke-linecap="butt" stroke-linejoin="miter" stroke-miterlimit="10" stroke-dasharray="" stroke-dashoffset="0" style="mix-blend-mode: normal"><path d="M190,180c0,-27.61424 22.38576,-50 50,-50c27.61424,0 50,22.38576 50,50c0,27.61424 -22.38576,50 -50,50c-27.61424,0 -50,-22.38576 -50,-50z" fill="none" stroke-width="0"/><path d="M239.47469,175.34798l-2.00661,-0.17309c-0.38563,-0.03357 -0.71842,-0.284 -0.85746,-0.64525c-0.13904,-0.36127 -0.06005,-0.77018 0.20354,-1.05364c2.27587,-2.44896 7.26997,-2.57719 6.5776,2.231c-0.23079,1.61128 -0.59195,5.14797 -1.08344,10.61007c-0.21796,2.42975 -3.36573,2.39768 -3.8786,0.45517c-0.78854,-2.95542 0.98729,-7.84695 1.32066,-11.09088c0.02138,-0.20514 -0.07052,-0.31628 -0.27567,-0.33337z" fill="#fff1af" stroke-width="1"/></g></g></svg>