<svg version="1.1" xmlns="http://www.w3.org/2000/svg" xmlns:xlink="http://www.w3.org/1999/xlink" width="92.03659" height="66.75001" viewBox="0,0,92.03659,66.75001"><g transform="translate(-193.98178,-146.62501)"><g data-paper-data="{&quot;isPaintingLayer&quot;:true}" fill-rule="nonzero" stroke-linecap="butt" stroke-linejoin="miter" stroke-miterlimit="10" stroke-dasharray="" stroke-dashoffset="0" style="mix-blend-mode: normal"><path d="M194.98179,198.37623c0,-7.54658 0,-26.6505 0,-39.14704c0,-6.77238 4.14241,-11.60417 10.83601,-11.60417c24.02935,0 48.43685,0.75 64.60545,0.75c8.82474,0 14.59513,8.33035 14.59513,14.65366c0,7.28405 0,24.86805 0,36.95051c0,7.16534 -6.82819,12.39584 -17.15111,12.39584c-28.00176,0 -49.21808,-0.75 -62.11475,-0.75c-5.47948,0 -10.77072,-6.8092 -10.77072,-13.24879z" fill="#afdeb5" stroke="#426547" stroke-width="2"/><path d="" data-paper-data="{&quot;index&quot;:null}" fill="#fd96ff" stroke="none" stroke-width="2"/><text transform="translate(214.2384,206.48673) scale(0.22094,0.22094)" font-size="40" xml:space="preserve" fill="#426547" fill-rule="nonzero" stroke="#426547" stroke-width="0" stroke-linecap="butt" stroke-linejoin="miter" stroke-miterlimit="10" stroke-dasharray="" stroke-dashoffset="0" font-family="Sans Serif" font-weight="normal" text-anchor="start" style="mix-blend-mode: normal"><tspan x="0" dy="0">スイカゲーム</tspan></text><g stroke="none"><path d="M257.4074,180c0,9.61384 -7.79355,17.4074 -17.4074,17.4074c-9.61384,0 -17.4074,-7.79355 -17.4074,-17.4074c0,-9.61384 7.79355,-17.4074 17.4074,-17.4074c9.61384,0 17.4074,7.79355 17.4074,17.4074zM227.26212,169.89579c-2.35925,3.02193 -3.50243,6.45263 -3.42956,10.29209c-0.01594,0.87446 0.06831,1.83434 0.25277,2.8796c0.06148,0.35297 0.23456,0.54654 0.51922,0.5807c0.11614,0.01367 0.2209,0.05693 0.31426,0.12981c1.43012,1.09764 3.03445,1.69884 4.813,1.80359c0.7014,0.04099 1.31057,0.14233 1.82751,0.30401c2.42301,0.75377 4.89498,1.16027 7.41591,1.21948c0.64218,-0.24595 1.34701,-0.3211 2.11443,-0.22545c1.22061,0.15485 1.84003,0.23228 1.85825,0.23228c3.12669,0.06604 6.12583,-0.61372 8.99747,-2.03929c0.07988,-0.0401 0.17522,-0.03373 0.24903,0.01667c0.07381,0.05039 0.11448,0.13686 0.10622,0.22586c-0.05124,0.66269 -0.4065,1.20581 -0.65243,1.73527c-0.51466,1.10219 -1.12041,2.1486 -1.81725,3.13921c-0.05693,0.08198 -0.12639,0.1503 -0.20837,0.20495l-0.83689,0.56021c-0.02921,0.02024 -0.06297,0.03422 -0.09906,0.04099c-1.40052,0.29376 -2.56534,0.90522 -3.9761,0.95303c-4.52947,0.16055 -8.75835,0.52264 -12.4441,-1.48592c-2.20667,-1.2024 -4.06491,-2.13152 -5.95732,-3.42615c-0.37916,-0.25961 -0.731,-0.78907 -1.19898,-1.05551c-0.18674,-0.10475 -0.24025,-0.05693 -0.16055,0.14346c1.04071,2.62113 2.69173,4.72305 4.95305,6.30574c0.51011,0.35753 1.2616,0.71164 2.25449,1.06235c1.67037,0.59095 3.28609,1.63963 4.84715,1.94023c1.55765,0.3006 3.12782,0.30743 4.71052,0.02049c0.52605,-0.09565 1.18531,-0.41674 1.83092,-0.46456c0.05495,-0.00173 0.10437,0.03324 0.12103,0.08562c0.01667,0.05239 -0.00346,0.10947 -0.0493,0.13983l-0.18104,0.11272c-0.02113,0.0114 -0.03234,0.03527 -0.02763,0.05881c0.00471,0.02354 0.02424,0.04126 0.04813,0.04366l1.08967,0.14005c0.09212,0.01266 0.18504,-0.02042 0.24936,-0.08882c0.20723,-0.2209 0.46456,-0.30743 0.77199,-0.25961c0.09337,0.01367 0.18219,0.00342 0.26644,-0.03074c0.53743,-0.21861 1.07487,-0.43496 1.6123,-0.64902c0.55565,-0.2209 1.05323,-0.50442 1.49275,-0.85056c1.39824,-1.09992 2.29776,-1.85369 2.69855,-2.26133c2.23399,-2.26816 3.67778,-5.09993 4.33135,-8.49533l0.17422,-1.47567c0.27555,-2.14062 0.0501,-4.25507 -0.67635,-6.34331c-0.3507,-1.00655 -0.92799,-2.29093 -1.73186,-3.85313c-0.57615,-1.12496 -1.40393,-1.88785 -2.48336,-2.28865c-0.52605,-0.48505 -0.95873,-0.7606 -1.29804,-0.82665c-0.99517,-0.18901 -1.75236,0.20609 -2.27157,1.18531c-3.15401,-0.64446 -6.43896,-0.81412 -9.85486,-0.50897c-1.16824,0.10475 -2.26701,0.42471 -3.29634,0.95987c-1.30145,0.67635 -2.67806,0.72075 -3.9966,1.34244c-0.15713,-0.3006 -0.24139,-0.61599 -0.25277,-0.94621c-0.00455,-0.10931 0.02847,-0.20495 0.09906,-0.28694c0.71278,-0.81754 1.00769,-1.72617 0.88472,-2.72589c4.66383,-2.04726 9.4552,-2.51751 14.37408,-1.41077c1.45176,0.32793 2.23058,1.3117 3.77798,1.31854c0.06895,0.00139 0.1304,-0.04331 0.15029,-0.10935c0.01989,-0.06604 -0.00664,-0.13725 -0.0649,-0.17416c-7.62086,-5.13409 -16.34505,-3.66525 -22.24089,3.10505z" fill="#106f0d" stroke-width="1"/><path d="M231.26556,167.16648c-1.30943,0.51011 -2.48108,1.39824 -3.51495,2.6644c-0.21634,0.26417 -0.37916,0.28579 -0.48847,0.0649c5.89584,-6.7703 14.62003,-8.23914 22.24089,-3.10505c0.05826,0.03692 0.08479,0.10813 0.0649,0.17416c-0.01989,0.06604 -0.08134,0.11075 -0.15029,0.10935c-1.5474,-0.00683 -2.32622,-0.99061 -3.77798,-1.31854c-4.91889,-1.10675 -9.71025,-0.6365 -14.37408,1.41077z" fill="#4eb90f" stroke-width="1"/><path d="M231.26556,167.16648c0.12297,0.99972 -0.17193,1.90834 -0.88472,2.72589c-0.0706,0.08198 -0.10362,0.17762 -0.09906,0.28694c0.01139,0.3302 0.09565,0.6456 0.25277,0.94621c-2.33419,1.59636 -4.34388,3.54456 -6.02906,5.84459c-0.04664,0.06473 -0.0471,0.15244 -0.00113,0.2171c0.04596,0.06466 0.12784,0.0915 0.20267,0.06642l3.20069,-1.01452l-1.3322,3.0948l-2.74296,0.85397c-0.07287,-3.83946 1.07032,-7.27016 3.42956,-10.29209c0.10931,0.2209 0.27213,0.19926 0.48847,-0.0649c1.03388,-1.26616 2.20553,-2.15429 3.51495,-2.6644z" fill="#199d0d" stroke-width="1"/><path d="M251.25196,168.9735c0.92912,1.12041 1.49958,3.72333 -0.5807,4.05125c-1.55082,-0.48733 -2.54712,-1.7182 -2.98891,-3.69258c0.51922,-0.97922 1.27641,-1.37433 2.27157,-1.18531c0.33932,0.06604 0.77199,0.34159 1.29804,0.82665z" fill="#ffffff" stroke-width="1"/><path d="M247.68235,169.33216c0.44179,1.97439 1.43809,3.20525 2.98891,3.69258c-0.16169,0.19357 -0.11842,0.58525 0.12981,1.17507c0.08198,0.19812 0.10134,0.36094 0.05807,0.48847c-0.06831,0.20268 -0.20951,0.3211 -0.42357,0.35525c-2.74866,-1.46428 -5.67836,-1.98464 -8.78909,-1.56107c-0.73328,0.1002 -1.40279,0.12069 -2.00855,0.06148c-2.54142,-0.24936 -5.01454,0.37575 -8.85742,1.36978c-0.58298,0.1503 -1.54057,0.59209 -2.87277,1.32537l-3.20069,1.01452c-0.07482,0.02507 -0.15671,-0.00177 -0.20267,-0.06642c-0.04596,-0.06466 -0.0455,-0.15236 0.00113,-0.2171c1.68518,-2.30004 3.69486,-4.24823 6.02906,-5.84459c1.31854,-0.62169 2.69514,-0.6661 3.9966,-1.34244c1.02932,-0.53516 2.1281,-0.85511 3.29634,-0.95987c3.4159,-0.30515 6.70085,-0.1355 9.85486,0.50897z" fill="#4eb90f" stroke-width="1"/><path d="M251.25196,168.9735c1.07942,0.4008 1.90721,1.16369 2.48336,2.28865c0.80388,1.5622 1.38116,2.84658 1.73186,3.85313c0.72645,2.08825 0.9519,4.20269 0.67635,6.34331l-2.33989,-1.3971c-0.03893,-0.02299 -0.08656,-0.02577 -0.12791,-0.00748c-0.04134,0.0183 -0.07131,0.05543 -0.08047,0.0997l-0.92229,4.30061c-0.02607,0.11757 0.02141,0.23926 0.12021,0.30812c0.0988,0.06886 0.22939,0.07129 0.33068,0.00615l2.84544,-1.83434c-0.65357,3.3954 -2.09736,6.22717 -4.33135,8.49533c-0.4008,0.40763 -1.30031,1.1614 -2.69855,2.26133c-0.43951,0.34614 -0.93709,0.62966 -1.49275,0.85056c-0.53743,0.21406 -1.07487,0.4304 -1.6123,0.64902c-0.08425,0.03416 -0.17307,0.04441 -0.26644,0.03074c-0.30743,-0.04782 -0.56476,0.03871 -0.77199,0.25961c-0.06433,0.06838 -0.15725,0.10148 -0.24936,0.08882l-1.08967,-0.14005c-0.02389,-0.0024 -0.04342,-0.02012 -0.04813,-0.04366c-0.00471,-0.02354 0.0065,-0.04741 0.02763,-0.05881l0.18104,-0.11272c0.04584,-0.03035 0.06597,-0.08744 0.0493,-0.13983c-0.01667,-0.05239 -0.06608,-0.08735 -0.12103,-0.08562c-0.6456,0.04782 -1.30487,0.36891 -1.83092,0.46456c-1.5827,0.28694 -3.15287,0.2801 -4.71052,-0.02049c-1.56107,-0.3006 -3.17678,-1.34928 -4.84715,-1.94023c-0.99289,-0.3507 -1.74439,-0.70481 -2.25449,-1.06235c-2.26133,-1.5827 -3.91233,-3.68461 -4.95305,-6.30574c-0.0797,-0.2004 -0.02619,-0.24822 0.16055,-0.14346c0.46798,0.26644 0.81982,0.7959 1.19898,1.05551c1.8924,1.29463 3.75065,2.22375 5.95732,3.42615c3.68575,2.00855 7.91463,1.64646 12.4441,1.48592c1.41077,-0.04782 2.57559,-0.65927 3.9761,-0.95303c0.03609,-0.00678 0.06985,-0.02075 0.09906,-0.04099l0.83689,-0.56021c0.08198,-0.05466 0.15143,-0.12297 0.20837,-0.20495c0.69684,-0.99061 1.3026,-2.03701 1.81725,-3.13921c0.24595,-0.52946 0.60119,-1.07259 0.65243,-1.73527c0.00826,-0.089 -0.03241,-0.17547 -0.10622,-0.22586c-0.07381,-0.05039 -0.16916,-0.05677 -0.24903,-0.01667c-2.87163,1.42557 -5.87078,2.10533 -8.99747,2.03929c-0.01822,0 -0.63763,-0.07743 -1.85825,-0.23228c-0.76744,-0.09565 -1.47225,-0.02049 -2.11443,0.22545c1.12725,-1.04071 1.91404,-1.70111 2.36038,-1.98122c1.14774,-0.72189 2.08369,-1.64305 2.80787,-2.76346c0.44407,-0.68546 0.77086,-1.15572 0.98037,-1.41077c0.36436,-0.44862 0.72758,-0.89383 1.08967,-1.33562c1.39369,0.80388 2.41162,0.44748 3.05381,-1.06917l3.86337,1.0316c0.07945,0.02096 0.16414,0.00255 0.2277,-0.04952c0.06356,-0.05207 0.0983,-0.13147 0.09338,-0.2135l-0.15713,-2.73613c-0.00214,-0.05523 -0.02389,-0.1084 -0.06148,-0.1503l-0.36209,-0.42015c0.87446,-0.26189 1.16369,-0.76971 0.86764,-1.52349c-0.17038,-0.43545 -0.64249,-0.67151 -1.09309,-0.54654c-0.74239,0.20495 -0.97011,0.71164 -0.68318,1.52007c-0.52832,0.02732 -1.03729,-0.11044 -1.52691,-0.41332c0.21406,-0.03416 0.35525,-0.15258 0.42357,-0.35525c0.04327,-0.12753 0.02391,-0.29036 -0.05807,-0.48847c-0.24822,-0.58981 -0.29149,-0.9815 -0.12981,-1.17507c2.08028,-0.32793 1.50982,-2.93083 0.5807,-4.05125z" fill="#199d0d" stroke-width="1"/><path d="M250.43556,175.04354c0.48961,0.30288 0.99858,0.44065 1.52691,0.41332c0.25961,0.25961 0.56248,0.44293 0.90863,0.54996l0.36209,0.42015c0.0376,0.0419 0.05934,0.09507 0.06148,0.1503l0.15713,2.73613c0.00491,0.08202 -0.02982,0.16143 -0.09338,0.2135c-0.06356,0.05207 -0.14825,0.07049 -0.2277,0.04952l-3.86337,-1.0316c0.00228,-1.53715 -0.67976,-2.24538 -2.04612,-2.12469c-0.79021,0.0706 -1.33675,0.5158 -1.63963,1.33562c-2.81242,0.89725 -5.50756,0.95531 -8.08542,0.17422c-0.42357,-0.12981 -1.24339,-0.08085 -2.45945,0.14688c-0.90863,-0.79931 -2.74296,-2.36722 -3.70284,-2.33647c-0.19687,0.00753 -0.36758,0.13841 -0.42594,0.32659c-0.05837,0.18816 0.00829,0.39269 0.16634,0.51031l1.73186,1.27755c0.05036,0.0374 0.0792,0.09712 0.07715,0.15981c-0.00205,0.0627 -0.0347,0.12041 -0.0874,0.15445l-0.50897,0.34159c-0.00455,-0.03189 -0.00797,-0.06263 -0.01025,-0.09223c-0.00455,-0.0296 -0.02163,-0.04213 -0.05124,-0.03757l-5.64989,0.95303l1.3322,-3.0948c1.3322,-0.73328 2.28979,-1.17507 2.87277,-1.32537c3.84288,-0.99402 6.31599,-1.61913 8.85742,-1.36978c0.60575,0.05921 1.27526,0.03871 2.00855,-0.06148c3.11074,-0.42357 6.04044,0.09678 8.78909,1.56107z" fill="#106f0d" stroke-width="1"/><path d="M252.87109,176.00682c-0.34614,-0.10704 -0.64902,-0.29036 -0.90863,-0.54996c-0.28694,-0.80843 -0.05921,-1.31512 0.68318,-1.52007c0.4506,-0.12496 0.9227,0.11109 1.09309,0.54654c0.29604,0.75377 0.00683,1.2616 -0.86764,1.52349z" fill="#ffffff" stroke-width="1"/><path d="M235.03671,178.07686c-0.74694,0.87219 -1.7034,1.65329 -2.86935,2.34331c-0.15827,0.09407 -0.3483,0.1188 -0.52537,0.06839c-0.17708,-0.05041 -0.32558,-0.17152 -0.41058,-0.33484c-0.29036,-0.56362 0.67976,-1.32195 1.05551,-1.64305l0.50897,-0.34159c0.05269,-0.03404 0.08535,-0.09175 0.0874,-0.15445c0.00205,-0.0627 -0.02678,-0.12242 -0.07715,-0.15981l-1.73186,-1.27755c-0.15804,-0.11762 -0.22471,-0.32214 -0.16634,-0.51031c0.05837,-0.18816 0.22908,-0.31905 0.42594,-0.32659c0.95987,-0.03074 2.7942,1.53715 3.70284,2.33647z" fill="#062f05" stroke-width="1"/><path d="M249.26732,178.54483c-0.64218,1.51666 -1.66012,1.87305 -3.05381,1.06917c-0.48961,-0.44634 -0.70026,-1.06576 -0.63194,-1.85825c0.30288,-0.81982 0.84942,-1.26502 1.63963,-1.33562c1.36636,-0.12069 2.0484,0.58754 2.04612,2.12469z" fill="#062f05" stroke-width="1"/><path d="M245.58157,177.75576c-0.06831,0.79249 0.14233,1.4119 0.63194,1.85825c-0.36209,0.44179 -0.72531,0.887 -1.08967,1.33562c-0.20951,0.25505 -0.53629,0.72531 -0.98037,1.41077c-0.72417,1.12041 -1.66012,2.04157 -2.80787,2.76346c-0.44634,0.2801 -1.23314,0.94051 -2.36038,1.98122c-2.52093,-0.05921 -4.9929,-0.4657 -7.41591,-1.21948c-0.51694,-0.16169 -1.12611,-0.26302 -1.82751,-0.30401c-1.77854,-0.10475 -3.38287,-0.70595 -4.813,-1.80359c-0.09337,-0.07287 -0.19812,-0.11614 -0.31426,-0.12981c-0.28466,-0.03416 -0.45773,-0.22773 -0.51922,-0.5807c-0.18446,-1.04526 -0.26872,-2.00513 -0.25277,-2.8796l2.74296,-0.85397l5.64989,-0.95303c0.0296,-0.00455 0.04668,0.00797 0.05124,0.03757c0.00228,0.0296 0.0057,0.06035 0.01025,0.09223c-0.37575,0.3211 -1.34586,1.07942 -1.05551,1.64305c0.085,0.16332 0.23351,0.28443 0.41058,0.33484c0.17708,0.05041 0.3671,0.02567 0.52537,-0.06839c1.16596,-0.69001 2.12241,-1.47111 2.86935,-2.34331c1.21606,-0.22773 2.03587,-0.27669 2.45945,-0.14688c2.57786,0.7811 5.27301,0.72303 8.08542,-0.17422zM240.00683,181.13066l-1.08284,-1.30487c-0.0706,-0.08425 -0.15827,-0.14119 -0.26302,-0.1708c-0.32565,-0.08654 -0.5306,0.04782 -0.61486,0.40308c-0.02433,0.10432 -0.01475,0.21327 0.02732,0.31085c0.345,0.8164 1.31512,2.38088 2.27498,2.61999c0.13636,0.03465 0.28064,-0.02307 0.35867,-0.14346l1.51324,-2.38771c0.10266,-0.16313 0.10399,-0.36983 0.00342,-0.53288c-0.26872,-0.43951 -0.56704,-0.56248 -0.89496,-0.36891c-0.37233,0.21861 -0.7959,1.16824 -1.03843,1.55765c-0.08425,0.13663 -0.17877,0.14233 -0.28352,0.01708z" fill="#4eb90f" stroke-width="1"/><path d="M240.29035,181.11359c0.24253,-0.38941 0.6661,-1.33903 1.03843,-1.55765c0.32793,-0.19357 0.62625,-0.0706 0.89496,0.36891c0.10057,0.16305 0.09925,0.36975 -0.00342,0.53288l-1.51324,2.38771c-0.07802,0.1204 -0.2223,0.17811 -0.35867,0.14346c-0.95987,-0.23911 -1.92998,-1.80359 -2.27498,-2.61999c-0.04208,-0.09757 -0.05166,-0.20652 -0.02732,-0.31085c0.08425,-0.35525 0.28921,-0.48961 0.61486,-0.40308c0.10475,0.0296 0.19243,0.08654 0.26302,0.1708l1.08284,1.30487c0.10475,0.12525 0.19926,0.11956 0.28352,-0.01708z" fill="#062f05" stroke-width="1"/><path d="M256.14352,181.45859l-0.17422,1.47567l-2.84544,1.83434c-0.10129,0.06515 -0.23188,0.06272 -0.33068,-0.00615c-0.0988,-0.06886 -0.14628,-0.19054 -0.12021,-0.30812l0.92229,-4.30061c0.00916,-0.04428 0.03913,-0.08141 0.08047,-0.0997c0.04134,-0.0183 0.08897,-0.01552 0.12791,0.00748z" fill="#4eb90f" stroke-width="1"/><path d="M213.25474,180c0,-14.771 11.97426,-26.74526 26.74526,-26.74526c14.771,0 26.74526,11.97426 26.74526,26.74526c0,14.771 -11.97426,26.74526 -26.74526,26.74526c-14.771,0 -26.74526,-11.97426 -26.74526,-26.74526z" fill="none" stroke-width="0"/></g></g></g></svg>