<svg version="1.1" xmlns="http://www.w3.org/2000/svg" xmlns:xlink="http://www.w3.org/1999/xlink" width="199.32862" height="199.32862" viewBox="0,0,199.32862,199.32862"><g transform="translate(-140.33569,-80.3357)"><g data-paper-data="{&quot;isPaintingLayer&quot;:true}" fill-rule="nonzero" stroke="none" stroke-linecap="butt" stroke-linejoin="miter" stroke-miterlimit="10" stroke-dasharray="" stroke-dashoffset="0" style="mix-blend-mode: normal"><path d="M243.50877,155.01096c-0.52847,0.1103 -0.89839,0.63187 -1.10978,1.56472c-0.26884,1.19939 -0.77891,1.90248 -1.95762,2.08858c-0.23896,0.03677 -0.44804,-0.02987 -0.62727,-0.19989l-0.70998,-0.67551c0.11948,-0.4871 0.0942,-0.81107 -0.07582,-0.97192l0.88921,-1.90248c0.24815,-0.63876 0.58821,-1.18789 1.02017,-1.64743c1.99897,-2.12995 3.59816,-3.41893 6.43808,-1.01327c0.20891,0.1772 0.29447,0.46044 0.21863,0.72367c-0.07584,0.26323 -0.29901,0.45751 -0.57017,0.49639c-1.23155,0.18381 -2.40337,0.69619 -3.51544,1.53714z" fill="#c27c06" stroke-width="1"/><path d="M239.9175,154.91445l-0.88921,1.90248c-0.80649,-0.04135 -1.34414,-0.37222 -2.21266,-0.23436c-7.05846,1.15802 -13.68264,3.43272 -17.85982,9.06432c-5.02501,6.77583 -5.71431,15.58512 -2.7779,23.5052c0.90069,2.43094 2.28159,4.61372 4.1427,6.54836l2.83303,3.74291c0.14246,0.18841 0.33316,0.2941 0.57213,0.31708c1.52337,0.13096 1.59919,1.73015 3.32932,1.96451c0.23896,0.03216 0.42967,0.14475 0.57213,0.33776c0.44575,0.62037 1.04085,0.95353 1.78529,0.99948c0.2063,0.01297 0.39879,0.11296 0.53076,0.27571c0.66174,0.80649 1.01327,1.14423 2.09547,1.32346c2.3712,0.3929 4.58385,0.8961 6.89992,0.8961c9.29639,-0.0046 16.59839,-3.54071 21.90602,-10.60835c2.88817,-3.84631 4.07378,-8.71278 4.9354,-13.45517c0.30789,-1.69568 0.29871,-3.35919 -0.02758,-4.99054c-0.69849,-3.46949 -1.7807,-6.65637 -3.24662,-9.56062c-1.35562,-2.68828 -3.43272,-4.85729 -6.23128,-6.50701c-0.2022,-0.11948 -0.35843,-0.28031 -0.46873,-0.48251c-0.4963,-0.91447 -1.27521,-1.47052 -2.33673,-1.66812c-0.10794,-0.02257 -0.20615,-0.07527 -0.28261,-0.15165l-0.57213,-0.57213c-0.18381,-0.17922 -0.38141,-0.19989 -0.59279,-0.06203c-0.27113,0.17462 -0.46873,0.13556 -0.59279,-0.11719c-0.10484,-0.2067 -0.35175,-0.29705 -0.56523,-0.20678l-1.38549,0.58591c-2.48608,-0.73985 -4.50803,-1.0891 -6.06585,-1.04775c-0.30329,0.00919 -0.49399,0.15625 -0.57213,0.44115c-0.03216,0.12407 0.00689,0.22057 0.11719,0.2895l0.84094,0.52386c0.11915,0.07522 0.18784,0.20936 0.17922,0.35c-0.00862,0.14063 -0.09316,0.2654 -0.22059,0.32551c-1.24074,0.56523 -2.49069,0.62266 -3.7498,0.17233c-0.01837,-0.0046 -0.02758,0 -0.02758,0.01379c-0.01379,0.08732 -0.02758,0.17922 -0.04135,0.27571c-0.01053,0.08387 -0.05982,0.15794 -0.13376,0.20096c-0.07395,0.04302 -0.16436,0.05025 -0.24536,0.01961l-2.18509,-0.84094c-0.14475,-0.05499 -0.24263,-0.19114 -0.24864,-0.34586c-0.00601,-0.15472 0.08103,-0.29807 0.22106,-0.3641c0.59739,-0.2941 1.18331,-0.2895 1.75773,0.01379l0.70998,0.67551c0.17922,0.17002 0.3883,0.23666 0.62727,0.19989c1.17871,-0.18612 1.68878,-0.88921 1.95762,-2.08858c0.21139,-0.93285 0.58131,-1.45442 1.10978,-1.56472c14.85445,1.17181 24.22896,10.93922 23.905,25.47659c-0.59969,26.77249 -35.41633,36.38136 -50.22943,14.36505c-8.66452,-12.87615 -4.98365,-31.3012 10.01556,-37.48424c3.87387,-1.59459 8.11308,-2.41255 12.71761,-2.45392z" fill="#a50605" stroke-width="1"/><path d="M239.02831,156.81691c0.17002,0.16083 0.1953,0.48481 0.07582,0.97192c-0.57442,-0.30329 -1.16033,-0.30789 -1.75773,-0.01379c-0.14005,0.06605 -0.22708,0.2094 -0.22106,0.3641c0.00601,0.15472 0.10389,0.29089 0.24864,0.34586l2.18509,0.84094c0.08098,0.03064 0.17141,0.02341 0.24536,-0.01961c0.07395,-0.04302 0.12325,-0.11709 0.13376,-0.20096c0.01379,-0.09651 0.02758,-0.18841 0.04135,-0.27571c0,-0.01379 0.00919,-0.01837 0.02758,-0.01379c1.25913,0.45035 2.50906,0.3929 3.7498,-0.17233c0.12743,-0.06011 0.21197,-0.18488 0.22059,-0.32551c0.00862,-0.14063 -0.06009,-0.27478 -0.17922,-0.35l-0.84094,-0.52386c-0.1103,-0.06893 -0.14935,-0.16543 -0.11719,-0.2895c0.07812,-0.28492 0.26884,-0.43196 0.57213,-0.44115c1.55782,-0.04135 3.57978,0.30789 6.06585,1.04775c2.71584,1.03854 5.1445,3.18917 7.28592,6.45187c3.2535,4.95378 4.59764,10.04083 4.03241,15.26115c-0.93285,8.55654 -4.68036,14.64996 -11.24251,18.28028c-9.07811,5.01812 -20.71352,3.89455 -29.23329,-2.05412c-1.86111,-1.93464 -3.24202,-4.11744 -4.1427,-6.54836c-2.93642,-7.92008 -2.24712,-16.72935 2.7779,-23.5052c4.17718,-5.6316 10.80136,-7.90629 17.85982,-9.06432c0.86852,-0.13786 1.40618,0.19301 2.21266,0.23436zM233.16924,162.69666c-1.53714,-3.73601 -10.57389,0.24126 -9.85702,3.58437c0.24815,1.16263 1.06841,1.80827 2.46082,1.93693c0.23436,0.02298 0.45264,-0.02758 0.65484,-0.15165c1.62216,-1.01557 3.32932,-1.86342 5.12152,-2.54352c1.28211,-0.48941 2.17819,-1.46821 1.61985,-2.82614zM240.93079,163.0689c0,-1.06594 -0.8641,-1.93004 -1.93004,-1.93004c-1.06594,0 -1.93004,0.8641 -1.93004,1.93004c0,1.06594 0.8641,1.93004 1.93004,1.93004c1.06594,0 1.93004,-0.8641 1.93004,-1.93004zM231.2392,176.8687c0,-1.59509 -1.29309,-2.88817 -2.88817,-2.88817c-1.59509,0 -2.88817,1.29309 -2.88817,2.88817c0,1.59509 1.29309,2.88817 2.88817,2.88817c1.59509,0 2.88817,-1.29309 2.88817,-2.88817zM254.68925,176.89628c0,-1.61032 -1.30542,-2.91575 -2.91575,-2.91575c-1.61032,0 -2.91575,1.30542 -2.91575,2.91575c0,1.61032 1.30542,2.91575 2.91575,2.91575c1.61032,0 2.91575,-1.30542 2.91575,-2.91575zM241.41329,184.76811c4.5425,-0.14475 0.15854,-5.70742 -2.15751,-5.31452c-1.34414,0.22747 -2.47459,2.51595 -2.97089,3.63263c-0.14621,0.32469 -0.12664,0.70001 0.05253,1.00775c0.17917,0.30774 0.4959,0.51003 0.85047,0.54318c1.41078,0.13327 2.81925,0.17691 4.22542,0.13096z" fill="#f51515" stroke-width="1"/><path d="M220.32065,195.70045c8.51977,5.94868 20.15518,7.07224 29.23329,2.05412c6.56215,-3.63032 10.30966,-9.72375 11.24251,-18.28028c0.56523,-5.22032 -0.77891,-10.30737 -4.03241,-15.26115c-2.14143,-3.2627 -4.57008,-5.41332 -7.28592,-6.45187l1.38549,-0.58591c0.21348,-0.09025 0.46039,0.00008 0.56523,0.20678c0.12407,0.25274 0.32168,0.29181 0.59279,0.11719c0.21139,-0.13786 0.40898,-0.11719 0.59279,0.06203l0.57213,0.57213c0.07648,0.07637 0.17467,0.12907 0.28261,0.15165c1.06152,0.1976 1.84043,0.75364 2.33673,1.66812c0.1103,0.2022 0.26653,0.36303 0.46873,0.48251c2.79856,1.64973 4.87566,3.81873 6.23128,6.50701c1.46592,2.90426 2.54812,6.09113 3.24662,9.56062c0.32627,1.63135 0.33545,3.29487 0.02758,4.99054c-0.86163,4.74239 -2.04723,9.60887 -4.9354,13.45517c-5.30762,7.06764 -12.60963,10.60376 -21.90602,10.60835c-2.31605,0 -4.52871,-0.5032 -6.89992,-0.8961c-1.0822,-0.17922 -1.43375,-0.51697 -2.09547,-1.32346c-0.13198,-0.16277 -0.32446,-0.26276 -0.53076,-0.27571c-0.74444,-0.04595 -1.33954,-0.37911 -1.78529,-0.99948c-0.14246,-0.19301 -0.33316,-0.30558 -0.57213,-0.33776c-1.73015,-0.23436 -1.80597,-1.83355 -3.32932,-1.96451c-0.23896,-0.02298 -0.42967,-0.12867 -0.57213,-0.31708z" fill="#d10504" stroke-width="1"/><path d="M223.31221,166.28103c-0.71688,-3.34311 8.31988,-7.32038 9.85702,-3.58437c0.55834,1.35793 -0.33776,2.33673 -1.61985,2.82614c-1.79218,0.68011 -3.49936,1.52795 -5.12152,2.54352c-0.2022,0.12407 -0.42048,0.17462 -0.65484,0.15165c-1.39239,-0.12867 -2.21266,-0.77431 -2.46082,-1.93693z" fill="#ffb6af" stroke-width="1"/><path d="M237.07069,163.0689c0,-1.06594 0.8641,-1.93004 1.93004,-1.93004c1.06594,0 1.93004,0.8641 1.93004,1.93004c0,1.06594 -0.8641,1.93004 -1.93004,1.93004c-1.06594,0 -1.93004,-0.8641 -1.93004,-1.93004z" fill="#ffb6af" stroke-width="1"/><path d="M225.46284,176.8687c0,-1.59509 1.29309,-2.88817 2.88817,-2.88817c1.59509,0 2.88817,1.29309 2.88817,2.88817c0,1.59509 -1.29309,2.88817 -2.88817,2.88817c-1.59509,0 -2.88817,-1.29309 -2.88817,-2.88817z" fill="#a50605" stroke-width="1"/><path d="M248.85775,176.89628c0,-1.61032 1.30542,-2.91575 2.91575,-2.91575c1.61032,0 2.91575,1.30542 2.91575,2.91575c0,1.61032 -1.30542,2.91575 -2.91575,2.91575c-1.61032,0 -2.91575,-1.30542 -2.91575,-2.91575z" fill="#a50605" stroke-width="1"/><path d="M241.41329,184.76811c-1.40618,0.04595 -2.81464,0.00229 -4.22542,-0.13096c-0.35455,-0.03315 -0.67129,-0.23543 -0.85047,-0.54318c-0.17917,-0.30774 -0.19874,-0.68306 -0.05253,-1.00775c0.4963,-1.11667 1.62675,-3.40514 2.97089,-3.63263c2.31605,-0.3929 6.70001,5.16977 2.15751,5.31452zM238.75949,182.3211c0.25274,0.80878 0.85013,0.93285 1.79218,0.37222c0.22057,-0.13327 0.24815,-0.2964 0.08272,-0.48941l-0.53076,-0.62727c-0.24352,-0.27906 -0.6488,-0.3502 -0.97279,-0.17076c-0.32399,0.17944 -0.4787,0.56075 -0.37135,0.91519z" fill="#a50605" stroke-width="1"/><path d="M238.75949,182.3211c-0.10737,-0.35446 0.04736,-0.73577 0.37135,-0.91519c0.32399,-0.17944 0.72929,-0.1083 0.97279,0.17076l0.53076,0.62727c0.16543,0.19301 0.13786,0.35614 -0.08272,0.48941c-0.94205,0.56063 -1.53945,0.43656 -1.79218,-0.37222z" fill="#ffb6af" stroke-width="1"/><path d="M140.33569,180.00001c0,-55.04307 44.62123,-99.6643 99.66431,-99.6643c55.04307,0 99.66431,44.62123 99.66431,99.66431c0,55.04307 -44.62123,99.66431 -99.66431,99.66431c-55.04307,0 -99.66431,-44.62123 -99.66431,-99.66431z" fill="none" stroke-width="0"/></g></g></svg>