<svg version="1.1" xmlns="http://www.w3.org/2000/svg" xmlns:xlink="http://www.w3.org/1999/xlink" width="140.35739" height="142.84112" viewBox="0,0,140.35739,142.84112"><g transform="translate(-169.8213,-108.57944)"><g data-paper-data="{&quot;isPaintingLayer&quot;:true}" fill="#000000" fill-rule="nonzero" stroke="none" stroke-width="1" stroke-linecap="butt" stroke-linejoin="miter" stroke-miterlimit="10" stroke-dasharray="" stroke-dashoffset="0" style="mix-blend-mode: normal"><g><path d="M247.19358,212.73442v4.76137c-0.01968,18.72797 -15.19679,33.90508 -33.92477,33.92477h-9.52274c-18.72797,-0.01968 -33.90508,-15.19679 -33.92477,-33.92477v-74.99159c0.01968,-18.72797 15.19679,-33.90508 33.92477,-33.92477h9.52274c18.72797,0.01968 33.90508,15.19679 33.92477,33.92477v4.76137c0,4.93056 -3.99701,8.92757 -8.92757,8.92757c-4.93056,0 -8.92757,-3.99701 -8.92757,-8.92757v-4.76137c0,-8.87501 -7.19462,-16.06963 -16.06963,-16.06963h-9.52274c-8.87501,0 -16.06963,7.19462 -16.06963,16.06963v74.99159c0,8.87501 7.19462,16.06963 16.06963,16.06963h9.52274c8.87501,0 16.06963,-7.19462 16.06963,-16.06963v-4.76137c0,-4.93056 3.99701,-8.92757 8.92757,-8.92757c4.93056,0 8.92757,3.99701 8.92757,8.92757z"/><path d="M304.08005,194.73049l-27.29456,27.29456c-3.48755,3.48591 -9.14065,3.48457 -12.62656,-0.00298c-3.48591,-3.48755 -3.48457,-9.14065 0.00298,-12.62656l20.63459,-20.63459l-73.31321,0.16665v0c-4.93056,0 -8.92757,-3.99701 -8.92757,-8.92757c0,-4.93056 3.99701,-8.92757 8.92757,-8.92757l72.99776,-0.16665l-20.30129,-20.30129c-3.48755,-3.48591 -3.48888,-9.13901 -0.00298,-12.62656c3.48591,-3.48755 9.13901,-3.48888 12.62656,-0.00298l27.29456,27.29456c8.11468,8.14689 8.1067,21.32393 -0.01786,29.46098z"/></g></g></g></svg>