<svg version="1.1" xmlns="http://www.w3.org/2000/svg" xmlns:xlink="http://www.w3.org/1999/xlink" width="173" height="173" viewBox="0,0,173,173"><g transform="translate(-153.5,-93.5)"><g data-paper-data="{&quot;isPaintingLayer&quot;:true}" fill-rule="nonzero" stroke="none" stroke-linecap="butt" stroke-linejoin="miter" stroke-miterlimit="10" stroke-dasharray="" stroke-dashoffset="0" style="mix-blend-mode: normal"><path d="M153.5,266.5v-173h173v173z" fill="#ffffff" stroke-width="0"/><text transform="translate(163.66666,256.29439) scale(0.76724,0.76724)" font-size="40" xml:space="preserve" fill="#5bcb65" fill-rule="nonzero" stroke="none" stroke-width="1" stroke-linecap="butt" stroke-linejoin="miter" stroke-miterlimit="10" stroke-dasharray="" stroke-dashoffset="0" font-family="Sans Serif" font-weight="normal" text-anchor="start" style="mix-blend-mode: normal"><tspan x="0" dy="0">アカウント</tspan></text><g fill="#5bcb65" stroke-width="1"><path d="M296.5,134.85417v62.29166c-0.01585,14.54843 -11.80574,26.33832 -26.35417,26.35416h-62.29166c-14.54843,-0.01585 -26.33832,-11.80573 -26.35416,-26.35416v-62.29166c0.01585,-14.54843 11.80573,-26.33832 26.35416,-26.35416h62.29166c14.54843,0.01584 26.33832,11.80573 26.35417,26.35416zM282.125,134.85417c0,-6.61592 -5.36327,-11.97916 -11.97917,-11.97916h-62.29166c-6.61592,0 -11.97916,5.36326 -11.97916,11.97916v62.29166c0,6.61592 5.36326,11.97916 11.97916,11.97916h2.39584v-4.79166c0,-15.87819 12.87181,-28.75 28.75,-28.75c15.87819,0 28.75,12.87181 28.75,28.75v4.79166h2.39584c6.61591,0 11.97916,-5.36326 11.97916,-11.97916z"/><path d="M222.22916,149.22917c0,-9.26227 7.50856,-16.77084 16.77084,-16.77084c9.26227,0 16.77084,7.50856 16.77084,16.77084c0,9.26227 -7.50856,16.77084 -16.77084,16.77084c-9.26227,0 -16.77084,-7.50856 -16.77084,-16.77084z"/></g></g></g></svg>