<svg version="1.1" xmlns="http://www.w3.org/2000/svg" xmlns:xlink="http://www.w3.org/1999/xlink" width="548.04805" height="393.39339" viewBox="0,0,548.04805,393.39339"><g transform="translate(34.02401,16.69669)"><g data-paper-data="{&quot;isPaintingLayer&quot;:true}" fill-rule="nonzero" stroke-width="0" stroke-linecap="butt" stroke-linejoin="miter" stroke-miterlimit="10" stroke-dasharray="" stroke-dashoffset="0" style="mix-blend-mode: normal"><path d="M-34.02401,376.6967v-393.39339h548.04805v393.39339z" fill="#e6ebf2" stroke="#000000"/><path d="M14.7748,333.00001c0,-33.19307 0,-250.92637 0,-307.66667c0,-8.59996 4.31567,-13.5015 11.89189,-13.5015c49.61185,0 239.0394,0 272,0c9.54301,0 17.90991,5.86384 17.90991,13.16817c0,30.71226 0,242.09312 0,305.33333c0,11.26963 -5.63889,17.83483 -12.57658,17.83483c-28.29675,0 -217.68096,0 -273.66667,0c-9.83949,0 -15.55856,-6.86131 -15.55856,-15.16817z" fill="#ffffff" stroke="none"/><path d="M26.85002,64.83332c0,-8.98731 0,-24.3956 0,-29c0,-2.56405 1.79954,-5.33333 5.1,-5.33333c34.2888,0 230.57663,0 254,0c4.48374,0 7.9,3.58165 7.9,6.66667c0,4.60977 0,18.03409 0,26.66667c0,4.47803 -2.63423,7.66667 -6.23334,7.66667c-21.32183,0 -222.3513,0 -256,0c-3.08832,0 -4.76666,-2.71157 -4.76666,-6.66667z" fill="#a0a7b3" stroke="none"/></g></g></svg>