<svg version="1.1" xmlns="http://www.w3.org/2000/svg" xmlns:xlink="http://www.w3.org/1999/xlink" width="203.51667" height="52.26667" viewBox="0,0,203.51667,52.26667"><g transform="translate(-137.98333,-158.66669)"><g data-paper-data="{&quot;isPaintingLayer&quot;:true}" fill-rule="nonzero" stroke-linecap="butt" stroke-linejoin="miter" stroke-miterlimit="10" stroke-dasharray="" stroke-dashoffset="0" style="mix-blend-mode: normal"><path d="M137.98333,203.60003c0,-5.00404 0,-19.49283 0,-28.28572c0,-4.16184 4.2951,-7.04762 8.57143,-7.04762c36.15784,0 175.05391,0 190,0c2.56876,0 4.42857,2.41806 4.42857,4.76191c0,4.56609 0,20.8987 0,30.57143c0,4.33572 -3.07508,7.33334 -7,7.33334c-17.87957,0 -150.23568,0 -186.71428,0c-5.89462,0 -9.28572,-3.9746 -9.28572,-7.33334z" fill="#bfc4cc" stroke="none" stroke-width="0"/><path d="M138.41667,199.16669c0,-5.00404 0,-19.49283 0,-28.28572c0,-4.16184 4.2951,-7.04762 8.57143,-7.04762c36.15784,0 175.05391,0 190,0c2.56876,0 4.42857,2.41806 4.42857,4.76191c0,4.56609 0,20.8987 0,30.57143c0,4.33572 -3.07508,7.33334 -7,7.33334c-17.87957,0 -150.23568,0 -186.71428,0c-5.89462,0 -9.28572,-3.9746 -9.28572,-7.33334z" fill="#aa4646" stroke="none" stroke-width="0"/><path d="M138.5,194.00004c0,-5.00404 0,-19.49283 0,-28.28572c0,-4.16184 4.2951,-7.04762 8.57143,-7.04762c36.15784,0 175.05391,0 190,0c2.56876,0 4.42857,2.41806 4.42857,4.76191c0,4.56609 0,20.8987 0,30.57143c0,4.33572 -3.07508,7.33334 -7,7.33334c-17.87957,0 -150.23568,0 -186.71428,0c-5.89462,0 -9.28572,-3.9746 -9.28572,-7.33334z" fill="#de5a5a" stroke="none" stroke-width="0"/><text transform="translate(150.7,185.7688) scale(0.5,0.5)" font-size="40" xml:space="preserve" fill="#f0f6ff" fill-rule="nonzero" stroke="#f0f6ff" stroke-width="2" stroke-linecap="butt" stroke-linejoin="miter" stroke-miterlimit="10" stroke-dasharray="" stroke-dashoffset="0" font-family="Sans Serif" font-weight="normal" text-anchor="start" style="mix-blend-mode: normal"><tspan x="0" dy="0">サーバーをリセット</tspan></text></g></g></svg>