<svg version="1.1" xmlns="http://www.w3.org/2000/svg" xmlns:xlink="http://www.w3.org/1999/xlink" width="95" height="95" viewBox="0,0,95,95"><g transform="translate(-192.5,-132.5)"><g data-paper-data="{&quot;isPaintingLayer&quot;:true}" fill="#000000" fill-rule="nonzero" stroke="none" stroke-width="1" stroke-linecap="butt" stroke-linejoin="miter" stroke-miterlimit="10" stroke-dasharray="" stroke-dashoffset="0" style="mix-blend-mode: normal"><g><path d="M287.5,154.27083v51.45833c-0.01309,12.01827 -9.75256,21.75774 -21.77083,21.77083h-51.45833c-12.01827,-0.01309 -21.75774,-9.75256 -21.77083,-21.77083v-51.45833c0.01309,-12.01827 9.75256,-21.75774 21.77083,-21.77083h51.45833c12.01827,0.01309 21.75774,9.75256 21.77083,21.77083zM275.625,154.27083c0,-5.46532 -4.43052,-9.89583 -9.89583,-9.89583h-51.45833c-5.46532,0 -9.89583,4.43052 -9.89583,9.89583v51.45833c0,5.46532 4.43052,9.89583 9.89583,9.89583h1.97917v-3.95833c0,-13.11676 10.63324,-23.75 23.75,-23.75c13.11676,0 23.75,10.63324 23.75,23.75v3.95833h1.97917c5.46532,0 9.89583,-4.43052 9.89583,-9.89583z"/><path d="M226.14583,166.14583c0,-7.65144 6.20272,-13.85417 13.85417,-13.85417c7.65144,0 13.85417,6.20272 13.85417,13.85417c0,7.65144 -6.20272,13.85417 -13.85417,13.85417c-7.65144,0 -13.85417,-6.20272 -13.85417,-13.85417z"/></g></g></g></svg>