<svg version="1.1" xmlns="http://www.w3.org/2000/svg" xmlns:xlink="http://www.w3.org/1999/xlink" width="299" height="299" viewBox="0,0,299,299"><g transform="translate(-92.5,73.5)"><g data-paper-data="{&quot;isPaintingLayer&quot;:true}" fill-rule="nonzero" stroke="none" stroke-linecap="butt" stroke-linejoin="miter" stroke-miterlimit="10" stroke-dasharray="" stroke-dashoffset="0" style="mix-blend-mode: normal"><path d="M391.5,76c0,82.56657 -66.93343,149.5 -149.5,149.5c-82.56657,0 -149.5,-66.93343 -149.5,-149.5c0,-82.56657 66.93343,-149.5 149.5,-149.5c82.56657,0 149.5,66.93343 149.5,149.5z" fill="#4774b2" stroke-width="0"/><path d="M213.93333,95.70001c0,-5.69247 -4.6144,-10.3 -10.3,-10.3h-13.73333c-5.67873,0 -10.3,-4.62127 -10.3,-10.3v-13.73333c0,-5.69247 -4.6144,-10.3 -10.3,-10.3c-5.6856,0 -10.3,4.60753 -10.3,10.3v13.73333c0,17.0362 13.8638,30.9 30.9,30.9h13.73333c5.6856,0 10.3,-4.60753 10.3,-10.3zM292.9,106.00001h-13.73333c-5.6856,0 -10.3,-4.60753 -10.3,-10.3c0,-5.69247 4.6144,-10.3 10.3,-10.3h13.73333c5.67873,0 10.3,-4.62127 10.3,-10.3v-13.73333c0,-5.69247 4.6144,-10.3 10.3,-10.3c5.6856,0 10.3,4.60753 10.3,10.3v13.73333c0,17.0362 -13.8638,30.9 -30.9,30.9zM313.5,23.60001c-5.6856,0 -10.3,-4.60753 -10.3,-10.3v-13.73333c0,-5.67873 -4.62127,-10.3 -10.3,-10.3h-13.73333c-5.6856,0 -10.3,-4.60753 -10.3,-10.3c0,-5.69247 4.6144,-10.3 10.3,-10.3h13.73333c17.0362,0 30.9,13.8638 30.9,30.9v13.73333c0,5.69247 -4.6144,10.3 -10.3,10.3zM169.3,23.60001c-5.6856,0 -10.3,-4.60753 -10.3,-10.3v-13.73333c0,-17.0362 13.8638,-30.9 30.9,-30.9h13.73333c5.6856,0 10.3,4.60753 10.3,10.3c0,5.69247 -4.6144,10.3 -10.3,10.3h-13.73333c-5.67873,0 -10.3,4.62127 -10.3,10.3v13.73333c0,5.69247 -4.6144,10.3 -10.3,10.3zM207.06667,71.66667c-7.5808,0 -13.73333,-6.15253 -13.73333,-13.73333v-41.2c0,-7.5808 6.15253,-13.73333 13.73333,-13.73333c7.5808,0 13.73333,6.15253 13.73333,13.73333v41.2c0,7.5808 -6.15253,13.73333 -13.73333,13.73333zM268.86667,13.30001v48.06667c0,5.6856 -4.6144,10.3 -10.3,10.3c-5.6856,0 -10.3,-4.6144 -10.3,-10.3v-48.06667c0,-5.6856 4.6144,-10.3 10.3,-10.3c5.6856,0 10.3,4.6144 10.3,10.3zM289.46667,9.86667v54.93333c0,3.7904 -3.07627,6.86667 -6.86667,6.86667c-3.7904,0 -6.86667,-3.07627 -6.86667,-6.86667v-54.93333c0,-3.7904 3.07627,-6.86667 6.86667,-6.86667c3.7904,0 6.86667,3.07627 6.86667,6.86667zM241.4,9.86667v54.93333c0,3.7904 -3.07627,6.86667 -6.86667,6.86667c-3.7904,0 -6.86667,-3.07627 -6.86667,-6.86667v-54.93333c0,-3.7904 3.07627,-6.86667 6.86667,-6.86667c3.7904,0 6.86667,3.07627 6.86667,6.86667z" fill="#ffffff" stroke-width="1"/><text transform="translate(156,159) scale(1.06338,1.06338)" font-size="40" xml:space="preserve" fill="#ffffff" fill-rule="nonzero" stroke="none" stroke-width="1" stroke-linecap="butt" stroke-linejoin="miter" stroke-miterlimit="10" stroke-dasharray="" stroke-dashoffset="0" font-family="Sans Serif" font-weight="normal" text-anchor="start" style="mix-blend-mode: normal"><tspan x="0" dy="0">受け取る</tspan></text></g></g></svg>