<svg version="1.1" xmlns="http://www.w3.org/2000/svg" xmlns:xlink="http://www.w3.org/1999/xlink" width="64.80961" height="33.57044" viewBox="0,0,64.80961,33.57044"><g transform="translate(-207.59521,-163.21478)"><g data-paper-data="{&quot;isPaintingLayer&quot;:true}" fill-rule="nonzero" stroke="none" stroke-linecap="butt" stroke-linejoin="miter" stroke-miterlimit="10" stroke-dasharray="" stroke-dashoffset="0" style="mix-blend-mode: normal"><path d="M207.59521,191.37665c0,-7.31572 0,-19.88798 0,-23.68581c0,-2.14335 1.50952,-4.47606 4.05643,-4.47606c12.41814,0 49.49799,0 56.51025,0c2.23664,0 4.24293,2.11101 4.24293,4.10305c0,3.85607 0,17.51597 0,24.80483c0,2.80205 -2.0063,4.66256 -4.24293,4.66256c-6.81266,0 -42.00572,0 -55.39123,0c-3.21788,0 -5.17544,-2.19813 -5.17544,-5.40857z" fill="#cde4ff" stroke-width="0"/><path d="M235.15833,190.28854c0,-1.00344 -0.8134,-1.81563 -1.81563,-1.81563h-2.42083c-1.00101,0 -1.81562,-0.81461 -1.81562,-1.81563v-2.42083c0,-1.00344 -0.8134,-1.81563 -1.81563,-1.81563c-1.00222,0 -1.81563,0.81219 -1.81563,1.81563v2.42083c0,3.00304 2.44383,5.44688 5.44688,5.44688h2.42083c1.00223,0 1.81563,-0.81219 1.81563,-1.81562zM249.07813,192.10417h-2.42083c-1.00223,0 -1.81563,-0.81219 -1.81563,-1.81563c0,-1.00344 0.8134,-1.81563 1.81563,-1.81563h2.42083c1.00101,0 1.81563,-0.81461 1.81563,-1.81563v-2.42083c0,-1.00344 0.8134,-1.81563 1.81562,-1.81563c1.00223,0 1.81562,0.81219 1.81562,1.81563v2.42083c0,3.00304 -2.44383,5.44688 -5.44687,5.44688zM252.70938,177.57917c-1.00222,0 -1.81563,-0.81219 -1.81563,-1.81563v-2.42083c0,-1.00101 -0.81461,-1.81563 -1.81563,-1.81563h-2.42083c-1.00223,0 -1.81563,-0.81219 -1.81563,-1.81563c0,-1.00344 0.8134,-1.81563 1.81563,-1.81563h2.42083c3.00304,0 5.44687,2.44383 5.44687,5.44688v2.42083c0,1.00344 -0.8134,1.81563 -1.81562,1.81563zM227.29063,177.57917c-1.00222,0 -1.81563,-0.81219 -1.81563,-1.81563v-2.42083c0,-3.00304 2.44383,-5.44688 5.44687,-5.44688h2.42083c1.00223,0 1.81563,0.81219 1.81563,1.81563c0,1.00344 -0.8134,1.81563 -1.81563,1.81563h-2.42083c-1.00101,0 -1.81562,0.81461 -1.81562,1.81563v2.42083c0,1.00344 -0.8134,1.81562 -1.81562,1.81562zM233.94792,186.05208c-1.3363,0 -2.42083,-1.08453 -2.42083,-2.42083v-7.2625c0,-1.3363 1.08453,-2.42083 2.42083,-2.42083c1.3363,0 2.42083,1.08453 2.42083,2.42083v7.2625c0,1.3363 -1.08453,2.42083 -2.42083,2.42083zM244.84167,175.76354v8.47292c0,1.00222 -0.8134,1.81563 -1.81563,1.81563c-1.00223,0 -1.81563,-0.8134 -1.81563,-1.81563v-8.47292c0,-1.00223 0.8134,-1.81563 1.81563,-1.81563c1.00222,0 1.81563,0.8134 1.81563,1.81563zM248.47292,175.15833v9.68333c0,0.66815 -0.54227,1.21042 -1.21042,1.21042c-0.66815,0 -1.21042,-0.54227 -1.21042,-1.21042v-9.68333c0,-0.66815 0.54227,-1.21042 1.21042,-1.21042c0.66815,0 1.21042,0.54227 1.21042,1.21042zM240,175.15833v9.68333c0,0.66815 -0.54227,1.21042 -1.21042,1.21042c-0.66815,0 -1.21042,-0.54227 -1.21042,-1.21042v-9.68333c0,-0.66815 0.54227,-1.21042 1.21042,-1.21042c0.66815,0 1.21042,0.54227 1.21042,1.21042z" fill="#487ab3" stroke-width="1"/></g></g></svg>