<svg version="1.1" xmlns="http://www.w3.org/2000/svg" xmlns:xlink="http://www.w3.org/1999/xlink" width="173" height="173" viewBox="0,0,173,173"><g transform="translate(-153.5,-93.5)"><g data-paper-data="{&quot;isPaintingLayer&quot;:true}" fill-rule="nonzero" stroke="none" stroke-linecap="butt" stroke-linejoin="miter" stroke-miterlimit="10" stroke-dasharray="" stroke-dashoffset="0" style="mix-blend-mode: normal"><path d="M153.5,266.5v-173h173v173z" fill="#ffffff" stroke-width="0"/><path d="M304.47949,154.8658v52.74959c0,8.90276 -7.21711,16.11987 -16.11987,16.11987h-96.71923c-8.90276,0 -16.11987,-7.21711 -16.11987,-16.11987v-52.74959c-0.01219,-4.2775 1.68875,-8.38182 4.72312,-11.39675l40.75641,-40.76178c10.50238,-10.47165 27.49753,-10.47165 37.99991,0l40.75641,40.76178c3.03437,3.01493 4.73531,7.11925 4.72312,11.39675zM256.11987,191.85016c0,-8.90276 -7.21711,-16.11987 -16.11987,-16.11987c-8.90276,0 -16.11987,7.21711 -16.11987,16.11987v21.13852h32.23974zM293.73291,154.8658c-0.0092,-1.41844 -0.57449,-2.77667 -1.57438,-3.7828l-40.75641,-40.76178c-6.30582,-6.27641 -16.49842,-6.27641 -22.80425,0l-40.75641,40.74566c-1.00379,1.0101 -1.5694,2.37488 -1.57438,3.79892v52.74959c0,2.96759 2.40571,5.37329 5.37329,5.37329h21.49316v-21.13852c0,-14.83793 12.02852,-26.86645 26.86645,-26.86645c14.83793,0 26.86645,12.02852 26.86645,26.86645v21.13852h21.49316c2.96759,0 5.37329,-2.40571 5.37329,-5.37329z" fill="#5bcb65" stroke-width="1"/><text transform="translate(193.66667,256.2944) scale(0.76724,0.76724)" font-size="40" xml:space="preserve" fill="#5bcb65" fill-rule="nonzero" stroke="none" stroke-width="1" stroke-linecap="butt" stroke-linejoin="miter" stroke-miterlimit="10" stroke-dasharray="" stroke-dashoffset="0" font-family="Sans Serif" font-weight="normal" text-anchor="start" style="mix-blend-mode: normal"><tspan x="0" dy="0">ホーム</tspan></text></g></g></svg>