<svg version="1.1" xmlns="http://www.w3.org/2000/svg" xmlns:xlink="http://www.w3.org/1999/xlink" width="202" height="360" viewBox="0,0,202,360"><g transform="translate(-139,0)"><g data-paper-data="{&quot;isPaintingLayer&quot;:true}" fill-rule="nonzero" stroke-width="0" stroke-linecap="butt" stroke-linejoin="miter" stroke-miterlimit="10" stroke-dasharray="" stroke-dashoffset="0" style="mix-blend-mode: normal"><path d="M139,360v-360h202v360z" fill="#7ade85" stroke="none"/><path d="M148,260.14176c0,-31.52971 0,-161.81783 0,-180.36761c0,-4.30544 4.74392,-7.77414 10.23438,-7.77414c18.82961,0 126.68811,0 162.33333,0c7.18191,0 11.43229,3.76271 11.43229,8.36506c0,18.42529 0,139.68947 0,176.23125c0,6.57208 -4.34399,10.40369 -9.45938,10.40369c-18.71505,0 -131.96589,0 -165.2,0c-5.78601,0 -9.34062,-2.47464 -9.34062,-6.85824z" fill="#f0f6ff" stroke="none"/><path d="M268,72.66666c0,15.21851 -12.53603,27.55555 -28,27.55555c-15.46397,0 -28,-12.33704 -28,-27.55555c0,-15.21851 12.53603,-27.55555 28,-27.55555c15.46397,0 28,12.33704 28,27.55555z" fill="#f0f6ff" stroke="#182246"/></g></g></svg>