<svg version="1.1" xmlns="http://www.w3.org/2000/svg" xmlns:xlink="http://www.w3.org/1999/xlink" width="49.25" height="49.25" viewBox="0,0,49.25,49.25"><g transform="translate(-215.375,-155.375)"><g data-paper-data="{&quot;isPaintingLayer&quot;:true}" fill-rule="nonzero" stroke="none" stroke-linecap="butt" stroke-linejoin="miter" stroke-miterlimit="10" stroke-dasharray="" stroke-dashoffset="0" style="mix-blend-mode: normal"><path d="M215.375,204.625v-49.25h49.25v49.25z" fill="#f0f6ff" stroke-width="0"/><path d="M231.81306,171.36954l5.42155,-5.15719c0.57123,-0.58096 0.57881,-1.51026 0.01713,-2.10047c-0.56168,-0.5902 -1.49021,-0.62865 -2.09875,-0.08688l-5.4442,5.18288c-0.2937,0.29542 -0.69636,0.45645 -1.11278,0.44501c-0.41643,-0.01144 -0.80962,-0.19433 -1.08666,-0.50544l-2.39431,-2.136c-0.62321,-0.55563 -1.57885,-0.50086 -2.13448,0.12236c-0.55563,0.62321 -0.50086,1.57885 0.12235,2.13448l2.33237,2.07557c0.84833,0.85286 2.00258,1.33097 3.20551,1.32782c1.18832,0.00412 2.32953,-0.46433 3.17226,-1.30214zM257.34222,171.16107h-15.10602c-0.83428,0 -1.5106,-0.67632 -1.5106,-1.5106c0,-0.83428 0.67632,-1.51059 1.5106,-1.51059h15.10602c0.83428,0 1.5106,0.67631 1.5106,1.51059c0,0.83428 -0.67632,1.5106 -1.5106,1.5106zM231.81909,183.45435c-1.77391,1.74599 -4.62399,1.73453 -6.3838,-0.02569l-2.3943,-2.3943c-0.57247,-0.59273 -0.56429,-1.5349 0.01841,-2.11759c0.58269,-0.58269 1.52487,-0.59088 2.11759,-0.01841l2.40185,2.3943c0.59742,0.57126 1.53858,0.57126 2.136,0l5.43816,-5.18288c0.38677,-0.39336 0.95721,-0.54461 1.48806,-0.39455c0.53085,0.15006 0.9377,0.57756 1.06129,1.1152c0.12359,0.53763 -0.05571,1.09989 -0.46775,1.4667l-5.42155,5.1572zM257.34222,183.24589h-15.10602c-0.83428,0 -1.5106,-0.67631 -1.5106,-1.51059c0,-0.83428 0.67632,-1.5106 1.5106,-1.5106h15.10602c0.83428,0 1.5106,0.67632 1.5106,1.5106c0,0.83428 -0.67632,1.51059 -1.5106,1.51059zM231.81909,195.53917c-1.77391,1.74599 -4.62399,1.73453 -6.3838,-0.02567l-2.33237,-2.07557c-0.62321,-0.55563 -0.67799,-1.51127 -0.12235,-2.13448c0.55563,-0.62321 1.51126,-0.67799 2.13448,-0.12236l2.39431,2.136c0.27704,0.31111 0.67023,0.494 1.08666,0.50545c0.41643,0.01144 0.81908,-0.14959 1.11278,-0.44502l5.43816,-5.18288c0.38677,-0.39336 0.95721,-0.54461 1.48806,-0.39455c0.53085,0.15006 0.9377,0.57756 1.06129,1.1152c0.12359,0.53763 -0.05571,1.09989 -0.46775,1.46671l-5.41551,5.15719zM257.34222,195.33071h-15.10602c-0.83428,0 -1.5106,-0.67631 -1.5106,-1.51059c0,-0.83428 0.67632,-1.5106 1.5106,-1.5106h15.10602c0.83428,0 1.5106,0.67632 1.5106,1.5106c0,0.83428 -0.67632,1.51059 -1.5106,1.51059z" fill="#76d881" stroke-width="1"/><path d="M231.83623,171.41384c-0.84273,0.83781 -2.0228,1.30943 -3.21112,1.30531c-1.20293,0.00315 -2.38287,-0.49436 -3.2312,-1.34722l-2.34038,-2.09583c-0.62321,-0.55563 -0.67809,-1.52616 -0.12246,-2.14937c0.55563,-0.62322 1.60951,-0.65978 2.23272,-0.10415l2.39234,2.10721c0.27704,0.31111 0.65928,0.47678 1.07571,0.48822c0.41642,0.01144 0.80196,-0.16108 1.09566,-0.4565l5.4641,-5.16829c0.60854,-0.54177 1.54194,-0.49625 2.10362,0.09395c0.56168,0.59021 0.55885,1.53101 -0.01238,2.11197l-5.4466,5.2147z" data-paper-data="{&quot;noHover&quot;:false,&quot;origItem&quot;:[&quot;Path&quot;,{&quot;applyMatrix&quot;:true,&quot;segments&quot;:[[255.08806,327.12762],[[260.50961,321.97042],[0,0],[0.57123,-0.58096]],[[260.52674,319.86996],[0.56168,0.59021],[-0.56168,-0.5902]],[[258.42799,319.78308],[0.60854,-0.54177],[0,0]],[[252.98379,324.96596],[0,0],[-0.2937,0.29542]],[[251.87101,325.41097],[0.41642,0.01144],[-0.41643,-0.01144]],[[250.78435,324.90553],[0.27704,0.31111],[0,0]],[[248.39004,322.76953],[0,0],[-0.62321,-0.55563]],[[246.25556,322.89189],[0.55563,-0.62322],[-0.55563,0.62321]],[[246.37791,325.02637],[-0.62321,-0.55563],[0,0]],[[248.71028,327.10194],[0,0],[0.84833,0.85286]],[[251.91579,328.42976],[-1.20293,0.00315],[1.18832,0.00412]],[[255.08805,327.12762],[-0.84273,0.83781],[0,0]]],&quot;closed&quot;:true,&quot;fillColor&quot;:[0,0,0,1]}]}" fill="#76d881" stroke-width="0.5"/></g></g></svg>