<svg version="1.1" xmlns="http://www.w3.org/2000/svg" xmlns:xlink="http://www.w3.org/1999/xlink" width="100" height="100" viewBox="0,0,100,100"><g transform="translate(-190,-130)"><g data-paper-data="{&quot;isPaintingLayer&quot;:true}" fill-rule="nonzero" stroke="none" stroke-linecap="butt" stroke-linejoin="miter" stroke-miterlimit="10" stroke-dasharray="" stroke-dashoffset="0" style="mix-blend-mode: normal"><path d="M190,180c0,-27.61424 22.38576,-50 50,-50c27.61424,0 50,22.38576 50,50c0,27.61424 -22.38576,50 -50,50c-27.61424,0 -50,-22.38576 -50,-50z" fill="none" stroke-width="0"/><path d="M237.74961,185.02484c2.96001,-0.65412 8.7611,-1.80375 8.3977,2.27947c-0.03511,0.3918 -0.25469,0.74348 -0.59131,0.94702c-0.33663,0.20353 -0.75006,0.23463 -1.11333,0.08369l-2.43805,-1.00429c-0.15011,-0.06018 -0.31712,-0.06946 -0.47572,-0.02643c-2.14072,0.59465 -6.86485,2.27286 -7.63789,-1.20911c-0.66733,-3.00627 4.96198,-6.56752 6.97056,-8.4836c1.13644,-1.08358 1.83018,-2.37858 0.09911,-3.38949c-0.40328,-0.23556 -0.88543,-0.29612 -1.33543,-0.16774c-0.44998,0.12839 -0.829,0.43466 -1.04975,0.84828l-1.07697,2.01518c-0.11893,0.21583 -0.29292,0.3678 -0.52197,0.4559c-1.02632,0.37881 -1.90286,0.20482 -2.62966,-0.52197c-0.45375,-0.44621 -0.5438,-1.14474 -0.21804,-1.69143c1.70024,-2.86751 4.22418,-4.01716 7.57182,-3.44895c2.97323,0.50655 4.25281,2.36537 3.83876,5.57646c-0.29072,2.27286 -6.11823,5.74163 -8.00128,7.30753c-0.09133,0.07126 -0.12012,0.19681 -0.06895,0.30073c0.05116,0.10392 0.16823,0.15767 0.28038,0.12874z" fill="#fff1af" stroke-width="1"/></g></g></svg>