<svg version="1.1" xmlns="http://www.w3.org/2000/svg" xmlns:xlink="http://www.w3.org/1999/xlink" width="199.32862" height="199.32862" viewBox="0,0,199.32862,199.32862"><g transform="translate(-140.33569,-80.3357)"><g data-paper-data="{&quot;isPaintingLayer&quot;:true}" fill-rule="nonzero" stroke="none" stroke-linecap="butt" stroke-linejoin="miter" stroke-miterlimit="10" stroke-dasharray="" stroke-dashoffset="0" style="mix-blend-mode: normal"><path d="M140.33569,180.00001c0,-55.04307 44.62123,-99.6643 99.66431,-99.6643c55.04307,0 99.66431,44.62123 99.66431,99.66431c0,55.04307 -44.62123,99.66431 -99.66431,99.66431c-55.04307,0 -99.66431,-44.62123 -99.66431,-99.66431z" fill="none" stroke-width="0"/><path d="M223.4818,179.81989c0,-9.22565 7.47886,-16.70451 16.70451,-16.70451c9.22565,0 16.70451,7.47886 16.70451,16.70451c0,9.22565 -7.47886,16.70451 -16.70451,16.70451c-9.22565,0 -16.70451,-7.47886 -16.70451,-16.70451z" fill="#fc9907" stroke-width="0"/><path d="M252.90395,191.54634c-2.07176,2.24635 -4.56071,3.87306 -7.46684,4.88016c-0.40164,0.13698 -0.80976,0.25862 -1.22439,0.36495c-0.25027,0.06361 -0.51724,0.10215 -0.80093,0.11562c-1.59073,0.07568 -3.18263,0.10563 -4.77569,0.08985c-0.75985,-0.00697 -1.55243,-0.06129 -2.33039,-0.11074c-0.23494,-0.01486 -0.45781,-0.05339 -0.66861,-0.11562c-5.68318,-1.67292 -10.47976,-5.97362 -12.13667,-11.74456c-0.0339,-0.11793 -0.14417,-0.47824 -0.33082,-1.08092c-0.30575,-0.99037 -0.40813,-2.05876 -0.42276,-3.0965c-0.01347,-0.9328 0.0065,-1.86468 0.0599,-2.79563c0.02926,-0.50425 0.08126,-0.96484 0.15601,-1.3818c0.28741,-1.5977 0.78585,-3.10184 1.49532,-4.51242c1.85632,-3.69036 4.6624,-6.42399 8.41822,-8.20092c0.31481,-0.14904 0.67209,-0.14557 0.81556,-0.52235c0.12397,-0.32595 -0.18247,-1.05864 -0.31132,-1.37762c-0.05084,-0.12606 -0.06687,-0.26187 -0.10239,-0.39281c-0.0065,-0.02322 -0.00464,-0.04573 0.00557,-0.06756c0.1379,-0.3018 0.27951,-0.60129 0.42484,-0.89844c0.06778,-0.13883 0.15137,-0.2498 0.25073,-0.33291c0.72572,-0.60802 1.50159,-0.60662 2.40769,-0.51748c0.76542,0.07591 1.6158,0.12188 2.32273,-0.04596c0.09937,-0.02368 0.19896,-0.02438 0.29878,-0.00209c0.44853,0.10075 0.90146,0.16924 1.35882,0.20545c0.30598,0.0246 0.76263,0.02415 1.36995,-0.0014c1.20536,-0.04968 2.19852,-0.05897 2.9795,-0.02786c0.66164,0.02646 1.36786,0.19431 2.11866,0.50355c0.02043,0.00835 0.03692,0.02182 0.04945,0.0404c0.14835,0.22217 0.61708,0.97227 0.55021,1.21813c-0.19431,0.7111 -0.42276,1.45144 -0.3559,2.12911c0.00186,0.02275 0.01301,0.03923 0.03343,0.04945c0.8613,0.4397 1.59608,0.82671 2.20433,1.16101c0.88591,0.48683 1.74535,1.14081 2.31089,2.00862c0.01278,0.01963 0.03031,0.03547 0.05084,0.04596c0.91795,0.47499 1.46259,1.29752 2.07478,2.01628c0.28741,0.33709 0.51353,0.63333 0.67836,0.88869c1.33444,2.06504 2.41326,4.32995 2.73851,6.79335c0.04458,0.33988 0.07127,0.79003 0.0801,1.35045c0.01996,1.33489 0.02879,2.21756 0.02646,2.64797c-0.00906,1.94176 -0.38097,3.89396 -1.19514,5.65742c-0.21311,0.46176 -0.43181,0.98133 -0.64075,1.39155c-0.67604,1.32701 -1.51505,2.54954 -2.51704,3.66761zM234.45447,162.10033c0.19222,0.59989 0.25398,1.20188 0.18526,1.80595c-0.02275,0.20059 -0.08195,0.41974 -0.1776,0.65747c-1.73746,0.59896 -3.31589,1.493 -4.7353,2.6821c-1.00152,0.83947 -1.91505,1.80431 -2.7406,2.89452c-1.01639,1.34233 -1.77321,2.79865 -2.27049,4.36894c-0.30273,0.95556 -0.52932,1.89347 -0.67975,2.81373c-0.26048,1.59282 -0.26466,3.23301 -0.06547,4.84394c0.19965,1.6158 0.67836,3.1499 1.43612,4.60227c0.28695,0.88638 0.722,1.68964 1.30518,2.40978c0.41185,0.50843 0.82531,1.01592 1.24042,1.52248c0.83019,1.01337 1.72445,1.79341 2.81861,2.46968c0.66814,0.60918 1.35533,1.06257 2.06155,1.3602c0.80512,0.33941 1.78459,0.69368 2.93841,1.06281c0.49356,0.15787 0.94255,0.27325 1.34697,0.34614c4.11405,0.74314 8.35276,-0.09263 11.85808,-2.3269c0.38399,-0.24423 0.75637,-0.52026 1.11714,-0.8281c1.06606,-0.91052 2.02858,-1.92226 2.88757,-3.03521c1.36184,-1.76486 2.34779,-3.71241 2.9579,-5.84268c0.10725,-0.37424 0.18642,-0.77958 0.23749,-1.21604c0.24377,-2.06782 0.30644,-4.00469 -0.10725,-6.03838c-0.07986,-0.39374 -0.20012,-0.84203 -0.36077,-1.34488c-0.28184,-0.88405 -0.54905,-1.64344 -0.80164,-2.27815c-0.19293,-0.48405 -0.50563,-1.01684 -0.87406,-1.43473c-0.12768,-0.1444 -0.24214,-0.28439 -0.34336,-0.41998c-1.2049,-2.15766 -3.06933,-3.82153 -5.06612,-5.19915c-0.59896,-0.41231 -1.17773,-0.66373 -1.85261,-0.86083c-0.02275,-0.0065 -0.04109,-0.01927 -0.05502,-0.0383c-0.20523,-0.27998 -0.41416,-0.55856 -0.62682,-0.83576c-0.18247,-0.23749 -0.1971,-0.42624 -0.13303,-0.70204c0.09333,-0.39931 0.19757,-0.79607 0.31272,-1.19027c0.08961,-0.30691 0.03877,-0.63378 -0.15252,-0.98063c-0.00997,-0.01863 -0.02551,-0.03391 -0.04458,-0.04387c-0.88591,-0.46385 -1.89369,-0.35102 -2.84508,-0.29252c-0.32363,0.0195 -0.64887,0.02693 -0.97576,0.02229c-0.89752,-0.01301 -1.79758,0.00023 -2.70021,0.0397c-0.47917,-0.25282 -0.87337,-0.45688 -1.30449,-0.37331c-0.27766,0.05433 -0.55044,0.1841 -0.81835,0.38932l-0.81905,0.08776c-0.02507,0.00278 -0.0462,-0.00511 -0.06338,-0.02368l-0.10934,-0.117c-0.36425,-0.37749 -0.83645,-0.49031 -1.33025,-0.28973c-0.53582,0.21823 -0.75265,0.66257 -0.6505,1.33304z" fill="#c1710e" stroke-width="1"/><path d="M236.43523,161.05703l0.07382,0.12885c0.01207,0.02182 0.0123,0.04341 0.00069,0.06477c-0.13372,0.24446 -0.78074,1.67361 -1.17355,1.45701c-0.31062,-0.17086 -0.60454,-0.37331 -0.88174,-0.60732c-0.10215,-0.67047 0.11469,-1.11481 0.6505,-1.33304c0.4938,-0.20059 0.966,-0.08776 1.33025,0.28973z" fill="#fdb802" stroke-width="1"/><path d="M239.54984,161.09393c-0.14673,0.34685 -0.31272,0.68695 -0.49797,1.02032c-0.22008,0.39698 -0.58573,0.59408 -1.0454,0.49658c-0.2967,-0.06268 -0.74452,-0.26257 -0.89706,-0.54673c-0.16367,-0.30436 0.09054,-0.72224 0.31759,-0.95416c0.2679,-0.20523 0.54069,-0.335 0.81835,-0.38932c0.43112,-0.08358 0.82531,0.12049 1.30449,0.37331z" fill="#fdb802" stroke-width="1"/><path d="M253.68886,171.17533c-0.01161,0.11933 -0.09078,0.24306 -0.23749,0.37122c-0.12768,0.11097 -0.20825,0.20035 -0.24168,0.26814c-0.21382,0.43321 0.03343,0.94093 0.16018,1.37065c0.00697,0.02229 -0.00069,0.03738 -0.02298,0.04527c-0.50634,0.18038 -1.44935,0.38237 -1.31981,1.13663c0.02995,0.17342 0.08358,0.37957 0.16576,0.53558c0.01066,0.02039 0.02965,0.03534 0.05224,0.04109l1.11574,0.28207c0.02553,0.0065 0.04318,0.02182 0.05293,0.04596c0.21684,0.53629 0.37331,0.97343 0.46942,1.31145c0.12606,0.44156 0.11213,0.87268 -0.06407,1.32259c-0.48196,1.22857 -0.39281,2.57484 0.06825,3.79784c0.00814,0.02124 0.00356,0.04525 -0.01184,0.06199c-0.32873,0.36146 -0.71806,0.75009 -0.9862,1.15683c-0.01272,0.01952 -0.01927,0.04233 -0.0188,0.06547c0.02855,1.12201 -0.42136,2.13886 -0.94999,3.10207c-0.01858,0.0339 -0.03228,0.03204 -0.04109,-0.00557c-0.14278,-0.60732 -0.1985,-1.27523 -0.7898,-1.62138c-0.0195,-0.01161 -0.04016,-0.01532 -0.06199,-0.01114c-0.68115,0.12885 -1.35811,0.20267 -1.49254,0.94162c-0.14557,0.80093 0.55996,1.12131 1.24946,1.47164c0.12722,0.065 0.23192,0.19988 0.3141,0.40464c0.0079,0.01996 0.0079,0.03994 0,0.0599c-0.21939,0.56344 -0.58922,1.28569 -1.0663,1.62974c-0.40883,0.29321 -0.64493,0.46663 -0.93675,0.89357c-0.26744,0.39141 -0.966,1.49949 -1.52735,1.13246c-0.40117,-0.26187 -0.80952,-0.51376 -1.22508,-0.75566c-0.01989,-0.01178 -0.04307,-0.0169 -0.06616,-0.01463c-0.4736,0.04806 -1.01406,0.39698 -1.07187,0.91307c-0.04249,0.38027 0.39351,0.76124 0.41718,1.16938c0.02926,0.49589 -0.86432,0.79327 -1.19444,0.86711c-0.92306,0.20616 -1.52062,0.35033 -1.79272,0.4325c-0.45781,0.1379 -0.80048,0.41115 -1.02798,0.81975c-0.00606,0.01098 -0.01647,0.01889 -0.02866,0.02181c-0.01219,0.00291 -0.02506,0.00056 -0.03543,-0.00648c-0.23633,-0.16205 -0.4743,-0.32804 -0.71388,-0.49797c-0.07289,-0.05153 -0.13047,-0.07382 -0.17272,-0.06687c-1.40083,0.22983 -2.71484,0.30853 -3.94201,0.23611c-1.08603,-0.06361 -2.15023,-0.37191 -3.19261,-0.92492c-0.02053,-0.01114 -0.04461,-0.01366 -0.06687,-0.00697c-0.27163,0.08358 -0.53791,0.18154 -0.79885,0.29392c-0.1249,0.05433 -0.21219,0.07313 -0.26187,0.05641c-0.46942,-0.15415 -0.95068,-0.24051 -1.44378,-0.25909c-0.03018,-0.0014 -0.09007,-0.03204 -0.17969,-0.09193c-1.09416,-0.67627 -1.98842,-1.45631 -2.81861,-2.46968c-0.4151,-0.50656 -0.82857,-1.01406 -1.24042,-1.52248c-0.58318,-0.72014 -1.01824,-1.52342 -1.30518,-2.40978l0.06825,0.07244c0.01532,0.01672 0.03412,0.02205 0.05641,0.01602c0.53489,-0.14766 1.09345,-0.66164 1.44518,-1.07604c0.34336,-0.40464 0.80093,-0.9082 1.24042,-1.15475c0.24237,-0.13581 0.67696,-0.34057 0.95765,-0.26535c0.38654,0.10377 0.7682,0.72502 0.94302,1.07187c0.13024,0.25978 0.2765,0.45828 0.42972,0.68533c0.0126,0.01879 0.03638,0.02633 0.05711,0.01811c0.14997,-0.05665 0.30158,-0.13512 0.45479,-0.2354c0.25119,-0.16437 0.53234,-0.33175 0.84342,-0.50215c0.29461,-0.16089 0.72294,-0.16993 0.9263,-0.46176c0.23331,-0.33361 0.44992,-0.68463 0.93536,-0.55647c0.02033,0.00515 0.03294,0.02546 0.02855,0.04596l-0.15183,0.7299c-0.00557,0.02786 0.00557,0.0448 0.03343,0.05084c0.34545,0.07382 0.69252,0.08636 1.04122,0.03761c0.01583,-0.00234 0.02977,-0.01173 0.03788,-0.02552c0.00811,-0.01381 0.00956,-0.03053 0.0039,-0.04552c-0.0924,-0.24191 -0.16506,-0.49311 -0.21799,-0.75358c-0.0787,-0.38445 0.1574,-0.72782 0.44574,-0.95834c0.01811,-0.01439 0.03854,-0.01927 0.06129,-0.01463c0.1184,0.02368 0.21637,0.05455 0.29392,0.09263c0.43181,0.20987 0.8079,0.37981 1.12828,0.50981c0.14486,0.0585 0.28067,0.07313 0.42067,-0.02716c0.24097,-0.17226 0.48358,-0.35264 0.72782,-0.54115c0.02303,-0.01767 0.05347,-0.02248 0.08069,-0.01274c0.02723,0.00974 0.04749,0.03267 0.05372,0.0608l0.24097,1.05933c0.00625,0.02741 0.02754,0.04888 0.0549,0.0554c0.02735,0.0065 0.05603,-0.00309 0.07395,-0.02475c0.17621,-0.2166 0.43947,-0.71528 0.73408,-0.68602c0.40535,0.0404 0.81139,0.05526 1.21813,0.04458c1.56009,-0.0404 2.73156,-0.82044 2.8597,-2.45714c0.00112,-0.0187 0.01348,-0.03485 0.03124,-0.04082c0.01775,-0.00597 0.03736,-0.00056 0.04955,0.01366l0.59617,0.67975c0.00598,0.00712 0.01548,0.01023 0.0245,0.00801c0.00902,-0.00222 0.016,-0.00938 0.01799,-0.01845c0.1509,-0.62682 0.35845,-1.23576 0.62265,-1.82684c0.26117,-0.58434 0.4137,-1.05445 0.52095,-1.61233c0.08219,-0.42833 0.19779,-0.93815 0.45131,-1.2815c0.10354,-0.14022 0.16948,-0.23309 0.19779,-0.27858c0.04458,-0.07244 0.1263,-0.12073 0.24516,-0.14486c0.03204,0.81696 -0.17342,1.54267 0.39141,2.16323c0.66583,0.7306 1.52806,1.03635 2.39586,0.38445c0.85387,-0.64145 0.80581,-1.53223 0.82601,-2.49545c0.00047,-0.02368 -0.00975,-0.04156 -0.03064,-0.05363l-0.04387,-0.02507c0.02043,-0.0014 0.03807,-0.00697 0.05293,-0.01672c0.01114,-0.00697 0.02113,-0.02067 0.02995,-0.04109c0.05921,-0.13651 0.1755,-0.22008 0.22426,-0.34336c0.15183,-0.38375 -0.04179,-0.58991 -0.28346,-0.84411c-0.09426,-0.09937 -0.1755,-0.15439 -0.24377,-0.16506c-0.32734,-0.05153 -0.64145,-0.09959 -0.97505,-0.17621c-1.03774,-0.23773 -2.05389,-0.40302 -3.04844,-0.49589c-0.14997,-0.01392 -0.17459,-0.07684 -0.07382,-0.18875c0.37471,-0.4144 0.91307,-0.55369 1.38388,-0.81069c0.1184,-0.06477 0.2166,-0.15949 0.22426,-0.28904c0.01858,-0.31295 0.02229,-0.61846 0.01114,-0.91655c-0.00204,-0.05026 -0.04173,-0.09085 -0.09193,-0.09402c-0.77447,-0.05293 -1.34628,-0.4353 -1.72445,-1.12619c-0.26606,-0.48614 -0.41904,-1.01615 -0.45897,-1.59004c-0.04458,-0.6512 0.54186,-0.83994 0.94999,-1.19444c0.03347,-0.02891 0.0535,-0.07036 0.05535,-0.11455c0.00185,-0.04418 -0.01465,-0.08717 -0.0456,-0.11877l-1.13943,-1.16867c-0.02658,-0.02734 -0.06608,-0.03776 -0.10268,-0.02712c-0.03661,0.01064 -0.06435,0.04064 -0.07213,0.07796c-0.05339,0.25723 -0.10261,0.50215 -0.14766,0.73477c-0.06965,0.35706 -0.27209,0.50494 -0.60732,0.44365c-0.19641,-0.03621 -0.24168,-0.1379 -0.26257,-0.32176c-0.08404,-0.75358 -0.12258,-1.4988 -0.11562,-2.23566c0.00093,-0.12164 -0.05804,-0.1704 -0.1769,-0.14626l-1.67222,0.33919c-0.03167,0.00663 -0.06465,-0.00129 -0.08985,-0.02158c-0.27766,-0.22008 -0.49542,-0.48823 -0.65329,-0.80442c-0.00864,-0.01764 -0.02589,-0.02932 -0.04527,-0.03064c-0.67836,-0.04109 -1.29473,0.3169 -1.96891,0.25282c-0.11793,-0.01161 -0.26419,-0.05526 -0.43878,-0.13094c-1.03217,-0.44992 -2.11912,-0.73826 -3.26086,-0.86502c0.09565,-0.23773 0.15485,-0.45688 0.1776,-0.65747c0.06872,-0.60407 0.00697,-1.20605 -0.18526,-1.80595c0.2772,0.23402 0.5711,0.43645 0.88174,0.60732c0.39281,0.2166 1.03983,-1.21256 1.17355,-1.45701c0.01161,-0.02136 0.01137,-0.04295 -0.00069,-0.06477l-0.07382,-0.12885l0.10934,0.117c0.01718,0.01858 0.0383,0.02646 0.06338,0.02368l0.81905,-0.08776c-0.22705,0.23192 -0.48126,0.64981 -0.31759,0.95416c0.15252,0.28416 0.60036,0.48405 0.89706,0.54673c0.45967,0.09751 0.82531,-0.09959 1.0454,-0.49658c0.18526,-0.33337 0.35125,-0.67349 0.49797,-1.02032c0.90263,-0.03947 1.80269,-0.0527 2.70021,-0.0397c0.32687,0.00464 0.65213,-0.00278 0.97576,-0.02229c0.95138,-0.0585 1.95916,-0.17133 2.84508,0.29252c0.01907,0.00996 0.0346,0.02526 0.04458,0.04387c0.1913,0.34685 0.24214,0.67372 0.15252,0.98063c-0.11515,0.3942 -0.21939,0.79096 -0.31272,1.19027c-0.06407,0.2758 -0.04945,0.46454 0.13303,0.70204c0.21266,0.2772 0.4216,0.55578 0.62682,0.83576c0.01392,0.01903 0.03228,0.03181 0.05502,0.0383c0.67487,0.1971 1.25365,0.44853 1.85261,0.86083c1.99677,1.37762 3.86122,3.04149 5.06612,5.19915z" fill="#fdad02" stroke-width="1"/><path d="M234.46213,164.56374c1.14174,0.12675 2.2287,0.4151 3.26086,0.86502c0.17459,0.07568 0.32085,0.11933 0.43878,0.13094c0.67418,0.06407 1.29055,-0.29392 1.96891,-0.25282c0.01938,0.00132 0.03663,0.01301 0.04527,0.03064c0.15787,0.31619 0.37562,0.58434 0.65329,0.80442c0.0252,0.0203 0.05818,0.02822 0.08985,0.02158l1.67222,-0.33919c0.11886,-0.02415 0.17783,0.0246 0.1769,0.14626c-0.00697,0.73686 0.03157,1.48208 0.11562,2.23566c0.02089,0.18387 0.06616,0.28555 0.26257,0.32176c0.33524,0.06129 0.53767,-0.08659 0.60732,-0.44365c0.04504,-0.23262 0.09426,-0.47755 0.14766,-0.73477c0.00777,-0.03732 0.03552,-0.06732 0.07213,-0.07796c0.03661,-0.01064 0.07611,-0.00021 0.10268,0.02712l1.13943,1.16867c0.03094,0.0316 0.04745,0.07459 0.0456,0.11877c-0.00185,0.04418 -0.02188,0.08565 -0.05535,0.11455c-0.40813,0.35451 -0.99456,0.54324 -0.94999,1.19444c0.03994,0.5739 0.19293,1.10391 0.45897,1.59004c0.37818,0.6909 0.94999,1.07326 1.72445,1.12619c0.0502,0.00317 0.08989,0.04377 0.09193,0.09402c0.01114,0.29809 0.00743,0.60361 -0.01114,0.91655c-0.00766,0.12954 -0.10586,0.22426 -0.22426,0.28904c-0.47082,0.257 -1.00918,0.39629 -1.38388,0.81069c-0.10075,0.1119 -0.07615,0.17481 0.07382,0.18875c0.99456,0.09287 2.01071,0.25816 3.04844,0.49589c0.33361,0.07661 0.64772,0.12466 0.97505,0.17621c0.06825,0.01068 0.14951,0.0657 0.24377,0.16506c0.24168,0.25421 0.4353,0.46036 0.28346,0.84411c-0.04875,0.12328 -0.16506,0.20685 -0.22426,0.34336c-0.00882,0.02043 -0.0188,0.03412 -0.02995,0.04109c-0.01486,0.00975 -0.0325,0.01532 -0.05293,0.01672c-0.68115,-0.44713 -1.51621,-0.81556 -2.36451,-0.60036c-0.4476,0.11329 -0.83901,0.32223 -1.17424,0.62682c-0.11886,0.02415 -0.20059,0.07244 -0.24516,0.14486c-0.02833,0.04551 -0.09426,0.13836 -0.19779,0.27858c-0.25351,0.34336 -0.36913,0.85317 -0.45131,1.2815c-0.10725,0.55787 -0.25978,1.02798 -0.52095,1.61233c-0.26419,0.59107 -0.47175,1.20002 -0.62265,1.82684c-0.00199,0.00908 -0.00897,0.01623 -0.01799,0.01845c-0.00902,0.00222 -0.01852,-0.00088 -0.0245,-0.00801l-0.59617,-0.67975c-0.01219,-0.01422 -0.0318,-0.01963 -0.04955,-0.01366c-0.01775,0.00597 -0.03012,0.02212 -0.03124,0.04082c-0.12815,1.63671 -1.29961,2.41675 -2.8597,2.45714c-0.40674,0.01068 -0.81278,-0.00418 -1.21813,-0.04458c-0.29461,-0.02926 -0.55787,0.46942 -0.73408,0.68602c-0.01792,0.02166 -0.04661,0.03126 -0.07395,0.02475c-0.02735,-0.0065 -0.04863,-0.02798 -0.0549,-0.0554l-0.24097,-1.05933c-0.00623,-0.02814 -0.02649,-0.05107 -0.05372,-0.0608c-0.02723,-0.00974 -0.05767,-0.00493 -0.08069,0.01274c-0.24423,0.18851 -0.48683,0.3689 -0.72782,0.54115c-0.14,0.10029 -0.2758,0.08567 -0.42067,0.02716c-0.32038,-0.13001 -0.69647,-0.29994 -1.12828,-0.50981c-0.07754,-0.03807 -0.1755,-0.06895 -0.29392,-0.09263c-0.02275,-0.00464 -0.04318,0.00023 -0.06129,0.01463c-0.28834,0.23053 -0.52444,0.5739 -0.44574,0.95834c0.05293,0.26048 0.12559,0.51167 0.21799,0.75358c0.00564,0.01499 0.00421,0.03171 -0.0039,0.04552c-0.00811,0.01381 -0.02205,0.02318 -0.03788,0.02552c-0.34869,0.04875 -0.69577,0.03621 -1.04122,-0.03761c-0.02786,-0.00604 -0.03901,-0.02298 -0.03343,-0.05084l0.15183,-0.7299c0.00439,-0.02051 -0.00822,-0.04082 -0.02855,-0.04596c-0.48543,-0.12815 -0.70204,0.22287 -0.93536,0.55647c-0.20337,0.29182 -0.63169,0.30087 -0.9263,0.46176c-0.31109,0.1704 -0.59223,0.33779 -0.84342,0.50215c-0.15323,0.10029 -0.30482,0.17876 -0.45479,0.2354c-0.02073,0.00822 -0.04452,0.00068 -0.05711,-0.01811c-0.15323,-0.22705 -0.29948,-0.42555 -0.42972,-0.68533c-0.17481,-0.34685 -0.55647,-0.9681 -0.94302,-1.07187c-0.28067,-0.07522 -0.71528,0.12954 -0.95765,0.26535c-0.43947,0.24655 -0.89706,0.75009 -1.24042,1.15475c-0.35171,0.4144 -0.91029,0.92839 -1.44518,1.07604c-0.02229,0.00604 -0.04109,0.00069 -0.05641,-0.01602l-0.06825,-0.07244c-0.75776,-1.45237 -1.23647,-2.98646 -1.43612,-4.60227c-0.19919,-1.61094 -0.19501,-3.25111 0.06547,-4.84394c0.15044,-0.92026 0.37702,-1.85817 0.67975,-2.81373c0.49728,-1.57031 1.2541,-3.02662 2.27049,-4.36894c0.82555,-1.09021 1.73908,-2.05505 2.7406,-2.89452c1.41941,-1.18911 2.99784,-2.08314 4.7353,-2.6821zM231.27858,176.94139c-0.59548,0.82322 -0.58573,1.97728 0.3357,2.5623c0.21173,0.13512 0.43042,0.29392 0.64703,0.3559c0.75915,0.21939 1.57472,-0.28277 1.95778,-0.91516c0.37471,-0.61777 0.25769,-1.31354 -0.1783,-1.8742c-0.60105,-0.77517 -2.09707,-1.04749 -2.7622,-0.12885zM241.48393,182.58976c0.20407,-0.12258 0.28555,-0.64911 0.30087,-0.85457c0.08219,-1.07535 -0.23819,-2.18621 -0.55161,-3.20793c-0.00688,-0.02106 -0.02483,-0.03659 -0.04667,-0.0404c-0.78144,-0.12606 -2.42301,-0.36217 -3.03452,0.3552c-0.08312,0.09751 -0.14278,0.23913 -0.17899,0.42484c-0.23331,1.19096 -0.28207,2.25934 0.00626,3.412c0.01068,0.04272 0.03738,0.07011 0.0801,0.08219c0.95138,0.26419 1.919,0.28277 2.90289,0.05572c0.15323,-0.03528 0.32711,-0.11097 0.52166,-0.22705z" fill="#fdb802" stroke-width="1"/><path d="M253.68886,171.17533c0.10122,0.13558 0.21568,0.27556 0.34336,0.41998c0.36843,0.41789 0.68115,0.95068 0.87406,1.43473c0.25258,0.63471 0.5198,1.3941 0.80164,2.27815c0.16065,0.50285 0.28091,0.95114 0.36077,1.34488c0.4137,2.03369 0.35102,3.97057 0.10725,6.03838c-0.05108,0.43645 -0.13024,0.8418 -0.23749,1.21604c-0.61011,2.13027 -1.59608,4.07782 -2.9579,5.84268c-0.85898,1.11296 -1.8215,2.12469 -2.88757,3.03521c-0.36077,0.30784 -0.73315,0.58387 -1.11714,0.8281c-3.50533,2.23428 -7.74404,3.07004 -11.85808,2.3269c-0.40442,-0.07289 -0.85341,-0.18828 -1.34697,-0.34614c-1.15382,-0.36913 -2.13328,-0.7234 -2.93841,-1.06281c-0.70622,-0.29763 -1.39341,-0.75102 -2.06155,-1.3602c0.08961,0.0599 0.14951,0.09054 0.17969,0.09193c0.49311,0.01858 0.97436,0.10494 1.44378,0.25909c0.04968,0.01672 0.13698,-0.00209 0.26187,-0.05641c0.26095,-0.11236 0.52723,-0.21033 0.79885,-0.29392c0.02225,-0.00669 0.04632,-0.00419 0.06687,0.00697c1.04239,0.55299 2.10658,0.8613 3.19261,0.92492c1.22717,0.07244 2.54119,-0.00626 3.94201,-0.23611c0.04225,-0.00697 0.09983,0.01532 0.17272,0.06687c0.23959,0.16993 0.47755,0.33593 0.71388,0.49797c0.01037,0.00705 0.02323,0.0094 0.03543,0.00648c0.01219,-0.00291 0.0226,-0.01083 0.02866,-0.02181c0.22752,-0.40859 0.57017,-0.68184 1.02798,-0.81975c0.27209,-0.08219 0.86966,-0.22636 1.79272,-0.4325c0.33013,-0.07382 1.2237,-0.37122 1.19444,-0.86711c-0.02368,-0.40813 -0.45967,-0.7891 -0.41718,-1.16938c0.05781,-0.51609 0.59827,-0.86502 1.07187,-0.91307c0.02309,-0.00227 0.04627,0.00285 0.06616,0.01463c0.41556,0.24191 0.82393,0.4938 1.22508,0.75566c0.56135,0.36703 1.25991,-0.74105 1.52735,-1.13246c0.29182,-0.42693 0.52792,-0.60036 0.93675,-0.89357c0.47708,-0.34405 0.84691,-1.0663 1.0663,-1.62974c0.0079,-0.01996 0.0079,-0.03994 0,-0.0599c-0.08219,-0.20476 -0.18689,-0.33965 -0.3141,-0.40464c-0.6895,-0.35033 -1.39503,-0.6707 -1.24946,-1.47164c0.13442,-0.73895 0.81139,-0.81278 1.49254,-0.94162c0.02182,-0.00418 0.04249,-0.00047 0.06199,0.01114c0.5913,0.34614 0.64703,1.01406 0.7898,1.62138c0.00882,0.03761 0.02252,0.03947 0.04109,0.00557c0.52861,-0.96322 0.97854,-1.98006 0.94999,-3.10207c-0.00047,-0.02314 0.00609,-0.04595 0.0188,-0.06547c0.26814,-0.40674 0.65747,-0.79537 0.9862,-1.15683c0.01539,-0.01674 0.01999,-0.04075 0.01184,-0.06199c-0.46107,-1.223 -0.55021,-2.56927 -0.06825,-3.79784c0.17621,-0.44992 0.19013,-0.88103 0.06407,-1.32259c-0.09611,-0.33802 -0.25258,-0.77517 -0.46942,-1.31145c-0.00975,-0.02415 -0.0274,-0.03947 -0.05293,-0.04596l-1.11574,-0.28207c-0.02259,-0.00575 -0.04158,-0.02069 -0.05224,-0.04109c-0.08219,-0.15601 -0.13581,-0.36217 -0.16576,-0.53558c-0.12954,-0.75428 0.81347,-0.95625 1.31981,-1.13663c0.02229,-0.0079 0.02995,-0.02298 0.02298,-0.04527c-0.12675,-0.42972 -0.374,-0.93745 -0.16018,-1.37065c0.03343,-0.06778 0.11398,-0.15717 0.24168,-0.26814c0.14673,-0.12815 0.22589,-0.25189 0.23749,-0.37122z" fill="#fc9907" stroke-width="1"/><path d="M249.22937,176.99293l0.04387,0.02507c0.02089,0.01207 0.03111,0.02995 0.03064,0.05363c-0.0202,0.96322 0.02786,1.854 -0.82601,2.49545c-0.8678,0.65189 -1.73003,0.34614 -2.39586,-0.38445c-0.56484,-0.62055 -0.35937,-1.34628 -0.39141,-2.16323c0.33524,-0.30459 0.72665,-0.51353 1.17424,-0.62682c0.8483,-0.21521 1.68336,0.15323 2.36451,0.60036zM246.57722,177.74651c-0.07313,0.20198 -0.19013,0.43112 -0.07382,0.63866c0.30296,0.54115 0.84621,0.81627 1.44935,0.54673c0.13929,-0.06221 0.24423,-0.16182 0.31481,-0.29878c0.2556,-0.49519 0.08705,-1.00849 -0.22287,-1.44099c-0.01259,-0.01756 -0.03082,-0.03014 -0.05153,-0.03552c-0.58156,-0.14626 -1.19166,-0.03273 -1.41592,0.58991z" fill="#b36e06" stroke-width="1"/><path d="M231.27858,176.94139c0.66513,-0.91864 2.16115,-0.64632 2.7622,0.12885c0.43599,0.56066 0.55299,1.25643 0.1783,1.8742c-0.38306,0.6324 -1.19862,1.13455 -1.95778,0.91516c-0.2166,-0.06199 -0.4353,-0.22079 -0.64703,-0.3559c-0.92143,-0.58504 -0.93118,-1.73908 -0.3357,-2.5623zM232.94315,177.1963c-1.00779,-0.44156 -1.97519,1.07535 -0.82671,1.68058c0.32502,0.17133 0.65352,0.17899 0.98551,0.02298c0.77935,-0.36634 0.50912,-1.41104 -0.1588,-1.70356z" fill="#b36e06" stroke-width="1"/><path d="M246.50338,178.38517c-0.11631,-0.20755 0.00069,-0.43669 0.07382,-0.63866c0.22426,-0.62265 0.83437,-0.73617 1.41592,-0.58991c0.02071,0.00538 0.03895,0.01796 0.05153,0.03552c0.30993,0.4325 0.47848,0.94581 0.22287,1.44099c-0.07058,0.13698 -0.1755,0.23657 -0.31481,0.29878c-0.60314,0.26954 -1.14638,-0.00557 -1.44935,-0.54673z" fill="#fff6dc" stroke-width="1"/><path d="M232.11643,178.87688c-1.14848,-0.60523 -0.18108,-2.12214 0.82671,-1.68058c0.66792,0.29252 0.93815,1.33722 0.1588,1.70356c-0.33198,0.15601 -0.66048,0.14835 -0.98551,-0.02298z" fill="#fff6dc" stroke-width="1"/><path d="M241.78481,181.73519c-0.01532,0.20545 -0.09681,0.73199 -0.30087,0.85457c-0.19455,0.11607 -0.36843,0.19176 -0.52166,0.22705c-0.98388,0.22705 -1.9515,0.20847 -2.90289,-0.05572c-0.04272,-0.01207 -0.06942,-0.03947 -0.0801,-0.08219c-0.28834,-1.15266 -0.23959,-2.22104 -0.00626,-3.412c0.03621,-0.18573 0.09588,-0.32734 0.17899,-0.42484c0.6115,-0.71736 2.25308,-0.48126 3.03452,-0.3552c0.02182,0.00379 0.03978,0.01934 0.04667,0.0404c0.31341,1.02172 0.63378,2.13259 0.55161,3.20793zM238.66114,181.66484c0.34685,0.53907 1.42637,0.40952 1.89788,0.10795c0.25421,-0.16298 0.24863,-0.75009 0.22148,-1.01337c-0.0404,-0.39049 -0.08265,-0.78701 -0.12675,-1.18956c-0.00216,-0.02216 -0.01796,-0.04072 -0.0397,-0.04667c-0.63935,-0.17086 -1.26966,-0.14115 -1.89091,0.08914c-0.02043,0.0079 -0.03088,0.02275 -0.03134,0.04458l-0.03901,1.97728c-0.00047,0.01083 0.00246,0.02155 0.00835,0.03064z" fill="#b36e06" stroke-width="1"/><path d="M240.55903,181.77279c-0.47151,0.30158 -1.55104,0.43112 -1.89788,-0.10795c-0.00589,-0.0091 -0.00882,-0.01981 -0.00835,-0.03064l0.03901,-1.97728c0.00047,-0.02182 0.01091,-0.03668 0.03134,-0.04458c0.62125,-0.2303 1.25155,-0.26002 1.89091,-0.08914c0.02174,0.00593 0.03754,0.02451 0.0397,0.04667c0.04411,0.40255 0.08636,0.79908 0.12675,1.18956c0.02716,0.26326 0.03273,0.85039 -0.22148,1.01337z" fill="#fff6dc" stroke-width="1"/><path d="M252.90395,191.54634c0.00511,0.02182 0.00255,0.03714 -0.00766,0.04596c-0.00278,0.00233 -0.00488,0.00418 -0.00626,0.00557c-0.27998,0.34963 -0.60871,0.62822 -0.91029,0.94441c-0.14626,0.15252 -0.25909,0.28695 -0.44156,0.41718c-0.10865,0.07801 -0.21033,0.16437 -0.30505,0.25909c-0.11886,0.1184 -0.21799,0.20662 -0.29739,0.26466c-0.27255,0.19872 -0.54487,0.39698 -0.81696,0.59479c-0.90958,0.66118 -1.8208,1.20628 -2.73364,1.63531c-0.2758,0.12954 -0.62752,0.26977 -1.05515,0.42067c-0.00511,0.00186 -0.13418,0.05246 -0.38723,0.15183c-0.16391,0.06454 -0.33244,0.11143 -0.50563,0.14069c2.90613,-1.00709 5.39508,-2.63381 7.46684,-4.88016z" fill="#fff6dc" stroke-width="1"/></g></g></svg>