<svg version="1.1" xmlns="http://www.w3.org/2000/svg" xmlns:xlink="http://www.w3.org/1999/xlink" width="100" height="100" viewBox="0,0,100,100"><defs><linearGradient x1="240.00001" y1="171.84995" x2="240.00001" y2="188.15004" gradientUnits="userSpaceOnUse" id="color-1"><stop offset="0" stop-color="#ffffdc"/><stop offset="1" stop-color="#ffc64c"/></linearGradient></defs><g transform="translate(-190,-130)"><g data-paper-data="{&quot;isPaintingLayer&quot;:true}" fill-rule="nonzero" stroke-linecap="butt" stroke-linejoin="miter" stroke-miterlimit="10" stroke-dasharray="" stroke-dashoffset="0" style="mix-blend-mode: normal"><path d="M190,180c0,-27.61424 22.38576,-50 50,-50c27.61424,0 50,22.38576 50,50c0,27.61424 -22.38576,50 -50,50c-27.61424,0 -50,-22.38576 -50,-50z" fill="none" stroke="none" stroke-width="0"/><path d="M244.08981,179.4666c-0.18061,0.18481 -0.1617,0.34652 0.05671,0.48512c3.9629,2.48862 1.51837,7.49106 -2.41932,8.06439c-3.53446,0.51662 -9.14174,-0.30241 -7.40285,-5.28596c0.06301,-0.18061 0.1869,-0.25202 0.37171,-0.21421l1.92789,0.38432c0.24782,0.0462 0.41792,0.1869 0.51032,0.42212c1.62547,4.05109 6.98074,1.70738 4.87013,-1.53098c-0.1128,-0.17331 -0.29237,-0.29379 -0.49773,-0.33392c-1.65698,-0.30872 -3.15645,0.44733 -4.08259,-1.33566c-0.33182,-0.63423 -0.17431,-1.10256 0.47253,-1.40496c1.46167,-0.69304 3.49668,0.17011 4.25271,-1.76409c1.05845,-2.70913 -3.70458,-3.89989 -4.68112,-0.0315c-0.04742,0.18879 -0.18739,0.34063 -0.37171,0.40321c-1.38187,0.47042 -2.44032,0.0798 -3.17535,-1.17185c-0.11647,-0.19797 -0.11405,-0.44314 0.0063,-0.63634c1.94469,-3.10816 4.54043,-4.2401 7.78717,-3.39586c3.67938,0.95134 5.37417,4.28421 2.37522,7.34615" fill="none" stroke="#9c5925" stroke-width="2"/><path d="M244.14652,179.95173c3.9629,2.48862 1.51837,7.49106 -2.41932,8.06439c-3.53446,0.51662 -9.14174,-0.30241 -7.40285,-5.28596c0.06301,-0.18061 0.1869,-0.25202 0.37171,-0.21421l1.92789,0.38432c0.24782,0.0462 0.41792,0.1869 0.51032,0.42212c1.62547,4.05109 6.98074,1.70738 4.87013,-1.53098c-0.1128,-0.17331 -0.29237,-0.29379 -0.49773,-0.33392c-1.65698,-0.30872 -3.15645,0.44733 -4.08259,-1.33566c-0.33182,-0.63423 -0.17431,-1.10256 0.47253,-1.40496c1.46167,-0.69304 3.49668,0.17011 4.25271,-1.76409c1.05845,-2.70913 -3.70458,-3.89989 -4.68112,-0.0315c-0.04742,0.18879 -0.18739,0.34063 -0.37171,0.40321c-1.38187,0.47042 -2.44032,0.0798 -3.17535,-1.17185c-0.11647,-0.19797 -0.11405,-0.44314 0.0063,-0.63634c1.94469,-3.10816 4.54043,-4.2401 7.78717,-3.39586c3.67938,0.95134 5.37417,4.28421 2.37522,7.34615c-0.18061,0.18481 -0.1617,0.34652 0.05671,0.48512z" fill="url(#color-1)" stroke="none" stroke-width="1"/></g></g></svg>