<svg version="1.1" xmlns="http://www.w3.org/2000/svg" xmlns:xlink="http://www.w3.org/1999/xlink" width="127.88325" height="128.47038" viewBox="0,0,127.88325,128.47038"><g transform="translate(-176.05837,-115.76481)"><g data-paper-data="{&quot;isPaintingLayer&quot;:true}" fill-rule="nonzero" stroke-linejoin="miter" stroke-miterlimit="10" stroke-dasharray="" stroke-dashoffset="0" style="mix-blend-mode: normal"><path d="M301.94163,180c0,34.37155 -27.73221,62.23519 -61.94163,62.23519c-34.20942,0 -61.94163,-27.86364 -61.94163,-62.23519c0,-34.37155 27.73221,-62.23519 61.94163,-62.23519c34.20942,0 61.94163,27.86364 61.94163,62.23519z" fill="#ffffff" stroke="#000000" stroke-width="4" stroke-linecap="butt"/><path d="M286.53184,186.83333c6.18411,2.19242 -6.34803,12.90355 -13.28791,16.97614c-4.94324,2.90088 -9.63868,3.15925 -11.88338,6.88838c-7.47955,12.4258 -15.69717,14.16186 -27.36055,13.57901c-14.5285,-0.72603 -20.44198,-5.12197 -24.18236,-8.96921c-11.85964,-12.19843 -2.50644,-17.2656 -7.18281,-24.80765c-13.9281,-22.46324 -12.19291,-26.20855 -5.19151,-26.05788c7.86015,0.16915 15.54273,15.53729 14.50384,11.51761c-6.95321,-26.90338 -4.90887,-30.04843 -0.88706,-31.56888c4.98033,-1.88281 15.4565,29.99623 15.97707,25.15234c0.79276,-7.37653 0.62086,-34.15339 5.46283,-34.15339c5.50526,0 12.39071,10.07336 14.43362,33.53796c0.57493,6.60355 7.07448,-26.71377 13.93471,-25.35771c6.34611,1.25443 5.00729,29.24039 3.19436,45.21752c-0.5989,5.27803 3.82886,-8.56269 22.46915,-1.95424z" fill="#f7cba1" stroke="none" stroke-width="0" stroke-linecap="butt"/><path d="M216.53906,191.88543c11.77965,-7.31426 40.83333,-0.66666 40.83333,-0.66666" fill="none" stroke="#654524" stroke-width="4" stroke-linecap="round"/></g></g></svg>