<svg version="1.1" xmlns="http://www.w3.org/2000/svg" xmlns:xlink="http://www.w3.org/1999/xlink" width="92.03659" height="66.75001" viewBox="0,0,92.03659,66.75001"><g transform="translate(-193.98176,-146.62501)"><g data-paper-data="{&quot;isPaintingLayer&quot;:true}" fill-rule="nonzero" stroke-linejoin="miter" stroke-miterlimit="10" stroke-dasharray="" stroke-dashoffset="0" style="mix-blend-mode: normal"><path d="M194.98177,198.37622c0,-7.54658 0,-26.6505 0,-39.14704c0,-6.77238 4.14241,-11.60417 10.83601,-11.60417c24.02935,0 48.43685,0.75 64.60545,0.75c8.82474,0 14.59513,8.33035 14.59513,14.65366c0,7.28405 0,24.86805 0,36.95051c0,7.16534 -6.82819,12.39584 -17.15111,12.39584c-28.00176,0 -49.21808,-0.75 -62.11475,-0.75c-5.47948,0 -10.77072,-6.8092 -10.77072,-13.24879z" fill="#afdeb5" stroke="#426547" stroke-width="2" stroke-linecap="butt"/><path d="" data-paper-data="{&quot;index&quot;:null}" fill="#fd96ff" stroke="none" stroke-width="2" stroke-linecap="butt"/><g><path d="" data-paper-data="{&quot;index&quot;:null}" fill="#fd96ff" stroke="none" stroke-width="2" stroke-linecap="butt"/><path d="M227.31774,179.96024c0,-8.91323 3.19264,-18.63229 12.68232,-18.63229c9.48967,0 12.68231,9.71905 12.68231,18.63229c0,8.91323 -3.19264,13.11437 -12.68231,13.11437c-9.48967,0 -12.68232,-4.20113 -12.68232,-13.11437z" data-paper-data="{&quot;index&quot;:null}" fill="#ffe299" stroke="#260e00" stroke-width="2" stroke-linecap="butt"/><path d="M252.40456,178.08005l-4.80618,4.07381" data-paper-data="{&quot;index&quot;:null}" fill="none" stroke="#260e00" stroke-width="2" stroke-linecap="round"/><path d="M243.45089,198.66446c-0.98756,0 -1.78812,-0.40719 -1.78812,-1.39473c0,-0.98756 0.80057,-1.78812 1.78812,-1.78812c0.98756,0 1.78812,0.80057 1.78812,1.78812c0,0.98756 -0.80057,1.39473 -1.78812,1.39473z" data-paper-data="{&quot;index&quot;:null}" fill="#260e00" stroke="none" stroke-width="2" stroke-linecap="butt"/><g data-paper-data="{&quot;index&quot;:null}"><path d="M242.07116,177.80769c0,-0.8982 0.98425,-1.24217 1.88246,-1.24217c0.8982,0 1.88246,0.34395 1.88246,1.24217c0,0.8982 -0.98425,1.29339 -1.88246,1.29339c-0.8982,0 -1.88246,-0.39518 -1.88246,-1.29339z" data-paper-data="{&quot;index&quot;:null}" fill-opacity="0.4" fill="#ff99b8" stroke="none" stroke-width="2" stroke-linecap="butt"/><path d="M234.16392,177.79105c0,-0.8982 0.98425,-1.24216 1.88246,-1.24216c0.8982,0 1.88245,0.34395 1.88245,1.24216c0,0.8982 -0.98425,1.29339 -1.88245,1.29339c-0.8982,0 -1.88246,-0.39518 -1.88246,-1.29339z" data-paper-data="{&quot;index&quot;:null}" fill-opacity="0.4" fill="#ff99b8" stroke="none" stroke-width="2" stroke-linecap="butt"/><path d="M241.51529,177.89004c-0.88808,0.89594 -2.29873,0.80058 -3.03057,0" data-paper-data="{&quot;index&quot;:null}" fill="none" stroke="#260e00" stroke-width="1.5" stroke-linecap="round"/><path d="M240.87093,172.96042c0,-1.52859 0.12028,-2.76777 1.64889,-2.76777c1.52859,0 1.64161,1.23917 1.64161,2.76777c0,1.52859 -0.11301,2.76777 -1.64161,2.76777c-1.52859,0 -1.64889,-1.23917 -1.64889,-2.76777z" data-paper-data="{&quot;index&quot;:null}" fill="#fff066" stroke="#260e00" stroke-width="1" stroke-linecap="butt"/><path d="M237.48023,175.72819c-1.52859,0 -1.64161,-1.23917 -1.64161,-2.76777c0,-1.52859 0.11301,-2.76777 1.64161,-2.76777c1.52861,0 1.64888,1.23917 1.64888,2.76777c0,1.52859 -0.12029,2.76777 -1.64888,2.76777z" data-paper-data="{&quot;index&quot;:null}" fill="#fff066" stroke="#260e00" stroke-width="1" stroke-linecap="butt"/></g><path d="M243.44616,197.032v-3.76818" data-paper-data="{&quot;index&quot;:null}" fill="none" stroke="#260e00" stroke-width="2" stroke-linecap="round"/><path d="M236.51466,198.67209c-0.98756,0 -1.78812,-0.40719 -1.78812,-1.39473c0,-0.98756 0.80057,-1.78812 1.78812,-1.78812c0.98756,0 1.78812,0.80057 1.78812,1.78812c0,0.98756 -0.80057,1.39473 -1.78812,1.39473z" data-paper-data="{&quot;index&quot;:null}" fill="#260e00" stroke="none" stroke-width="2" stroke-linecap="butt"/><path d="M236.50999,197.03961v-3.76818" data-paper-data="{&quot;index&quot;:null}" fill="none" stroke="#260e00" stroke-width="2" stroke-linecap="round"/><path d="M227.6578,178.08862l4.80618,4.07381" data-paper-data="{&quot;index&quot;:null}" fill="none" stroke="#260e00" stroke-width="2" stroke-linecap="round"/></g><text transform="translate(208.51882,204.35337) scale(0.25803,0.25803)" font-size="40" xml:space="preserve" fill="#426547" fill-rule="nonzero" stroke="#426547" stroke-width="0" stroke-linecap="butt" stroke-linejoin="miter" stroke-miterlimit="10" stroke-dasharray="" stroke-dashoffset="0" font-family="Sans Serif" font-weight="normal" text-anchor="start" style="mix-blend-mode: normal"><tspan x="0" dy="0">タマコ計算10</tspan></text></g></g></svg>