<svg version="1.1" xmlns="http://www.w3.org/2000/svg" xmlns:xlink="http://www.w3.org/1999/xlink" width="127.88325" height="128.47038" viewBox="0,0,127.88325,128.47038"><g transform="translate(-176.05837,-115.76481)"><g data-paper-data="{&quot;isPaintingLayer&quot;:true}" fill-rule="nonzero" stroke-linejoin="miter" stroke-miterlimit="10" stroke-dasharray="" stroke-dashoffset="0" style="mix-blend-mode: normal"><path d="M301.94163,180c0,34.37154 -27.73221,62.23519 -61.94162,62.23519c-34.20942,0 -61.94162,-27.86364 -61.94162,-62.23519c0,-34.37154 27.73221,-62.23519 61.94162,-62.23519c34.20941,0 61.94162,27.86365 61.94162,62.23519z" fill="#ffffff" stroke="#000000" stroke-width="4" stroke-linecap="butt"/><path d="M273.01156,197.95862c-0.28571,6.0754 -2.39901,27.01253 -30.91071,27.01253c-28.5117,0 -32.87903,-9.62136 -35.05357,-35.86967c-0.93125,-11.24092 8.10497,-4.34826 7.94118,-8.035c-0.53424,-12.02496 8.89917,-6.99931 8.74715,-7.74132c-8.29993,-40.51227 0.71669,-37.70266 7.40978,-38.28483c8.88587,-0.77291 10.71688,37.73409 13.66974,31.33434c3.42755,-7.42857 10.52483,-26.5822 19.25937,-27.04624c9.95351,-0.52881 9.16578,8.50152 -0.65636,47.48271c-0.59859,2.37565 9.94288,3.71673 9.59342,11.14748z" fill="#f7cba1" stroke="none" stroke-width="0" stroke-linecap="butt"/><g fill="none" stroke="#654524" stroke-width="4" stroke-linecap="round"><path d="M217.13432,185.28897c0,0 7.59784,6.79793 6.43454,14.33745c-0.53337,3.45681 -1.48934,4.96702 -3.57218,4.93111c-3.17467,-0.05473 -6.86236,-3.55427 -6.86236,-3.55427"/><path d="M236.13431,196.57469c0,0 -1.03433,3.33012 -5.1385,2.50446c-2.96804,-0.5971 -6.43292,-2.64732 -6.43292,-2.64732"/><path d="M255.42003,200.57469c0,0 -24.44332,-3.28362 -23.9835,-10.09799c0.61091,-9.05338 28.12636,-4.61629 28.12636,-4.61629"/><path d="M226.70575,175.00326c0,0 7.92623,2.41723 7.28572,10.14285"/></g></g></g></svg>