<svg version="1.1" xmlns="http://www.w3.org/2000/svg" xmlns:xlink="http://www.w3.org/1999/xlink" width="100" height="100" viewBox="0,0,100,100"><defs><linearGradient x1="239.99999" y1="171.54126" x2="239.99999" y2="188.45873" gradientUnits="userSpaceOnUse" id="color-1"><stop offset="0" stop-color="#ffffdc"/><stop offset="1" stop-color="#ffc64c"/></linearGradient></defs><g transform="translate(-190,-130)"><g data-paper-data="{&quot;isPaintingLayer&quot;:true}" fill-rule="nonzero" stroke-linecap="butt" stroke-linejoin="miter" stroke-miterlimit="10" stroke-dasharray="" stroke-dashoffset="0" style="mix-blend-mode: normal"><path d="M190,180c0,-27.61424 22.38576,-50 50,-50c27.61424,0 50,22.38576 50,50c0,27.61424 -22.38576,50 -50,50c-27.61424,0 -50,-22.38576 -50,-50z" fill="none" stroke="none" stroke-width="0"/><path d="M241.61794,171.72762c0.9823,0.17439 2.022,0.45995 3.11907,0.85666c0.15072,0.0546 0.27734,0.12593 0.37985,0.21396c0.08134,0.06992 0.16381,0.18456 0.24738,0.34391c0.39615,0.75553 0.57208,1.55744 0.60593,2.40324c0.01337,0.32651 -0.00627,0.57598 -0.05892,0.74842c-0.25449,0.83368 -1.27495,1.17258 -1.98285,0.66693c-0.10782,-0.07717 -0.23666,-0.2134 -0.38653,-0.40869c-0.25115,-0.32762 -0.50312,-0.67027 -0.76263,-0.97157c-0.59464,-0.69118 -1.21227,-1.40951 -2.13621,-1.63099c-0.4626,-0.11074 -0.91892,-0.04054 -1.34892,0.18011c-1.14499,0.58879 -1.72586,2.09483 -1.78393,3.30669c-0.00697,0.14654 0.00166,0.28221 0.0259,0.40701c0.04262,0.21856 0.30798,0.15586 0.45089,0.10572c0.72294,-0.25239 1.24278,-0.49938 1.8625,-0.542c0.61038,-0.04235 1.22954,-0.01324 1.85747,0.08734c1.89007,0.30338 3.26322,1.41285 3.98157,3.21267c0.36773,0.921 0.59422,1.8997 0.54576,2.8721c-0.10948,2.18886 -1.58879,3.91764 -3.66899,4.53526c-1.07368,0.31898 -2.17396,0.41635 -3.30084,0.2921c-2.51898,-0.27748 -4.24358,-1.89802 -4.987,-4.26364c-0.88507,-2.81609 -0.57501,-6.00411 0.46469,-8.73288c0.31257,-0.82071 0.68936,-1.55131 1.13037,-2.19178c0.23652,-0.34378 0.55466,-0.64868 0.95443,-0.91474c0.45632,-0.30366 0.98871,-0.51162 1.59714,-0.62389c0.44936,-0.08524 0.84092,-0.13093 1.17465,-0.13706c0.62041,-0.01087 1.29348,0.05083 2.01921,0.18513zM242.61043,182.13437c-0.06207,-1.18418 -1.07232,-2.09381 -2.2565,-2.03175l-0.77118,0.04041c-1.18418,0.06207 -2.09381,1.07232 -2.03175,2.2565l0.06071,1.15845c0.06207,1.18418 1.07232,2.09381 2.2565,2.03175l0.77118,-0.04041c1.18418,-0.06207 2.09381,-1.07232 2.03175,-2.2565z" fill="#fdf3b2" stroke="#9c5925" stroke-width="2"/><path d="M241.61794,171.72762c0.9823,0.17439 2.022,0.45995 3.11907,0.85666c0.15072,0.0546 0.27734,0.12593 0.37985,0.21396c0.08134,0.06992 0.16381,0.18456 0.24738,0.34391c0.39615,0.75553 0.57208,1.55744 0.60593,2.40324c0.01337,0.32651 -0.00627,0.57598 -0.05892,0.74842c-0.25449,0.83368 -1.27495,1.17258 -1.98285,0.66693c-0.10782,-0.07717 -0.23666,-0.2134 -0.38653,-0.40869c-0.25115,-0.32762 -0.50312,-0.67027 -0.76263,-0.97157c-0.59464,-0.69118 -1.21227,-1.40951 -2.13621,-1.63099c-0.4626,-0.11074 -0.91892,-0.04054 -1.34892,0.18011c-1.14499,0.58879 -1.72586,2.09483 -1.78393,3.30669c-0.00697,0.14654 0.00166,0.28221 0.0259,0.40701c0.04262,0.21856 0.30798,0.15586 0.45089,0.10572c0.72294,-0.25239 1.24278,-0.49938 1.8625,-0.542c0.61038,-0.04235 1.22954,-0.01324 1.85747,0.08734c1.89007,0.30338 3.26322,1.41285 3.98157,3.21267c0.36773,0.921 0.59422,1.8997 0.54576,2.8721c-0.10948,2.18886 -1.58879,3.91764 -3.66899,4.53526c-1.07368,0.31898 -2.17396,0.41635 -3.30084,0.2921c-2.51898,-0.27748 -4.24358,-1.89802 -4.987,-4.26364c-0.88507,-2.81609 -0.57501,-6.00411 0.46469,-8.73288c0.31257,-0.82071 0.68936,-1.55131 1.13037,-2.19178c0.23652,-0.34378 0.55466,-0.64868 0.95443,-0.91474c0.45632,-0.30366 0.98871,-0.51162 1.59714,-0.62389c0.44936,-0.08524 0.84092,-0.13093 1.17465,-0.13706c0.62041,-0.01087 1.29348,0.05083 2.01921,0.18513zM242.61043,182.13437c-0.06207,-1.18418 -1.07232,-2.09381 -2.2565,-2.03175l-0.77118,0.04041c-1.18418,0.06207 -2.09381,1.07232 -2.03175,2.2565l0.06071,1.15845c0.06207,1.18418 1.07232,2.09381 2.2565,2.03175l0.77118,-0.04041c1.18418,-0.06207 2.09381,-1.07232 2.03175,-2.2565z" fill="url(#color-1)" stroke="none" stroke-width="1"/></g></g></svg>