<svg version="1.1" xmlns="http://www.w3.org/2000/svg" xmlns:xlink="http://www.w3.org/1999/xlink" width="92.03659" height="66.75001" viewBox="0,0,92.03659,66.75001"><g transform="translate(-193.98182,-146.62504)"><g data-paper-data="{&quot;isPaintingLayer&quot;:true}" fill-rule="nonzero" stroke-linejoin="miter" stroke-miterlimit="10" stroke-dasharray="" stroke-dashoffset="0" style="mix-blend-mode: normal"><path d="M194.98183,198.37625c0,-7.54658 0,-26.6505 0,-39.14704c0,-6.77238 4.14241,-11.60417 10.83601,-11.60417c24.02935,0 48.43685,0.75 64.60545,0.75c8.82474,0 14.59513,8.33035 14.59513,14.65366c0,7.28405 0,24.86805 0,36.95051c0,7.16534 -6.82819,12.39584 -17.15111,12.39584c-28.00176,0 -49.21808,-0.75 -62.11475,-0.75c-5.47948,0 -10.77072,-6.8092 -10.77072,-13.24879z" fill="#afdeb5" stroke="#426547" stroke-width="2" stroke-linecap="butt"/><g><path d="" data-paper-data="{&quot;index&quot;:null}" fill="#fd96ff" stroke="none" stroke-width="2" stroke-linecap="butt"/><path d="M225.81052,173.73311c0,-10.24478 3.66959,-21.41576 14.57692,-21.41576c10.90733,0 14.57692,11.17098 14.57692,21.41576c0,10.24478 -3.66959,15.07352 -14.57692,15.07352c-10.90733,0 -14.57692,-4.82873 -14.57692,-15.07352z" data-paper-data="{&quot;index&quot;:null}" fill="#ffe299" stroke="#260e00" stroke-width="2" stroke-linecap="butt"/><path d="M249.12089,176.25444l5.52418,-4.6824" data-paper-data="{&quot;index&quot;:null}" fill="none" stroke="#260e00" stroke-width="2" stroke-linecap="round"/><path d="M244.35382,195.23156c-1.13509,0 -2.05525,-0.46802 -2.05525,-1.6031c0,-1.13509 0.92017,-2.05525 2.05525,-2.05525c1.13509,0 2.05525,0.92017 2.05525,2.05525c0,1.13509 -0.92017,1.6031 -2.05525,1.6031z" data-paper-data="{&quot;index&quot;:null}" fill="#260e00" stroke="none" stroke-width="2" stroke-linecap="butt"/><g data-paper-data="{&quot;index&quot;:null}"><path d="M242.768,171.25899c0,-1.03238 1.13128,-1.42774 2.16368,-1.42774c1.03238,0 2.16368,0.39534 2.16368,1.42774c0,1.03238 -1.13129,1.4866 -2.16368,1.4866c-1.03238,0 -2.16368,-0.45422 -2.16368,-1.4866z" data-paper-data="{&quot;index&quot;:null}" fill-opacity="0.4" fill="#ff99b8" stroke="none" stroke-width="2" stroke-linecap="butt"/><path d="M233.6795,171.23986c0,-1.03238 1.13129,-1.42772 2.16368,-1.42772c1.03238,0 2.16368,0.39534 2.16368,1.42772c0,1.03238 -1.13129,1.4866 -2.16368,1.4866c-1.03238,0 -2.16368,-0.45422 -2.16368,-1.4866z" data-paper-data="{&quot;index&quot;:null}" fill-opacity="0.4" fill="#ff99b8" stroke="none" stroke-width="2" stroke-linecap="butt"/><path d="M242.12909,171.35365c-1.02075,1.02979 -2.64214,0.92018 -3.48331,0" data-paper-data="{&quot;index&quot;:null}" fill="none" stroke="#260e00" stroke-width="1.5" stroke-linecap="round"/><path d="M241.38843,165.68758c0,-1.75695 0.13825,-3.18124 1.89521,-3.18124c1.75695,0 1.88684,1.42429 1.88684,3.18124c0,1.75695 -0.1299,3.18124 -1.88684,3.18124c-1.75695,0 -1.89521,-1.42429 -1.89521,-3.18124z" data-paper-data="{&quot;index&quot;:null}" fill="#fff066" stroke="#260e00" stroke-width="1" stroke-linecap="butt"/><path d="M237.49119,168.86882c-1.75695,0 -1.88684,-1.42429 -1.88684,-3.18124c0,-1.75695 0.1299,-3.18124 1.88684,-3.18124c1.75696,0 1.89521,1.42429 1.89521,3.18124c0,1.75695 -0.13826,3.18124 -1.89521,3.18124z" data-paper-data="{&quot;index&quot;:null}" fill="#fff066" stroke="#260e00" stroke-width="1" stroke-linecap="butt"/></g><path d="M244.34839,189.02409v4.33111" data-paper-data="{&quot;index&quot;:null}" fill="none" stroke="#260e00" stroke-width="2" stroke-linecap="round"/><path d="M236.38142,195.24031c-1.13509,0 -2.05525,-0.46802 -2.05525,-1.6031c0,-1.13509 0.92017,-2.05525 2.05525,-2.05525c1.13509,0 2.05525,0.92017 2.05525,2.05525c0,1.13509 -0.92017,1.6031 -2.05525,1.6031z" data-paper-data="{&quot;index&quot;:null}" fill="#260e00" stroke="none" stroke-width="2" stroke-linecap="butt"/><path d="M236.376,193.36395v-4.33111" data-paper-data="{&quot;index&quot;:null}" fill="none" stroke="#260e00" stroke-width="2" stroke-linecap="round"/><path d="M231.72559,176.26429l-5.52418,-4.6824" data-paper-data="{&quot;index&quot;:null}" fill="none" stroke="#260e00" stroke-width="2" stroke-linecap="round"/></g><path d="" data-paper-data="{&quot;index&quot;:null}" fill="#fd96ff" stroke="none" stroke-width="2" stroke-linecap="butt"/><text transform="translate(199.39427,202.98599) scale(0.15713,0.14174)" font-size="40" xml:space="preserve" fill="#426547" fill-rule="nonzero" stroke="#426547" stroke-width="2" stroke-linecap="butt" stroke-linejoin="miter" stroke-miterlimit="10" stroke-dasharray="" stroke-dashoffset="0" font-family="Sans Serif" font-weight="normal" text-anchor="start" style="mix-blend-mode: normal"><tspan x="0" dy="0">チャットポイントに交換する</tspan></text></g></g></svg>