<svg version="1.1" xmlns="http://www.w3.org/2000/svg" xmlns:xlink="http://www.w3.org/1999/xlink" width="49.25" height="49.25" viewBox="0,0,49.25,49.25"><g transform="translate(-215.375,-155.375)"><g data-paper-data="{&quot;isPaintingLayer&quot;:true}" fill-rule="nonzero" stroke="none" stroke-linecap="butt" stroke-linejoin="miter" stroke-miterlimit="10" stroke-dasharray="" stroke-dashoffset="0" style="mix-blend-mode: normal"><path d="M215.375,204.625v-49.25h49.25v49.25z" fill="#f0f6ff" stroke-width="0"/><path d="M233.63225,189.0885c1.56337,1.56558 1.56158,4.10209 -0.004,5.66546c-1.59885,1.15802 -3.41015,1.98974 -5.33047,2.44769c-0.77826,0.17791 -1.59332,-0.05665 -2.15796,-0.62101c-0.56464,-0.56437 -0.7996,-1.37933 -0.62206,-2.15766c0.45723,-1.92326 1.28948,-3.73741 2.44903,-5.33848c1.56558,-1.56337 4.10209,-1.56158 5.66545,0.00401zM231.73842,192.85746c0.50579,-0.52367 0.49856,-1.35609 -0.01626,-1.8709c-0.51481,-0.51481 -1.34722,-0.52204 -1.87089,-0.01626c-0.68848,1.07595 -1.22054,2.24431 -1.58019,3.47001c1.22589,-0.35915 2.39432,-0.89123 3.47001,-1.58019zM246.14563,173.23189c-1.84273,0 -3.33655,1.49382 -3.33655,3.33655c0,1.84273 1.49382,3.33655 3.33655,3.33655c1.84273,0 3.33655,-1.49382 3.33655,-3.33655c0,-1.84273 -1.49383,-3.33655 -3.33655,-3.33655zM256.30047,166.38716c0.75826,0.75125 1.18626,1.77347 1.18943,2.84087c0.04519,6.45027 -2.91971,12.55278 -8.01839,16.5039c-0.07331,2.12052 -0.60271,4.20036 -1.55216,6.09787c-1.01328,2.20049 -2.73633,3.99686 -4.89272,5.10091c-1.22216,0.52634 -2.62735,0.40089 -3.73693,-0.33365c-1.13581,-0.74221 -1.82004,-2.00776 -1.81909,-3.36458v-3.31786c-0.01242,-2.57466 -2.09651,-4.65875 -4.67117,-4.67117h-3.31786c-1.35733,0.00036 -2.62298,-0.68493 -3.36458,-1.82176c-0.73454,-1.10959 -0.86,-2.51477 -0.33366,-3.73693c1.10405,-2.15639 2.90042,-3.87943 5.10092,-4.89271c1.89751,-0.94945 3.97735,-1.47885 6.09787,-1.55216c3.94101,-5.09048 10.0289,-8.054 16.46653,-8.01573c1.06739,-0.00674 2.09354,0.41173 2.8518,1.16299zM234.74132,176.21743c-0.9214,0.21436 -1.81423,0.53691 -2.6599,0.96093c-1.63672,0.73793 -2.98774,1.99007 -3.8477,3.5661c-0.1722,0.39762 -0.12942,0.85565 0.11344,1.21451c0.24726,0.38644 0.67567,0.61878 1.13443,0.61526h1.77771c0.99114,-2.20747 2.15546,-4.33304 3.48202,-6.35679zM245.53571,190.63265c0.4254,-0.84548 0.74929,-1.73833 0.96493,-2.6599c-2.02374,1.32656 -4.14932,2.49088 -6.35679,3.48202v1.77771c-0.00352,0.45875 0.22883,0.88716 0.61526,1.13442c0.35926,0.2431 0.81781,0.28589 1.21584,0.11345c1.57529,-0.8605 2.82685,-2.21141 3.56476,-3.84771zM245.71589,185.26748c6.27004,-4.49499 8.90858,-9.15282 9.10477,-16.07682c-0.02024,-0.72245 -0.61187,-1.29754 -1.33461,-1.29725c-6.88664,0.19619 -11.54446,2.83473 -16.03946,9.10477c-1.25455,1.80426 -2.35802,3.709 -3.29917,5.69482c2.98302,0.55557 5.31675,2.8893 5.87232,5.87233c1.98761,-0.94046 3.89415,-2.0435 5.70016,-3.29784z" fill="#182246" stroke-width="1"/></g></g></svg>