<svg version="1.1" xmlns="http://www.w3.org/2000/svg" xmlns:xlink="http://www.w3.org/1999/xlink" width="100" height="100" viewBox="0,0,100,100"><g transform="translate(-190,-130)"><g data-paper-data="{&quot;isPaintingLayer&quot;:true}" fill-rule="nonzero" stroke="none" stroke-linecap="butt" stroke-linejoin="miter" stroke-miterlimit="10" stroke-dasharray="" stroke-dashoffset="0" style="mix-blend-mode: normal"><path d="M190,180c0,-27.61424 22.38576,-50 50,-50c27.61424,0 50,22.38576 50,50c0,27.61424 -22.38576,50 -50,50c-27.61424,0 -50,-22.38576 -50,-50z" fill="none" stroke-width="0"/><path d="M241.90971,184.57659c-0.88552,0.35507 -1.83832,0.428 -2.8584,0.21877c-1.55226,-0.31774 -2.37788,-1.48975 -2.66958,-2.98992c-0.11894,-0.61639 -0.13109,-1.46544 -0.03646,-2.54717c0.1732,-1.36474 0.72534,-2.77636 1.88303,-3.53035c1.15899,-0.75399 2.63572,-0.79566 3.94446,-0.36332c0.47401,0.15627 1.21498,0.71623 0.85817,1.28921c-0.28779,0.46359 -0.89854,0.12762 -1.32437,-0.10678c-1.78927,-0.98319 -3.35194,0.7006 -3.42227,2.42345c-0.00082,0.01215 0.00521,0.02374 0.01562,0.03004c0.01042,0.0063 0.02348,0.00627 0.03386,-0.00009c0.76484,-0.47314 1.56224,-0.67716 2.3922,-0.61205c3.35064,0.26566 4.0864,4.68283 1.18373,6.18821zM238.68668,180.09821c-0.41411,0.66935 -0.46099,1.42985 -0.34379,2.18645c0.10939,0.71362 0.65112,1.46762 1.42594,1.59133c1.65904,0.26826 1.88693,-1.33869 1.83094,-2.55758c-0.02865,-0.62507 -0.24612,-1.13251 -0.65242,-1.52231c-0.62507,-0.60033 -1.82182,-0.4076 -2.26067,0.30212z" fill="#5486af" stroke-width="1"/></g></g></svg>