<svg version="1.1" xmlns="http://www.w3.org/2000/svg" xmlns:xlink="http://www.w3.org/1999/xlink" width="100" height="100" viewBox="0,0,100,100"><g transform="translate(-190,-130)"><g data-paper-data="{&quot;isPaintingLayer&quot;:true}" fill-rule="nonzero" stroke="none" stroke-linecap="butt" stroke-linejoin="miter" stroke-miterlimit="10" stroke-dasharray="" stroke-dashoffset="0" style="mix-blend-mode: normal"><path d="M190,180c0,-27.61424 22.38576,-50 50,-50c27.61424,0 50,22.38576 50,50c0,27.61424 -22.38576,50 -50,50c-27.61424,0 -50,-22.38576 -50,-50z" fill="none" stroke-width="0"/><path d="M242.45253,181.72643c0.25503,0.02644 0.50878,0.0371 0.76125,0.03199c0.67681,-0.01407 0.67937,0.77917 0.46571,1.22568c-0.01791,0.03753 -0.04563,0.06568 -0.08316,0.08444c-0.35952,0.17656 -0.77405,0.12027 -1.15915,0.15737c-0.04462,0.00405 -0.07831,0.04223 -0.07677,0.087c0.00896,0.28019 0.05246,0.54119 -0.04094,0.79836c-0.22688,0.62947 -0.68961,0.79494 -1.38817,0.49641c-0.39278,-0.1676 -0.3979,-0.93398 -0.36335,-1.26407c0.00255,-0.02823 -0.00688,-0.05621 -0.02592,-0.07696c-0.01904,-0.02075 -0.0459,-0.03231 -0.07388,-0.03179c-1.19498,0.00597 -2.38953,0 -3.58365,-0.01791c-0.38809,-0.00597 -0.6073,-0.19831 -0.65762,-0.57702c-0.08444,-0.63971 -0.01279,-0.86489 0.36975,-1.4112c1.83042,-2.62366 3.12093,-4.45579 3.87152,-5.49638c0.3608,-0.50025 1.39201,-0.72031 1.76304,-0.12922c0.08785,0.14159 0.13263,0.3834 0.13434,0.72543c0.00341,1.46877 0.01109,2.93669 0.02303,4.40376c0.00128,0.20215 -0.06013,0.60772 -0.02303,0.90967c0.00682,0.05118 0.03582,0.07932 0.087,0.08444zM240.55643,181.697c-0.00512,-1.24871 -0.03582,-2.58059 0.13562,-3.82418c0.00616,-0.04405 -0.01875,-0.08656 -0.06019,-0.10271c-0.04144,-0.01615 -0.08855,-0.00171 -0.11381,0.0349c-0.80006,1.13186 -1.61804,2.27267 -2.45392,3.42244c-0.07677,0.10491 -0.13349,0.20855 -0.17016,0.3109c-0.0162,0.04448 -0.0098,0.09406 0.01716,0.13297c0.02696,0.03891 0.07112,0.06232 0.11846,0.06278l2.47184,0.01791c0.03038,0 0.05501,-0.02463 0.05501,-0.05501z" fill="#5486af" stroke-width="1"/></g></g></svg>