<svg version="1.1" xmlns="http://www.w3.org/2000/svg" xmlns:xlink="http://www.w3.org/1999/xlink" width="97.28527" height="101.66755" viewBox="0,0,97.28527,101.66755"><g transform="translate(-191.35737,-127.26548)"><g data-paper-data="{&quot;isPaintingLayer&quot;:true}" fill-rule="nonzero" stroke-linecap="butt" stroke-linejoin="miter" stroke-miterlimit="10" stroke-dasharray="" stroke-dashoffset="0" style="mix-blend-mode: normal"><path d="M281.01108,204.14036c-2.75347,4.54953 -5.7803,8.30989 -9.0805,11.28105c-9.38109,8.45336 -20.44073,12.62315 -33.17892,12.50935c-12.97321,-0.11504 -25.29331,-6.13779 -34.16601,-15.50774c-1.00441,-1.06131 -2.5407,-3.07136 -4.6089,-6.03017" fill="none" stroke="#d2924a" stroke-width="2"/><path d="M263.84997,138.98893c4.54953,2.75347 8.30989,5.7803 11.28105,9.0805c8.45336,9.38109 12.62315,20.44073 12.50935,33.17892c-0.11504,12.97321 -6.13779,25.29331 -15.50774,34.16601c-1.06131,1.00441 -3.07136,2.5407 -6.03017,4.6089" fill="none" stroke="#d2924a" stroke-width="2"/><path d="M213.84596,140.21723c1.09842,-1.02173 2.32301,-1.82575 3.67376,-2.41207c1.63278,-0.70878 2.51597,-1.30993 3.46596,-2.60503c0.0731,-0.09923 0.08179,-0.23161 0.02235,-0.3402c-0.05944,-0.10859 -0.17643,-0.17404 -0.30066,-0.16819c-2.52339,0.14101 -4.96515,0.38222 -5.37706,-2.84253c-0.24492,-1.9111 0.52694,-2.84995 2.44175,-3.02436c2.37002,-0.22018 4.74374,-0.38841 7.12117,-0.50468c1.68474,-0.08164 2.50484,-0.31542 3.58842,1.25428c0.89803,1.29881 1.63649,2.14118 1.0576,3.79622c-0.02814,0.07718 -0.0047,0.16324 0.05885,0.21607c0.06356,0.05283 0.15393,0.06136 0.22689,0.02142c0.62837,-0.35872 1.30005,-0.53808 2.015,-0.53808c0.10178,0.00028 0.19814,-0.04586 0.26173,-0.12534c0.06358,-0.07948 0.08745,-0.18362 0.06483,-0.28285c-0.51952,-2.29332 1.1949,-3.11342 3.26186,-3.17651c3.42142,-0.1039 6.8379,-0.28078 10.24943,-0.53065c0.76444,-0.05443 1.46332,0.24493 2.09664,0.89803c0.08273,0.08552 0.21597,0.09662 0.31171,0.02598c0.90298,-0.66301 1.79978,-1.01431 2.69038,-1.05389c4.21061,-0.18554 8.4175,-0.37233 12.62068,-0.56034c1.77009,-0.07793 3.75169,3.43998 2.82026,4.96144c-1.00441,1.64269 -2.20673,3.10724 -3.60696,4.39368c-0.12019,0.10943 -0.16779,0.27733 -0.12308,0.43418c0.0447,0.15685 0.1741,0.27596 0.3346,0.30799c0.40572,0.07669 0.74836,0.28574 1.02791,0.62714" fill="none" stroke="#d2924a" stroke-width="2"/><path d="M213.71609,220.01214c-2.70894,-2.01377 -4.53097,-3.44617 -5.46612,-4.29719c-10.35705,-9.42562 -16.16828,-22.31347 -15.88254,-36.33315c0.19297,-9.51715 3.00951,-18.26121 8.44966,-26.23216c2.6174,-3.82962 5.74196,-7.1892 9.37367,-10.07873c1.21964,-0.96978 2.43804,-1.921 3.65521,-2.85367" fill="none" stroke="#d2924a" stroke-width="2"/><path d="M263.84997,138.98893c-0.99204,-0.60611 -1.73792,-0.79784 -2.23766,-0.57519c-1.00441,0.45025 -1.34952,1.15161 -1.03533,2.10407c0.03825,0.11979 0.11704,0.22223 0.22266,0.28945c1.5932,1.02667 3.1864,2.05211 4.7796,3.07631c0.63827,0.41067 1.2716,0.90916 1.89997,1.49548c0.70506,0.65807 1.3186,1.18995 1.84059,1.59568c1.15284,0.89803 2.10901,1.80843 2.86851,2.73121c0.03866,0.04843 0.06077,0.10695 0.06309,0.16699c0,0.07174 0.02103,0.13359 0.06309,0.18554c1.3656,1.76638 2.81284,3.45853 4.34172,5.07647c0.81639,0.86464 1.20604,1.96305 1.83688,2.97241c0.5121,0.82133 0.92401,1.59073 1.23572,2.30817c0.4453,1.0242 0.9438,2.02366 1.49548,2.99839c0.32161,0.56653 0.55416,1.1714 0.69765,1.81462c0.14101,0.64075 0.30677,1.27655 0.49725,1.90739c0.30924,1.0341 0.55292,1.98161 0.73104,2.84253c0.29687,1.44353 0.77187,2.86851 0.89803,4.28234c0.31666,3.61934 0.36738,7.24486 0.15214,10.87657c-0.03958,0.66549 -0.30924,2.11891 -0.80897,4.36028c-0.7768,3.4808 -1.80225,6.52248 -3.07631,9.12504c-0.32161,0.65559 -0.63455,1.36931 -0.93885,2.14117c-0.35872,0.90546 -0.70878,1.60187 -1.05018,2.08922c-1.11326,1.57588 -2.23642,3.14558 -3.36948,4.70909c-0.34635,0.47746 -0.76196,0.95741 -1.24686,1.43982c-0.44283,0.44036 -0.877,0.88814 -1.30251,1.34333c-0.09648,0.1039 -0.21276,0.17194 -0.34882,0.2041l-0.79042,0.18554c-0.08411,0.01732 -0.12617,-0.01608 -0.12617,-0.1002v-0.1707c0,-0.14843 -0.07545,-0.22636 -0.22636,-0.23378c-0.4651,-0.02227 -1.45466,-0.14596 -2.9687,-0.37109c-1.34581,-0.20039 -2.73121,0.01979 -4.15618,0.66054" fill="none" stroke="#d2924a" stroke-width="2"/><path d="M259.66783,214.00423c0.30058,-0.57148 0.65682,-1.16893 1.22459,-1.54001c0.95988,-0.63085 1.92595,-1.27902 2.8982,-1.9445" fill="none" stroke="#d8bf69" stroke-width="2"/><path d="M259.30415,216.59071l0.49354,2.57534c0.02474,0.13606 0.00124,0.26224 -0.07051,0.37851l-0.91659,1.48064c-0.06432,0.1039 -0.15338,0.17565 -0.26718,0.21523c-0.48736,0.16823 -0.95122,0.37604 -1.39158,0.62343c-0.55663,0.3043 -1.14666,0.32656 -1.71071,0.616c-0.50468,0.25977 -0.91906,0.41809 -1.24314,0.47499c-1.13182,0.2041 -2.20797,0.46386 -3.28041,0.88689c-0.36862,0.14349 -0.89556,0.27336 -1.58083,0.38965c-5.52425,0.93515 -10.73308,1.091 -15.62648,0.46757c-1.98903,-0.25481 -4.91814,-0.93515 -8.78735,-2.04099c-0.78671,-0.22513 -1.43116,-0.46386 -1.93337,-0.7162c-0.8436,-0.42056 -1.399,-0.83 -1.66618,-1.2283c-0.89309,-1.3186 -2.062,-2.31682 -3.50678,-2.99467c-0.76691,-0.36119 -1.48064,-0.80526 -2.14117,-1.3322c-1.86533,-1.48435 -3.70345,-3.00334 -5.51436,-4.55695c-0.80154,-0.68775 -1.63031,-1.55486 -2.48628,-2.60133c-0.65312,-0.7966 -1.43611,-1.71442 -2.34898,-2.75347c-1.68968,-1.92471 -3.15672,-4.21432 -4.4011,-6.86882c-0.53807,-1.15037 -1.12069,-2.14118 -1.48807,-3.19878c-0.43046,-1.24686 -1.01678,-2.50855 -1.36189,-3.65521c-1.0242,-3.39174 -1.57094,-7.10385 -1.64021,-11.13633c-0.09896,-5.86813 0.7298,-11.37382 2.48628,-16.5171c0.29192,-0.85103 0.69641,-1.78122 1.21346,-2.79058c0.4651,-0.90051 0.92895,-1.80225 1.39158,-2.70523c0.45272,-0.87947 0.58632,-2.13746 1.69216,-2.99467c0.09648,-0.07421 0.16575,-0.16946 0.20781,-0.28573c0.16823,-0.48736 0.42181,-0.92401 0.76073,-1.30994c0.79907,-0.90298 1.54496,-1.85172 2.23766,-2.84624c0.34882,-0.49725 0.93143,-0.62714 1.30623,-1.14667c1.06378,-1.4794 2.4232,-2.97365 4.07825,-4.48274c0.67786,-0.616 1.31613,-1.45837 1.91481,-2.5271c0.05937,-0.10885 0.08164,-0.22266 0.06679,-0.3414c-0.13111,-1.00441 0.23873,-1.76638 1.10956,-2.2859c1.28396,-0.76691 2.58276,-1.79236 3.89641,-3.07631c0.11713,-0.11607 0.13577,-0.29878 0.04452,-0.43613c-0.09126,-0.13734 -0.26693,-0.19093 -0.41931,-0.12792c-0.55663,0.23997 -1.13305,0.5257 -1.72927,0.85721c-0.70136,0.38965 -1.71443,1.33592 -2.84625,1.61795" fill="none" stroke="#d2924a" stroke-width="2"/><path d="M230.74157,143.06719c-0.23997,0.72485 -0.70259,1.27654 -1.38786,1.65505" fill="none" stroke="#c8a245" stroke-width="2"/><path d="M229.3537,144.72223c-0.70012,0.64817 -1.29757,0.6123 -1.79236,-0.10762c-1.0712,-1.55609 -2.28218,-3.00457 -3.63295,-4.34543c-0.12572,-0.12495 -0.32664,-0.13143 -0.46014,-0.01485c-1.84801,1.62042 -3.88652,3.05529 -6.11552,4.30461c-1.5165,0.84855 -2.54566,0.41314 -3.08745,-1.30623c-0.23379,-0.73475 0.06679,-1.10213 0.69022,-1.51403c3.05404,-2.01872 5.90029,-4.39368 7.79655,-7.53307c0.06054,-0.10141 0.0623,-0.22762 0.00457,-0.33c-0.05773,-0.10237 -0.16592,-0.16493 -0.28288,-0.16355l-4.82042,0.02226c-0.10638,0 -0.20162,-0.03216 -0.28574,-0.09648c-1.04894,-0.82628 -1.41508,-1.8777 -1.09842,-3.15424c0.09153,-0.37109 0.40202,-0.58013 0.93143,-0.62714c2.82521,-0.24739 5.65289,-0.46757 8.48305,-0.66054c1.52517,-0.10761 2.52711,0.94256 3.06518,2.22652c0.55663,1.32478 -1.42498,4.14134 -2.22652,5.22862c-0.10896,0.15036 -0.15269,0.33822 -0.12123,0.52071c0.03147,0.18249 0.13544,0.34405 0.28821,0.44783c1.40271,0.95493 2.77944,2.05458 4.1302,3.29897c0.64075,0.59127 0.61476,1.30746 -0.07793,2.1486" fill="none" stroke="#b38c2a" stroke-width="2"/><path d="M229.35371,144.72223l1.38786,-1.65505" fill="none" stroke="#ab8a20" stroke-width="2"/><path d="M255.15169,143.57557c-0.66054,1.5363 -1.73917,2.11767 -3.23588,1.74411" fill="none" stroke="#cda848" stroke-width="2"/><path d="M251.91581,145.31969c-1.11821,-0.54179 -1.60681,-1.29881 -1.4658,-2.27105c0.01979,-0.13111 0.07916,-0.24245 0.17812,-0.33398c2.53081,-2.35517 3.63418,-5.30408 3.3101,-8.84672c-0.00742,-0.08163 -0.05319,-0.12493 -0.13731,-0.12988c-1.06873,-0.06185 -2.16962,-0.07298 -3.30267,-0.0334c-1.1615,0.04453 -1.35076,-2.56792 -1.23572,-3.29155c0.02075,-0.12838 0.10847,-0.23592 0.23008,-0.28203c0.36119,-0.14349 0.82133,-0.23255 1.38044,-0.26719c3.83457,-0.24492 7.66914,-0.46633 11.50371,-0.66424c0.75331,-0.04082 1.38787,-0.04824 1.9111,0.58632c0.54921,0.66549 0.96111,1.40766 1.23572,2.22652c0.04077,0.12667 0.03417,0.26268 -0.01856,0.38222c-0.3414,0.76938 -0.92647,1.64762 -1.75524,2.63472c-1.20232,1.43239 -2.11891,2.47639 -2.74976,3.13198c-0.78671,0.81639 -1.6699,0.79784 -2.43062,0.01856c-0.04008,-0.04285 -0.09956,-0.06153 -0.15755,-0.04947c-0.05799,0.01205 -0.10638,0.05314 -0.12819,0.10885c-0.81886,2.2092 -1.86286,3.98795 -3.13198,5.33623" fill="none" stroke="#b38c2a" stroke-width="2"/><path d="M254.30932,144.10623c0.11133,-0.30676 0.39212,-0.48365 0.84237,-0.53065" fill="none" stroke="#b09023" stroke-width="2"/><path d="M253.11442,145.05991l1.1949,-0.95369" fill="none" stroke="#ab8a20" stroke-width="2"/><path d="M253.11443,145.05993c-0.32409,0.19049 -0.72362,0.27708 -1.19862,0.25977" fill="none" stroke="#b09023" stroke-width="2"/><path d="M254.30932,144.10623l0.20039,-0.00742c0.07421,-0.00495 0.08658,0.02103 0.0371,0.07793c-0.3983,0.43788 -0.87577,0.73227 -1.43239,0.88319" fill="none" stroke="#c5a63e" stroke-width="2"/><path d="M242.51988,134.59527c0,-0.1039 -0.05195,-0.1571 -0.15585,-0.15957c-2.63967,-0.03958 -5.27686,-0.03958 -7.91158,0c-0.23503,0.00495 -0.52942,-0.13359 -0.88319,-0.41562c-0.094,-0.07422 -0.15956,-0.16946 -0.19667,-0.28574c-0.28203,-0.86463 -0.73475,-3.09858 0.80154,-3.15795c4.0597,-0.14843 8.227,-0.67909 12.26815,-0.54921c0.12122,0.00463 0.2368,0.05644 0.32285,0.14473c0.24987,0.26966 0.36861,0.62466 0.35624,1.06502c-0.12122,4.22792 -0.29192,8.39399 -0.5121,12.49822c-0.01896,0.35725 -0.29873,0.6465 -0.65682,0.67909l-2.62358,0.22636c-0.13606,0.01237 -0.23503,-0.04205 -0.29688,-0.16328l-0.54549,-1.03533c-0.04948,-0.09648 -0.12864,-0.14596 -0.2375,-0.14843c-2.60503,-0.08411 -5.20264,-0.07669 -7.79283,0.02227c-0.20534,0.00742 -0.48117,-0.09772 -0.82752,-0.31542c-0.10107,-0.06496 -0.17791,-0.16004 -0.21894,-0.27089c-0.41191,-1.12068 -1.05018,-3.00952 0.85721,-3.17651c2.67926,-0.23503 5.31769,-0.45148 7.91529,-0.6494c0.22281,-0.01577 0.39416,-0.20342 0.38965,-0.42676l-0.05195,-3.88157" fill="none" stroke="#b38c2a" stroke-width="2"/><path d="M207.70447,161.88502l-2.05953,2.47887c-0.07063,0.08481 -0.17536,0.13377 -0.28574,0.13359h-1.07615c-0.13026,0.00034 -0.24662,-0.0832 -0.28945,-0.20781c-0.61106,-1.80843 -0.16328,-3.35711 1.34333,-4.64601c1.06873,-0.90916 2.0113,0.2375 2.39722,1.30993" fill="none" stroke="#dbb960" stroke-width="2"/><path d="M207.73416,160.9536l0.08906,-1.03904c0.0099,-0.11627 0.06927,-0.19915 0.17812,-0.24863c0.90298,-0.40324 1.8542,-0.63456 2.85367,-0.69393c0.10885,-0.00495 0.20905,-0.03958 0.30058,-0.1039c0.37604,-0.26471 0.76815,-0.49355 1.17635,-0.68651c1.11698,-0.52323 1.99274,-1.1281 3.32494,-1.22088c0.12369,-0.00742 0.2276,-0.05814 0.31172,-0.15215c0.71248,-0.80154 1.57588,-1.3186 2.59019,-1.55114c0.66549,-0.15338 1.14542,-0.33769 1.43982,-0.55292c1.08358,-0.79784 1.41384,-1.55486 2.17457,-2.59391c0.08164,-0.11132 0.11133,-0.23872 0.08906,-0.38222c-0.01979,-0.12617 -0.00619,-0.24739 0.04082,-0.36367c0.71991,-1.75648 0.82505,-3.53894 0.31542,-5.34737c-0.03711,-0.13359 -0.00866,-0.24987 0.08535,-0.34883l0.97968,-1.03533c0.08658,-0.09153 0.17193,-0.09278 0.25605,-0.00371c0.03711,0.03711 0.07793,0.07051 0.12246,0.10019c0.03711,0.02227 0.0668,0.01485 0.08906,-0.02226c0.57148,-1.06131 1.31735,-0.90173 1.99645,-0.04453c0.7867,0.99204 1.82699,1.45837 3.12084,1.399c0.12864,-0.00495 0.24245,-0.04824 0.34141,-0.12988c0.88566,-0.72733 1.62907,-1.58331 2.23023,-2.56792c0.06282,-0.10445 0.17466,-0.16954 0.2965,-0.17255c0.12184,-0.003 0.23677,0.05648 0.30466,0.1577c0.45272,0.67166 1.06873,0.97225 1.92223,0.9908c1.79359,0.04206 3.58594,0.04701 5.37706,0.01485c0.97967,-0.01856 1.47322,-0.04453 2.33785,0.56776c1.07862,0.76196 2.2859,0.97349 3.62181,0.63456c0.98338,-0.24863 1.80348,-0.84608 2.64585,-1.45466c0.15001,-0.10865 0.35905,-0.08807 0.48983,0.04824c0.53437,0.56158 1.10461,1.12811 1.71071,1.69958c1.20603,1.13182 3.20248,0.33027 4.21184,-0.61229c0.58632,-0.54179 0.81269,-0.47499 1.49177,-0.21894c1.23943,0.46756 2.22033,0.98833 2.94272,1.56228c0.04701,0.03711 0.07174,0.02598 0.07422,-0.0334c0.00248,-0.03711 0.00371,-0.07299 0.00371,-0.10762c0,-0.03711 0.01732,-0.047 0.05196,-0.02969c1.89254,0.87577 3.54636,2.04593 4.96144,3.51048c0.99204,1.02668 1.74906,1.75401 2.27105,2.18199c1.98903,1.63773 3.23711,2.77079 3.74427,3.39916c1.89254,2.36012 3.5142,4.88969 4.86495,7.58873c0.21771,0.43293 0.40944,1.05636 0.57519,1.87028c0.1608,0.7768 0.43788,1.62784 0.83123,2.55308c1.091,2.5506 1.79483,5.335 2.11149,8.35317c0.05567,0.53437 -0.08905,0.93515 -0.07793,1.35076c0.05195,2.11273 0.07051,4.22421 0.05567,6.33446c-0.00248,0.49725 -0.07422,1.17882 -0.21524,2.04469c-0.08659,0.53437 -0.17565,1.21469 -0.26719,2.04098c-0.20534,1.85296 -0.68775,3.71335 -1.44724,5.58115c-0.56653,1.38787 -1.37549,3.11466 -2.42691,5.18038c-1.13553,2.22652 -2.48753,4.32069 -4.05598,6.28251c-0.01732,0.02227 -0.35006,0.49478 -0.99822,1.41755c-0.67291,0.95988 -1.54125,1.56846 -2.60503,1.82575c-1.80101,0.43294 -3.15177,1.29386 -4.05228,2.58276c-0.07093,0.10178 -0.17993,0.16907 -0.30058,0.18554c-0.3884,0.05195 -0.65929,0.2412 -0.81268,0.56776c-0.04206,0.09153 -0.10638,0.16451 -0.19297,0.21894l-1.9111,1.1949c-0.09153,0.05443 -0.18926,0.07422 -0.29316,0.05937l-0.25605,-0.0371c-0.12122,-0.01732 -0.22018,0.02103 -0.29687,0.11503c-0.29934,0.34882 -0.66424,0.56776 -1.09471,0.65682c-0.12369,0.02721 -0.24121,0.06927 -0.35253,0.12617c-0.42799,0.2276 -0.74836,0.55416 -0.96112,0.97967c-0.0569,0.11627 -0.14225,0.20286 -0.25604,0.25976c-1.20727,0.59869 -2.42444,1.17016 -3.6515,1.71442c-0.69269,0.30677 -1.48929,0.54921 -2.3898,0.72733c-0.75207,0.15091 -1.53506,0.33769 -2.34898,0.56034c-0.12864,0.03463 -0.261,0.05567 -0.39707,0.06309c-1.23201,0.07669 -2.39598,0.12494 -3.49193,0.14473c-0.06185,0.00248 -0.45149,-0.0334 -1.16893,-0.10762c-0.67909,-0.07051 -1.45095,0.24863 -2.0818,-0.08164c-0.10937,-0.05838 -0.23075,-0.08777 -0.35253,-0.08535c-1.53877,0.03463 -3.07384,0.09896 -4.6052,0.19297c-1.29386,0.07917 -2.46526,0.04453 -3.5142,-0.1039c-0.77434,-0.11132 -1.54992,-0.23625 -2.32672,-0.3748c-0.75949,-0.13606 -1.49919,-0.3748 -2.2191,-0.7162c-1.97419,-0.93762 -3.92363,-1.92842 -5.84834,-2.97241c-0.33893,-0.18307 -0.59869,-0.35872 -0.77928,-0.52694c-0.86834,-0.80526 -1.79978,-1.30623 -2.88335,-1.77009c-0.51705,-0.22018 -1.00194,-0.52323 -1.45466,-0.90916c-0.70012,-0.59869 -1.65381,-1.29387 -2.86109,-2.08552c-0.88566,-0.58137 -1.71318,-1.42374 -2.48258,-2.5271c-0.41809,-0.59621 -0.89927,-1.17016 -1.44353,-1.72185c-1.12563,-1.13553 -2.01005,-2.4467 -2.65328,-3.93352c-0.03216,-0.07669 -0.08906,-0.11379 -0.1707,-0.11132c-0.04206,0 -0.08164,0 -0.11875,0c-0.04205,0 -0.07299,-0.01979 -0.09278,-0.05938c-0.78175,-1.39529 -1.57712,-2.78316 -2.38608,-4.1636c-0.48736,-0.82629 -0.84608,-1.67731 -1.07616,-2.55308c-0.50962,-1.91481 -0.97967,-3.83952 -1.41013,-5.77412c-0.16328,-0.73475 -0.14843,-1.93337 -0.43046,-2.89448c-0.13606,-0.46262 -0.21276,-0.84237 -0.23008,-1.13924c-0.27831,-4.197 -0.09649,-8.49789 1.00564,-12.56872c0.522,-1.92471 0.96731,-3.24083 1.33592,-3.94837c0.28945,-0.55663 0.77433,-1.06007 1.45466,-1.51032c0.616,-0.4082 1.0576,-0.78918 1.32477,-1.14295c0.62343,-0.83123 1.15284,-1.68844 1.58826,-2.57164" fill="none" stroke="#cc9e45" stroke-width="2"/><path d="M207.70447,161.88502l0.02968,-0.93143" fill="none" stroke="#d7b255" stroke-width="2"/><path d="M224.50359,132.60995l-6.6573,-0.04452c-0.14596,0 -0.23503,-0.07174 -0.26719,-0.21524l-0.24863,-1.10956c-0.0162,-0.07283 0.00015,-0.14914 0.04489,-0.20951c0.04474,-0.06037 0.11356,-0.09895 0.1889,-0.10591l8.92836,-0.7162c0.11627,-0.0099 0.20904,0.03093 0.27831,0.12246l1.13924,1.50291c0.0596,0.07821 0.07239,0.18191 0.0334,0.2709c-0.78423,1.79111 -1.78988,3.44616 -3.01694,4.96514c-0.1608,0.20039 -0.13854,0.37727 0.06679,0.53065l5.44014,4.08196c0.05653,0.04346 0.09266,0.10819 0.09971,0.17863c0.00705,0.07044 -0.01565,0.14018 -0.06261,0.19246l-1.77009,1.99645c-0.0467,0.05374 -0.11625,0.08193 -0.18777,0.07609c-0.07151,-0.00583 -0.13667,-0.04502 -0.1759,-0.10578c-1.25675,-1.98408 -2.76089,-3.76035 -4.51242,-5.32881c-0.08783,-0.07898 -0.22247,-0.07405 -0.30429,0.01113c-2.09294,2.18446 -4.49139,3.96198 -7.19538,5.33253c-0.13021,0.06646 -0.28205,0.07626 -0.41973,0.0271c-0.13767,-0.04917 -0.24896,-0.15295 -0.30761,-0.28686l-0.27831,-0.64198c-0.05339,-0.11968 -0.0107,-0.26042 0.1002,-0.33027c3.8556,-2.44547 7.24363,-5.63311 9.28461,-9.87464c0.03316,-0.06895 0.02858,-0.15009 -0.0121,-0.21488c-0.04068,-0.06479 -0.11179,-0.10416 -0.18829,-0.10425" fill="none" stroke="#c3af72" stroke-width="2"/><path d="M259.10378,137.09268c-0.09506,-0.08607 -0.11675,-0.22702 -0.05195,-0.33769l2.18571,-3.81106c0.05037,-0.08599 0.05025,-0.19232 -0.00029,-0.27886c-0.05055,-0.08654 -0.14383,-0.14011 -0.24462,-0.14046h-10.16779c-0.16328,0 -0.27213,-0.07669 -0.32655,-0.23008l-0.38593,-1.11698c-0.01977,-0.06132 -0.01051,-0.12833 0.02509,-0.18137c0.0356,-0.05304 0.0935,-0.08611 0.15673,-0.08952l12.97321,-0.69022c0.13872,-0.00942 0.27188,0.06074 0.34511,0.18183l0.96853,1.57341c0.0702,0.1132 0.06729,0.2571 -0.00742,0.36738c-1.3186,1.93213 -2.84501,3.68242 -4.57922,5.25089c-0.09609,0.09005 -0.24638,0.09005 -0.34511,0l-0.5455,-0.49725" fill="none" stroke="#c3af72" stroke-width="2"/><path d="M251.65234,143.15996c2.65699,-2.57534 3.82467,-5.75557 3.50306,-9.54066c-0.01237,-0.13606 0.04824,-0.19544 0.18183,-0.17812l2.30074,0.30429c0.10638,0.01484 0.15957,0.07546 0.15957,0.18184c0.04453,4.21803 -1.58702,7.5776 -4.89464,10.07873c-0.37603,0.2845 -0.77186,0.27956 -1.18748,-0.01484c-0.13075,-0.09282 -0.21333,-0.23914 -0.2255,-0.39957c-0.01217,-0.16043 0.0473,-0.3185 0.16242,-0.43167" fill="none" stroke="#c3af72" stroke-width="2"/><path d="M243.32143,133.37438l-8.67602,-0.04825c-0.1434,0.00014 -0.26585,-0.10347 -0.28945,-0.24492l-0.18184,-1.11697c-0.01268,-0.08138 0.00946,-0.16434 0.06099,-0.22857c0.05153,-0.06424 0.12772,-0.10385 0.2099,-0.10912l11.49257,-0.7162c0.08222,-0.00524 0.16285,0.02435 0.22216,0.08154c0.0593,0.05719 0.0918,0.13669 0.08956,0.21904l-0.33027,12.03807c-0.00482,0.14671 -0.11742,0.26724 -0.26347,0.28203l-1.82947,0.18926c-0.08819,0.00949 -0.17594,-0.02146 -0.23866,-0.08418c-0.06273,-0.06273 -0.09368,-0.15047 -0.08418,-0.23867l0.08164,-0.78299c0.00836,-0.08211 -0.01828,-0.16394 -0.07338,-0.22539c-0.05509,-0.06145 -0.13355,-0.09683 -0.21608,-0.09746l-8.85414,-0.02227c-0.13966,-0.001 -0.25922,-0.10037 -0.28574,-0.2375l-0.21894,-1.13924c-0.01616,-0.08248 0.00385,-0.16792 0.05496,-0.23464c0.05111,-0.06672 0.12839,-0.1083 0.21222,-0.11419l9.11762,-0.61229c0.15315,-0.01166 0.27134,-0.13956 0.27089,-0.29315l0.02226,-5.9708c0,-0.16191 -0.13125,-0.29316 -0.29316,-0.29316" fill="none" stroke="#c3af72" stroke-width="2"/><path d="M264.51052,210.59024c1.44476,0.09895 2.82645,0.45396 4.14504,1.06502c0.11627,0.05443 0.19049,0.14348 0.22266,0.26718c0.15833,0.62838 0.00371,1.24067 -0.46386,1.83689" fill="none" stroke="#dcbe82" stroke-width="2"/><path d="M263.79061,210.51973l2.32672,0.08163c0.01237,0 0.01732,0.00866 0.01484,0.02598c0,0.00248 0,0.00494 0,0.00742c0,0.00495 -0.00247,0.00743 -0.00742,0.00743l-1.61423,-0.05195" fill="none" stroke="#dfc97b" stroke-width="2"/><path d="" fill="none" stroke="#d4b85f" stroke-width="2"/><path d="M264.80367,211.18768l-0.61971,0.16328c-0.13606,0.03711 -0.24863,0.00124 -0.33769,-0.10762c-0.08906,-0.1039 -0.21399,-0.07916 -0.3748,0.07422c-0.19792,0.19049 -0.23626,0.16328 -0.11504,-0.08164c0.2276,-0.46756 0.61229,-0.6828 1.15409,-0.64569" fill="none" stroke="#dcce8a" stroke-width="2"/><path d="M264.80367,211.18768c0.81887,0.38098 1.64763,0.71497 2.48629,1.00194c0.50962,0.1707 0.82876,0.40696 0.95741,0.70878c0.16823,0.38593 0.16328,0.83371 -0.01484,1.34334" fill="none" stroke="#dcd289" stroke-width="2"/><path d="M264.80367,211.18768c0.94998,-0.15833 1.76885,0.04453 2.4566,0.60858c0.10143,0.08164 0.21647,0.13359 0.34511,0.15586c0.81639,0.13606 1.08604,0.73847 0.80896,1.8072" fill="none" stroke="#d8c790" stroke-width="2"/><path d="M263.84997,138.98893c-0.99204,-0.60611 -1.73793,-0.79784 -2.23766,-0.57518c-1.00441,0.45025 -1.34952,1.15161 -1.03533,2.10407c0.03825,0.11979 0.11704,0.22222 0.22266,0.28945c1.5932,1.02667 3.1864,2.05211 4.7796,3.07631c0.63827,0.41067 1.2716,0.90916 1.89997,1.49548c0.70506,0.65807 1.3186,1.18995 1.84059,1.59568c1.15284,0.89803 2.10901,1.80843 2.8685,2.7312c0.03866,0.04843 0.06077,0.10695 0.06309,0.16699c0,0.07174 0.02103,0.13359 0.06309,0.18554c1.3656,1.76638 2.81284,3.45853 4.34172,5.07647c0.81639,0.86463 1.20604,1.96305 1.83689,2.97241c0.5121,0.82133 0.924,1.59073 1.23572,2.30817c0.4453,1.0242 0.9438,2.02366 1.49549,2.99839c0.32161,0.56653 0.55416,1.1714 0.69764,1.81462c0.14101,0.64075 0.30676,1.27655 0.49725,1.90739c0.30924,1.03409 0.55292,1.98161 0.73105,2.84253c0.29687,1.44353 0.77186,2.86851 0.89803,4.28234c0.31666,3.61934 0.36738,7.24486 0.15214,10.87657c-0.03958,0.66549 -0.30925,2.11891 -0.80897,4.36027c-0.7768,3.4808 -1.80225,6.52248 -3.07631,9.12504c-0.32161,0.65559 -0.63456,1.36931 -0.93885,2.14117c-0.35872,0.90546 -0.70878,1.60187 -1.05018,2.08922c-1.11326,1.57588 -2.23642,3.14558 -3.36948,4.70909c-0.34635,0.47746 -0.76196,0.95741 -1.24686,1.43982c-0.44283,0.44036 -0.87701,0.88814 -1.30252,1.34333c-0.09648,0.1039 -0.21276,0.17194 -0.34882,0.2041l-0.79042,0.18554c-0.08411,0.01732 -0.12616,-0.01608 -0.12616,-0.1002v-0.1707c0,-0.14843 -0.07546,-0.22636 -0.22636,-0.23378c-0.4651,-0.02227 -1.45466,-0.14596 -2.9687,-0.37109c-1.34581,-0.20039 -2.73121,0.01979 -4.15618,0.66054c-0.97225,0.66548 -1.93832,1.31365 -2.8982,1.9445c-0.56776,0.37109 -0.924,0.96853 -1.22459,1.54001c-0.27214,0.25481 -0.3748,0.56405 -0.308,0.92772l-0.05567,1.65876l0.49354,2.57534c0.02474,0.13606 0.00124,0.26224 -0.07051,0.37851l-0.91659,1.48064c-0.06432,0.1039 -0.15338,0.17565 -0.26718,0.21523c-0.48736,0.16823 -0.95122,0.37604 -1.39158,0.62343c-0.55663,0.3043 -1.14667,0.32656 -1.71071,0.616c-0.50468,0.25977 -0.91905,0.41809 -1.24314,0.47499c-1.13182,0.2041 -2.20797,0.46386 -3.28041,0.88689c-0.36861,0.14349 -0.89556,0.27336 -1.58083,0.38965c-5.52425,0.93515 -10.73308,1.091 -15.62648,0.46757c-1.98903,-0.25481 -4.91814,-0.93515 -8.78735,-2.04099c-0.78671,-0.22513 -1.43116,-0.46386 -1.93337,-0.7162c-0.8436,-0.42056 -1.399,-0.83 -1.66618,-1.2283c-0.89309,-1.3186 -2.062,-2.31682 -3.50678,-2.99467c-0.76691,-0.36119 -1.48064,-0.80526 -2.14117,-1.3322c-1.86533,-1.48435 -3.70345,-3.00334 -5.51436,-4.55695c-0.80154,-0.68775 -1.63031,-1.55486 -2.48628,-2.60133c-0.65312,-0.7966 -1.43611,-1.71442 -2.34898,-2.75347c-1.68968,-1.92471 -3.15672,-4.21432 -4.4011,-6.86882c-0.53807,-1.15037 -1.12069,-2.14118 -1.48807,-3.19878c-0.43046,-1.24686 -1.01678,-2.50855 -1.36189,-3.65521c-1.0242,-3.39174 -1.57094,-7.10385 -1.64021,-11.13633c-0.09896,-5.86813 0.7298,-11.37382 2.48628,-16.5171c0.29192,-0.85103 0.69641,-1.78122 1.21346,-2.79058c0.4651,-0.90051 0.92895,-1.80225 1.39158,-2.70523c0.45272,-0.87947 0.58632,-2.13746 1.69216,-2.99467c0.09648,-0.07421 0.16575,-0.16946 0.20781,-0.28573c0.16823,-0.48736 0.42181,-0.92401 0.76073,-1.30994c0.79907,-0.90298 1.54496,-1.85172 2.23766,-2.84624c0.34882,-0.49725 0.93143,-0.62714 1.30623,-1.14667c1.06378,-1.4794 2.4232,-2.97365 4.07825,-4.48274c0.67786,-0.616 1.31613,-1.45837 1.91481,-2.5271c0.05937,-0.10885 0.08164,-0.22266 0.06679,-0.3414c-0.13111,-1.00441 0.23873,-1.76638 1.10956,-2.2859c1.28396,-0.76691 2.58276,-1.79236 3.89641,-3.07631c0.11713,-0.11607 0.13577,-0.29878 0.04452,-0.43613c-0.09126,-0.13734 -0.26693,-0.19093 -0.41931,-0.12792c-0.55663,0.23997 -1.13305,0.5257 -1.72927,0.85721c-0.70136,0.38965 -1.71443,1.33592 -2.84625,1.61795c1.09842,-1.02173 2.32301,-1.82575 3.67376,-2.41207c1.63278,-0.70878 2.51597,-1.30993 3.46595,-2.60503c0.0731,-0.09923 0.08179,-0.23161 0.02235,-0.3402c-0.05944,-0.10859 -0.17644,-0.17404 -0.30066,-0.16819c-2.52339,0.14101 -4.96515,0.38222 -5.37706,-2.84253c-0.24492,-1.9111 0.52694,-2.84995 2.44176,-3.02436c2.37002,-0.22018 4.74374,-0.38841 7.12117,-0.50468c1.68474,-0.08164 2.50484,-0.31542 3.58842,1.25428c0.89803,1.29881 1.6365,2.14118 1.0576,3.79622c-0.02814,0.07718 -0.00471,0.16324 0.05885,0.21607c0.06356,0.05283 0.15393,0.06136 0.22688,0.02142c0.62838,-0.35872 1.30005,-0.53808 2.01501,-0.53808c0.10178,0.00028 0.19814,-0.04586 0.26172,-0.12534c0.06359,-0.07948 0.08745,-0.18362 0.06483,-0.28285c-0.51952,-2.29332 1.1949,-3.11342 3.26186,-3.17651c3.42142,-0.1039 6.8379,-0.28078 10.24943,-0.53065c0.76444,-0.05443 1.46332,0.24493 2.09664,0.89803c0.08273,0.08552 0.21597,0.09662 0.31172,0.02598c0.90298,-0.66301 1.79978,-1.01431 2.69038,-1.05389c4.21061,-0.18554 8.4175,-0.37233 12.62068,-0.56034c1.77009,-0.07793 3.75169,3.43998 2.82026,4.96144c-1.00441,1.64269 -2.20673,3.10724 -3.60696,4.39368c-0.12019,0.10943 -0.16779,0.27733 -0.12308,0.43418c0.0447,0.15685 0.17409,0.27596 0.33459,0.30799c0.40572,0.07669 0.74836,0.28574 1.02791,0.62713zM229.3537,144.72223c0.68527,-0.37851 1.14789,-0.9302 1.38786,-1.65505c0.69269,-0.84113 0.71867,-1.55733 0.07793,-2.1486c-1.35076,-1.24438 -2.72749,-2.34403 -4.1302,-3.29896c-0.15277,-0.10378 -0.25675,-0.26534 -0.28821,-0.44783c-0.03146,-0.18249 0.01227,-0.37035 0.12123,-0.52071c0.80154,-1.08729 2.78316,-3.90383 2.22652,-5.22862c-0.53808,-1.28396 -1.54001,-2.33414 -3.06518,-2.22652c-2.83016,0.19297 -5.65784,0.41314 -8.48305,0.66054c-0.52942,0.04701 -0.8399,0.25605 -0.93143,0.62714c-0.31666,1.27655 0.04948,2.32796 1.09842,3.15424c0.08411,0.06432 0.17936,0.09648 0.28574,0.09648l4.82042,-0.02227c0.11696,-0.00138 0.22515,0.06117 0.28288,0.16355c0.05773,0.10237 0.05598,0.22859 -0.00457,0.32999c-1.89626,3.1394 -4.7425,5.51437 -7.79655,7.53307c-0.62343,0.41191 -0.92401,0.77928 -0.69023,1.51403c0.54179,1.71937 1.57094,2.15478 3.08745,1.30623c2.229,-1.24933 4.26751,-2.6842 6.11552,-4.30461c0.13351,-0.11658 0.33443,-0.1101 0.46014,0.01484c1.35076,1.34086 2.56174,2.78934 3.63295,4.34544c0.49478,0.71991 1.09223,0.75578 1.79236,0.10761zM251.91581,145.31969c1.49671,0.37356 2.57534,-0.20781 3.23588,-1.74411c1.26912,-1.34829 2.31312,-3.12703 3.13198,-5.33624c0.02181,-0.05571 0.0702,-0.09679 0.12819,-0.10884c0.05799,-0.01205 0.11747,0.00662 0.15754,0.04947c0.76073,0.77928 1.64392,0.79784 2.43062,-0.01856c0.63085,-0.65559 1.54744,-1.69958 2.74976,-3.13198c0.82876,-0.9871 1.41384,-1.86533 1.75524,-2.63472c0.05272,-0.11954 0.05932,-0.25556 0.01856,-0.38222c-0.2746,-0.81887 -0.68651,-1.56104 -1.23572,-2.22652c-0.52324,-0.63456 -1.15779,-0.62714 -1.9111,-0.58632c-3.83457,0.19792 -7.66914,0.41933 -11.50371,0.66424c-0.55911,0.03464 -1.01926,0.12369 -1.38044,0.26719c-0.12161,0.04611 -0.20933,0.15364 -0.23008,0.28203c-0.11504,0.72362 0.07422,3.33607 1.23572,3.29154c1.13305,-0.03958 2.23394,-0.02845 3.30267,0.0334c0.08411,0.00495 0.12988,0.04825 0.1373,0.12988c0.32409,3.54264 -0.77928,6.49156 -3.3101,8.84672c-0.09896,0.09153 -0.15833,0.20286 -0.17812,0.33398c-0.14101,0.97225 0.34758,1.72927 1.46579,2.27105zM242.51988,134.59527l0.05195,3.88157c0.00451,0.22333 -0.16683,0.41098 -0.38965,0.42676c-2.59761,0.19792 -5.23604,0.41438 -7.91529,0.6494c-1.90739,0.16699 -1.26912,2.05583 -0.85721,3.17651c0.04103,0.11085 0.11788,0.20593 0.21894,0.27089c0.34635,0.21771 0.62219,0.32284 0.82753,0.31542c2.59019,-0.09896 5.1878,-0.10638 7.79283,-0.02227c0.10885,0.00248 0.18802,0.05195 0.2375,0.14843l0.54549,1.03533c0.06185,0.12122 0.16081,0.17565 0.29688,0.16328l2.62359,-0.22636c0.3581,-0.03259 0.63786,-0.32183 0.65682,-0.67909c0.22018,-4.10423 0.39087,-8.2703 0.5121,-12.49822c0.01237,-0.44036 -0.10637,-0.79536 -0.35624,-1.06502c-0.08604,-0.08829 -0.20162,-0.1401 -0.32285,-0.14473c-4.04114,-0.12988 -8.20845,0.40077 -12.26814,0.54921c-1.5363,0.05937 -1.08357,2.29332 -0.80154,3.15795c0.03711,0.11627 0.10267,0.21152 0.19668,0.28574c0.35377,0.28203 0.64817,0.42056 0.88319,0.41561c2.63472,-0.03958 5.27191,-0.03958 7.91159,0c0.1039,0.00248 0.15585,0.05567 0.15585,0.15957zM207.73416,160.9536c-0.38593,-1.07244 -1.32849,-2.2191 -2.39723,-1.30993c-1.50661,1.28892 -1.95439,2.83758 -1.34333,4.64601c0.04283,0.12461 0.15919,0.20815 0.28945,0.20781h1.07615c0.11038,0.00018 0.2151,-0.04878 0.28574,-0.13359l2.05953,-2.47886c-0.43541,0.88319 -0.96483,1.7404 -1.58826,2.57164c-0.26719,0.35377 -0.70878,0.73475 -1.32477,1.14294c-0.68032,0.45025 -1.16521,0.95369 -1.45466,1.51033c-0.36861,0.70754 -0.81392,2.02367 -1.33592,3.94837c-1.10213,4.07082 -1.28396,8.37173 -1.00564,12.56872c0.01732,0.29687 0.094,0.67661 0.23008,1.13924c0.28203,0.96112 0.26718,2.15973 0.43046,2.89448c0.43046,1.9346 0.90051,3.85931 1.41013,5.77412c0.23008,0.87577 0.5888,1.72679 1.07616,2.55308c0.80896,1.38044 1.60433,2.76831 2.38608,4.1636c0.01979,0.03958 0.05072,0.05938 0.09278,0.05938c0.03711,0 0.07669,0 0.11874,0c0.08164,-0.00248 0.13854,0.03463 0.1707,0.11132c0.64322,1.48682 1.52764,2.798 2.65328,3.93352c0.54426,0.55169 1.02544,1.12563 1.44353,1.72185c0.76938,1.10337 1.59691,1.94573 2.48257,2.5271c1.20727,0.79165 2.16097,1.48683 2.86109,2.08552c0.45272,0.38593 0.93762,0.68898 1.45466,0.90916c1.08358,0.46386 2.015,0.96483 2.88335,1.77009c0.1806,0.16823 0.44035,0.34387 0.77928,0.52694c1.92471,1.04399 3.87415,2.03479 5.84834,2.97241c0.71991,0.3414 1.4596,0.58014 2.2191,0.7162c0.7768,0.13854 1.55239,0.26347 2.32672,0.3748c1.04894,0.14843 2.22034,0.18307 3.5142,0.1039c1.53135,-0.094 3.06642,-0.15833 4.6052,-0.19297c0.12178,-0.00242 0.24316,0.02697 0.35253,0.08536c0.63085,0.33027 1.40271,0.01113 2.0818,0.08164c0.71743,0.07422 1.10708,0.1101 1.16893,0.10762c1.09595,-0.01979 2.25992,-0.06803 3.49193,-0.14473c0.13606,-0.00742 0.26842,-0.02845 0.39707,-0.06309c0.81392,-0.22266 1.59691,-0.40943 2.34898,-0.56034c0.90051,-0.17812 1.69711,-0.42056 2.3898,-0.72733c1.22706,-0.54426 2.44423,-1.11573 3.6515,-1.71442c0.1138,-0.0569 0.19915,-0.14349 0.25605,-0.25976c0.21276,-0.42551 0.53313,-0.75207 0.96111,-0.97967c0.11133,-0.0569 0.22884,-0.09896 0.35253,-0.12617c0.43046,-0.08906 0.79536,-0.308 1.09471,-0.65682c0.07669,-0.094 0.17565,-0.13235 0.29687,-0.11503l0.25605,0.0371c0.1039,0.01485 0.20163,-0.00494 0.29315,-0.05937l1.9111,-1.1949c0.08658,-0.05443 0.15091,-0.12741 0.19297,-0.21894c0.15338,-0.32656 0.42428,-0.51581 0.81268,-0.56776c0.12065,-0.01647 0.22965,-0.08376 0.30058,-0.18554c0.90051,-1.28891 2.25126,-2.14983 4.05228,-2.58276c1.06378,-0.25729 1.93213,-0.86587 2.60503,-1.82575c0.64817,-0.92278 0.98091,-1.39529 0.99822,-1.41755c1.56846,-1.96182 2.92046,-4.05598 4.05598,-6.28251c1.05142,-2.06572 1.86038,-3.79252 2.42691,-5.18038c0.75949,-1.8678 1.24191,-3.72819 1.44724,-5.58115c0.09153,-0.82628 0.1806,-1.50661 0.26719,-2.04098c0.14101,-0.86587 0.21276,-1.54743 0.21524,-2.04469c0.01484,-2.11025 -0.00371,-4.22174 -0.05567,-6.33446c-0.01113,-0.41561 0.13359,-0.81639 0.07793,-1.35076c-0.31666,-3.01818 -1.02049,-5.80257 -2.11149,-8.35317c-0.39335,-0.92525 -0.67043,-1.77627 -0.83124,-2.55308c-0.16575,-0.81391 -0.35748,-1.43734 -0.57518,-1.87028c-1.35076,-2.69905 -2.97241,-5.22862 -4.86495,-7.58873c-0.50715,-0.62837 -1.75524,-1.76143 -3.74427,-3.39916c-0.522,-0.42799 -1.27902,-1.15532 -2.27105,-2.18199c-1.41508,-1.46455 -3.06889,-2.63472 -4.96144,-3.51049c-0.03463,-0.01731 -0.05196,-0.00742 -0.05196,0.02969c0,0.03464 -0.00124,0.07051 -0.00371,0.10762c-0.00248,0.05937 -0.02721,0.07051 -0.07422,0.0334c-0.72239,-0.57395 -1.70329,-1.09471 -2.94272,-1.56228c-0.67909,-0.25605 -0.90546,-0.32284 -1.49177,0.21894c-1.00936,0.94256 -3.00581,1.74411 -4.21184,0.61229c-0.60611,-0.57148 -1.17635,-1.138 -1.71071,-1.69958c-0.13078,-0.1363 -0.33982,-0.15689 -0.48983,-0.04825c-0.84237,0.60858 -1.66247,1.20604 -2.64585,1.45466c-1.33591,0.33893 -2.54318,0.1274 -3.62181,-0.63456c-0.86464,-0.61229 -1.35818,-0.58632 -2.33785,-0.56776c-1.79112,0.03216 -3.58347,0.02721 -5.37706,-0.01484c-0.8535,-0.01856 -1.4695,-0.31914 -1.92223,-0.9908c-0.06788,-0.10123 -0.18282,-0.16072 -0.30466,-0.1577c-0.12184,0.003 -0.23369,0.0681 -0.2965,0.17255c-0.60116,0.98462 -1.34457,1.84059 -2.23023,2.56792c-0.09896,0.08164 -0.21276,0.12493 -0.34141,0.12988c-1.29386,0.05937 -2.33414,-0.40696 -3.12084,-1.399c-0.67909,-0.85721 -1.42497,-1.01679 -1.99645,0.04452c-0.02227,0.03711 -0.05195,0.04453 -0.08906,0.02227c-0.04453,-0.02968 -0.08535,-0.06308 -0.12246,-0.10019c-0.08411,-0.08906 -0.16946,-0.08783 -0.25604,0.00371l-0.97968,1.03533c-0.094,0.09896 -0.12246,0.21524 -0.08535,0.34883c0.50962,1.80843 0.40448,3.59089 -0.31543,5.34737c-0.04701,0.11627 -0.06061,0.2375 -0.04082,0.36366c0.02227,0.14349 -0.00743,0.27089 -0.08906,0.38222c-0.76073,1.03905 -1.091,1.79606 -2.17457,2.5939c-0.2944,0.21524 -0.77433,0.39954 -1.43982,0.55292c-1.0143,0.23255 -1.8777,0.7496 -2.59019,1.55114c-0.08411,0.094 -0.18802,0.14472 -0.31171,0.15215c-1.3322,0.09277 -2.20797,0.69764 -3.32494,1.22088c-0.4082,0.19297 -0.80031,0.42181 -1.17635,0.68651c-0.09153,0.06432 -0.19173,0.09895 -0.30058,0.1039c-0.99947,0.05937 -1.95068,0.29069 -2.85367,0.69393c-0.10885,0.04947 -0.16823,0.13236 -0.17812,0.24863z" fill="#e3ac6a" stroke="none" stroke-width="1"/><path d="M230.74157,143.06719l-1.38786,1.65505c-0.70012,0.64817 -1.29757,0.6123 -1.79236,-0.10761c-1.0712,-1.55609 -2.28218,-3.00457 -3.63295,-4.34544c-0.12572,-0.12495 -0.32664,-0.13143 -0.46014,-0.01484c-1.84801,1.62042 -3.88652,3.05529 -6.11552,4.30461c-1.5165,0.84855 -2.54566,0.41314 -3.08745,-1.30623c-0.23378,-0.73475 0.0668,-1.10213 0.69023,-1.51403c3.05404,-2.01872 5.90029,-4.39368 7.79655,-7.53307c0.06054,-0.10141 0.0623,-0.22762 0.00457,-0.33c-0.05773,-0.10237 -0.16592,-0.16493 -0.28288,-0.16355l-4.82042,0.02226c-0.10638,0 -0.20162,-0.03216 -0.28574,-0.09648c-1.04894,-0.82628 -1.41508,-1.8777 -1.09842,-3.15424c0.09153,-0.37109 0.40202,-0.58013 0.93143,-0.62714c2.82521,-0.24739 5.65289,-0.46757 8.48305,-0.66054c1.52517,-0.10762 2.52711,0.94256 3.06518,2.22652c0.55663,1.32478 -1.42498,4.14133 -2.22652,5.22862c-0.10896,0.15036 -0.15269,0.33822 -0.12123,0.52071c0.03147,0.18249 0.13544,0.34405 0.28821,0.44783c1.40271,0.95494 2.77944,2.05458 4.1302,3.29897c0.64075,0.59127 0.61476,1.30746 -0.07793,2.1486zM224.50359,132.60995c0.0765,0.0001 0.14761,0.03946 0.18829,0.10425c0.04068,0.06479 0.04526,0.14593 0.0121,0.21488c-2.04098,4.24153 -5.42901,7.42917 -9.28461,9.87464c-0.11089,0.06985 -0.15358,0.21058 -0.10019,0.33027l0.27831,0.64198c0.05865,0.1339 0.16994,0.23769 0.30761,0.28686c0.13767,0.04917 0.28952,0.03937 0.41973,-0.0271c2.70399,-1.37055 5.10245,-3.14806 7.19539,-5.33253c0.08182,-0.08519 0.21646,-0.09011 0.30429,-0.01113c1.75153,1.56846 3.25567,3.34473 4.51242,5.32881c0.03923,0.06076 0.10438,0.09993 0.1759,0.10578c0.07151,0.00584 0.14107,-0.02234 0.18777,-0.07609l1.77009,-1.99645c0.04696,-0.05228 0.06965,-0.12203 0.0626,-0.19246c-0.00704,-0.07044 -0.04318,-0.13517 -0.09971,-0.17863l-5.44014,-4.08196c-0.20534,-0.15338 -0.2276,-0.33027 -0.0668,-0.53065c1.22706,-1.51898 2.23271,-3.17403 3.01694,-4.96514c0.03898,-0.08898 0.02619,-0.19269 -0.0334,-0.2709l-1.13924,-1.50291c-0.06927,-0.09153 -0.16204,-0.13236 -0.27831,-0.12246l-8.92836,0.7162c-0.07535,0.00697 -0.14415,0.04554 -0.18889,0.10591c-0.04474,0.06036 -0.06109,0.13668 -0.04489,0.20951l0.24862,1.10956c0.03216,0.14349 0.12122,0.21524 0.26719,0.21524z" fill="#8d5e12" stroke="none" stroke-width="1"/><path d="M255.15169,143.57557c-0.45025,0.047 -0.73105,0.22389 -0.84237,0.53065l-1.1949,0.95369c-0.32409,0.19049 -0.72362,0.27708 -1.19862,0.25977c-1.11821,-0.54179 -1.6068,-1.29881 -1.46579,-2.27105c0.01979,-0.13111 0.07916,-0.24245 0.17812,-0.33398c2.53081,-2.35517 3.63418,-5.30408 3.3101,-8.84672c-0.00742,-0.08163 -0.05319,-0.12493 -0.1373,-0.12988c-1.06873,-0.06185 -2.16962,-0.07298 -3.30267,-0.0334c-1.16151,0.04453 -1.35076,-2.56792 -1.23572,-3.29154c0.02075,-0.12839 0.10847,-0.23592 0.23008,-0.28203c0.36119,-0.14349 0.82133,-0.23255 1.38044,-0.26719c3.83457,-0.24492 7.66914,-0.46633 11.50371,-0.66424c0.75331,-0.04082 1.38787,-0.04825 1.9111,0.58632c0.54921,0.66549 0.96111,1.40766 1.23572,2.22652c0.04077,0.12667 0.03417,0.26268 -0.01856,0.38222c-0.3414,0.76938 -0.92647,1.64762 -1.75524,2.63472c-1.20232,1.43239 -2.11891,2.47639 -2.74976,3.13198c-0.78671,0.81639 -1.6699,0.79784 -2.43062,0.01856c-0.04008,-0.04285 -0.09956,-0.06153 -0.15755,-0.04947c-0.05799,0.01205 -0.10638,0.05314 -0.12819,0.10884c-0.81887,2.20921 -1.86286,3.98795 -3.13198,5.33624zM259.10378,137.09268l0.54549,0.49725c0.09873,0.09005 0.24901,0.09005 0.34511,0c1.73421,-1.56846 3.26062,-3.31875 4.57922,-5.25089c0.07472,-0.11028 0.07762,-0.25417 0.00742,-0.36738l-0.96853,-1.57341c-0.07323,-0.12109 -0.2064,-0.19125 -0.34511,-0.18183l-12.97321,0.69022c-0.06324,0.00341 -0.12114,0.03648 -0.15673,0.08952c-0.0356,0.05304 -0.04487,0.12004 -0.02509,0.18137l0.38593,1.11698c0.05442,0.15338 0.16328,0.23008 0.32656,0.23008h10.16779c0.10079,0.00037 0.19407,0.05393 0.24462,0.14046c0.05054,0.08654 0.05066,0.19288 0.00029,0.27886l-2.18571,3.81106c-0.0648,0.11067 -0.04311,0.25162 0.05196,0.33769zM251.65234,143.15996c-0.11513,0.11317 -0.1746,0.27124 -0.16242,0.43167c0.01218,0.16043 0.09475,0.30674 0.22551,0.39957c0.41562,0.2944 0.81144,0.29934 1.18748,0.01484c3.30762,-2.50113 4.93918,-5.8607 4.89464,-10.07873c0,-0.10638 -0.0532,-0.16699 -0.15957,-0.18184l-2.30074,-0.30429c-0.13359,-0.01732 -0.1942,0.04205 -0.18183,0.17812c0.32161,3.78509 -0.84608,6.96531 -3.50306,9.54066z" fill="#8d5e12" stroke="none" stroke-width="1"/><path d="M242.36403,134.4357c-2.63967,-0.03958 -5.27686,-0.03958 -7.91159,0c-0.23503,0.00495 -0.52942,-0.13359 -0.88319,-0.41562c-0.09401,-0.07421 -0.15957,-0.16946 -0.19668,-0.28573c-0.28203,-0.86463 -0.73475,-3.09858 0.80154,-3.15795c4.0597,-0.14843 8.227,-0.67909 12.26815,-0.54921c0.12122,0.00463 0.2368,0.05644 0.32285,0.14473c0.24987,0.26966 0.36861,0.62466 0.35624,1.06502c-0.12122,4.22792 -0.29193,8.39399 -0.5121,12.49822c-0.01896,0.35725 -0.29873,0.6465 -0.65682,0.67909l-2.62359,0.22636c-0.13606,0.01237 -0.23503,-0.04205 -0.29688,-0.16328l-0.54549,-1.03533c-0.04948,-0.09648 -0.12864,-0.14596 -0.2375,-0.14843c-2.60503,-0.08411 -5.20265,-0.07669 -7.79283,0.02227c-0.20534,0.00742 -0.48118,-0.09772 -0.82753,-0.31542c-0.10107,-0.06496 -0.17791,-0.16004 -0.21894,-0.27089c-0.41191,-1.12068 -1.05018,-3.00952 0.85721,-3.17651c2.67925,-0.23503 5.31768,-0.45148 7.91529,-0.6494c0.22281,-0.01577 0.39416,-0.20342 0.38965,-0.42676l-0.05195,-3.88157c0,-0.1039 -0.05195,-0.15709 -0.15585,-0.15957zM243.32143,133.37438c0.16191,0 0.29316,0.13125 0.29316,0.29315l-0.02226,5.9708c0.00044,0.1536 -0.11774,0.28149 -0.27089,0.29316l-9.11762,0.61229c-0.08384,0.00588 -0.16112,0.04746 -0.21223,0.11419c-0.05111,0.06672 -0.07112,0.15217 -0.05496,0.23464l0.21894,1.13924c0.02652,0.13712 0.14608,0.2365 0.28574,0.2375l8.85414,0.02227c0.08253,0.00062 0.16098,0.03599 0.21607,0.09745c0.0551,0.06145 0.08173,0.14329 0.07338,0.22539l-0.08164,0.783c-0.00949,0.08819 0.02146,0.17595 0.08418,0.23867c0.06273,0.06272 0.15047,0.09368 0.23867,0.08418l1.82946,-0.18925c0.14604,-0.01479 0.25865,-0.13531 0.26347,-0.28203l0.33027,-12.03807c0.00226,-0.08235 -0.03026,-0.16186 -0.08956,-0.21904c-0.05931,-0.05719 -0.13994,-0.08678 -0.22216,-0.08154l-11.49257,0.7162c-0.08219,0.00527 -0.15837,0.04487 -0.2099,0.10912c-0.05153,0.06424 -0.07366,0.1472 -0.06099,0.22858l0.18184,1.11697c0.02359,0.14144 0.14605,0.24505 0.28945,0.24492z" fill="#8d5e12" stroke="none" stroke-width="1"/><path d="M224.50359,132.60995l-6.6573,-0.04452c-0.14596,0 -0.23503,-0.07174 -0.26719,-0.21524l-0.24863,-1.10956c-0.0162,-0.07283 0.00015,-0.14914 0.04489,-0.20951c0.04474,-0.06037 0.11356,-0.09895 0.1889,-0.10591l8.92836,-0.7162c0.11627,-0.0099 0.20904,0.03093 0.27831,0.12246l1.13924,1.50291c0.0596,0.07821 0.07239,0.18191 0.0334,0.2709c-0.78423,1.79111 -1.78988,3.44616 -3.01694,4.96514c-0.1608,0.20039 -0.13854,0.37727 0.06679,0.53065l5.44014,4.08196c0.05653,0.04346 0.09266,0.10819 0.09971,0.17863c0.00705,0.07044 -0.01565,0.14018 -0.06261,0.19246l-1.77009,1.99645c-0.0467,0.05374 -0.11625,0.08193 -0.18777,0.07609c-0.07151,-0.00583 -0.13667,-0.04502 -0.1759,-0.10578c-1.25675,-1.98408 -2.76089,-3.76035 -4.51242,-5.32881c-0.08783,-0.07898 -0.22247,-0.07405 -0.30429,0.01113c-2.09294,2.18446 -4.49139,3.96198 -7.19538,5.33253c-0.13021,0.06646 -0.28205,0.07626 -0.41973,0.0271c-0.13767,-0.04917 -0.24896,-0.15295 -0.30761,-0.28686l-0.27831,-0.64198c-0.05339,-0.11968 -0.0107,-0.26042 0.1002,-0.33027c3.8556,-2.44547 7.24363,-5.63311 9.28461,-9.87464c0.03316,-0.06895 0.02858,-0.15009 -0.0121,-0.21488c-0.04068,-0.06479 -0.11179,-0.10416 -0.18829,-0.10425z" fill="#fefbe0" stroke="none" stroke-width="1"/><path d="M259.05181,136.75499l2.18571,-3.81106c0.05037,-0.08599 0.05025,-0.19232 -0.00029,-0.27886c-0.05055,-0.08654 -0.14383,-0.14011 -0.24462,-0.14046h-10.16779c-0.16328,0 -0.27213,-0.07669 -0.32655,-0.23008l-0.38593,-1.11698c-0.01977,-0.06132 -0.01051,-0.12833 0.02509,-0.18137c0.0356,-0.05304 0.0935,-0.08611 0.15673,-0.08952l12.97321,-0.69022c0.13872,-0.00942 0.27188,0.06074 0.34511,0.18183l0.96853,1.57341c0.0702,0.1132 0.06729,0.2571 -0.00742,0.36738c-1.3186,1.93213 -2.84501,3.68242 -4.57922,5.25089c-0.09609,0.09005 -0.24638,0.09005 -0.34511,0l-0.5455,-0.49725c-0.09506,-0.08607 -0.11675,-0.22702 -0.05195,-0.33769z" fill="#fefbe0" stroke="none" stroke-width="1"/><path d="M243.32143,133.37438l-8.67602,-0.04825c-0.1434,0.00014 -0.26585,-0.10347 -0.28945,-0.24492l-0.18184,-1.11697c-0.01268,-0.08138 0.00946,-0.16434 0.06099,-0.22857c0.05153,-0.06424 0.12772,-0.10385 0.2099,-0.10912l11.49257,-0.7162c0.08222,-0.00524 0.16285,0.02435 0.22216,0.08154c0.0593,0.05719 0.0918,0.13669 0.08956,0.21904l-0.33027,12.03807c-0.00482,0.14671 -0.11742,0.26724 -0.26347,0.28203l-1.82947,0.18926c-0.08819,0.00949 -0.17594,-0.02146 -0.23866,-0.08418c-0.06273,-0.06273 -0.09368,-0.15047 -0.08418,-0.23867l0.08164,-0.78299c0.00836,-0.08211 -0.01828,-0.16394 -0.07338,-0.22539c-0.05509,-0.06145 -0.13355,-0.09683 -0.21608,-0.09746l-8.85414,-0.02227c-0.13966,-0.001 -0.25922,-0.10037 -0.28574,-0.2375l-0.21894,-1.13924c-0.01616,-0.08248 0.00385,-0.16792 0.05496,-0.23464c0.05111,-0.06672 0.12839,-0.1083 0.21222,-0.11419l9.11762,-0.61229c0.15315,-0.01166 0.27134,-0.13956 0.27089,-0.29315l0.02226,-5.9708c0,-0.16191 -0.13125,-0.29316 -0.29316,-0.29316z" fill="#fefbe0" stroke="none" stroke-width="1"/><path d="M251.65234,143.15996c2.65699,-2.57534 3.82467,-5.75557 3.50306,-9.54066c-0.01237,-0.13606 0.04824,-0.19544 0.18183,-0.17812l2.30074,0.30429c0.10638,0.01484 0.15957,0.07546 0.15957,0.18184c0.04453,4.21803 -1.58702,7.5776 -4.89464,10.07873c-0.37603,0.2845 -0.77186,0.27956 -1.18748,-0.01484c-0.13075,-0.09282 -0.21333,-0.23914 -0.2255,-0.39957c-0.01217,-0.16043 0.0473,-0.3185 0.16242,-0.43167z" fill="#fefbe0" stroke="none" stroke-width="1"/><path d="M259.30415,216.59071l0.24863,0.81268c0.00742,0.02227 0.02226,0.0334 0.04453,0.0334c0.03711,0 0.07051,-0.01113 0.10019,-0.0334c0.05443,-0.03711 0.1002,-0.02968 0.13731,0.02227c0.77928,1.10584 2.69038,0.70506 3.93724,0.2746c1.63774,-0.56158 3.12456,-1.71442 4.46047,-3.45853c0.36367,-0.30677 0.42428,-0.46757 0.18183,-0.48241c0.46757,-0.59621 0.62219,-1.20851 0.46386,-1.83689c-0.03216,-0.12369 -0.10638,-0.21276 -0.22266,-0.26718c-1.3186,-0.61106 -2.70027,-0.96606 -4.14504,-1.06502l1.61423,0.05195c0.00495,0 0.00742,-0.00248 0.00742,-0.00743c0,-0.00248 0,-0.00494 0,-0.00742c0.00248,-0.01732 -0.00248,-0.02598 -0.01485,-0.02598l-2.32672,-0.08163c1.42498,-0.64075 2.81037,-0.86092 4.15618,-0.66054c1.51403,0.22513 2.5036,0.34882 2.9687,0.37109c0.15091,0.00742 0.22636,0.08535 0.22636,0.23378v0.1707c0,0.08411 0.04206,0.11752 0.12617,0.1002l0.79042,-0.18554c0.13606,-0.03216 0.25234,-0.1002 0.34882,-0.2041c0.42551,-0.4552 0.85968,-0.90298 1.30252,-1.34333c0.48488,-0.48241 0.90051,-0.96236 1.24686,-1.43982c1.13305,-1.56351 2.25621,-3.13321 3.36947,-4.70909c0.3414,-0.48736 0.69146,-1.18378 1.05018,-2.08922c0.3043,-0.77186 0.61724,-1.48559 0.93885,-2.14117c1.27407,-2.60256 2.29951,-5.64424 3.07631,-9.12504c0.49973,-2.24136 0.76939,-3.69479 0.80897,-4.36027c0.21524,-3.6317 0.16452,-7.25723 -0.15214,-10.87657c-0.12616,-1.41384 -0.60117,-2.83882 -0.89803,-4.28234c-0.17812,-0.86092 -0.4218,-1.80843 -0.73105,-2.84253c-0.19049,-0.63085 -0.35624,-1.26665 -0.49725,-1.90739c-0.14349,-0.64322 -0.37603,-1.24809 -0.69764,-1.81462c-0.55168,-0.97473 -1.05018,-1.97419 -1.49548,-2.99839c-0.31172,-0.71743 -0.72362,-1.48683 -1.23572,-2.30817c-0.63085,-1.00936 -1.02049,-2.10777 -1.83689,-2.97241c-1.52887,-1.61795 -2.97612,-3.3101 -4.34172,-5.07647c-0.04206,-0.05195 -0.06309,-0.1138 -0.06309,-0.18554c-0.00232,-0.06004 -0.02443,-0.11856 -0.06309,-0.16699c-0.75949,-0.92278 -1.71566,-1.83317 -2.86851,-2.7312c-0.522,-0.40572 -1.13553,-0.93762 -1.84059,-1.59568c-0.62837,-0.58632 -1.2617,-1.08481 -1.89996,-1.49548c-1.5932,-1.0242 -3.1864,-2.04964 -4.7796,-3.07631c-0.10562,-0.06722 -0.18441,-0.16965 -0.22266,-0.28945c-0.31419,-0.95246 0.03093,-1.65381 1.03533,-2.10407c0.49973,-0.22265 1.24562,-0.03092 2.23766,0.57519c4.54953,2.75347 8.30988,5.7803 11.28105,9.0805c8.45336,9.38109 12.62315,20.44073 12.50935,33.17892c-0.11504,12.97321 -6.13779,25.2933 -15.50774,34.16601c-1.06131,1.00441 -3.07136,2.54071 -6.03017,4.6089c-15.17747,9.88206 -34.51855,10.71329 -50.20069,1.25057l-2.1857,-1.2617c-2.70894,-2.01377 -4.53097,-3.44617 -5.46612,-4.29719c-10.35705,-9.42562 -16.16828,-22.31347 -15.88253,-36.33315c0.19297,-9.51715 3.00951,-18.26121 8.44966,-26.23216c2.6174,-3.82962 5.74195,-7.1892 9.37367,-10.07873c1.21964,-0.96978 2.43804,-1.92099 3.65521,-2.85367c1.13182,-0.28203 2.14488,-1.2283 2.84625,-1.61794c0.59621,-0.33151 1.17263,-0.61724 1.72926,-0.85721c0.15239,-0.06301 0.32806,-0.00942 0.41932,0.12792c0.09125,0.13734 0.07261,0.32006 -0.04452,0.43613c-1.31365,1.28397 -2.61245,2.3094 -3.89641,3.07631c-0.87082,0.51952 -1.24067,1.28149 -1.10956,2.2859c0.01485,0.11875 -0.00742,0.23255 -0.06679,0.3414c-0.59869,1.06873 -1.23696,1.9111 -1.91481,2.5271c-1.65505,1.50909 -3.01447,3.00334 -4.07825,4.48274c-0.3748,0.51952 -0.95741,0.6494 -1.30623,1.14667c-0.6927,0.99452 -1.43859,1.94325 -2.23766,2.84624c-0.33892,0.38593 -0.5925,0.82259 -0.76073,1.30994c-0.04205,0.11627 -0.11132,0.21152 -0.20781,0.28573c-1.10584,0.85721 -1.23943,2.1152 -1.69216,2.99467c-0.46262,0.90298 -0.92648,1.80473 -1.39158,2.70523c-0.51705,1.00936 -0.92153,1.93955 -1.21345,2.79058c-1.75648,5.14327 -2.58524,10.64897 -2.48629,16.5171c0.06927,4.03248 0.61601,7.7446 1.64021,11.13633c0.34511,1.14666 0.93143,2.40835 1.36189,3.65521c0.36738,1.0576 0.94999,2.04841 1.48806,3.19878c1.24438,2.65451 2.71141,4.94413 4.4011,6.86882c0.91288,1.03904 1.69586,1.95686 2.34898,2.75347c0.85597,1.04647 1.68474,1.91357 2.48629,2.60133c1.81091,1.55362 3.64902,3.0726 5.51436,4.55695c0.66054,0.52694 1.37426,0.97101 2.14117,1.3322c1.44477,0.67786 2.61369,1.67608 3.50678,2.99467c0.26718,0.3983 0.82258,0.80774 1.66618,1.2283c0.5022,0.25234 1.14666,0.49107 1.93336,0.7162c3.86921,1.10584 6.79832,1.78617 8.78735,2.04099c4.89341,0.62343 10.10223,0.46756 15.62648,-0.46757c0.68528,-0.11627 1.21222,-0.24615 1.58083,-0.38965c1.07244,-0.42303 2.1486,-0.6828 3.28041,-0.88689c0.32409,-0.0569 0.73847,-0.21524 1.24314,-0.47499c0.56405,-0.28945 1.15409,-0.31171 1.71071,-0.616c0.44036,-0.24739 0.90422,-0.4552 1.39158,-0.62343c0.1138,-0.03958 0.20286,-0.11132 0.26719,-0.21523l0.91658,-1.48064c0.07174,-0.11627 0.09525,-0.24245 0.07051,-0.37851z" fill="#fbc488" stroke="none" stroke-width="1"/><path d="M230.74157,143.06719c-0.23997,0.72485 -0.70259,1.27654 -1.38786,1.65505z" fill="#c0a03a" stroke="none" stroke-width="1"/><path d="M251.91581,145.31969c0.47499,0.01732 0.87453,-0.06927 1.19862,-0.25977c0.55663,-0.15091 1.03409,-0.4453 1.43239,-0.88319c0.04947,-0.0569 0.03711,-0.08288 -0.03711,-0.07794l-0.20039,0.00743c0.11133,-0.30676 0.39212,-0.48365 0.84237,-0.53066c-0.66054,1.5363 -1.73917,2.11767 -3.23588,1.74411z" fill="#c9ab41" stroke="none" stroke-width="1"/><path d="M253.11443,145.05993l1.1949,-0.95369l0.20039,-0.00742c0.07421,-0.00495 0.08658,0.02103 0.0371,0.07793c-0.3983,0.43788 -0.87577,0.73227 -1.43239,0.88319z" fill="#c0a03a" stroke="none" stroke-width="1"/><path d="M207.73416,160.9536l-0.02968,0.93143l-2.05953,2.47887c-0.07063,0.08481 -0.17536,0.13377 -0.28574,0.13359h-1.07615c-0.13026,0.00034 -0.24662,-0.0832 -0.28945,-0.20781c-0.61106,-1.80843 -0.16328,-3.35711 1.34333,-4.64601c1.06873,-0.90916 2.0113,0.2375 2.39722,1.30993z" fill="#fbe685" stroke="none" stroke-width="1"/><path d="" fill="#e5cd70" stroke="none" stroke-width="1"/><path d="M264.51052,210.59024c-0.54179,-0.03711 -0.92648,0.17812 -1.15409,0.64569c-0.12122,0.24492 -0.08288,0.27213 0.11504,0.08164c0.1608,-0.15338 0.28574,-0.17812 0.3748,-0.07421c0.08906,0.10885 0.20163,0.14472 0.33769,0.10761l0.61971,-0.16328c0.81886,0.38098 1.64763,0.71496 2.48628,1.00194c0.50962,0.1707 0.82876,0.40696 0.95741,0.70878c0.16823,0.38593 0.16328,0.83371 -0.01484,1.34334c-1.33591,1.74411 -2.82274,2.89695 -4.46047,3.45853c-1.24686,0.43046 -3.15795,0.83124 -3.93724,-0.27461c-0.03711,-0.05195 -0.08288,-0.05937 -0.1373,-0.02226c-0.02968,0.02226 -0.06309,0.0334 -0.1002,0.0334c-0.02226,0 -0.03711,-0.01113 -0.04453,-0.0334l-0.24863,-0.81268l0.05567,-1.65876l0.308,-0.92772c0.30058,-0.57148 0.65682,-1.16893 1.22459,-1.54001c0.95988,-0.63085 1.92595,-1.27901 2.8982,-1.9445l2.32671,0.08164c0.01237,0 0.01732,0.00866 0.01485,0.02598c0,0.00248 0,0.00494 0,0.00742c0,0.00495 -0.00247,0.00742 -0.00742,0.00742z" fill="#f2dea1" stroke="none" stroke-width="1"/><path d="M264.51052,210.59024c1.44477,0.09896 2.82645,0.45397 4.14504,1.06502c0.11627,0.05443 0.19049,0.14348 0.22266,0.26718c0.15833,0.62838 0.00371,1.24067 -0.46386,1.83689c0.27708,-1.06873 0.00743,-1.67113 -0.80896,-1.8072c-0.12864,-0.02226 -0.24368,-0.07422 -0.34511,-0.15586c-0.68775,-0.56405 -1.50661,-0.76691 -2.4566,-0.60858l-0.61971,0.16328c-0.13606,0.03711 -0.24863,0.00124 -0.33769,-0.10761c-0.08906,-0.1039 -0.21399,-0.07917 -0.3748,0.07421c-0.19792,0.19049 -0.23626,0.16328 -0.11504,-0.08164c0.22761,-0.46756 0.6123,-0.6828 1.15409,-0.64569z" fill="#fbedb4" stroke="none" stroke-width="1"/><path d="M268.41435,213.75932c0.24244,0.01484 0.18184,0.17565 -0.18183,0.48241c0.17812,-0.50962 0.18307,-0.95741 0.01484,-1.34334c-0.12864,-0.30182 -0.44778,-0.53807 -0.95741,-0.70878c-0.83866,-0.28697 -1.66742,-0.62096 -2.48628,-1.00194c0.94998,-0.15833 1.76885,0.04453 2.4566,0.60858c0.10143,0.08164 0.21647,0.13359 0.34511,0.15586c0.81639,0.13606 1.08605,0.73847 0.80897,1.8072z" fill="#fbedb4" stroke="none" stroke-width="1"/><path d="M207.70447,161.88502l0.02968,-0.93143l0.08906,-1.03905c0.0099,-0.11627 0.06927,-0.19915 0.17812,-0.24863c0.90298,-0.40324 1.8542,-0.63456 2.85367,-0.69393c0.10885,-0.00495 0.20905,-0.03958 0.30058,-0.1039c0.37604,-0.26471 0.76815,-0.49355 1.17635,-0.68651c1.11698,-0.52324 1.99274,-1.1281 3.32494,-1.22088c0.12369,-0.00742 0.2276,-0.05814 0.31171,-0.15215c0.71249,-0.80154 1.57588,-1.3186 2.59019,-1.55114c0.66549,-0.15338 1.14541,-0.33769 1.43982,-0.55292c1.08357,-0.79784 1.41384,-1.55486 2.17457,-2.5939c0.08163,-0.11132 0.11133,-0.23873 0.08906,-0.38222c-0.01979,-0.12616 -0.00619,-0.24739 0.04082,-0.36366c0.71991,-1.75648 0.82505,-3.53894 0.31543,-5.34737c-0.03711,-0.13359 -0.00866,-0.24987 0.08535,-0.34883l0.97968,-1.03533c0.08658,-0.09153 0.17193,-0.09277 0.25604,-0.00371c0.03711,0.03711 0.07793,0.07051 0.12246,0.10019c0.03711,0.02227 0.06679,0.01484 0.08906,-0.02227c0.57148,-1.06131 1.31735,-0.90173 1.99645,-0.04452c0.7867,0.99204 1.82699,1.45837 3.12084,1.399c0.12864,-0.00495 0.24245,-0.04825 0.34141,-0.12988c0.88566,-0.72733 1.62907,-1.58331 2.23023,-2.56792c0.06281,-0.10445 0.17466,-0.16954 0.2965,-0.17255c0.12184,-0.00301 0.23677,0.05648 0.30466,0.1577c0.45272,0.67166 1.06873,0.97225 1.92223,0.9908c1.79358,0.04206 3.58594,0.04701 5.37706,0.01484c0.97967,-0.01856 1.47322,-0.04453 2.33785,0.56776c1.07862,0.76196 2.2859,0.97349 3.62181,0.63456c0.98338,-0.24862 1.80348,-0.84608 2.64585,-1.45466c0.15002,-0.10865 0.35905,-0.08807 0.48983,0.04825c0.53437,0.56158 1.10461,1.1281 1.71071,1.69958c1.20604,1.13182 3.20249,0.33027 4.21184,-0.61229c0.58632,-0.54179 0.81268,-0.47499 1.49177,-0.21894c1.23943,0.46756 2.22033,0.98833 2.94272,1.56228c0.04701,0.03711 0.07174,0.02598 0.07422,-0.0334c0.00248,-0.03711 0.00371,-0.07298 0.00371,-0.10762c0,-0.03711 0.01732,-0.047 0.05196,-0.02969c1.89254,0.87577 3.54636,2.04593 4.96144,3.51049c0.99204,1.02667 1.74906,1.75401 2.27105,2.18199c1.98903,1.63773 3.23711,2.77079 3.74427,3.39916c1.89254,2.36012 3.5142,4.88969 4.86495,7.58873c0.21771,0.43293 0.40944,1.05636 0.57519,1.87028c0.1608,0.7768 0.43788,1.62784 0.83123,2.55308c1.09099,2.5506 1.79483,5.335 2.11149,8.35317c0.05567,0.53437 -0.08905,0.93515 -0.07793,1.35076c0.05195,2.11273 0.07051,4.22421 0.05567,6.33446c-0.00248,0.49725 -0.07422,1.17882 -0.21524,2.04469c-0.08659,0.53437 -0.17565,1.21469 -0.26719,2.04098c-0.20534,1.85296 -0.68775,3.71335 -1.44724,5.58115c-0.56653,1.38787 -1.37549,3.11466 -2.42691,5.18038c-1.13553,2.22652 -2.48753,4.32069 -4.05598,6.28251c-0.01732,0.02227 -0.35006,0.49478 -0.99822,1.41755c-0.67291,0.95988 -1.54125,1.56846 -2.60503,1.82575c-1.80101,0.43294 -3.15177,1.29386 -4.05228,2.58276c-0.07093,0.10178 -0.17993,0.16907 -0.30058,0.18554c-0.3884,0.05195 -0.65929,0.2412 -0.81268,0.56776c-0.04206,0.09153 -0.10638,0.16451 -0.19297,0.21894l-1.9111,1.1949c-0.09153,0.05443 -0.18925,0.07422 -0.29315,0.05937l-0.25605,-0.0371c-0.12122,-0.01732 -0.22018,0.02103 -0.29687,0.11503c-0.29934,0.34882 -0.66424,0.56776 -1.09471,0.65682c-0.12369,0.02721 -0.24121,0.06927 -0.35253,0.12617c-0.42799,0.2276 -0.74836,0.55416 -0.96111,0.97967c-0.0569,0.11627 -0.14225,0.20286 -0.25604,0.25976c-1.20727,0.59869 -2.42444,1.17016 -3.6515,1.71442c-0.6927,0.30677 -1.4893,0.54921 -2.38981,0.72733c-0.75207,0.15091 -1.53506,0.33769 -2.34898,0.56034c-0.12864,0.03463 -0.261,0.05567 -0.39707,0.06309c-1.23201,0.07669 -2.39598,0.12494 -3.49193,0.14473c-0.06185,0.00248 -0.45149,-0.0334 -1.16893,-0.10762c-0.67909,-0.07051 -1.45095,0.24863 -2.0818,-0.08164c-0.10937,-0.05838 -0.23075,-0.08778 -0.35253,-0.08536c-1.53877,0.03463 -3.07384,0.09896 -4.6052,0.19297c-1.29386,0.07916 -2.46526,0.04453 -3.5142,-0.1039c-0.77433,-0.11132 -1.54991,-0.23625 -2.32672,-0.3748c-0.75949,-0.13606 -1.49919,-0.3748 -2.2191,-0.7162c-1.97419,-0.93762 -3.92363,-1.92842 -5.84834,-2.97241c-0.33893,-0.18307 -0.59869,-0.35872 -0.77928,-0.52694c-0.86834,-0.80526 -1.79978,-1.30623 -2.88335,-1.77009c-0.51705,-0.22018 -1.00194,-0.52323 -1.45466,-0.90916c-0.70012,-0.59869 -1.65381,-1.29387 -2.86109,-2.08552c-0.88566,-0.58137 -1.71318,-1.42374 -2.48257,-2.5271c-0.41809,-0.59621 -0.89927,-1.17016 -1.44353,-1.72185c-1.12563,-1.13553 -2.01006,-2.4467 -2.65328,-3.93352c-0.03216,-0.07669 -0.08906,-0.11379 -0.1707,-0.11132c-0.04205,0 -0.08163,0 -0.11874,0c-0.04206,0 -0.07299,-0.01979 -0.09278,-0.05938c-0.78176,-1.39529 -1.57712,-2.78316 -2.38608,-4.1636c-0.48736,-0.82629 -0.84608,-1.67731 -1.07616,-2.55308c-0.50962,-1.91481 -0.97967,-3.83952 -1.41013,-5.77412c-0.16328,-0.73475 -0.14843,-1.93337 -0.43046,-2.89448c-0.13606,-0.46262 -0.21276,-0.84237 -0.23008,-1.13924c-0.27832,-4.197 -0.09648,-8.4979 1.00564,-12.56872c0.522,-1.92471 0.96731,-3.24083 1.33592,-3.94837c0.28945,-0.55663 0.77434,-1.06007 1.45466,-1.51033c0.616,-0.4082 1.0576,-0.78917 1.32477,-1.14294c0.62343,-0.83123 1.15284,-1.68845 1.58826,-2.57164z" fill="#d2924a" stroke="none" stroke-width="1"/><path d="" fill="none" stroke="#d4b85f" stroke-width="2"/><path d="" fill="#e5cd70" stroke="none" stroke-width="1"/><g stroke="none" stroke-width="1"><path d="M219.81245,146.14063c1.60314,1.01102 2.08346,2.56378 1.44094,4.65826c-1.09606,2.60787 -2.50393,2.98582 -4.55432,4.24251l-4.37952,1.93228c-0.15748,0.07244 -0.32283,0.10866 -0.49606,0.10866h-0.59055c-0.32756,-0.00315 -0.34488,0.0189 -0.05197,0.06614c0.37323,0.05669 0.62362,-0.08031 0.9496,0.07559h-1.25669c-0.16063,0 -0.30709,-0.04567 -0.43937,-0.13701l-0.54331,-0.37323c-0.05018,-0.03505 -0.11818,-0.02951 -0.16203,0.01319c-0.04385,0.0427 -0.05119,0.11052 -0.0175,0.16162c0.48504,0.74646 1.26457,0.89606 2.33858,0.44882c-0.18582,0.32126 -0.27874,0.3748 -0.27874,0.16063c-0.93543,0.30866 -1.66771,0.27874 -2.19685,-0.08976c-0.85039,-0.60472 -0.83149,-2.77795 -0.37795,-3.65669c1.34488,-2.61732 3.1496,-4.80629 5.41416,-6.56692c1.59685,-1.24094 3.3307,-1.58897 5.20156,-1.04409zM210.57625,156.74218l-0.81732,-1.12913c-0.08819,-0.12599 -0.16063,-0.11654 -0.21732,0.02835c-0.11968,0.31811 -0.04567,0.57323 0.22205,0.76535c0.07874,0.05669 0.14646,0.12756 0.20315,0.2126c0.16378,0.24567 0.33543,0.35748 0.51496,0.33543c0.15433,-0.01575 0.18582,-0.08661 0.09449,-0.2126z" fill="#fefbe0"/><path d="M210.48176,156.95478c-0.17953,0.02205 -0.35118,-0.08976 -0.51496,-0.33543c-0.05669,-0.08504 -0.12441,-0.15591 -0.20315,-0.2126c-0.26772,-0.19213 -0.34173,-0.44724 -0.22205,-0.76535c0.05669,-0.14488 0.12913,-0.15433 0.21732,-0.02835l0.81732,1.12913c0.09134,0.12599 0.05984,0.19685 -0.09449,0.2126z" fill="#f2dea1"/><path d="M212.13058,157.22407c-0.0252,0.0378 -0.05197,0.07559 -0.08031,0.11339c-1.07401,0.44724 -1.85354,0.29764 -2.33858,-0.44882c-0.03369,-0.05109 -0.02635,-0.11892 0.0175,-0.16162c0.04385,-0.0427 0.11185,-0.04823 0.16203,-0.01319l0.54331,0.37323c0.13228,0.09134 0.27874,0.13701 0.43937,0.13701z" fill="#e8c78f"/></g><path d="M253.62165,185.06828c0.9119,-0.04939 1.70585,0.92065 1.77333,2.16663c0.06748,1.24598 -0.61706,2.29609 -1.52896,2.34548c-0.9119,0.04939 -1.70585,-0.92065 -1.77333,-2.16663c-0.06748,-1.24598 0.61706,-2.29609 1.52896,-2.34548z" fill="#d2924a" stroke="none" stroke-width="1"/></g></g></svg>