<svg version="1.1" xmlns="http://www.w3.org/2000/svg" xmlns:xlink="http://www.w3.org/1999/xlink" width="199.32861" height="199.32861" viewBox="0,0,199.32861,199.32861"><g transform="translate(-140.33569,-80.33569)"><g data-paper-data="{&quot;isPaintingLayer&quot;:true}" fill-rule="nonzero" stroke="none" stroke-linecap="butt" stroke-linejoin="miter" stroke-miterlimit="10" stroke-dasharray="" stroke-dashoffset="0" style="mix-blend-mode: normal"><path d="M239.53763,141.38703c19.01161,-0.49968 37.78145,16.63415 39.79625,35.62966c2.89324,27.22391 -19.69665,44.34162 -45.39739,41.2469c-19.34205,-2.32911 -35.08164,-19.39846 -33.39726,-39.15151c1.63601,-19.18891 19.35011,-37.20119 38.9984,-37.72505zM204.4963,172.31012c-6.31034,20.92164 8.5508,39.7076 28.7874,43.26976c12.74964,2.24046 27.0708,-1.8375 35.70219,-11.79058c6.30228,-7.27743 9.44537,-17.20636 7.81742,-26.74844c-2.62729,-16.25537 -15.21575,-29.34348 -31.31799,-32.71222c-1.01546,-0.20954 -2.60313,-0.05641 -3.63469,0.73339c-4.74686,3.68305 -9.42119,8.31708 -10.759,14.37759c-0.02655,0.09423 -0.11698,0.15574 -0.21438,0.1458c-0.0974,-0.00994 -0.17354,-0.08845 -0.18051,-0.18611c-0.15044,-5.85635 1.89122,-10.73752 6.12498,-14.64354c0.33312,-0.31162 0.27133,-0.45669 -0.18536,-0.43519c-2.29955,0.08597 -4.53463,0.5534 -6.70525,1.4023c-11.78252,4.61792 -21.74367,14.23251 -25.43478,26.58724z" fill="#ed7064" stroke-width="1"/><path d="M276.80328,177.04085c-0.76293,-1.05844 -1.46945,-1.58229 -2.11957,-1.57154c-6.03365,0.08059 -12.00819,-0.22567 -17.92362,-0.91875c-2.82071,-3.85229 -7.98666,-2.18404 -7.73681,2.45805l-0.96709,-0.44325c-0.10745,-0.05373 -0.16388,-0.1397 -0.16924,-0.25789c0,-0.08059 -0.00538,-0.16924 -0.01612,-0.26595c-0.01074,-0.13432 -0.08597,-0.18804 -0.22567,-0.16118c-1.85362,0.35998 -3.50305,0.3761 -4.94834,0.04835c-0.87038,-0.39759 -1.31095,0.12357 -1.32171,1.56348c-0.00538,0.27939 -0.11819,0.50772 -0.33848,0.68504c-1.0477,0.81666 -1.96913,0.47818 -2.7643,-1.01546l-1.45871,-1.8939c-0.19878,-0.25253 -0.45669,-0.38146 -0.77369,-0.38685c-1.05306,-0.00538 -1.98793,-0.31162 -2.80459,-0.91875c-0.03784,-0.03784 -0.09918,-0.03784 -0.13702,0c-0.03784,0.03784 -0.03784,0.09918 0,0.13702l0.37878,0.45937c0.03144,0.04042 0.04062,0.09387 0.02442,0.14246c-0.0162,0.04858 -0.0556,0.08585 -0.10501,0.09931l-0.33042,0.08059c-0.15912,0.0379 -0.32373,-0.02665 -0.41103,-0.16118c-0.08597,-0.13432 -0.15582,-0.29281 -0.20954,-0.4755c-0.09671,-0.32774 -0.30894,-0.45937 -0.63667,-0.39491l-5.9638,1.16052c-0.29013,0.05911 -0.5131,-0.0376 -0.66892,-0.29013c-0.27939,-0.45131 -0.78173,-0.53996 -1.50708,-0.26595c-1.73004,-2.32105 -3.84423,-2.72132 -6.34258,-1.20082c-0.52654,0.28475 -1.045,0.41639 -1.55542,0.39491c-0.89188,-0.04298 -1.35664,-0.06179 -1.39424,-0.05641c-1.88584,0.18268 -3.76364,0.28207 -5.63336,0.29819c-1.70048,0.02418 -2.75624,-0.85428 -4.2472,-1.57961c3.69111,-12.35473 13.65226,-21.96934 25.43478,-26.58724c2.17061,-0.8489 4.4057,-1.31633 6.70525,-1.4023c0.45669,-0.02148 0.51848,0.12357 0.18536,0.43519c-4.23376,3.90602 -6.27542,8.78719 -6.12498,14.64354c0.00697,0.09765 0.08311,0.17617 0.18051,0.18611c0.0974,0.00994 0.18785,-0.05157 0.21438,-0.1458c1.33782,-6.06051 6.01215,-10.69453 10.759,-14.37759c1.03158,-0.78979 2.61923,-0.94293 3.63469,-0.73339c16.10225,3.36874 28.69069,16.45685 31.31799,32.71222z" fill="#ffb6af" stroke-width="1"/><path d="M204.4963,172.31012c1.49095,0.72533 2.5467,1.60377 4.2472,1.57961c1.86974,-0.01612 3.74752,-0.11551 5.63336,-0.29819c0.0376,-0.00538 0.50236,0.01344 1.39424,0.05641c0.51042,0.02148 1.02888,-0.11013 1.55542,-0.39491c-1.83212,2.0739 -1.98255,3.98929 -0.45131,5.74619c3.20756,3.68305 8.74421,0.04835 6.7939,-4.54537c0.72533,-0.27401 1.22768,-0.18536 1.50708,0.26595c0.15582,0.25253 0.37878,0.34924 0.66892,0.29013l5.9638,-1.16052c0.32774,-0.06447 0.53996,0.06717 0.63667,0.39491c0.05373,0.18268 0.12357,0.34118 0.20954,0.4755c0.08728,0.13453 0.25188,0.19908 0.41103,0.16118l0.33042,-0.08059c0.0494,-0.01346 0.08883,-0.05073 0.10501,-0.09931c0.0162,-0.04858 0.00702,-0.10205 -0.02442,-0.14246l-0.37878,-0.45937c-0.03784,-0.03784 -0.03784,-0.09918 0,-0.13702c0.03784,-0.03784 0.09918,-0.03784 0.13702,0c0.81666,0.60713 1.75153,0.91337 2.80459,0.91875c0.317,0.00538 0.57489,0.13432 0.77369,0.38685l1.45871,1.8939l-4.17465,1.35394c-0.17141,0.05474 -0.35846,0.02804 -0.5077,-0.07251c-0.14924,-0.10055 -0.24425,-0.26386 -0.25791,-0.44329l-0.15312,-2.03092c-0.00959,-0.11949 -0.07517,-0.22739 -0.17681,-0.29092c-0.10164,-0.06353 -0.22737,-0.07519 -0.33897,-0.03146c-1.99061,0.76563 -0.95905,3.52991 0.57221,4.27136c0.24715,0.11819 0.38685,0.31162 0.41907,0.58027c0.24177,1.94227 0.58833,5.73007 2.74012,6.39899c3.19143,1.0074 4.69851,-4.23914 4.74686,-6.43123c0.00945,-0.25079 0.14292,-0.47833 0.3546,-0.60443c1.89122,-1.13365 2.29149,-2.44463 1.20082,-3.93288c1.44529,0.32774 3.09472,0.31162 4.94834,-0.04835c0.1397,-0.02686 0.21491,0.02686 0.22567,0.16118c0.01074,0.09671 0.01612,0.18536 0.01612,0.26595c0.00538,0.11819 0.06179,0.20416 0.16924,0.25789l0.96709,0.44325c1.60377,5.90737 9.72744,3.63469 7.73681,-2.45805c5.91543,0.69308 11.88998,0.99934 17.92362,0.91875c0.65012,-0.01074 1.35664,0.5131 2.11957,1.57154c1.62795,9.54208 -1.51512,19.47098 -7.81742,26.74844c-8.63139,9.95309 -22.95255,14.03105 -35.70219,11.79058c-20.23661,-3.56216 -35.09774,-22.34812 -28.7874,-43.26976z" fill="#ffc7c1" stroke-width="1"/><path d="M223.66909,174.45385c1.95033,4.59374 -3.58634,8.22843 -6.7939,4.54537c-1.53124,-1.75691 -1.3808,-3.67231 0.45131,-5.74619c2.49835,-1.5205 4.61254,-1.12023 6.34258,1.20082z" fill="#d10504" stroke-width="1"/><path d="M256.76009,174.55056c1.99061,6.09274 -6.13304,8.36544 -7.73681,2.45805c-0.24983,-4.64208 4.9161,-6.31034 7.73681,-2.45805z" fill="#d10504" stroke-width="1"/><path d="M238.27232,177.16175c0.79517,1.49364 1.7166,1.83212 2.7643,1.01546c0.22029,-0.1773 0.33312,-0.40565 0.33848,-0.68504c0.01074,-1.43991 0.45131,-1.96107 1.32171,-1.56348c1.09067,1.48825 0.6904,2.79923 -1.20082,3.93288c-0.21168,0.1261 -0.34515,0.35364 -0.3546,0.60443c-0.04835,2.1921 -1.55542,7.43863 -4.74686,6.43123c-2.15179,-0.66892 -2.49835,-4.45672 -2.74012,-6.39899c-0.03224,-0.26863 -0.17192,-0.46205 -0.41907,-0.58027c-1.53124,-0.74145 -2.56282,-3.50575 -0.57221,-4.27136c0.1116,-0.04375 0.23733,-0.03207 0.33897,0.03146c0.10164,0.06353 0.16722,0.17143 0.17681,0.29092l0.15312,2.03092c0.01366,0.17943 0.10867,0.34275 0.25791,0.44329c0.14924,0.10055 0.33629,0.12725 0.5077,0.07251zM235.96741,179.90993c-0.54808,0.29598 -0.82145,0.92941 -0.66086,1.53124l0.66892,2.53058c0.15564,0.57461 0.67031,0.97872 1.26545,0.99359c0.59514,0.01487 1.12935,-0.363 1.3135,-0.92912l0.86234,-2.66759c0.19297,-0.59885 -0.05469,-1.25149 -0.59637,-1.57154l-0.59637,-0.36266c-0.40803,-0.24181 -0.91321,-0.25098 -1.32976,-0.02418z" fill="#a50605" stroke-width="1"/><path d="M235.96741,179.90993l0.92681,-0.49968c0.41655,-0.22682 0.92174,-0.21762 1.32976,0.02418l0.59637,0.36266c0.54169,0.32005 0.78936,0.97269 0.59637,1.57154l-0.86234,2.66759c-0.18417,0.56612 -0.71836,0.94399 -1.3135,0.92912c-0.59514,-0.01487 -1.10978,-0.41897 -1.26545,-0.99359l-0.66892,-2.53058c-0.16061,-0.60185 0.11275,-1.23526 0.66086,-1.53124z" fill="#ffffff" stroke-width="1"/><path d="M140.33569,180c0,-55.04307 44.62123,-99.6643 99.66431,-99.6643c55.04307,0 99.66431,44.62123 99.66431,99.66431c0,55.04307 -44.62123,99.66431 -99.66431,99.66431c-55.04307,0 -99.66431,-44.62123 -99.66431,-99.66431z" fill="none" stroke-width="0"/></g></g></svg>