<svg version="1.1" xmlns="http://www.w3.org/2000/svg" xmlns:xlink="http://www.w3.org/1999/xlink" width="49.25" height="49.25" viewBox="0,0,49.25,49.25"><g transform="translate(-215.375,-155.375)"><g data-paper-data="{&quot;isPaintingLayer&quot;:true}" fill-rule="nonzero" stroke="none" stroke-linecap="butt" stroke-linejoin="miter" stroke-miterlimit="10" stroke-dasharray="" stroke-dashoffset="0" style="mix-blend-mode: normal"><path d="M215.375,204.625v-49.25h49.25v49.25z" fill="#f0f6ff" stroke-width="0"/><path d="M258.39169,171.20028v17.66666c0,3.71442 -4.8495,6.625 -11.04167,6.625c-0.92161,0 -1.8285,-0.06477 -2.70889,-0.19286c-1.38978,2.70005 -5.52525,4.60952 -10.54111,4.60952c-6.19216,0 -11.04166,-2.91058 -11.04166,-6.625v-11.77777c0,-3.71442 4.8495,-6.625 11.04166,-6.625c0.7582,0 1.49725,0.04416 2.20834,0.12808v-3.80863c0,-3.71442 4.8495,-6.625 11.04166,-6.625c6.19216,0 11.04167,2.91058 11.04167,6.625zM255.44724,181.63686c-2.00222,1.28525 -4.86716,2.0773 -8.09722,2.0773c-0.74789,0 -1.48694,-0.04416 -2.20834,-0.12808v2.92089c0.7155,0.10011 1.45455,0.15163 2.20834,0.15163c4.63456,0 8.09722,-1.94333 8.09722,-3.68055zM226.0028,187.39472c0,1.73722 3.46266,3.68055 8.09722,3.68055c4.63456,0 8.09722,-1.94333 8.09722,-3.68055v-1.34119c-2.00222,1.28525 -4.86716,2.0773 -8.09722,2.0773c-3.23005,0 -6.095,-0.79206 -8.09722,-2.0773zM255.44724,175.74796c-2.00222,1.28525 -4.86716,2.0773 -8.09722,2.0773c-1.73722,0 -3.36845,-0.2282 -4.81711,-0.64042c1.33383,0.94075 2.22747,2.11411 2.51161,3.41997c0.74495,0.10895 1.51786,0.16489 2.3055,0.16489c4.63456,0 8.09722,-1.94334 8.09722,-3.68056zM239.2528,171.20028c0,1.73722 3.46266,3.68055 8.09722,3.68055c4.63456,0 8.09722,-1.94333 8.09722,-3.68055c0,-1.73722 -3.46266,-3.68055 -8.09722,-3.68055c-4.63456,0 -8.09722,1.94333 -8.09722,3.68055zM226.0028,181.50583c0,1.73722 3.46266,3.68055 8.09722,3.68055c4.63456,0 8.09722,-1.94333 8.09722,-3.68055c0,-1.73722 -3.46266,-3.68055 -8.09722,-3.68055c-4.63456,0 -8.09722,1.94333 -8.09722,3.68055zM242.19724,193.28361v-1.34119c-2.00222,1.28525 -4.86716,2.07731 -8.09722,2.07731c-3.23005,0 -6.095,-0.79206 -8.09722,-2.07731v1.34119c0,1.73722 3.46266,3.68055 8.09722,3.68055c4.63456,0 8.09722,-1.94333 8.09722,-3.68055zM255.44724,188.86693v-1.34119c-2.00222,1.28525 -4.86716,2.0773 -8.09722,2.0773c-0.74789,0 -1.48694,-0.04416 -2.20834,-0.12808v2.92088c0.7155,0.10011 1.45455,0.15164 2.20834,0.15164c4.63456,0 8.09722,-1.94333 8.09722,-3.68055z" fill="#182246" stroke-width="1"/></g></g></svg>