<svg version="1.1" xmlns="http://www.w3.org/2000/svg" xmlns:xlink="http://www.w3.org/1999/xlink" width="199.32862" height="199.32862" viewBox="0,0,199.32862,199.32862"><g transform="translate(-140.33569,-80.33576)"><g data-paper-data="{&quot;isPaintingLayer&quot;:true}" fill-rule="nonzero" stroke="none" stroke-linecap="butt" stroke-linejoin="miter" stroke-miterlimit="10" stroke-dasharray="" stroke-dashoffset="0" style="mix-blend-mode: normal"><path d="M140.33569,180.00006c0,-55.04307 44.62123,-99.6643 99.66431,-99.6643c55.04307,0 99.66431,44.62123 99.66431,99.66431c0,55.04307 -44.62123,99.66431 -99.66431,99.66431c-55.04307,0 -99.66431,-44.62123 -99.66431,-99.66431z" fill="none" stroke-width="0"/><path d="M242.28247,172.38744l0.227,0.64171c-0.01019,0.70864 -0.5093,1.28633 -1.22813,1.04333c-0.20856,-0.06984 -0.39579,-0.17509 -0.56168,-0.31576l-0.52384,-1.18447c-0.02231,-0.23961 -0.07276,-0.40792 -0.15133,-0.50493c-0.3861,-2.3864 0.27745,-4.39448 1.99061,-6.02422c0.06208,-0.05918 0.21196,-0.1363 0.44964,-0.23137c0.87016,-0.34486 1.45076,0.34341 1.33726,1.20048c-0.00679,0.05336 0.01649,0.07906 0.06985,0.07712c0.83087,-0.02328 1.48277,0.46564 2.1594,0.99239c0.31285,0.24591 0.59224,0.31576 0.95456,0.42344c1.29506,0.38125 0.50784,1.32563 -0.13533,1.75343c-1.66757,1.10686 -3.26191,1.0312 -4.78299,-0.227c-0.0388,-0.03202 -0.06306,-0.02328 -0.07276,0.02619c-0.17656,0.90411 -0.08731,1.68067 0.26774,2.32966zM240.96558,172.80652c0.14551,0.32886 0.34341,0.74502 0.68391,0.66063c0.08946,-0.02221 0.16383,-0.08415 0.20185,-0.16812c0.03802,-0.08397 0.03549,-0.18072 -0.00686,-0.2626c-1.10153,-2.12158 -0.36815,-4.43523 1.24995,-6.08388c0.14551,-0.14745 0.16395,-0.30509 0.0553,-0.47292c-0.08823,-0.13538 -0.26333,-0.18353 -0.40743,-0.11204c-0.28035,0.13969 -0.53403,0.34098 -0.76103,0.60388c-1.3911,1.60646 -1.89312,3.85172 -1.01568,5.83505zM245.62491,168.54591c-0.92982,-0.72174 -1.89458,-1.28487 -2.98156,-0.46128c-0.66936,0.50638 -0.49474,1.11463 0.06839,1.60064c1.32708,1.14518 3.11252,0.80323 4.30281,-0.40598c0.01621,-0.01683 0.02246,-0.04089 0.01652,-0.06348c-0.00594,-0.02259 -0.02323,-0.04045 -0.04563,-0.04711c-0.53258,-0.15279 -0.9109,-0.27356 -1.36054,-0.62279z" fill="#448a01" stroke-width="1"/><path d="M240.96558,172.80652c-0.87744,-1.98334 -0.37542,-4.22859 1.01568,-5.83505c0.227,-0.26289 0.48068,-0.46419 0.76103,-0.60388c0.1441,-0.07148 0.3192,-0.02334 0.40743,0.11204c0.10865,0.16782 0.09022,0.32547 -0.0553,0.47292c-1.6181,1.64865 -2.35148,3.96231 -1.24995,6.08388c0.04235,0.08187 0.04487,0.17863 0.00686,0.2626c-0.03802,0.08397 -0.11239,0.14591 -0.20185,0.16812c-0.3405,0.0844 -0.5384,-0.33177 -0.68391,-0.66063z" fill="#76d567" stroke-width="1"/><path d="M242.64335,168.08463c1.08698,-0.8236 2.05173,-0.26047 2.98156,0.46128c0.44964,0.34923 0.82796,0.47 1.36054,0.62279c0.02239,0.00666 0.03968,0.02452 0.04563,0.04711c0.00594,0.02259 -0.00031,0.04665 -0.01652,0.06348c-1.19029,1.20921 -2.97574,1.55116 -4.30281,0.40598c-0.56313,-0.48601 -0.73775,-1.09426 -0.06839,-1.60064z" fill="#76d567" stroke-width="1"/><path d="M240.0445,172.06731c0.07858,0.09701 0.12902,0.26532 0.15133,0.50493c-0.76637,0.01358 -1.48132,0.13921 -2.14486,0.37688c-1.67728,0.52676 -3.0451,1.53952 -4.10345,3.0383c-0.12902,0.08537 -0.2236,0.18578 -0.28374,0.30122c-1.19321,2.29812 -1.30816,4.54532 -0.34486,6.74159c0.40356,0.91964 0.95795,1.70492 1.6632,2.35584c3.7455,3.4632 10.04619,2.13613 11.90147,-2.70653c0.82263,-2.14776 0.71156,-4.2189 -0.33322,-6.21339c-0.93128,-1.67825 -2.27824,-2.82392 -4.04089,-3.43701l-0.227,-0.64171c2.96118,0.89781 5.12641,3.3337 5.56003,6.37781c0.04851,0.33565 0.06209,0.86677 0.04075,1.59336c-0.07276,2.52319 -1.41729,4.78008 -3.45738,6.14645c-3.68292,2.46643 -8.64199,1.51188 -11.05459,-2.23798c-3.40063,-5.28793 0.47437,-12.05426 6.6732,-12.19977z" fill="#9c0203" stroke-width="1"/><path d="M240.19583,172.57224l0.52384,1.18447c-0.40161,-0.32692 -0.80468,-0.55974 -1.20921,-0.69846c-0.44818,-0.15279 -0.94583,-0.02619 -1.45949,-0.10913c0.66353,-0.23767 1.37849,-0.3633 2.14486,-0.37688z" fill="#ee0808" stroke-width="1"/><path d="M238.05098,172.94912c0.51366,0.08294 1.01131,-0.04366 1.45949,0.10913c0.40453,0.13872 0.80759,0.37154 1.20921,0.69846c0.16589,0.14067 0.35312,0.24592 0.56168,0.31576c0.71883,0.24301 1.21794,-0.33468 1.22813,-1.04333c1.76264,0.61309 3.10961,1.75876 4.04089,3.43701c-0.2561,0.79305 -0.3274,1.6312 -1.38091,1.65011l-1.60792,-0.0873c-0.28084,-0.23573 -0.52675,-0.43218 -0.77121,-0.72756c-1.35133,-1.63459 -3.15762,-2.38447 -5.41889,-2.24963c-1.29215,0.07761 -2.42132,0.42296 -3.38753,1.03605c-0.04754,0.03008 -0.06451,0.01795 -0.05093,-0.03638l0.01455,-0.06403c1.05836,-1.49878 2.42618,-2.51154 4.10345,-3.0383z" fill="#ff3828" stroke-width="1"/><path d="M243.56154,178.02896c-0.62134,-0.09313 -0.59805,0.5413 -0.37687,0.89199c0.03159,0.0497 0.09342,0.07132 0.14988,0.05238c0.65675,-0.21924 1.31398,-0.23476 1.97169,-0.04656c0.0553,0.01552 0.10719,0.00776 0.1557,-0.02328c0.16395,-0.1038 0.22894,-0.2532 0.19499,-0.44818c-0.00776,-0.05044 -0.03395,-0.08779 -0.07858,-0.11204l-0.40889,-0.227c1.05351,-0.01891 1.12481,-0.85707 1.38091,-1.65011c1.04478,1.99449 1.15585,4.06562 0.33322,6.21339c-1.85529,4.84266 -8.15598,6.16973 -11.90147,2.70653c-0.70525,-0.65093 -1.25965,-1.43621 -1.6632,-2.35584c-0.96329,-2.19627 -0.84834,-4.44347 0.34486,-6.74159c0.06015,-0.11544 0.15472,-0.21585 0.28374,-0.30122l-0.01455,0.06403c-0.01358,0.05433 0.00339,0.06645 0.05093,0.03638c0.96621,-0.61309 2.09538,-0.95844 3.38753,-1.03605c2.26127,-0.13484 4.06757,0.61504 5.41889,2.24963c0.24446,0.29539 0.49037,0.49184 0.77121,0.72756zM236.51728,179.74601c0.95165,-0.42781 1.75779,-0.4671 2.80402,-0.47292c0.05379,-0.00014 0.10292,-0.02917 0.12805,-0.07566c0.06112,-0.10865 0.09458,-0.25029 0.1004,-0.4249c0.01891,-0.5966 -0.21681,-0.53694 -0.70137,-0.54276c-0.97688,-0.01067 -1.84801,0.28569 -2.61341,0.88908c-0.03714,0.02882 -0.06039,0.07161 -0.06403,0.11786c-0.0194,0.20469 0.0485,0.36864 0.20372,0.49184c0.04366,0.03492 0.09119,0.04074 0.14261,0.01746zM236.8534,185.83716c0.59515,0.29102 1.1059,0.52239 1.6894,0.60387c0.03785,0.00416 0.07323,-0.01941 0.08397,-0.05594c0.01074,-0.03653 -0.00624,-0.07549 -0.04031,-0.09248c-1.28197,-0.59515 -2.29328,-1.35618 -3.14016,-2.51737c-0.96135,-1.31834 -1.60743,-2.79578 -1.93823,-4.43231c-0.01843,-0.09313 -0.03735,-0.15812 -0.05675,-0.19499c-0.0147,-0.0283 -0.04612,-0.04372 -0.07751,-0.03805c-0.03139,0.00567 -0.05541,0.03113 -0.05927,0.06278c-0.06839,0.64607 -0.11205,1.25287 -0.00874,1.87712c0.36669,2.21373 1.54923,3.80952 3.5476,4.78736zM241.64367,179.8988c-0.02998,0.07196 -0.09013,0.12704 -0.16444,0.15059c-0.07431,0.02355 -0.15521,0.01318 -0.22117,-0.02836c-0.1426,-0.08828 -0.21293,-0.21488 -0.21099,-0.37979c0,-0.06208 -0.03056,-0.08973 -0.09167,-0.08294l-0.15716,0.01601c-0.05918,0.00679 -0.08536,0.03977 -0.07858,0.09895c0.10622,0.89053 1.29506,0.80469 1.38965,0.05384c0.01123,-0.09147 -0.04665,-0.17723 -0.13567,-0.20104c-0.08902,-0.02382 -0.18199,0.0216 -0.21792,0.10646zM245.64819,180.03267c0.01455,0.02037 0.03347,0.03298 0.05675,0.03784c0.06208,0.01455 0.0941,-0.01019 0.09604,-0.07422c0.00291,-0.13484 -0.07227,-0.20081 -0.22554,-0.19789c-0.03071,0.0005 -0.05846,0.01812 -0.07217,0.04585c-0.01371,0.02773 -0.01113,0.06101 0.00669,0.08656c0.02037,0.02813 0.04898,0.04899 0.08585,0.06257c0.02134,0.00776 0.03881,0.02086 0.05239,0.03929zM236.60831,180.82274c0.02296,0.01886 0.063,0.01503 0.11128,-0.01065c0.04828,-0.02568 0.10087,-0.0711 0.14618,-0.12627c0.09437,-0.11488 0.1321,-0.23985 0.08429,-0.27913c-0.02296,-0.01886 -0.06299,-0.01503 -0.11127,0.01065c-0.04828,0.02568 -0.10087,0.0711 -0.14619,0.12627c-0.09437,0.11488 -0.1321,0.23985 -0.08429,0.27913zM237.74256,180.70245c0.02078,0.01105 0.04792,0.00812 0.07543,-0.00816c0.02751,-0.01628 0.05314,-0.04457 0.07126,-0.07864c0.03772,-0.07095 0.03323,-0.14713 -0.01005,-0.17014c-0.02078,-0.01105 -0.04792,-0.00813 -0.07543,0.00815c-0.02751,0.01628 -0.05315,0.04457 -0.07127,0.07864c-0.03772,0.07095 -0.03323,0.14714 0.01005,0.17015zM242.43382,186.38283c1.91786,-0.62861 3.38753,-2.16814 4.1311,-3.97977c0.09604,-0.23573 0.1004,-0.49038 0.20226,-0.74939c0.15133,-0.3827 0.12514,-0.62133 0.11495,-1.00113c-0.0009,-0.05836 -0.04388,-0.1075 -0.1016,-0.11615c-0.05772,-0.00866 -0.11323,0.02571 -0.13121,0.08123c-0.77994,2.37962 -2.20209,4.26691 -4.26642,5.66189c-0.0238,0.01639 -0.03197,0.04775 -0.01919,0.07367c0.01278,0.02591 0.04263,0.03854 0.07012,0.02965z" fill="#ee0808" stroke-width="1"/><path d="M243.56154,178.02896l1.60792,0.0873l0.40889,0.227c0.04462,0.02426 0.07082,0.0616 0.07858,0.11204c0.03395,0.19499 -0.03104,0.34438 -0.19499,0.44818c-0.04851,0.03104 -0.1004,0.0388 -0.1557,0.02328c-0.65771,-0.1882 -1.31495,-0.17268 -1.97169,0.04656c-0.05645,0.01893 -0.11829,-0.00268 -0.14988,-0.05238c-0.22118,-0.35068 -0.24447,-0.98512 0.37687,-0.89199zM243.95878,178.48732l-0.36669,-0.24883c-0.0523,-0.03504 -0.11838,-0.04246 -0.17714,-0.01988c-0.05876,0.02258 -0.10287,0.07233 -0.11825,0.13338c-0.0388,0.15813 0.01842,0.25271 0.1717,0.28375c0.18431,0.0388 0.3468,0.01746 0.48747,-0.06402c0.04656,-0.02619 0.04754,-0.05432 0.00291,-0.0844zM245.30942,178.56983c0.00931,-0.03706 -0.00049,-0.0773 -0.02725,-0.11189c-0.02677,-0.03458 -0.0683,-0.06066 -0.11546,-0.07251c-0.09821,-0.02466 -0.19353,0.01789 -0.21292,0.09505c-0.00931,0.03706 0.0005,0.0773 0.02726,0.11188c0.02677,0.03458 0.0683,0.06066 0.11546,0.07251c0.09821,0.02466 0.19352,-0.01789 0.21291,-0.09504z" fill="#700203" stroke-width="1"/><path d="M239.3213,179.27309c-1.04623,0.00582 -1.85237,0.04511 -2.80402,0.47292c-0.05141,0.02328 -0.09895,0.01746 -0.14261,-0.01746c-0.15521,-0.1232 -0.22312,-0.28715 -0.20372,-0.49184c0.00364,-0.04626 0.02689,-0.08905 0.06403,-0.11786c0.7654,-0.60339 1.63653,-0.89975 2.61341,-0.88908c0.48456,0.00582 0.72028,-0.05384 0.70137,0.54276c-0.00582,0.17461 -0.03929,0.31625 -0.1004,0.4249c-0.02513,0.04649 -0.07426,0.07553 -0.12805,0.07566zM238.4555,178.89912l-0.36232,-0.02619c-0.02243,-0.00169 -0.04355,0.01074 -0.05295,0.03117c-0.0094,0.02043 -0.00512,0.04456 0.01075,0.0605c0.0582,0.05966 0.14988,0.08876 0.24155,0.06257c0.1591,-0.04462 0.32401,-0.06694 0.49474,-0.06694c0.08246,-0.04074 0.1198,-0.10187 0.11204,-0.18335c-0.00479,-0.05285 -0.03173,-0.10121 -0.07416,-0.1331c-0.04243,-0.03189 -0.09637,-0.04432 -0.14847,-0.03423c-0.13969,0.02716 -0.21342,0.12368 -0.22118,0.28957zM236.95127,179.25987c-0.01163,-0.04083 -0.0449,-0.07369 -0.09249,-0.09134c-0.0476,-0.01765 -0.10561,-0.01866 -0.16128,-0.0028c-0.11593,0.03303 -0.19028,0.12871 -0.16606,0.21373c0.01163,0.04083 0.0449,0.07369 0.09249,0.09134c0.0476,0.01765 0.10561,0.01866 0.16128,0.0028c0.11593,-0.03303 0.19027,-0.12871 0.16606,-0.21373z" fill="#700203" stroke-width="1"/><path d="M243.95588,178.57172c-0.14067,0.08148 -0.30316,0.10283 -0.48747,0.06402c-0.15328,-0.03104 -0.2105,-0.12562 -0.1717,-0.28375c0.01538,-0.06105 0.05948,-0.11079 0.11825,-0.13338c0.05876,-0.02258 0.12484,-0.01516 0.17714,0.01988l0.36669,0.24883c0.04462,0.03008 0.04365,0.05821 -0.00291,0.0844z" fill="#ffffff" stroke-width="1"/><path d="M244.9538,178.48049c0.01938,-0.07717 0.1147,-0.11972 0.21291,-0.09505c0.09821,0.02467 0.16211,0.10721 0.14273,0.18438c-0.01938,0.07717 -0.11471,0.11972 -0.21292,0.09506c-0.09821,-0.02467 -0.1621,-0.10722 -0.14272,-0.18438z" fill="#ffffff" stroke-width="1"/><path d="M238.78727,178.96024c-0.17946,0.02328 -0.29005,0.0029 -0.33177,-0.06112c0.00776,-0.16589 0.08149,-0.2624 0.22118,-0.28957c0.05211,-0.01009 0.10605,0.00234 0.14847,0.03423c0.04243,0.03189 0.06937,0.08025 0.07416,0.1331c0.00776,0.08148 -0.02958,0.14261 -0.11204,0.18335z" fill="#ffffff" stroke-width="1"/><path d="M238.4555,178.89912c0.04172,0.06402 0.15231,0.0844 0.33177,0.06112c-0.17074,0 -0.33565,0.02231 -0.49474,0.06694c-0.09168,0.02619 -0.18335,-0.00291 -0.24155,-0.06257c-0.01587,-0.01594 -0.02015,-0.04007 -0.01075,-0.0605c0.0094,-0.02043 0.03052,-0.03286 0.05295,-0.03117z" fill="#ffffff" stroke-width="1"/><path d="M236.8534,185.83716c-1.99837,-0.97785 -3.18091,-2.57363 -3.5476,-4.78736c-0.10332,-0.62425 -0.05965,-1.23104 0.00874,-1.87712c0.00386,-0.03166 0.02788,-0.05711 0.05927,-0.06278c0.03139,-0.00567 0.0628,0.00975 0.07751,0.03805c0.0194,0.03687 0.03832,0.10186 0.05675,0.19499c0.3308,1.63653 0.97687,3.11397 1.93823,4.43231c0.84688,1.16119 1.85819,1.92222 3.14016,2.51737c0.03407,0.01699 0.05106,0.05596 0.04031,0.09248c-0.01074,0.03653 -0.04612,0.0601 -0.08397,0.05594c-0.58351,-0.08148 -1.09426,-0.31285 -1.6894,-0.60387z" fill="#ff3828" stroke-width="1"/><path d="M236.53145,179.37945c-0.02422,-0.08502 0.05014,-0.18071 0.16607,-0.21373c0.11594,-0.03303 0.22954,0.00913 0.25376,0.09414c0.02422,0.08502 -0.05013,0.18071 -0.16607,0.21373c-0.11594,0.03303 -0.22955,-0.00913 -0.25377,-0.09414z" fill="#ffffff" stroke-width="1"/><path d="M241.64367,179.8988l0.11205,-0.26629c0.03593,-0.08486 0.1289,-0.13028 0.21792,-0.10646c0.08902,0.02382 0.1469,0.10958 0.13567,0.20104c-0.09458,0.75084 -1.28342,0.83669 -1.38965,-0.05384c-0.00679,-0.05918 0.0194,-0.09216 0.07858,-0.09895l0.15716,-0.01601c0.06112,-0.00679 0.09167,0.02086 0.09167,0.08294c-0.00194,0.16492 0.06839,0.29151 0.21099,0.37979c0.06596,0.04155 0.14686,0.05192 0.22117,0.02836c0.07431,-0.02355 0.13446,-0.07864 0.16444,-0.15059z" fill="#700203" stroke-width="1"/><path d="M245.59579,179.99338c-0.03687,-0.01358 -0.06548,-0.03444 -0.08585,-0.06257c-0.01782,-0.02555 -0.0204,-0.05884 -0.00669,-0.08656c0.01371,-0.02773 0.04146,-0.04536 0.07217,-0.04585c0.15328,-0.00291 0.22845,0.06305 0.22554,0.19789c-0.00194,0.06402 -0.03395,0.08877 -0.09604,0.07422c-0.02328,-0.00485 -0.0422,-0.01746 -0.05675,-0.03784c-0.01358,-0.01843 -0.03105,-0.03153 -0.05239,-0.03929z" fill="#700203" stroke-width="1"/><path d="M236.95007,180.4067c0.04782,0.03928 0.01008,0.16425 -0.08429,0.27914c-0.09437,0.11488 -0.20963,0.17618 -0.25745,0.1369c-0.04782,-0.03928 -0.01008,-0.16425 0.08429,-0.27914c0.09437,-0.11488 0.20963,-0.17618 0.25745,-0.1369z" fill="#700203" stroke-width="1"/><path d="M237.8792,180.44549c0.04328,0.02301 0.04779,0.09919 0.01006,0.17015c-0.03773,0.07096 -0.1034,0.10982 -0.14669,0.0868c-0.04328,-0.02301 -0.04779,-0.09919 -0.01006,-0.17015c0.03773,-0.07096 0.10341,-0.10982 0.14669,-0.08681z" fill="#9c0203" stroke-width="1"/><path d="M246.56492,182.40307c-0.74357,1.81163 -2.21325,3.35115 -4.1311,3.97977c-0.02749,0.00889 -0.05734,-0.00373 -0.07012,-0.02965c-0.01278,-0.02591 -0.0046,-0.05728 0.01919,-0.07367c2.06434,-1.39498 3.48648,-3.28228 4.26642,-5.66189c0.01799,-0.05552 0.0735,-0.08989 0.13121,-0.08123c0.05772,0.00866 0.1007,0.05779 0.1016,0.11615c0.01019,0.37979 0.03638,0.61843 -0.11495,1.00113c-0.10186,0.25901 -0.10622,0.51366 -0.20226,0.74939z" fill="#ff3828" stroke-width="1"/></g></g></svg>