<svg version="1.1" xmlns="http://www.w3.org/2000/svg" xmlns:xlink="http://www.w3.org/1999/xlink" width="100" height="100" viewBox="0,0,100,100"><g transform="translate(-190,-130)"><g data-paper-data="{&quot;isPaintingLayer&quot;:true}" fill-rule="nonzero" stroke="none" stroke-linecap="butt" stroke-linejoin="miter" stroke-miterlimit="10" stroke-dasharray="" stroke-dashoffset="0" style="mix-blend-mode: normal"><path d="M190,180c0,-27.61424 22.38576,-50 50,-50c27.61424,0 50,22.38576 50,50c0,27.61424 -22.38576,50 -50,50c-27.61424,0 -50,-22.38576 -50,-50z" fill="none" stroke-width="0"/><path d="M244.11244,172.17761c2.11561,1.53285 1.65952,8.05067 1.30482,10.28661c-0.30826,1.93403 -0.93745,3.37396 -1.88758,4.31988c-1.35126,1.33861 -3.06149,1.73976 -5.13063,1.20348c-2.37742,-0.61652 -3.70546,-2.20637 -3.98417,-4.76958c-0.42438,-3.87647 -0.019,-8.65873 3.66745,-10.71733c1.17814,-0.65243 2.62866,-0.55106 3.9905,-0.69042c0.89945,-0.08868 1.5793,0.03378 2.03959,0.36738zM239.90753,185.46503c1.32941,0.09527 2.58534,-2.3138 2.80519,-5.38088c0.21984,-3.06702 -0.67961,-5.63061 -2.00901,-5.72598c-1.32941,-0.09527 -2.58534,2.3138 -2.80519,5.38088c-0.21984,3.06702 0.67961,5.63061 2.00901,5.72598z" fill="#fff1af" stroke-width="1"/></g></g></svg>