<svg version="1.1" xmlns="http://www.w3.org/2000/svg" xmlns:xlink="http://www.w3.org/1999/xlink" width="100" height="100" viewBox="0,0,100,100"><g transform="translate(-190,-130)"><g data-paper-data="{&quot;isPaintingLayer&quot;:true}" fill-rule="nonzero" stroke="none" stroke-linecap="butt" stroke-linejoin="miter" stroke-miterlimit="10" stroke-dasharray="" stroke-dashoffset="0" style="mix-blend-mode: normal"><path d="M190,180c0,-27.61424 22.38576,-50 50,-50c27.61424,0 50,22.38576 50,50c0,27.61424 -22.38576,50 -50,50c-27.61424,0 -50,-22.38576 -50,-50z" fill="none" stroke-width="0"/><path d="M241.55651,175.42171c1.01845,0.32191 1.53866,0.95912 1.56063,1.91165c0.01978,0.87343 -0.35761,1.50295 -1.13216,1.88858c-0.14997,0.07416 -0.35102,0.09393 -0.52735,0.1615c-0.06592,0.02417 -0.06427,0.04285 0.00494,0.05603c1.24917,0.23401 1.95725,0.90913 2.12424,2.02536c0.3296,2.19346 -1.7073,3.31902 -3.60742,3.32232c-1.21456,0.07745 -2.91033,-0.34937 -3.497,-1.47988c-0.21094,-0.40705 -0.11041,-0.83717 0.37244,-0.90144c0.46803,-0.06427 0.91133,0.6526 1.36947,0.81904c0.86848,0.31641 2.13742,0.40046 2.80485,-0.33619c0.73005,-0.80421 0.43012,-2.25443 -0.67897,-2.57743c-0.34937,-0.10217 -0.79432,-0.06262 -1.18819,-0.07581c-0.90639,-0.03296 -0.90639,-1.14864 -0.06427,-1.15523c0.61305,-0.00659 1.28872,-0.07251 1.66775,-0.6081c0.42188,-0.59162 0.45155,-1.75509 -0.42847,-2.01053c-0.77675,-0.22412 -1.44527,-0.0824 -2.00559,0.42518c-0.3642,0.33124 -0.71357,1.25576 -1.38924,0.68885c-0.47791,-0.40046 0.31971,-1.32992 0.67073,-1.57382c1.16127,-0.80971 2.47581,-1.00307 3.94361,-0.58009z" fill="#5486af" stroke-width="1"/></g></g></svg>