<svg version="1.1" xmlns="http://www.w3.org/2000/svg" xmlns:xlink="http://www.w3.org/1999/xlink" width="199.32862" height="199.32862" viewBox="0,0,199.32862,199.32862"><g transform="translate(-140.33569,-80.33576)"><g data-paper-data="{&quot;isPaintingLayer&quot;:true}" fill-rule="nonzero" stroke="none" stroke-linecap="butt" stroke-linejoin="miter" stroke-miterlimit="10" stroke-dasharray="" stroke-dashoffset="0" style="mix-blend-mode: normal"><g stroke-width="1"><path d="M246.45066,171.05575c-0.38653,0.4277 -0.64727,0.89087 -0.78221,1.38944c-0.79594,-0.09377 -1.5141,0.0423 -2.15452,0.40828c-1.1253,0.64498 -1.75654,0.74103 -2.84752,0.11322c-0.09402,-0.05481 -0.20581,-0.06848 -0.30877,-0.03774c-1.20419,0.33621 -2.43926,0.95374 -3.50279,-0.24358c-0.07548,-0.08463 -0.17038,-0.12924 -0.28476,-0.13381c-0.85541,-0.0366 -1.61931,-0.31105 -2.29174,-0.82338c0.02288,-0.46429 -0.05489,-0.82909 -0.23328,-1.09441c0.50432,-1.81828 2.86466,-2.30203 4.48055,-2.59022c0.11894,-0.02058 0.18525,-0.09033 0.19899,-0.20927c0.21271,-1.86976 3.11854,-1.95553 3.25921,0.14065c0.00687,0.11894 0.0686,0.19099 0.18526,0.21613c1.82858,0.40139 3.77382,0.96748 4.28157,2.86467zM241.06782,168.57876l0.09949,-0.89541c0.01374,-0.13265 -0.04003,-0.22529 -0.16124,-0.2779c-0.42084,-0.18069 -0.84168,-0.18069 -1.26253,0c-0.1374,0.06044 -0.21638,0.20714 -0.19211,0.35679l0.11663,0.66557c0.01589,0.0863 -0.0359,0.17067 -0.12005,0.19554c-1.29341,0.38082 -3.70178,0.61409 -4.4943,1.66047c-0.38423,0.51004 -0.31792,0.88056 0.19899,1.11156c0.46429,0.20814 1.05897,0.23099 1.78399,0.06861c0.11894,-0.02516 0.19785,0.01944 0.23673,0.1338c0.56607,1.68106 2.11676,0.75477 3.03621,0.02745c0.09148,-0.07319 0.17154,-0.06175 0.24016,0.03431c0.56723,0.79135 1.31739,1.03723 2.25055,0.73762c0.12578,-0.04117 0.20815,-0.12464 0.24701,-0.25045l0.18526,-0.55922c0.0343,-0.1052 0.10292,-0.13608 0.20586,-0.09263c0.4803,0.19898 0.97432,0.24243 1.48209,0.13036c0.22415,-0.05049 0.41029,-0.20583 0.50006,-0.41735c0.08975,-0.21152 0.0722,-0.45331 -0.04719,-0.64961c-0.59352,-0.97775 -3.09797,-1.55412 -4.16149,-1.78054c-0.10751,-0.02288 -0.15553,-0.0892 -0.14411,-0.19899z" fill="#3d8004"/><path d="M241.21193,168.77775c1.06354,0.22642 3.56798,0.80278 4.16149,1.78054c0.11941,0.19632 0.13697,0.43811 0.04719,0.64963c-0.08975,0.21152 -0.2759,0.36683 -0.50005,0.41735c-0.50774,0.11208 -1.00178,0.06862 -1.48208,-0.13037c-0.10292,-0.04347 -0.17154,-0.01257 -0.20586,0.09262l-0.18526,0.55922c-0.03888,0.12578 -0.12122,0.20929 -0.24702,0.25046c-0.93316,0.29963 -1.68334,0.05374 -2.25055,-0.73762c-0.06863,-0.09607 -0.14866,-0.10751 -0.24016,-0.03431c-0.91943,0.72731 -2.47013,1.65362 -3.03621,-0.02745c-0.03888,-0.11435 -0.11779,-0.15895 -0.23673,-0.13379c-0.72502,0.16238 -1.31969,0.13951 -1.78399,-0.06863c-0.51689,-0.23101 -0.58324,-0.60152 -0.19899,-1.11155c0.79251,-1.04639 3.20089,-1.27968 4.4943,-1.66047c0.08415,-0.02488 0.13595,-0.10925 0.12006,-0.19555l-0.11664,-0.66557c-0.02427,-0.14965 0.05471,-0.29636 0.19212,-0.3568c0.42084,-0.18069 0.84169,-0.18069 1.26253,0c0.12122,0.05262 0.17498,0.14525 0.16124,0.2779l-0.09949,0.89541c-0.01144,0.10979 0.0366,0.17615 0.1441,0.199z" fill="#9ad915"/><path d="M234.04508,170.63379c0.1784,0.26533 0.25617,0.63009 0.23328,1.0944c-5.65386,3.23518 -4.71385,8.98511 -1.24193,13.46224c1.59187,2.04816 4.14434,3.39986 6.75172,3.03622c1.13444,-0.16009 2.23112,-0.5775 3.29008,-1.25221c0.26533,0.29504 0.42997,0.07777 0.49402,-0.65184l1.9624,-2.39465c0.36824,-0.09148 0.57521,-0.49977 0.62097,-1.22478l1.22133,-2.58333c0.61525,-0.09377 0.77535,-0.62212 0.48031,-1.58501c0.05032,-2.17967 -0.67928,-4.20952 -2.18883,-6.08958c0.13495,-0.49861 0.39567,-0.96176 0.78221,-1.38944c8.48422,4.72758 3.06708,13.73671 -1.96581,18.19325c-4.81676,4.26786 -9.57864,0.56263 -12.46047,-3.54739c-1.92464,-2.74461 -3.55768,-6.35374 -2.65196,-9.65754c0.6587,-2.40152 2.21626,-4.20494 4.67268,-5.41027z" fill="#f51515"/><path d="M234.27837,171.72818c0.67243,0.51232 1.43633,0.78678 2.29174,0.82339c0.11435,0.00457 0.20927,0.04917 0.28476,0.1338c1.06354,1.19732 2.2986,0.57981 3.5028,0.24359c0.10297,-0.03074 0.21474,-0.01711 0.30877,0.03772c1.09098,0.62784 1.72223,0.53177 2.84752,-0.1132c0.6404,-0.36594 1.35859,-0.50203 2.15452,-0.40828c1.50952,1.88005 2.23912,3.90991 2.18882,6.08958c-0.74333,-0.06634 -0.90343,0.46201 -0.4803,1.58501l-1.22134,2.58334c-0.69301,-0.24243 -0.9,0.16581 -0.62096,1.22477l-1.9624,2.39467c-0.15095,-0.40024 -0.37855,-0.33277 -0.68272,0.20242c-0.05032,0.09148 -0.07661,0.17839 -0.07889,0.26072c-0.00687,0.19441 0.08234,0.25732 0.2676,0.18869c-1.05896,0.67472 -2.15564,1.09212 -3.29007,1.25221c-2.60736,0.36365 -5.15985,-0.98803 -6.75172,-3.03621c-3.47192,-4.47713 -4.41194,-10.22704 1.24193,-13.46225zM245.31422,177.06376c0.29552,-0.05852 0.46023,-0.48414 0.36785,-0.95068c-0.09237,-0.46652 -0.40681,-0.79729 -0.70235,-0.73878c-0.29552,0.05852 -0.46022,0.48415 -0.36784,0.95068c0.09237,0.46652 0.40682,0.79728 0.70234,0.73878zM233.55552,177.71813c0.38649,0.00606 0.707,-0.44824 0.7159,-1.01469c0.0089,-0.56644 -0.2972,-1.03054 -0.68366,-1.03663c-0.38649,-0.00606 -0.70699,0.44823 -0.7159,1.01469c-0.0089,0.56644 0.29719,1.03055 0.68365,1.03664zM239.92924,176.32216c-0.00481,-0.10999 -0.05311,-0.21358 -0.1343,-0.28795c-0.08116,-0.07437 -0.18857,-0.11344 -0.29857,-0.10865l-0.11651,0.00507c-0.10999,0.0048 -0.21358,0.0531 -0.28794,0.13427c-0.07437,0.08116 -0.11346,0.18857 -0.10866,0.29856l0.02572,0.58956c0.00481,0.10999 0.05311,0.21357 0.1343,0.28793c0.08116,0.07437 0.18858,0.11345 0.29857,0.10865l0.11651,-0.00507c0.10999,-0.0048 0.21358,-0.0531 0.28794,-0.13427c0.07437,-0.08116 0.11345,-0.18856 0.10866,-0.29856zM241.86717,180.01c-0.09607,0.09148 -0.1395,0.20241 -0.13036,0.33278c0.03888,0.50317 0.25159,0.92517 0.63811,1.26594c0.17359,0.15179 0.40556,0.21884 0.63337,0.18305c0.2278,-0.03576 0.42807,-0.17065 0.54683,-0.36832c0.4963,-0.82565 0.51689,-1.67419 0.06175,-2.54561c-0.04187,-0.07977 -0.11824,-0.13574 -0.20646,-0.15123c-0.08822,-0.01549 -0.17812,0.01127 -0.24296,0.07232zM235.7776,178.88815c-1.4169,2.60394 2.07903,4.05858 1.90406,1.15959c-0.00687,-0.10751 -0.05488,-0.19214 -0.14408,-0.25389l-1.45807,-0.97776c-0.04877,-0.03345 -0.10942,-0.04468 -0.16695,-0.03096c-0.05754,0.01374 -0.10654,0.05115 -0.13498,0.10302zM232.48547,181.5712c0.27669,-0.11916 0.33757,-0.59525 0.13596,-1.06336c-0.2016,-0.4681 -0.58934,-0.751 -0.86602,-0.63183c-0.27669,0.11916 -0.33757,0.59525 -0.13597,1.06335c0.2016,0.4681 0.58932,0.751 0.86602,0.63184zM240.76936,181.19018l-2.00356,0.08577c-0.12106,0.00535 -0.23503,0.0586 -0.31677,0.14806c-0.08175,0.08946 -0.12453,0.20777 -0.11894,0.3288l0.01717,0.39454c0.02911,0.66248 0.56511,1.17701 1.19732,1.1493l0.6244,-0.02745c0.63136,-0.02842 1.11947,-0.58713 1.09098,-1.2488l-0.01716,-0.39453c-0.01115,-0.25072 -0.22265,-0.44539 -0.47344,-0.43571zM235.79444,184.00338c0.0932,-0.03652 0.16344,-0.12034 0.1953,-0.23302c0.03187,-0.11269 0.0227,-0.245 -0.02544,-0.36785c-0.04814,-0.12286 -0.13133,-0.22613 -0.23127,-0.28717c-0.09995,-0.06102 -0.20844,-0.07481 -0.30163,-0.03826c-0.0932,0.03652 -0.16343,0.12035 -0.1953,0.23304c-0.03187,0.11269 -0.0227,0.24499 0.02544,0.36784c0.04814,0.12286 0.13134,0.22615 0.23127,0.28718c0.09995,0.06102 0.20843,0.07479 0.30162,0.03826zM238.60939,188.11654c0.09374,-0.02634 0.16503,-0.11771 0.19824,-0.25403c0.0332,-0.13631 0.02558,-0.30638 -0.02121,-0.47283c-0.0974,-0.34658 -0.3346,-0.58304 -0.52977,-0.52819c-0.09374,0.02634 -0.16504,0.11771 -0.19823,0.25402c-0.0332,0.13631 -0.02558,0.30639 0.02121,0.47282c0.0974,0.34658 0.3346,0.58305 0.52978,0.5282z" fill="#fe6c4b"/><path d="M244.97972,175.37431c0.29552,-0.05852 0.60998,0.27224 0.70236,0.73877c0.09237,0.46653 -0.07231,0.89215 -0.36784,0.95068c-0.29552,0.05852 -0.60999,-0.27224 -0.70236,-0.73877c-0.09237,-0.46653 0.07233,-0.89216 0.36784,-0.95068z" fill="#fef271"/><path d="M233.58775,175.66681c0.38649,0.00606 0.69259,0.47021 0.68368,1.03665c-0.00891,0.56645 -0.32942,1.02076 -0.7159,1.01469c-0.38649,-0.00606 -0.69258,-0.47021 -0.68368,-1.03666c0.00891,-0.56645 0.32941,-1.02076 0.7159,-1.01468z" fill="#fef271"/><path d="M239.4418,177.34962c-0.22903,0.01 -0.41474,0.01809 -0.41474,0.01809l-0.06195,-1.41897c0,0 0.18568,-0.0081 0.41474,-0.01812l0.11653,-0.00509c0.22903,-0.01 0.41474,-0.01811 0.41474,-0.01811l0.06196,1.41897c0,0 -0.18568,0.00809 -0.41474,0.0181z" fill="#fef271"/><path d="M247.85727,178.53478c0.29504,0.96289 0.13495,1.49123 -0.4803,1.58501c-0.42312,-1.123 -0.26303,-1.65134 0.4803,-1.58501z" fill="#fef271"/><path d="M241.86717,180.01l1.30026,-1.21105c0.06484,-0.06103 0.15474,-0.0878 0.24295,-0.07231c0.08822,0.01549 0.16461,0.07144 0.20647,0.15122c0.45516,0.87142 0.43455,1.71993 -0.06176,2.54561c-0.11875,0.19768 -0.319,0.33256 -0.54682,0.36832c-0.2278,0.03576 -0.45978,-0.03126 -0.63337,-0.18304c-0.38653,-0.34078 -0.59924,-0.76276 -0.63811,-1.26594c-0.00913,-0.13037 0.0343,-0.2413 0.13036,-0.33279z" fill="#d10504"/><path d="M237.68167,180.04774c0.17498,2.89899 -3.32096,1.44434 -1.90406,-1.15959c0.02842,-0.05187 0.07744,-0.08928 0.13498,-0.10302c0.05754,-0.01374 0.11816,-0.00248 0.16695,0.03096l1.45807,0.97776c0.0892,0.06175 0.13721,0.14639 0.14409,0.25389z" fill="#d10504"/><path d="M231.75541,179.87598c0.27669,-0.11916 0.66442,0.16372 0.86603,0.63184c0.20162,0.46813 0.14073,0.94421 -0.13596,1.06338c-0.27669,0.11916 -0.66443,-0.16372 -0.86604,-0.63184c-0.20162,-0.46813 -0.14073,-0.9442 0.13597,-1.06338z" fill="#fef271"/><path d="M240.76936,181.19018c0.25079,-0.00968 0.46229,0.18497 0.47344,0.4357l0.01716,0.39455c0.0285,0.66165 -0.45962,1.22039 -1.09098,1.2488l-0.6244,0.02744c-0.6322,0.02771 -1.16821,-0.48683 -1.19732,-1.1493l-0.01717,-0.39454c-0.00558,-0.12105 0.0372,-0.23935 0.11894,-0.32881c0.08175,-0.08946 0.19569,-0.14271 0.31677,-0.14806zM240.42627,181.87289l-1.13902,-0.02401c-0.08205,-0.00002 -0.14908,0.06549 -0.15094,0.14752l-0.00343,0.11665c-0.00515,0.29521 0.24971,0.53931 0.5695,0.54549l0.28131,0.00687c0.15398,0.00301 0.30271,-0.05062 0.4134,-0.14909c0.11072,-0.09847 0.17425,-0.23369 0.17669,-0.37583v-0.11664c0.00002,-0.08205 -0.0655,-0.14909 -0.14753,-0.15096z" fill="#d10504"/><path d="M240.42627,181.87289c0.08203,0.00186 0.14755,0.06891 0.14753,0.15096v0.11664c-0.00241,0.14212 -0.06599,0.27737 -0.1767,0.37583c-0.11072,0.09847 -0.25944,0.15211 -0.4134,0.14909l-0.28132,-0.00687c-0.3198,-0.00618 -0.57462,-0.25028 -0.5695,-0.54549l0.00343,-0.11665c0.00186,-0.08203 0.06889,-0.14754 0.15094,-0.14752z" fill="#ffc7c1"/><path d="M246.15561,182.70314c-0.04573,0.72502 -0.25272,1.13328 -0.62097,1.22478c-0.27903,-1.05896 -0.07205,-1.46722 0.62097,-1.22478z" fill="#fef271"/><path d="M235.43142,183.07707c0.19406,-0.07605 0.43264,0.06968 0.53288,0.32548c0.10027,0.25578 0.02419,0.52481 -0.16986,0.60084c-0.19406,0.07605 -0.43263,-0.06968 -0.53288,-0.32547c-0.10027,-0.25578 -0.02419,-0.52482 0.16986,-0.60085z" fill="#fef271"/><path d="M243.57227,186.32257c-0.06405,0.7296 -0.22871,0.94689 -0.49402,0.65184c-0.18526,0.06863 -0.27446,0.00571 -0.26759,-0.18869c0.00231,-0.08234 0.02861,-0.16924 0.0789,-0.26072c0.30419,-0.53521 0.53177,-0.60267 0.68271,-0.20242z" fill="#fef271"/><path d="M238.25663,186.86151c0.19518,-0.05487 0.43237,0.18162 0.52978,0.52818c0.0974,0.34658 0.01817,0.672 -0.17702,0.72686c-0.19518,0.05487 -0.43237,-0.18164 -0.52978,-0.52819c-0.0974,-0.34658 -0.01818,-0.67198 0.17701,-0.72684z" fill="#fef271"/></g><path d="M140.33569,180.00006c0,-55.04307 44.62123,-99.6643 99.66431,-99.6643c55.04307,0 99.66431,44.62123 99.66431,99.66431c0,55.04307 -44.62123,99.66431 -99.66431,99.66431c-55.04307,0 -99.66431,-44.62123 -99.66431,-99.66431z" fill="none" stroke-width="0"/></g></g></svg>