<svg version="1.1" xmlns="http://www.w3.org/2000/svg" xmlns:xlink="http://www.w3.org/1999/xlink" width="100" height="100" viewBox="0,0,100,100"><defs><linearGradient x1="240" y1="171.415" x2="240" y2="188.585" gradientUnits="userSpaceOnUse" id="color-1"><stop offset="0" stop-color="#ffffdc"/><stop offset="1" stop-color="#ffc64c"/></linearGradient></defs><g transform="translate(-190,-130)"><g data-paper-data="{&quot;isPaintingLayer&quot;:true}" fill-rule="nonzero" stroke-linecap="butt" stroke-linejoin="miter" stroke-miterlimit="10" stroke-dasharray="" stroke-dashoffset="0" style="mix-blend-mode: normal"><path d="M190,180c0,-27.61424 22.38576,-50 50,-50c27.61424,0 50,22.38576 50,50c0,27.61424 -22.38576,50 -50,50c-27.61424,0 -50,-22.38576 -50,-50z" fill="none" stroke="none" stroke-width="0"/><path d="M239.89358,185.26392c-1.39809,0.25543 -2.80067,0.42122 -4.20774,0.4974c-2.8634,0.15459 -2.41979,-3.28016 -1.56614,-4.87319c0.76179,-1.42051 1.64006,-2.76259 2.63488,-4.02626c0.88278,-1.12474 1.07995,-2.25174 0.5915,-3.38098c-0.14846,-0.34257 -0.07019,-0.74123 0.19677,-1.00221c0.26698,-0.261 0.66728,-0.33023 1.00641,-0.17408c5.37059,2.51389 -0.53772,6.86951 -1.97617,9.43044c-0.1112,0.20175 -0.09171,0.45103 0.04943,0.63186c0.14115,0.18084 0.37621,0.25773 0.59582,0.1949l2.74242,-0.74611c0.24017,-0.07008 0.41326,-0.27777 0.4369,-0.52428c0.2487,-3.02473 1.36449,-6.09651 0.58477,-9.02714c-0.05328,-0.19499 -0.01507,-0.40366 0.10392,-0.56709c0.11897,-0.16344 0.30581,-0.26393 0.50775,-0.2731c2.8903,-0.14788 3.52213,1.5258 3.1054,4.08675c-0.30919,1.88207 -0.57132,3.7641 -0.78644,5.64616c-0.0307,0.28775 0.13618,0.55753 0.40329,0.65202l1.47875,0.53772c0.21001,0.07285 0.38027,0.22852 0.47051,0.43018c0.31818,0.68562 0.3428,1.3869 0.07393,2.10388c-0.11204,0.29575 -0.32488,0.42572 -0.63855,0.38985l-1.64679,-0.19492c-0.0941,-0.01161 -0.18864,0.01788 -0.25941,0.08096c-0.0708,0.06306 -0.11097,0.15359 -0.11026,0.24839l0.02689,1.69385c0.00589,0.44172 -0.18692,0.86269 -0.52478,1.14575c-0.33785,0.28306 -0.78466,0.39802 -1.21612,0.31283c-1.4698,-0.28678 -2.02546,-1.2435 -1.66696,-2.87013c0.02402,-0.11558 -0.01074,-0.23551 -0.09285,-0.32033c-0.08209,-0.08482 -0.2009,-0.12342 -0.31716,-0.10313z" fill="#fdf3b2" stroke="#9c5925" stroke-width="2"/><path d="M239.89358,185.26392c-1.39809,0.25543 -2.80067,0.42122 -4.20774,0.4974c-2.8634,0.15459 -2.41979,-3.28016 -1.56614,-4.87319c0.76179,-1.42051 1.64006,-2.76259 2.63488,-4.02626c0.88278,-1.12474 1.07995,-2.25174 0.5915,-3.38098c-0.14846,-0.34257 -0.07019,-0.74123 0.19677,-1.00221c0.26698,-0.261 0.66728,-0.33023 1.00641,-0.17408c5.37059,2.51389 -0.53772,6.86951 -1.97617,9.43044c-0.1112,0.20175 -0.09171,0.45103 0.04943,0.63186c0.14115,0.18084 0.37621,0.25773 0.59582,0.1949l2.74242,-0.74611c0.24017,-0.07008 0.41326,-0.27777 0.4369,-0.52428c0.2487,-3.02473 1.36449,-6.09651 0.58477,-9.02714c-0.05328,-0.19499 -0.01507,-0.40366 0.10392,-0.56709c0.11897,-0.16344 0.30581,-0.26393 0.50775,-0.2731c2.8903,-0.14788 3.52213,1.5258 3.1054,4.08675c-0.30919,1.88207 -0.57132,3.7641 -0.78644,5.64616c-0.0307,0.28775 0.13618,0.55753 0.40329,0.65202l1.47875,0.53772c0.21001,0.07285 0.38027,0.22852 0.47051,0.43018c0.31818,0.68562 0.3428,1.3869 0.07393,2.10388c-0.11204,0.29575 -0.32488,0.42572 -0.63855,0.38985l-1.64679,-0.19492c-0.0941,-0.01161 -0.18864,0.01788 -0.25941,0.08096c-0.0708,0.06306 -0.11097,0.15359 -0.11026,0.24839l0.02689,1.69385c0.00589,0.44172 -0.18692,0.86269 -0.52478,1.14575c-0.33785,0.28306 -0.78466,0.39802 -1.21612,0.31283c-1.4698,-0.28678 -2.02546,-1.2435 -1.66696,-2.87013c0.02402,-0.11558 -0.01074,-0.23551 -0.09285,-0.32033c-0.08209,-0.08482 -0.2009,-0.12342 -0.31716,-0.10313z" fill="url(#color-1)" stroke="none" stroke-width="1"/></g></g></svg>