<svg version="1.1" xmlns="http://www.w3.org/2000/svg" xmlns:xlink="http://www.w3.org/1999/xlink" width="92.03659" height="66.75001" viewBox="0,0,92.03659,66.75001"><g transform="translate(-193.98171,-146.62499)"><g data-paper-data="{&quot;isPaintingLayer&quot;:true}" fill-rule="nonzero" stroke-linejoin="miter" stroke-miterlimit="10" stroke-dasharray="" stroke-dashoffset="0" style="mix-blend-mode: normal"><path d="M194.98172,198.37621c0,-7.54658 0,-26.6505 0,-39.14704c0,-6.77238 4.14241,-11.60417 10.83601,-11.60417c24.02935,0 48.43685,0.75 64.60545,0.75c8.82474,0 14.59513,8.33035 14.59513,14.65366c0,7.28405 0,24.86805 0,36.95051c0,7.16534 -6.82819,12.39584 -17.15111,12.39584c-28.00176,0 -49.21808,-0.75 -62.11475,-0.75c-5.47948,0 -10.77072,-6.8092 -10.77072,-13.24879z" fill="#afdeb5" stroke="#426547" stroke-width="2" stroke-linecap="butt"/><g><path d="" data-paper-data="{&quot;index&quot;:null}" fill="#fd96ff" stroke="none" stroke-width="2" stroke-linecap="butt"/><path d="M221.14356,192.94487c0,-13.11773 4.69865,-27.42139 18.66473,-27.42139c13.96608,0 18.66473,14.30366 18.66473,27.42139c0,13.11773 -4.69865,19.3006 -18.66473,19.3006c-13.96608,0 -18.66473,-6.18286 -18.66473,-19.3006z" data-paper-data="{&quot;index&quot;:null}" fill="#ffe299" stroke="#260e00" stroke-width="2" stroke-linecap="butt"/><path d="M251.05754,196.10658l7.07332,-5.99549" data-paper-data="{&quot;index&quot;:null}" fill="none" stroke="#260e00" stroke-width="2" stroke-linecap="round"/><g data-paper-data="{&quot;index&quot;:null}"><path d="M242.92311,189.71026c0,-1.3219 1.44852,-1.82812 2.77044,-1.82812c1.3219,0 2.77044,0.50621 2.77044,1.82812c0,1.3219 -1.44854,1.90349 -2.77044,1.90349c-1.3219,0 -2.77044,-0.5816 -2.77044,-1.90349z" data-paper-data="{&quot;index&quot;:null}" fill-opacity="0.4" fill="#ff99b8" stroke="none" stroke-width="2" stroke-linecap="butt"/><path d="M231.2859,189.68578c0,-1.3219 1.44854,-1.8281 2.77044,-1.8281c1.3219,0 2.77044,0.50621 2.77044,1.8281c0,1.3219 -1.44854,1.90349 -2.77044,1.90349c-1.3219,0 -2.77044,-0.5816 -2.77044,-1.90349z" data-paper-data="{&quot;index&quot;:null}" fill-opacity="0.4" fill="#ff99b8" stroke="none" stroke-width="2" stroke-linecap="butt"/><path d="M242.10502,189.83148c-1.307,1.31857 -3.38307,1.17822 -4.46013,0" data-paper-data="{&quot;index&quot;:null}" fill="none" stroke="#260e00" stroke-width="1.5" stroke-linecap="round"/><path d="M241.15666,182.57647c0,-2.24965 0.17702,-4.07336 2.42669,-4.07336c2.24965,0 2.41597,1.82371 2.41597,4.07336c0,2.24965 -0.16632,4.07336 -2.41597,4.07336c-2.24965,0 -2.42669,-1.82371 -2.42669,-4.07336z" data-paper-data="{&quot;index&quot;:null}" fill="#fff066" stroke="#260e00" stroke-width="1" stroke-linecap="butt"/><path d="M236.16652,186.64983c-2.24965,0 -2.41597,-1.82371 -2.41597,-4.07336c0,-2.24965 0.16632,-4.07336 2.41597,-4.07336c2.24967,0 2.42669,1.82371 2.42669,4.07336c0,2.24965 -0.17703,4.07336 -2.42669,4.07336z" data-paper-data="{&quot;index&quot;:null}" fill="#fff066" stroke="#260e00" stroke-width="1" stroke-linecap="butt"/></g><path d="M228.78406,196.11919l-7.07332,-5.99549" data-paper-data="{&quot;index&quot;:null}" fill="none" stroke="#260e00" stroke-width="2" stroke-linecap="round"/></g><text transform="translate(217.00094,162.17303) scale(0.34189,0.34189)" font-size="40" xml:space="preserve" fill="#426547" fill-rule="nonzero" stroke="none" stroke-width="1" stroke-linecap="butt" stroke-linejoin="miter" stroke-miterlimit="10" stroke-dasharray="" stroke-dashoffset="0" font-family="Sans Serif" font-weight="normal" text-anchor="start" style="mix-blend-mode: normal"><tspan x="0" dy="0">作成中</tspan></text></g></g></svg>