<svg version="1.1" xmlns="http://www.w3.org/2000/svg" xmlns:xlink="http://www.w3.org/1999/xlink" width="100" height="100" viewBox="0,0,100,100"><defs><linearGradient x1="240.00002" y1="171.52771" x2="240.00002" y2="188.47228" gradientUnits="userSpaceOnUse" id="color-1"><stop offset="0" stop-color="#ffffdc"/><stop offset="1" stop-color="#ffc64c"/></linearGradient><linearGradient x1="240.00001" y1="171.52771" x2="240.00001" y2="188.47228" gradientUnits="userSpaceOnUse" id="color-2"><stop offset="0" stop-color="#ffffdc"/><stop offset="1" stop-color="#ffc64c"/></linearGradient></defs><g transform="translate(-190,-130)"><g data-paper-data="{&quot;isPaintingLayer&quot;:true}" fill-rule="nonzero" stroke-linecap="butt" stroke-linejoin="miter" stroke-miterlimit="10" stroke-dasharray="" stroke-dashoffset="0" style="mix-blend-mode: normal"><path d="M190,180c0,-27.61424 22.38576,-50 50,-50c27.61424,0 50,22.38576 50,50c0,27.61424 -22.38576,50 -50,50c-27.61424,0 -50,-22.38576 -50,-50z" fill="none" stroke="none" stroke-width="0"/><path d="M239.60565,183.52724c-0.75949,-0.12548 -1.64446,-0.03963 -2.42376,-0.29059c-2.42596,-0.78811 -3.51786,-2.59327 -3.27573,-5.41551c0.48211,-5.65984 5.24376,-7.1458 10.10453,-5.86459c2.62189,0.69347 2.29167,5.16452 1.71049,7.1524c-0.7529,2.53603 -1.49036,5.08087 -2.21243,7.63454c-0.34341,1.21517 -1.01486,1.78975 -2.0143,1.72368c-2.45677,-0.16511 -1.67086,-2.42376 -1.26801,-4.00217c0.13649,-0.53713 -0.07043,-0.84975 -0.6208,-0.9378zM238.71673,180.88628c0.64422,0.22186 1.39053,0.06158 2.07471,-0.44556c0.68418,-0.50713 1.25021,-1.31959 1.57356,-2.25863c0.32335,-0.93904 0.37751,-1.92772 0.15059,-2.74857c-0.22692,-0.82086 -0.71632,-1.40665 -1.36056,-1.62846c-0.64422,-0.22185 -1.39054,-0.06157 -2.07471,0.44556c-0.68417,0.50713 -1.25019,1.31957 -1.57354,2.25861c-0.32335,0.93904 -0.37751,1.92772 -0.15059,2.74859c0.22692,0.82086 0.71632,1.40664 1.36056,1.62846c0,0 -0.64426,-0.22186 -0.00003,0z" fill="url(#color-1)" stroke="#9c5925" stroke-width="2"/><path d="" fill="#fdf3b2" stroke="#9c5925" stroke-width="2"/><path d="M239.60564,183.52724c-0.75949,-0.12548 -1.64446,-0.03963 -2.42376,-0.29059c-2.42596,-0.78811 -3.51786,-2.59327 -3.27573,-5.41551c0.48211,-5.65984 5.24376,-7.1458 10.10453,-5.86459c2.62189,0.69347 2.29167,5.16452 1.71049,7.1524c-0.7529,2.53603 -1.49036,5.08087 -2.21243,7.63454c-0.34341,1.21517 -1.01486,1.78975 -2.0143,1.72368c-2.45677,-0.16511 -1.67086,-2.42376 -1.26801,-4.00217c0.13649,-0.53713 -0.07043,-0.84975 -0.6208,-0.9378zM238.71672,180.88628c0.64422,0.22186 1.39053,0.06158 2.07471,-0.44556c0.68418,-0.50713 1.25021,-1.31959 1.57356,-2.25863c0.32335,-0.93904 0.37751,-1.92772 0.15059,-2.74857c-0.22692,-0.82086 -0.71632,-1.40665 -1.36056,-1.62846c-0.64422,-0.22185 -1.39054,-0.06157 -2.07471,0.44556c-0.68417,0.50713 -1.25019,1.31957 -1.57354,2.25861c-0.32335,0.93904 -0.37751,1.92772 -0.15059,2.74859c0.22692,0.82086 0.71632,1.40664 1.36056,1.62846c0,0 -0.64426,-0.22186 -0.00003,0z" fill="url(#color-2)" stroke="none" stroke-width="1"/></g></g></svg>