<svg version="1.1" xmlns="http://www.w3.org/2000/svg" xmlns:xlink="http://www.w3.org/1999/xlink" width="100" height="100" viewBox="0,0,100,100"><g transform="translate(-190,-130)"><g data-paper-data="{&quot;isPaintingLayer&quot;:true}" fill-rule="nonzero" stroke="none" stroke-linecap="butt" stroke-linejoin="miter" stroke-miterlimit="10" stroke-dasharray="" stroke-dashoffset="0" style="mix-blend-mode: normal"><path d="M190,180c0,-27.61424 22.38576,-50 50,-50c27.61424,0 50,22.38576 50,50c0,27.61424 -22.38576,50 -50,50c-27.61424,0 -50,-22.38576 -50,-50z" fill="none" stroke-width="0"/><path d="M243.57514,181.6164c0.06101,2.76307 -2.22523,3.19014 -4.41193,3.04725c-1.54931,-0.25528 -2.90596,-0.99862 -2.72294,-2.82248c0.09526,-0.9526 0.61598,-1.65581 1.56216,-2.10963c0.0214,-0.01035 0.03538,-0.03178 0.03606,-0.05529c0.00068,-0.02351 -0.01205,-0.04502 -0.03285,-0.05549c-0.54427,-0.29381 -0.92477,-0.62936 -1.08853,-1.24587c-1.02592,-3.85963 6.61789,-4.12936 6.23097,-0.47844c-0.09098,0.85413 -0.55122,1.44442 -1.38073,1.77087c-0.06957,0.02783 -0.0685,0.05298 0.00321,0.07546c0.94725,0.29969 1.54878,0.92424 1.80459,1.87362zM239.51964,178.58681c0.62294,0.32431 1.07729,0.61972 1.56537,-0.02087c0.9039,-1.18968 -0.02729,-2.51262 -1.46743,-2.26858c-0.44847,0.07706 -0.77118,0.26972 -0.96812,0.57798c-0.46881,0.73532 0.28739,1.40803 0.87018,1.71147zM239.94509,180.53268c-0.39817,-0.18945 -0.68395,-0.37729 -1.08532,-0.0578c-0.55872,0.44419 -0.76743,1.05749 -0.62615,1.83991c0.2328,1.29243 1.63762,1.67454 2.70528,1.23142c0.90711,-0.37729 1.05482,-1.58142 0.28739,-2.20596c-0.39495,-0.32003 -0.82202,-0.58922 -1.28119,-0.80757z" fill="#5486af" stroke-width="1"/></g></g></svg>