<svg version="1.1" xmlns="http://www.w3.org/2000/svg" xmlns:xlink="http://www.w3.org/1999/xlink" width="100" height="100" viewBox="0,0,100,100"><defs><linearGradient x1="240" y1="171.16089" x2="240" y2="188.83912" gradientUnits="userSpaceOnUse" id="color-1"><stop offset="0" stop-color="#ffffdc"/><stop offset="1" stop-color="#ffc64c"/></linearGradient></defs><g transform="translate(-190,-130)"><g data-paper-data="{&quot;isPaintingLayer&quot;:true}" fill-rule="nonzero" stroke-linecap="butt" stroke-linejoin="miter" stroke-miterlimit="10" stroke-dasharray="" stroke-dashoffset="0" style="mix-blend-mode: normal"><path d="M190,180c0,-27.61424 22.38576,-50 50,-50c27.61424,0 50,22.38576 50,50c0,27.61424 -22.38576,50 -50,50c-27.61424,0 -50,-22.38576 -50,-50z" fill="none" stroke="none" stroke-width="0"/><path d="M242.80194,174.4938c0.07495,-0.12421 0.055,-0.2851 -0.04789,-0.38634c-0.10289,-0.10124 -0.26087,-0.11538 -0.37932,-0.03398c-1.71802,1.14841 -3.61062,1.64683 -5.67774,1.49523c-0.11252,-0.00764 -0.22314,0.03178 -0.30546,0.10887c-0.08231,0.07709 -0.1289,0.18489 -0.12865,0.29766l-0.01379,3.33499c-0.00459,0.35372 -0.18146,0.52367 -0.53056,0.5099c-2.72174,-0.11024 -2.50814,-3.58993 -2.03959,-5.5744c0.01358,-0.0636 0.01358,-0.12935 0,-0.19294l-0.37209,-2.03269c-0.02721,-0.14553 0.02288,-0.29477 0.13235,-0.39443c0.10949,-0.09966 0.26277,-0.13553 0.4051,-0.0948l2.8182,0.80619c0.0636,0.01358 0.12935,0.01358 0.19294,0c3.0387,-0.71661 7.4555,-2.61148 9.57775,0.78552c0.42722,0.67987 0.34223,1.44011 -0.25494,2.28074c-2.62756,3.72086 -4.19401,7.86204 -4.6993,12.42353c-0.02169,0.20627 -0.12924,0.39387 -0.29629,0.51679c-0.81308,0.61095 -1.66519,0.6569 -2.55636,0.13781c-0.19564,-0.10861 -0.33029,-0.29913 -0.3652,-0.51679c-0.80619,-4.51325 2.22562,-9.82582 4.54083,-13.47089" fill="none" stroke="#9c5925" stroke-width="2"/><path d="M242.80194,174.4938c0.07495,-0.12421 0.055,-0.2851 -0.04789,-0.38634c-0.10289,-0.10124 -0.26087,-0.11538 -0.37932,-0.03398c-1.71802,1.14841 -3.61062,1.64683 -5.67774,1.49523c-0.11252,-0.00764 -0.22314,0.03178 -0.30546,0.10887c-0.08231,0.07709 -0.1289,0.18489 -0.12865,0.29766l-0.01379,3.33499c-0.00459,0.35372 -0.18146,0.52367 -0.53056,0.5099c-2.72174,-0.11024 -2.50814,-3.58993 -2.03959,-5.5744c0.01358,-0.0636 0.01358,-0.12935 0,-0.19294l-0.37209,-2.03269c-0.02721,-0.14553 0.02288,-0.29477 0.13235,-0.39443c0.10949,-0.09966 0.26277,-0.13553 0.4051,-0.0948l2.8182,0.80619c0.0636,0.01358 0.12935,0.01358 0.19294,0c3.0387,-0.71661 7.4555,-2.61148 9.57775,0.78552c0.42722,0.67987 0.34223,1.44011 -0.25494,2.28074c-2.62756,3.72086 -4.19401,7.86204 -4.6993,12.42353c-0.02169,0.20627 -0.12924,0.39387 -0.29629,0.51679c-0.81308,0.61095 -1.66519,0.6569 -2.55636,0.13781c-0.19564,-0.10861 -0.33029,-0.29913 -0.3652,-0.51679c-0.80619,-4.51325 2.22562,-9.82582 4.54083,-13.47089z" fill="url(#color-1)" stroke="none" stroke-width="1"/></g></g></svg>