<svg version="1.1" xmlns="http://www.w3.org/2000/svg" xmlns:xlink="http://www.w3.org/1999/xlink" width="199.32861" height="199.32861" viewBox="0,0,199.32861,199.32861"><g transform="translate(-140.33569,-80.33569)"><g data-paper-data="{&quot;isPaintingLayer&quot;:true}" fill-rule="nonzero" stroke="none" stroke-linecap="butt" stroke-linejoin="miter" stroke-miterlimit="10" stroke-dasharray="" stroke-dashoffset="0" style="mix-blend-mode: normal"><path d="M248.30966,158.8492c-0.04245,0.96086 0.11384,1.45673 0.46886,1.4876c0.00772,0.7525 -0.13505,1.33712 -0.42833,1.75386c-0.11193,0.1572 -0.30572,0.23244 -0.49202,0.19101c-4.17918,-0.89719 -7.4033,-1.70178 -11.54776,-0.2431l-1.06506,0.30098c-0.95315,0.43606 -1.79053,0.46307 -2.51214,0.08104c-0.1968,-0.10033 -0.27398,-0.26048 -0.23153,-0.48043l0.43991,-2.31535c0.2431,-0.1698 0.2296,-0.58075 -0.04051,-1.23292l-0.70618,-1.10557c-0.06172,-0.0959 -0.07736,-0.2144 -0.04264,-0.32304c0.03472,-0.10864 0.11617,-0.19609 0.22209,-0.23844c1.79439,-0.71389 3.65824,-1.15573 5.59155,-1.32553c0.04918,-0.00377 0.09907,-0.02173 0.14472,-0.05209l2.37323,-1.61494c0.18137,-0.12348 0.36081,-0.12156 0.53831,0.00579l2.46583,1.73651c0.05321,0.03805 0.11494,0.06195 0.17944,0.06946l4.27759,0.6425c0.37138,0.05387 0.68012,0.31274 0.79869,0.6697c0.11857,0.35696 0.02688,0.75143 -0.23723,1.0205c-0.87983,0.89527 -0.94543,1.21941 -0.1968,0.97244zM234.18608,161.3787c4.19655,-1.69019 7.81427,-1.69019 12.29446,-0.80459c0.11303,0.02272 0.22689,-0.03517 0.27513,-0.13991c0.04823,-0.10474 0.01822,-0.22889 -0.07254,-0.30001c-0.97244,-0.77179 -1.09015,-1.62846 -0.35309,-2.57002c0.23925,-0.30872 0.16593,-0.48043 -0.21996,-0.51517l-3.02731,-0.29521c-0.20727,-0.01884 -0.40353,-0.1018 -0.56146,-0.23732l-1.47604,-1.30817c-0.1471,-0.12774 -0.36986,-0.1122 -0.49779,0.03472c-1.83491,2.12433 -3.43828,1.49918 -5.8694,1.86386c-0.20452,0.02701 -0.27205,0.13892 -0.2026,0.33573c0.42448,1.25028 0.20646,2.39444 -0.65408,3.43249c-0.09927,0.11164 -0.10757,0.27729 -0.01995,0.39827c0.08762,0.12099 0.24757,0.16479 0.38462,0.10531z" fill="#3d8004" stroke-width="1"/><path d="M246.48053,160.57412c-4.48019,-0.88563 -8.0979,-0.88563 -12.29446,0.80459c-0.13704,0.05948 -0.297,0.01568 -0.38462,-0.10531c-0.08762,-0.12099 -0.07933,-0.28664 0.01995,-0.39827c0.86054,-1.03805 1.07856,-2.18221 0.65408,-3.43249c-0.06946,-0.1968 -0.00192,-0.30872 0.2026,-0.33573c2.43111,-0.36466 4.03449,0.26048 5.8694,-1.86386c0.12793,-0.14693 0.3507,-0.16247 0.49779,-0.03472l1.47604,1.30817c0.15794,0.13553 0.3542,0.21849 0.56146,0.23732l3.02731,0.29521c0.38589,0.03472 0.45921,0.20646 0.21996,0.51517c-0.73705,0.94156 -0.61935,1.79825 0.35309,2.57002c0.09075,0.07113 0.12076,0.19527 0.07254,0.30001c-0.04823,0.10474 -0.16208,0.16263 -0.27513,0.13991z" fill="#9ad915" stroke-width="1"/><path d="M232.90107,158.39192c0.27013,0.65215 0.28364,1.06312 0.04051,1.23292c-6.7878,2.88646 -11.12327,7.56346 -13.00642,14.03095c-1.11523,3.82031 -1.14031,7.61939 -0.07525,11.39727c1.81754,6.43086 6.6624,11.6751 13.35952,13.89784c1.56864,0.51517 2.78999,1.16924 4.41651,1.27344c7.35891,0.46693 13.43862,-2.05872 18.23908,-7.57695c0.33573,-0.38589 0.66951,-0.90684 1.00139,-1.56285c0.72354,-1.42393 1.82911,-2.80155 2.34428,-4.05184c2.59704,-6.25914 2.18221,-12.39479 -1.24449,-18.40696c-0.83352,-1.45866 -3.62351,-5.40054 -5.29634,-5.72468c-0.18909,-0.03472 -0.34537,-0.12734 -0.46886,-0.27785c-0.9493,-1.14609 -2.09346,-1.90823 -3.43249,-2.2864c-0.35502,-0.03088 -0.51131,-0.52674 -0.46886,-1.4876c8.35452,3.67368 12.92153,9.98104 13.70101,18.92211c1.40078,15.95269 -15.0092,27.91142 -30.06469,22.2562c-14.49982,-5.44683 -18.49378,-23.91168 -8.56098,-35.21632c2.53144,-2.87875 5.70346,-5.0185 9.51605,-6.41927z" fill="#f51515" stroke-width="1"/><path d="M232.94159,159.62483l-0.43991,2.31535c-0.04245,0.21996 0.03472,0.3801 0.23153,0.48043c0.72162,0.38202 1.55901,0.35502 2.51214,-0.08104c-0.38202,0.47465 -0.44957,0.99944 -0.2026,1.57443c0.19449,0.43837 0.66182,0.68872 1.13452,0.60778c1.41814,-0.2431 1.19819,-2.19959 0.13313,-2.4832c4.14446,-1.45866 7.36857,-0.65408 11.54776,0.2431c0.18628,0.04143 0.38008,-0.03383 0.49202,-0.19101c0.29328,-0.41677 0.43606,-1.00139 0.42833,-1.75386c1.33904,0.37818 2.4832,1.14031 3.43249,2.2864c0.12348,0.1505 0.27977,0.2431 0.46886,0.27785c1.67283,0.32414 4.46281,4.26602 5.29634,5.72468c3.42671,6.01217 3.84153,12.14782 1.24449,18.40696c-0.51517,1.25028 -1.62073,2.62791 -2.34428,4.05184c-0.33186,0.65601 -0.66566,1.17696 -1.00139,1.56285c-4.80046,5.51823 -10.88017,8.04388 -18.23908,7.57695c-1.62653,-0.10419 -2.84787,-0.75827 -4.41651,-1.27344c-6.69712,-2.22272 -11.54197,-7.46697 -13.35952,-13.89784c-1.06506,-3.77786 -1.03997,-7.57695 0.07525,-11.39727c1.88315,-6.46752 6.21862,-11.14451 13.00642,-14.03095zM232.03414,164.10317c-0.48667,-0.48161 -1.24811,-0.64568 -2.11681,-0.45613c-0.8687,0.18954 -1.77348,0.71718 -2.51532,1.46683c-1.54479,1.56106 -1.97553,3.63956 -0.96208,4.64244c0.48667,0.48161 1.24811,0.64568 2.11681,0.45613c0.8687,-0.18954 1.77348,-0.71718 2.51532,-1.46683c1.54479,-1.56106 1.97553,-3.63956 0.96208,-4.64244zM251.74794,177.07671c0,-1.28833 -1.04439,-2.33272 -2.33272,-2.33272c-1.28833,0 -2.33272,1.04439 -2.33272,2.33272c0,1.28833 1.04439,2.33272 2.33272,2.33272c1.28833,0 2.33272,-1.04439 2.33272,-2.33272zM232.82583,177.18669c0,-1.27553 -1.03402,-2.30956 -2.30956,-2.30956c-1.27553,0 -2.30956,1.03402 -2.30956,2.30956c0,1.27553 1.03402,2.30956 2.30956,2.30956c1.27553,0 2.30956,-1.03402 2.30956,-2.30956zM239.0483,181.6495c1.11136,-0.20838 1.87542,0.16785 2.29219,1.12873c0.07721,0.2012 0.29506,0.31038 0.50244,0.25177c0.20738,-0.05861 0.33588,-0.26566 0.29635,-0.4775l-0.17365,-1.14031c-0.02928,-0.17473 0.02427,-0.35248 0.14472,-0.48043c0.31644,-0.33186 0.49779,-0.71583 0.54411,-1.15188c0.00861,-0.08922 -0.0246,-0.17743 -0.08961,-0.23787c-0.06501,-0.06044 -0.15411,-0.086 -0.24033,-0.06893c-0.44764,0.08104 -0.72741,0.34923 -0.83931,0.80459c-0.03696,0.15383 -0.17498,0.2633 -0.33573,0.26626l-2.39638,0.02895c-0.14183,0.00066 -0.2677,-0.08791 -0.31257,-0.21996c-0.1968,-0.54796 -0.52095,-1.00911 -0.97244,-1.38341c-0.19341,-0.16783 -0.48626,-0.1471 -0.65408,0.04631c-0.16783,0.19341 -0.1471,0.48626 0.04631,0.65408c0.94543,0.85667 1.20783,1.90823 0.78722,3.15465c-0.03992,0.115 -0.01204,0.24269 0.07218,0.33057c0.08423,0.0879 0.2106,0.12118 0.3272,0.08619c0.54411,-0.16593 0.76985,-0.54411 0.67724,-1.13452c-0.04245,-0.25854 0.0656,-0.41098 0.32414,-0.45728z" fill="#fd8715" stroke-width="1"/><path d="M236.31041,162.03857c1.06506,0.28364 1.28501,2.24009 -0.13313,2.4832c-0.4727,0.08095 -0.94002,-0.16941 -1.13452,-0.60778c-0.24697,-0.57498 -0.17944,-1.09979 0.2026,-1.57443z" fill="#fef271" stroke-width="1"/><path d="M226.43992,169.75629c-1.01345,-1.00289 -0.5827,-3.08138 0.96212,-4.64245c1.5448,-1.56106 3.61867,-2.01357 4.63212,-1.01067c1.01345,1.00289 0.5827,3.08138 -0.96212,4.64245c-1.5448,1.56106 -3.61867,2.01357 -4.63212,1.01067z" fill="#fef271" stroke-width="1"/><path d="M247.08253,177.07671c0,-1.28833 1.04439,-2.33272 2.33272,-2.33272c1.28833,0 2.33272,1.04439 2.33272,2.33272c0,1.28833 -1.04439,2.33272 -2.33272,2.33272c-1.28833,0 -2.33272,-1.04439 -2.33272,-2.33272z" fill="#d10504" stroke-width="1"/><path d="M228.20672,177.18669c0,-1.27553 1.03402,-2.30956 2.30956,-2.30956c1.27553,0 2.30956,1.03402 2.30956,2.30956c0,1.27553 -1.03402,2.30956 -2.30956,2.30956c-1.27553,0 -2.30956,-1.03402 -2.30956,-2.30956z" fill="#d10504" stroke-width="1"/><path d="M238.72415,182.10679c0.09262,0.59041 -0.13313,0.96859 -0.67724,1.13452c-0.11659,0.03499 -0.24297,0.0017 -0.3272,-0.08619c-0.08423,-0.0879 -0.11211,-0.21557 -0.07218,-0.33057c0.42062,-1.24641 0.15821,-2.29797 -0.78722,-3.15465c-0.19341,-0.16783 -0.21415,-0.46068 -0.04631,-0.65408c0.16783,-0.19341 0.46068,-0.21415 0.65408,-0.04631c0.45149,0.37432 0.77563,0.83546 0.97244,1.38341c0.04489,0.13205 0.17075,0.22062 0.31257,0.21996l2.39638,-0.02895c0.16074,-0.00296 0.29876,-0.11243 0.33573,-0.26626c0.11192,-0.45535 0.39169,-0.72354 0.83931,-0.80459c0.08621,-0.01708 0.17532,0.00848 0.24033,0.06893c0.06501,0.06044 0.09823,0.14864 0.08961,0.23787c-0.04631,0.43606 -0.22768,0.82002 -0.54411,1.15188c-0.12044,0.12794 -0.17398,0.30571 -0.14472,0.48043l0.17365,1.14031c0.03953,0.21186 -0.08897,0.4189 -0.29635,0.4775c-0.20738,0.05861 -0.42523,-0.05056 -0.50244,-0.25177c-0.41677,-0.96086 -1.18083,-1.33712 -2.29219,-1.12873c-0.25854,0.04631 -0.3666,0.19873 -0.32414,0.45728z" fill="#d10504" stroke-width="1"/><path d="M140.33569,180c0,-55.04307 44.62123,-99.6643 99.66431,-99.6643c55.04307,0 99.66431,44.62123 99.66431,99.66431c0,55.04307 -44.62123,99.66431 -99.66431,99.66431c-55.04307,0 -99.66431,-44.62123 -99.66431,-99.66431z" fill="none" stroke-width="0"/></g></g></svg>