<svg version="1.1" xmlns="http://www.w3.org/2000/svg" xmlns:xlink="http://www.w3.org/1999/xlink" width="49.88501" height="50.62294" viewBox="0,0,49.88501,50.62294"><g transform="translate(-215.24603,-145.52186)"><g data-paper-data="{&quot;isPaintingLayer&quot;:true}" fill-rule="nonzero" stroke="none" stroke-linecap="butt" stroke-linejoin="miter" stroke-miterlimit="10" stroke-dasharray="" stroke-dashoffset="0" style="mix-blend-mode: normal"><path d="M265.13104,170.83333c0,13.97914 -11.16714,25.31147 -24.9425,25.31147c-13.77536,0 -24.94251,-11.33233 -24.94251,-25.31147c0,-13.97914 11.16715,-25.31147 24.94251,-25.31147c13.77536,0 24.9425,11.33232 24.9425,25.31147z" fill="#76d881" stroke-width="0"/><path d="M235.52072,174.60977c0,-0.96741 -0.78419,-1.75044 -1.75043,-1.75044h-2.33391c-0.96507,0 -1.75044,-0.78536 -1.75044,-1.75044v-2.33391c0,-0.96741 -0.7842,-1.75044 -1.75044,-1.75044c-0.96624,0 -1.75043,0.78303 -1.75043,1.75044v2.33391c0,2.89522 2.35608,5.2513 5.2513,5.2513h2.33391c0.96624,0 1.75044,-0.78302 1.75044,-1.75043zM248.9407,176.3602h-2.33391c-0.96624,0 -1.75044,-0.78302 -1.75044,-1.75043c0,-0.96741 0.7842,-1.75044 1.75044,-1.75044h2.33391c0.96507,0 1.75044,-0.78536 1.75044,-1.75044v-2.33391c0,-0.96741 0.7842,-1.75044 1.75044,-1.75044c0.96624,0 1.75043,0.78303 1.75043,1.75044v2.33391c0,2.89522 -2.35608,5.2513 -5.2513,5.2513zM252.44157,162.35674c-0.96624,0 -1.75044,-0.78303 -1.75044,-1.75044v-2.33391c0,-0.96507 -0.78536,-1.75044 -1.75044,-1.75044h-2.33391c-0.96624,0 -1.75044,-0.78302 -1.75044,-1.75043c0,-0.96741 0.7842,-1.75044 1.75044,-1.75044h2.33391c2.89522,0 5.2513,2.35609 5.2513,5.2513v2.3339c0,0.96741 -0.78419,1.75044 -1.75043,1.75044zM227.9355,162.35674c-0.96624,0 -1.75043,-0.78303 -1.75043,-1.75044v-2.33391c0,-2.89522 2.35608,-5.2513 5.2513,-5.2513h2.33391c0.96624,0 1.75044,0.78303 1.75044,1.75044c0,0.96741 -0.7842,1.75043 -1.75044,1.75043h-2.33391c-0.96507,0 -1.75044,0.78536 -1.75044,1.75044v2.33391c0,0.96741 -0.7842,1.75043 -1.75044,1.75043zM234.35376,170.52542c-1.28832,0 -2.33391,-1.0456 -2.33391,-2.33391v-7.00173c0,-1.28832 1.0456,-2.33391 2.33391,-2.33391c1.28832,0 2.3339,1.0456 2.3339,2.33391v7.00173c0,1.28832 -1.04559,2.33391 -2.3339,2.33391zM244.85635,160.6063v8.16869c0,0.96624 -0.78419,1.75044 -1.75043,1.75044c-0.96624,0 -1.75044,-0.7842 -1.75044,-1.75044v-8.16869c0,-0.96624 0.7842,-1.75044 1.75044,-1.75044c0.96624,0 1.75043,0.7842 1.75043,1.75044zM248.35723,160.02282v9.33565c0,0.64416 -0.5228,1.16696 -1.16696,1.16696c-0.64416,0 -1.16696,-0.5228 -1.16696,-1.16696v-9.33564c0,-0.64416 0.5228,-1.16696 1.16696,-1.16696c0.64416,0 1.16696,0.5228 1.16696,1.16696zM240.18854,160.02282v9.33565c0,0.64416 -0.5228,1.16696 -1.16696,1.16696c-0.64416,0 -1.16696,-0.5228 -1.16696,-1.16696v-9.33564c0,-0.64416 0.5228,-1.16696 1.16696,-1.16696c0.64416,0 1.16696,0.5228 1.16696,1.16696z" fill="#ffffff" stroke-width="1"/><text transform="translate(229.16709,186.27555) scale(0.20542,0.20541)" font-size="40" xml:space="preserve" fill="#ffffff" fill-rule="nonzero" stroke="none" stroke-width="1" stroke-linecap="butt" stroke-linejoin="miter" stroke-miterlimit="10" stroke-dasharray="" stroke-dashoffset="0" font-family="Sans Serif" font-weight="normal" text-anchor="start" style="mix-blend-mode: normal"><tspan x="0" dy="0">支払う</tspan></text></g></g></svg>