<svg version="1.1" xmlns="http://www.w3.org/2000/svg" xmlns:xlink="http://www.w3.org/1999/xlink" width="49.25" height="49.25" viewBox="0,0,49.25,49.25"><g transform="translate(-215.375,-155.375)"><g data-paper-data="{&quot;isPaintingLayer&quot;:true}" fill-rule="nonzero" stroke="none" stroke-linecap="butt" stroke-linejoin="miter" stroke-miterlimit="10" stroke-dasharray="" stroke-dashoffset="0" style="mix-blend-mode: normal"><path d="M215.375,204.625v-49.25h49.25v49.25z" fill="#f0f6ff" stroke-width="0"/><path d="M258.91911,179.97514v15.08882c0,2.5466 -2.06443,4.61103 -4.61103,4.61103h-27.66617c-2.5466,0 -4.61103,-2.06443 -4.61103,-4.61103v-15.08882c-0.00348,-1.22356 0.48306,-2.39759 1.35103,-3.26l11.65822,-11.65975c3.00417,-2.99538 7.86557,-2.99538 10.86973,0l11.65822,11.65975c0.86797,0.86241 1.35452,2.03643 1.35103,3.26zM245.08603,190.55437c0,-2.5466 -2.06443,-4.61103 -4.61103,-4.61103c-2.5466,0 -4.61103,2.06443 -4.61103,4.61103v6.04659h9.22206zM255.84509,179.97514c-0.00263,-0.40574 -0.16433,-0.79426 -0.45034,-1.08205l-11.65822,-11.65975c-1.80376,-1.79534 -4.71931,-1.79534 -6.52307,0l-11.65822,11.65514c-0.28713,0.28894 -0.44892,0.67933 -0.45034,1.08667v15.08882c0,0.84887 0.68814,1.53701 1.53701,1.53701h6.14804v-6.04659c0,-4.24433 3.44071,-7.68505 7.68505,-7.68505c4.24433,0 7.68505,3.44071 7.68505,7.68505v6.04659h6.14804c0.84887,0 1.53701,-0.68814 1.53701,-1.53701z" fill="#76d881" stroke-width="1"/></g></g></svg>