<svg version="1.1" xmlns="http://www.w3.org/2000/svg" xmlns:xlink="http://www.w3.org/1999/xlink" width="100" height="100" viewBox="0,0,100,100"><g transform="translate(-190,-130)"><g data-paper-data="{&quot;isPaintingLayer&quot;:true}" fill-rule="nonzero" stroke="none" stroke-linecap="butt" stroke-linejoin="miter" stroke-miterlimit="10" stroke-dasharray="" stroke-dashoffset="0" style="mix-blend-mode: normal"><path d="M190,180c0,-27.61424 22.38576,-50 50,-50c27.61424,0 50,22.38576 50,50c0,27.61424 -22.38576,50 -50,50c-27.61424,0 -50,-22.38576 -50,-50z" fill="none" stroke-width="0"/><path d="M240.9762,177.3377l-3.55015,-0.04039c-0.33149,-0.00534 -0.6147,-0.2366 -0.68256,-0.55736c-0.09693,-0.4335 -0.00808,-0.80508 0.26656,-1.11472c0.08756,-0.09795 0.21195,-0.15501 0.3433,-0.15751l4.81834,-0.01616c0.40587,-0.00144 0.78068,0.21705 0.97943,0.57093c0.19874,0.35388 0.19024,0.78765 -0.02222,1.13347c-1.39744,2.27252 -2.81238,4.42792 -4.24483,6.46619c-0.25849,0.37157 -0.39581,0.88451 -0.99356,0.9249c-0.19158,0.01436 -0.37471,-0.08127 -0.47242,-0.24668c-0.09771,-0.16542 -0.09306,-0.37196 0.01199,-0.53281l3.83286,-5.89671c0.06712,-0.10598 0.07188,-0.23991 0.01246,-0.35039c-0.05942,-0.11047 -0.1738,-0.18033 -0.29922,-0.18274z" fill="#5486af" stroke-width="1"/></g></g></svg>