<svg version="1.1" xmlns="http://www.w3.org/2000/svg" xmlns:xlink="http://www.w3.org/1999/xlink" width="199.32861" height="199.32861" viewBox="0,0,199.32861,199.32861"><g transform="translate(-140.33569,-80.33569)"><g data-paper-data="{&quot;isPaintingLayer&quot;:true}" fill-rule="nonzero" stroke="none" stroke-linecap="butt" stroke-linejoin="miter" stroke-miterlimit="10" stroke-dasharray="" stroke-dashoffset="0" style="mix-blend-mode: normal"><path d="M242.58376,147.41977l-1.1275,1.77078c-0.56721,0.55799 -0.93843,1.48718 -1.11366,2.78761c-0.32741,1.40648 -0.8854,1.64166 -1.67395,0.70555l0.78855,-3.53466l0.78164,-1.75004c1.1298,-1.79384 2.69537,-3.06891 4.69673,-3.82517c0.22135,-0.08762 0.41733,-0.05073 0.58796,0.11068l0.74014,0.69863c0.10453,0.09914 0.15018,0.24543 0.12057,0.38643c-0.02961,0.14101 -0.13023,0.25656 -0.26583,0.30529c-1.47566,0.54875 -2.65388,1.33039 -3.53466,2.34491z" fill="#c27c06" stroke-width="1"/><path d="M240.23885,147.39901l-0.78164,1.75004c-7.29066,0.53032 -13.50916,2.95131 -18.6555,7.263c-3.62918,3.03893 -6.40526,6.66812 -8.32823,10.88756c-2.65618,5.81501 -3.28794,12.10269 -1.8953,18.86303c1.51716,7.38288 5.29391,13.37082 11.33027,17.96379c12.36783,9.73241 29.81976,7.64344 40.38223,-3.58999c1.79384,-1.9783 3.40554,-4.31167 4.83507,-7.00014c3.59231,-7.03242 4.2402,-14.59055 1.94371,-22.67436c-0.66405,-2.33339 -1.69009,-4.49614 -3.07813,-6.48827c-2.40716,-4.43619 -5.81961,-7.97315 -10.23736,-10.61089c-4.31629,-2.57317 -9.08219,-4.09725 -14.29772,-4.57223l1.1275,-1.77078c9.67937,0.74244 17.46115,4.95497 23.34533,12.6376c4.66907,6.10091 6.86872,13.66134 6.47444,21.41544c-0.63638,12.69985 -8.05845,23.40758 -19.72767,28.3395c-9.71627,4.11338 -19.49709,3.45627 -29.34248,-1.97138c-1.23816,-0.68479 -2.71151,-2.00596 -4.1226,-2.89828c-0.62254,-0.39658 -1.13442,-0.82083 -1.5356,-1.27276c-6.51594,-7.33217 -10.34111,-14.8995 -10.03676,-25.10919c0.33203,-0.89923 0.43117,-1.88146 0.29743,-2.94669c0.49112,-1.5356 0.4842,-3.35481 0.93381,-4.77974c3.89666,-12.30328 12.23641,-19.99051 25.01927,-23.06172c1.67395,-0.4058 3.79059,-0.53032 6.34993,-0.37352z" fill="#dca30e" stroke-width="1"/><path d="M239.45722,149.14905l-0.78855,3.53466l-0.16601,0.20059c-0.13374,0.15679 -0.2813,0.17061 -0.44269,0.04149l-1.8953,-1.5356c-0.20388,-0.16178 -0.49293,-0.15962 -0.69438,0.00521c-0.20143,0.1648 -0.26079,0.44771 -0.1426,0.67959c1.10674,2.1028 2.89828,2.46942 5.17401,2.54551c1.90913,0.06457 3.44935,-0.69401 4.62064,-2.27574c0.11626,-0.1578 0.14941,-0.36193 0.08909,-0.54842c-0.06034,-0.18648 -0.20677,-0.33251 -0.39344,-0.39231c-0.62254,-0.18907 -1.30503,-0.35508 -2.04747,-0.49804c-0.68479,-0.13142 -1.22433,0.14526 -1.47335,0.78855c-0.07839,0.20291 -0.22365,0.31819 -0.43577,0.34586c-0.17061,0.02306 -0.34355,0.0023 -0.51878,-0.06225c0.17523,-1.30041 0.54645,-2.22962 1.11366,-2.78761c5.21553,0.47498 9.98143,1.99906 14.29772,4.57223c4.41774,2.63774 7.83019,6.17469 10.23736,10.61089c-0.00922,0.39198 0.07147,0.79547 0.2421,1.21051c0.11068,0.27208 0.02076,0.38736 -0.26978,0.34586c-0.17985,-0.02767 -0.35968,-0.05765 -0.53953,-0.08993c-0.37352,-0.06457 -0.63408,-0.02076 -0.78164,0.13142c-0.14756,0.15218 -0.19137,0.37352 -0.13142,0.66405c0.05073,0.23518 0.19599,0.37352 0.43577,0.41503c2.10972,0.35968 1.62552,2.04747 1.87454,3.5139c0.41503,2.44405 0.51648,4.71979 0.30435,6.82721c-0.67787,6.70501 -3.17727,12.80823 -7.49818,18.30966c-2.15815,2.7484 -4.97342,5.0472 -8.44581,6.89638c-0.89,0.47036 -1.72237,0.74244 -2.49708,0.81623c-0.27208,0.02767 -0.43117,-0.09223 -0.47728,-0.35968c-0.17523,-0.97762 -0.75396,-1.38112 -1.7362,-1.21051c-0.41611,0.07592 -0.71184,0.4456 -0.69171,0.86464c0.10376,2.33799 -1.56327,2.24114 -3.32023,2.44867c-3.80903,0.44269 -7.62268,0.45423 -11.44093,0.03459c-0.93381,-0.09684 -1.3696,-0.50496 -1.90222,-1.19667c-0.14296,-0.17985 -0.30897,-0.20291 -0.49804,-0.06917c-0.97301,0.69171 -2.15124,0.83237 -3.53466,0.42195c-0.87618,-0.26286 -1.93449,-0.33663 -3.17497,-0.22135c-6.03636,-4.59299 -9.81311,-10.58091 -11.33027,-17.96379c-1.39266,-6.76034 -0.76088,-13.04802 1.8953,-18.86303c1.92297,-4.21945 4.69903,-7.84865 8.32823,-10.88756c5.14634,-4.31167 11.36485,-6.73268 18.6555,-7.263zM229.68332,176.60315c0,-1.89101 -1.53298,-3.42397 -3.42397,-3.42397c-1.89101,0 -3.42397,1.53298 -3.42397,3.42397c0,1.89101 1.53298,3.42397 3.42397,3.42397c1.89101,0 3.42397,-1.53298 3.42397,-3.42397zM257.35184,176.60315c0,-1.87955 -1.52367,-3.40324 -3.40324,-3.40324c-1.87955,0 -3.40324,1.52367 -3.40324,3.40324c0,1.87955 1.52367,3.40324 3.40324,3.40324c1.87955,0 3.40324,-1.52367 3.40324,-3.40324zM242.90195,183.90074c1.93679,0.20059 4.3993,-0.18677 4.44771,-2.73918c0.002,-0.30266 -0.18047,-0.57602 -0.46074,-0.69027c-0.28027,-0.11424 -0.60185,-0.04633 -0.812,0.17149c-1.93679,2.04055 -3.79751,0.54645 -5.72739,-0.37352c-0.22002,-0.10611 -0.47999,-0.07931 -0.67095,0.06917c-1.36036,1.06985 -2.91211,1.6532 -4.65524,1.75004c-0.23668,0.01332 -0.45997,-0.11045 -0.57413,-0.31819c-0.21213,-0.37352 -0.54875,-0.59027 -1.0099,-0.65022c-0.25448,-0.03535 -0.50806,0.07043 -0.66199,0.27614c-0.15392,0.20571 -0.18386,0.47885 -0.07814,0.713c0.72399,1.6509 2.00136,2.19735 3.83209,1.63936c0.25199,-0.0757 0.52597,0.00568 0.69863,0.20751l0.9684,1.12058c0.09122,0.1003 0.20193,0.18039 0.32511,0.23518c1.66472,0.71477 2.95593,0.32971 3.8736,-1.15516c0.11528,-0.18907 0.2836,-0.27438 0.50496,-0.25594zM211.13848,184.49561c0.23518,0.19829 0.46806,0.26286 0.69863,0.19369c0.17523,-0.05073 0.28591,-0.16601 0.33203,-0.34586c0.05533,-0.21213 0.00462,-0.42887 -0.15218,-0.65022c-0.14756,-0.20291 -0.31589,-0.22596 -0.50496,-0.06917l-0.37352,0.31127c-0.22596,0.18445 -0.22596,0.37122 0,0.56029zM256.43512,195.10532c0.34066,0.06929 0.68346,-0.20229 0.76573,-0.60657c0.08223,-0.40429 -0.12722,-0.7882 -0.46788,-0.85752c-0.34066,-0.06929 -0.68346,0.20229 -0.76573,0.60657c-0.08223,0.40429 0.12722,0.7882 0.46788,0.85752zM252.22626,195.87429c0.02217,0.28514 0.26002,0.44351 0.53126,0.35374c0.27124,-0.08977 0.47315,-0.39371 0.45099,-0.67885c-0.02306,-0.37352 -0.22826,-0.61332 -0.61562,-0.71938c-0.32281,-0.09223 -0.46806,0.02998 -0.43577,0.3666zM235.51445,198.42672c0,-0.74494 -0.6039,-1.34884 -1.34884,-1.34884c-0.74494,0 -1.34884,0.6039 -1.34884,1.34884c0,0.74494 0.6039,1.34884 1.34884,1.34884c0.74494,0 1.34884,-0.6039 1.34884,-1.34884z" fill="#fef271" stroke-width="1"/><path d="M238.66866,152.68371c0.78855,0.93611 1.34654,0.70093 1.67395,-0.70555c0.17523,0.06457 0.34816,0.08531 0.51878,0.06225c0.21213,-0.02767 0.35738,-0.14296 0.43577,-0.34586c0.24902,-0.6433 0.78855,-0.91997 1.47335,-0.78855c0.74244,0.14296 1.42493,0.30897 2.04747,0.49804c0.18665,0.0598 0.3331,0.20583 0.39344,0.39231c0.06034,0.18648 0.02717,0.39062 -0.08909,0.54842c-1.17129,1.58173 -2.71151,2.3403 -4.62064,2.27574c-2.27574,-0.07609 -4.06727,-0.44269 -5.17401,-2.54551c-0.1182,-0.23187 -0.05884,-0.51478 0.1426,-0.67959c0.20143,-0.1648 0.4905,-0.16697 0.69438,-0.00521l1.8953,1.5356c0.1614,0.12912 0.30897,0.11528 0.44269,-0.04149z" fill="#f6e809" stroke-width="1"/><path d="M265.99134,164.37366c1.38804,1.99214 2.41408,4.1549 3.07813,6.48827c2.29649,8.08383 1.64858,15.64194 -1.94371,22.67436c-2.92363,-1.15747 -5.03337,-0.1176 -6.32917,3.11962c-0.68711,1.71545 -0.18907,3.00896 1.4941,3.88052c-10.56246,11.23343 -28.01439,13.32239 -40.38223,3.58999c1.24048,-0.11528 2.29879,-0.04149 3.17497,0.22135c1.38342,0.41041 2.56165,0.26978 3.53466,-0.42195c0.18907,-0.13374 0.35508,-0.11068 0.49804,0.06917c0.53262,0.69171 0.9684,1.09982 1.90222,1.19667c3.81825,0.41963 7.6319,0.40811 11.44093,-0.03459c1.75696,-0.20751 3.42397,-0.11068 3.32023,-2.44867c-0.02013,-0.41905 0.2756,-0.78872 0.69171,-0.86464c0.98222,-0.17061 1.56097,0.23288 1.7362,1.21051c0.04611,0.26746 0.20521,0.38736 0.47728,0.35968c0.77472,-0.07379 1.60708,-0.34586 2.49708,-0.81623c3.4724,-1.84918 6.28768,-4.14798 8.44581,-6.89638c4.32091,-5.50142 6.82029,-11.60465 7.49818,-18.30966c0.21213,-2.10742 0.11068,-4.38316 -0.30435,-6.82721c-0.24902,-1.46643 0.23518,-3.15422 -1.87454,-3.5139c-0.2398,-0.04149 -0.38506,-0.17985 -0.43577,-0.41503c-0.05995,-0.29051 -0.01614,-0.51186 0.13142,-0.66405c0.14756,-0.15218 0.40811,-0.19599 0.78164,-0.13142c0.17985,0.03228 0.35968,0.06225 0.53953,0.08993c0.29051,0.04149 0.38044,-0.07379 0.26978,-0.34586c-0.17061,-0.41503 -0.25132,-0.81853 -0.2421,-1.21051z" fill="#f6e809" stroke-width="1"/><path d="M222.83535,176.60315c0,-1.89101 1.53298,-3.42397 3.42397,-3.42397c1.89101,0 3.42397,1.53298 3.42397,3.42397c0,1.89101 -1.53298,3.42397 -3.42397,3.42397c-1.89101,0 -3.42397,-1.53298 -3.42397,-3.42397z" fill="#c27c06" stroke-width="1"/><path d="M250.54539,176.60315c0,-1.87955 1.52367,-3.40324 3.40324,-3.40324c1.87955,0 3.40324,1.52367 3.40324,3.40324c0,1.87955 -1.52367,3.40324 -3.40324,3.40324c-1.87955,0 -3.40324,-1.52367 -3.40324,-3.40324z" fill="#c27c06" stroke-width="1"/><path d="M207.93585,175.614c0.13374,1.06523 0.03459,2.04747 -0.29743,2.94669c-0.17985,-1.14824 -0.08071,-2.13048 0.29743,-2.94669z" fill="#fef271" stroke-width="1"/><path d="M242.39701,184.15666c-0.91767,1.48488 -2.20887,1.86994 -3.8736,1.15516c-0.12317,-0.05479 -0.23389,-0.13488 -0.32511,-0.23518l-0.9684,-1.12058c-0.17266,-0.20183 -0.44664,-0.28321 -0.69863,-0.20751c-1.83073,0.55799 -3.1081,0.01154 -3.83209,-1.63936c-0.10571,-0.23417 -0.07579,-0.50729 0.07814,-0.713c0.15392,-0.20571 0.40751,-0.31149 0.66199,-0.27614c0.46115,0.05995 0.79777,0.27668 1.0099,0.65022c0.11416,0.20774 0.33745,0.33151 0.57413,0.31819c1.74312,-0.09684 3.29486,-0.68019 4.65524,-1.75004c0.19098,-0.14848 0.45095,-0.17528 0.67095,-0.06917c1.92987,0.91997 3.79059,2.41408 5.72739,0.37352c0.21014,-0.2178 0.53173,-0.28573 0.812,-0.17149c0.28027,0.11424 0.46274,0.38761 0.46074,0.69027c-0.04841,2.55241 -2.51092,2.93979 -4.44771,2.73918c-0.22135,-0.01844 -0.38966,0.06687 -0.50496,0.25594zM239.43646,183.6863l0.89232,-0.08993c0.23686,-0.00381 0.42576,-0.19893 0.42195,-0.43577c-0.00381,-0.23686 -0.19893,-0.42576 -0.43577,-0.42195c-0.29051,-0.01844 -0.57181,-0.01384 -0.84389,0.01384c-0.2465,0.03847 -0.44602,0.26163 -0.45518,0.50912c-0.00917,0.24749 0.1752,0.43364 0.42059,0.42469z" fill="#c27c06" stroke-width="1"/><path d="M239.43646,183.6863c-0.24541,0.00895 -0.42976,-0.1772 -0.42059,-0.42469c0.00917,-0.24749 0.20868,-0.47065 0.45518,-0.50912c0.27208,-0.02767 0.55337,-0.03228 0.84389,-0.01384c0.23686,-0.00381 0.43196,0.18509 0.43577,0.42195c0.00381,0.23686 -0.18509,0.43196 -0.42195,0.43577z" fill="#fef271" stroke-width="1"/><path d="M211.13848,184.49561c-0.22596,-0.18907 -0.22596,-0.37584 0,-0.56029l0.37352,-0.31127c0.18907,-0.15679 0.35738,-0.13374 0.50496,0.06917c0.15679,0.22135 0.20751,0.43809 0.15218,0.65022c-0.04611,0.17985 -0.15679,0.29513 -0.33203,0.34586c-0.23056,0.06917 -0.46345,0.00462 -0.69863,-0.19369z" fill="#dca30e" stroke-width="1"/><path d="M267.12576,193.5363c-1.42953,2.68845 -3.04123,5.02184 -4.83507,7.00014c-1.68317,-0.87156 -2.18121,-2.16506 -1.4941,-3.88052c1.29581,-3.23722 3.40554,-4.2771 6.32917,-3.11962z" fill="#ffffff" stroke-width="1"/><path d="M256.73298,193.64122c0.34066,0.0693 0.55015,0.45325 0.46788,0.85756c-0.08225,0.4043 -0.42509,0.67587 -0.76577,0.60655c-0.34066,-0.0693 -0.55015,-0.45325 -0.46788,-0.85756c0.08225,-0.4043 0.42509,-0.67587 0.76577,-0.60655z" fill="#f6e809" stroke-width="1"/><path d="M252.22626,195.87429l-0.06917,-0.67787c-0.03228,-0.33663 0.11298,-0.45883 0.43577,-0.3666c0.38736,0.10606 0.59257,0.34586 0.61562,0.71938c0.02217,0.28514 -0.17975,0.58907 -0.45099,0.67885c-0.27124,0.08977 -0.50909,-0.0686 -0.53126,-0.35374z" fill="#f6e809" stroke-width="1"/><path d="M232.81678,198.42672c0,-0.74494 0.6039,-1.34884 1.34884,-1.34884c0.74494,0 1.34884,0.6039 1.34884,1.34884c0,0.74494 -0.6039,1.34884 -1.34884,1.34884c-0.74494,0 -1.34884,-0.6039 -1.34884,-1.34884z" fill="#f6e809" stroke-width="1"/><path d="M140.33569,180c0,-55.04307 44.62123,-99.6643 99.66431,-99.6643c55.04307,0 99.66431,44.62123 99.66431,99.66431c0,55.04307 -44.62123,99.66431 -99.66431,99.66431c-55.04307,0 -99.66431,-44.62123 -99.66431,-99.66431z" fill="none" stroke-width="0"/></g></g></svg>