<svg version="1.1" xmlns="http://www.w3.org/2000/svg" xmlns:xlink="http://www.w3.org/1999/xlink" width="97.15953" height="103.75915" viewBox="0,0,97.15953,103.75915"><g transform="translate(-191.33571,-124.93887)"><g data-paper-data="{&quot;isPaintingLayer&quot;:true}" fill-rule="nonzero" stroke-linejoin="miter" stroke-miterlimit="10" stroke-dasharray="" stroke-dashoffset="0" style="mix-blend-mode: normal"><path d="" fill="none" stroke="#d4b85f" stroke-width="2" stroke-linecap="butt"/><path d="" fill="#e5cd70" stroke="none" stroke-width="1" stroke-linecap="butt"/><path d="M267.33941,140.97287c-0.15702,-0.05737 -0.2461,-0.11626 -0.26723,-0.17665" fill="none" stroke="#cc9e45" stroke-width="2" stroke-linecap="butt"/><path d="M267.07219,140.7962c-0.37141,-0.52541 -0.48012,-1.02364 -0.32612,-1.4947c0.03511,-0.10844 0.11752,-0.19509 0.22407,-0.2356c0.10654,-0.0405 0.22571,-0.03048 0.32399,0.02724l2.48664,1.47658" fill="none" stroke="#d2924a" stroke-width="2" stroke-linecap="butt"/><path d="M209.97912,143.04734c-0.85455,0.01812 -1.62002,-0.07398 -2.29641,-0.27629c-1.9567,-0.58429 -2.55005,-2.67688 -1.92047,-4.4524c0.46653,-1.32258 1.75288,-1.83441 3.01205,-2.16505c0.0846,-0.0228 0.14846,-0.09236 0.16396,-0.17859c0.0155,-0.08624 -0.02013,-0.17368 -0.09149,-0.22452c-1.53094,-1.09008 -1.99143,-2.61497 -1.38147,-4.57469c0.53447,-1.71211 2.16052,-1.155 3.39705,-1.68041c0.14326,-0.06285 0.2499,-0.18615 0.28988,-0.33518c0.67639,-2.49117 2.3417,-3.53746 4.99593,-3.13887c1.93858,0.29441 2.12882,1.4947 2.97582,2.7584c0.08757,0.13286 0.20533,0.22647 0.35329,0.28082c2.16203,0.7549 3.42573,2.2647 3.79111,4.5294c0.0053,0.03793 0.03018,0.07026 0.06547,0.08513c0.0353,0.01486 0.07581,0.01006 0.10664,-0.01266c1.95368,-1.39808 3.38346,-3.19473 4.28934,-5.38999c0.70659,-1.71211 1.57623,-2.64064 3.46499,-2.09258c1.28031,0.37141 2.57723,1.01006 3.89075,1.91594c0.12716,0.08937 0.28527,0.12066 0.43482,0.08606c1.59435,-0.36235 2.86258,0.07096 3.8047,1.29994c0.41218,0.53447 0.57523,1.32711 1.078,1.89782c0.0774,0.0846 0.19902,0.1126 0.30563,0.07036c0.1066,-0.04224 0.17604,-0.14594 0.17449,-0.26059c-0.06039,-2.22544 0.97835,-3.43328 3.11623,-3.62352c2.38246,-0.21137 5.04424,-0.34574 7.98533,-0.40312c0.93759,-0.01812 1.52188,0.08153 2.2647,0.693c2.0956,1.72419 2.41115,3.77299 0.94664,6.1464c-0.08104,0.13062 -0.09851,0.29096 -0.04759,0.4367c0.05092,0.14574 0.16485,0.26146 0.3103,0.31518l3.43328,1.25917c0.12792,0.04578 0.27012,0.02632 0.38105,-0.05213c0.11092,-0.07846 0.17663,-0.20607 0.17607,-0.34193c-0.00906,-2.2798 0.03926,-4.62754 0.14494,-7.04322c0.05737,-1.26823 0.68998,-2.02464 1.89782,-2.26923c3.69599,-0.74282 5.58626,0.70659 5.67081,4.34822c0.00604,0.16004 0.06492,0.29743 0.17665,0.41218c0.54353,0.55259 1.31353,0.58429 1.83894,0.78359c1.48564,0.56617 4.38446,1.42223 4.8374,3.03017c0.18118,0.6462 0.09814,1.44035 -0.24912,2.38246c-0.44086,1.1867 -1.10215,2.2496 -1.98388,3.1887c-0.10267,0.11173 -0.231,0.16608 -0.385,0.16306l-1.617,-0.04529" fill="none" stroke="#d2924a" stroke-width="2" stroke-linecap="butt"/><path d="M267.33941,140.97287c11.12421,7.89474 19.06424,20.96206 20.15583,34.59102c1.20029,15.04214 -4.01305,28.75716 -14.96061,39.18384c-1.3709,1.30447 -2.44135,2.26923 -3.21134,2.89429v0c-17.72807,13.33455 -40.58342,13.44779 -58.44737,0.09965l-1.96576,-1.8027c-1.771,-1.56717 -3.54652,-3.13434 -5.03669,-4.92799c-11.10609,-13.32549 -14.6979,-31.00827 -8.56057,-47.5134c2.98638,-8.03213 7.87512,-14.84888 14.6662,-20.45024" fill="none" stroke="#d2924a" stroke-width="2" stroke-linecap="butt"/><path d="M271.23019,139.4555c0.45294,-0.12984 0.74735,-0.12833 0.88323,0.00453c0.14494,0.14494 0.10418,0.34121 -0.12229,0.58882c-0.48314,0.52541 -1.21992,0.69904 -2.21035,0.52088" fill="none" stroke="#d2924a" stroke-width="2" stroke-linecap="butt"/><path d="M271.79183,138.7127c-0.07549,0.28082 -0.26271,0.52843 -0.56165,0.74282" fill="none" stroke="#b38c2a" stroke-width="2" stroke-linecap="butt"/><path d="M272.36253,137.45806c0.13286,0.51333 -0.05737,0.93155 -0.5707,1.25464" fill="none" stroke="#c8a245" stroke-width="2" stroke-linecap="butt"/><path d="M262.16233,144.3654c-0.99647,-0.06341 -1.50074,-0.53447 -1.51282,-1.41317c-0.06341,-4.84948 -0.08153,-9.66121 -0.05435,-14.4352c0.00226,-0.32756 0.1368,-0.64029 0.37307,-0.86718c0.23627,-0.22688 0.5542,-0.34865 0.88158,-0.33764c0.79114,0.02718 1.617,0.11474 2.47758,0.26271c1.75288,0.30347 1.24106,2.72217 1.31353,4.01758c0.00604,0.154 0.08304,0.25818 0.231,0.31253c2.1409,0.79114 4.24556,1.64568 6.31398,2.56364c1.4177,0.62959 0.58429,1.97935 0.17665,2.9894" fill="none" stroke="#b38c2a" stroke-width="2" stroke-linecap="butt"/><path d="M267.07219,140.7962l-0.24912,-0.12229c-0.14625,-0.07368 -0.31981,-0.06853 -0.46142,0.0137c-0.14162,0.08223 -0.23213,0.23041 -0.24063,0.39395l-0.10871,2.10617c-0.00906,0.1842 -0.09361,0.31857 -0.25365,0.40312c-1.14745,0.60996 -2.34623,0.86814 -3.59634,0.77453" fill="none" stroke="#d2924a" stroke-width="2" stroke-linecap="butt"/><path d="M267.33941,140.97287c-0.6009,-0.09663 -0.90286,0.07398 -0.90588,0.51182c-0.01208,0.93608 -0.0151,1.87215 -0.00906,2.80823c0,0.14192 0.04076,0.27327 0.12229,0.39406c0.29894,0.44388 0.42123,0.70659 0.86964,1.0327c2.88674,2.11674 5.42471,4.58526 7.61392,7.40557c0.04529,0.06039 0.539,0.6009 1.48111,1.62153c0.51333,0.55862 0.90135,1.19576 1.16406,1.91141c0.42576,1.15047 0.71867,1.86762 0.8787,2.15146c1.35278,2.43682 2.17864,4.0206 2.47758,4.75134c0.99345,2.43984 1.79515,5.48661 2.40511,9.14033c0.07247,0.43784 0.16608,1.29088 0.28082,2.55911c0.06341,0.70961 0.16457,1.56566 0.30347,2.56817c0.50729,3.67183 0.21741,7.70753 -0.86964,12.10708c-1.02667,4.15497 -1.88574,6.83637 -2.57723,8.04421c-0.86059,1.50074 -1.70456,3.01205 -2.53193,4.53393c-0.51182,0.94664 -1.39506,1.68947 -1.91141,2.7584c-0.06235,0.12474 -0.15603,0.23091 -0.27176,0.308c-0.38047,0.25968 -0.67186,0.58127 -0.87417,0.96476c-0.40161,0.76396 -0.62808,1.17915 -0.67941,1.24558c-0.75188,0.98137 -1.43431,1.75439 -2.04729,2.31905c-0.62808,0.57674 -1.42072,0.84851 -2.37793,0.81529c-0.14494,-0.00302 -0.25365,-0.06794 -0.32612,-0.19476c-0.462,-0.77302 -1.14745,-1.13537 -2.05635,-1.08706" fill="none" stroke="#d2924a" stroke-width="2" stroke-linecap="butt"/><path d="M260.82163,216.6365c-0.60996,0.07851 -0.98439,-0.13739 -1.12329,-0.6477c-0.38047,-1.37392 -0.15249,-2.65876 0.68394,-3.85452c0.76094,-1.08706 2.18317,-1.63511 3.36081,-2.31452c1.39808,-0.80925 2.6497,-0.86814 3.75487,-0.17665" fill="none" stroke="#d8bf69" stroke-width="2" stroke-linecap="butt"/><path d="M260.82163,216.6365c0.90286,0.51031 1.22747,1.00703 0.97382,1.49017c-0.44992,0.84851 -1.28635,1.55962 -2.50929,2.13335c-1.09611,0.51635 -2.09258,1.25917 -3.27929,1.6487c-1.61549,0.52541 -2.45796,0.8002 -2.5274,0.82435c-0.91796,0.3231 -28.19551,-0.43029 -29.9801,-1.40864c-1.00251,-0.54353 -1.71211,-0.89531 -2.12882,-1.05535c-1.62455,-0.61902 -2.83691,-1.31202 -3.63711,-2.07899c-0.40462,-0.38651 -1.078,-1.42374 -2.02011,-3.1117c-0.0733,-0.12911 -0.18788,-0.23095 -0.32612,-0.28988c-0.6462,-0.26271 -1.1867,-0.67639 -1.62153,-1.24106c-0.23553,-0.308 -0.91494,-0.39406 -1.29541,-0.693c-2.52438,-1.96274 -4.40408,-3.8515 -5.6391,-5.66628c-0.69451,-1.02062 -1.28182,-1.85403 -1.76194,-2.50023c-0.6009,-0.81227 -1.15953,-1.66078 -1.67588,-2.54552c-0.71565,-1.22294 -1.63511,-2.31452 -2.22394,-3.48764c-0.81831,-1.64266 -1.48715,-3.33968 -2.00652,-5.09105c-0.16306,-0.54957 -0.38802,-1.16406 -0.67488,-1.84347c-0.32914,-0.77302 -0.51635,-1.40261 -0.56165,-1.88876c-0.26271,-3.01658 -0.81982,-6.21434 -0.84247,-8.99992c-0.01812,-2.04427 0.077,-4.0825 0.28535,-6.11469c0.17514,-1.70305 0.57976,-3.51934 1.21388,-5.44887c0.58278,-1.77552 1.18821,-3.54501 1.81629,-5.30846c0.16608,-0.45898 0.54202,-1.21841 1.12782,-2.27829c0.41368,-0.74584 0.71715,-1.54453 0.91041,-2.39605c0.03513,-0.16006 0.12892,-0.30076 0.26271,-0.39406c0.48012,-0.33518 0.81227,-0.77755 0.99647,-1.32711c0.04529,-0.14192 0.13437,-0.25063 0.26723,-0.32612c0.48012,-0.28082 0.84851,-0.66129 1.10517,-1.14141c0.22345,-0.42576 0.45143,-0.78057 0.68394,-1.06441c0.27479,-0.33518 0.49823,-0.70508 0.67035,-1.1097c0.06039,-0.13588 0.15098,-0.24761 0.27176,-0.33518c1.04176,-0.76094 1.67135,-1.87064 2.57723,-2.68593c0.80623,-0.72923 1.29541,-1.40864 2.24205,-2.11523c0.60392,-0.44992 1.07196,-1.00855 1.40411,-1.67588c0.31706,-0.64015 0.35933,-1.32258 0.12682,-2.04729c-0.28686,-0.88776 -0.75641,-1.70608 -1.40864,-2.45493c-0.09965,-0.11173 -0.21892,-0.14041 -0.35782,-0.08606l-1.29994,0.52541" fill="none" stroke="#d8ae61" stroke-width="2" stroke-linecap="butt"/><path d="M212.35705,135.18431l-2.31905,-0.12682c-0.13588,-0.00906 -0.25818,-0.05435 -0.36688,-0.13588c-0.93306,-0.70206 -1.88423,-2.6044 -0.88323,-3.61899c0.53447,-0.54353 2.33717,-0.51635 3.13434,-0.52994c0.06729,0.00017 0.13165,-0.0279 0.17793,-0.07761c0.04628,-0.04971 0.07039,-0.11666 0.06665,-0.18509c-0.231,-4.31199 5.38093,-4.69246 6.08751,-0.54806c0.02718,0.16004 0.12229,0.24308 0.28535,0.24912c1.60643,0.04529 2.69197,0.86361 3.25664,2.45493c0.53447,1.49923 -0.64317,1.94764 -1.37694,2.9577c-0.05051,0.06613 -0.06608,0.1525 -0.04197,0.23285c0.02411,0.08035 0.08503,0.14519 0.16427,0.1748c0.51333,0.18721 1.2939,0.4469 2.3417,0.77906c2.11523,0.67035 0.35782,3.58276 -0.42576,4.53846c-0.38932,0.46993 -1.05541,0.59744 -1.58529,0.30347l-2.86711,-1.59435c-0.07277,-0.04031 -0.16104,-0.04087 -0.23431,-0.00149c-0.07328,0.03939 -0.12151,0.11332 -0.12804,0.19625l-0.20835,3.02564c-0.03078,0.41744 -0.29955,0.77816 -0.68847,0.924c-3.79564,1.44035 -4.26669,-0.32612 -4.10364,-3.60087c0.00906,-0.19326 -0.077,-0.25818 -0.25818,-0.19476c-1.50376,0.52088 -4.59281,2.45041 -5.38999,0.23553c-0.67488,-1.86158 -0.13588,-2.4187 1.58982,-3.11623c1.34372,-0.54353 2.63007,-1.22143 3.85905,-2.0337c0.06139,-0.03992 0.08975,-0.11507 0.07005,-0.18559c-0.0197,-0.07052 -0.08292,-0.12009 -0.15611,-0.12241" fill="none" stroke="#b38c2a" stroke-width="2" stroke-linecap="butt"/><path d="M232.9477,134.01572l-1.43129,-0.06341c-0.12682,-0.00604 -0.23553,0.03624 -0.32612,0.12682c-1.31956,1.29239 -2.56213,2.34019 -3.7277,3.1434c-1.72117,1.17764 -3.29287,-0.62959 -3.10264,-2.36888c0.01753,-0.15701 0.09543,-0.30145 0.21741,-0.40312c2.14996,-1.80572 3.68089,-4.03419 4.59281,-6.68539c0.11071,-0.31916 0.41493,-0.5323 0.75641,-0.52994c1.78156,0.0151 3.21437,0.71112 4.2984,2.08805c0.09361,0.12079 0.21741,0.17514 0.37141,0.16306c2.71764,-0.231 3.55558,-0.61147 4.74228,2.35076c0.05311,0.13001 0.06728,0.2717 0.04076,0.40765c-0.53447,2.74935 -2.32811,5.95163 -4.41616,7.84945c-1.63964,1.49168 -3.41064,2.82031 -5.31299,3.98587c-1.61247,0.99043 -2.79917,0.63865 -3.56011,-1.05535c-0.36839,-0.82435 -0.16457,-1.4947 0.61147,-2.01105c2.5878,-1.73023 4.73926,-3.93001 6.45439,-6.59934c0.04984,-0.07718 0.05412,-0.17505 0.01124,-0.25709c-0.04288,-0.08204 -0.12648,-0.13591 -0.21959,-0.1415" fill="none" stroke="#b38c2a" stroke-width="2" stroke-linecap="butt"/><path d="M243.79108,143.76752c0.32612,-0.1238 0.5692,-0.16155 0.72923,-0.11323c0.14494,0.04832 0.15098,0.11021 0.01812,0.18571c-0.74584,0.44388 -1.55811,0.58731 -2.43682,0.43029" fill="none" stroke="#cda848" stroke-width="2" stroke-linecap="butt"/><path d="M249.56529,142.839l-5.77421,0.92849c0.65223,-0.45898 1.078,-0.6779 1.27729,-0.65676" fill="none" stroke="#8d5e12" stroke-width="2" stroke-linecap="butt"/><path d="M245.06837,143.11075c0.87267,-0.07549 1.57321,-0.49823 2.10164,-1.26823c0.08455,-0.1238 0.19627,-0.21288 0.33518,-0.26723c0.53749,-0.21741 0.97231,-0.56617 1.30447,-1.04629c0.08153,-0.11776 0.19326,-0.19023 0.33518,-0.21741l1.13688,-0.21741" fill="none" stroke="#cda848" stroke-width="2" stroke-linecap="butt"/><path d="M256.0431,143.06545c-1.03723,1.34976 -2.0337,1.463 -3.13887,0.07247c-0.84851,-1.06592 -1.72268,-2.0805 -2.62252,-3.04376" fill="none" stroke="#b38c2a" stroke-width="2" stroke-linecap="butt"/><path d="M257.34756,141.56169c-0.13286,0.90286 -0.56768,1.40411 -1.30447,1.50376" fill="none" stroke="#cda848" stroke-width="2" stroke-linecap="butt"/><path d="M242.10162,144.27028c-1.49923,-0.43935 -2.66782,-2.63611 -0.93759,-3.7594c2.84748,-1.84799 5.26165,-4.1912 7.24251,-7.02963c0.042,-0.06082 0.04688,-0.1399 0.01269,-0.20542c-0.03419,-0.06553 -0.10184,-0.10676 -0.17575,-0.10711c-1.45243,-0.00604 -2.94411,-0.00906 -4.47505,-0.00906c-0.59788,0 -1.00402,-0.29743 -1.21841,-0.89229c-0.79264,-2.20582 -0.72017,-3.29287 1.96123,-3.47858c3.91038,-0.26573 6.68841,-0.41973 8.3341,-0.462c0.14812,-0.00548 0.29124,0.06187 0.385,0.18118l1.60794,2.05182c0.0842,0.10458 0.12477,0.23764 0.11323,0.37141c-0.07549,0.91796 -0.29441,1.79968 -0.65676,2.64517c-0.71112,1.64417 -2.1877,2.21488 -0.12229,3.9134c0.55561,0.45898 1.39203,1.16406 2.50929,2.11523c0.70659,0.6009 0.92853,1.25314 0.66582,1.9567" fill="none" stroke="#b38c2a" stroke-width="2" stroke-linecap="butt"/><path d="M256.04309,143.06545l1.30447,-1.50376" fill="none" stroke="#b09023" stroke-width="2" stroke-linecap="butt"/><path d="M247.71807,141.04987c0.52239,-0.40462 1.05837,-0.84549 1.60794,-1.32258c0.23553,-0.20835 0.5541,-0.08606 0.9557,0.36688" fill="none" stroke="#b09023" stroke-width="2" stroke-linecap="butt"/><path d="M243.69144,143.61805c0.48314,-0.56165 1.03119,-0.99798 1.64417,-1.309c0.28082,-0.14494 0.65374,-0.38349 1.11876,-0.71565c0.36235,-0.26271 0.78359,-0.44388 1.2637,-0.54353" fill="none" stroke="#907914" stroke-width="2" stroke-linecap="butt"/><path d="M243.69144,143.61805l-1.58982,0.65223" fill="none" stroke="#b09023" stroke-width="2" stroke-linecap="butt"/><path d="M249.67242,140l-5.88133,3.76749c0.08455,-0.03321 0.05133,-0.08304 -0.09965,-0.14947" fill="none" stroke="#8d5e12" stroke-width="2" stroke-linecap="butt"/><path d="M247.71807,141.04987l-2.6497,2.06088" fill="none" stroke="#a99532" stroke-width="2" stroke-linecap="butt"/><path d="M258.33045,139.66386c-0.06643,-0.14494 -0.16306,-0.26573 -0.28988,-0.36235l-3.75034,-2.9124c-0.11838,-0.09252 -0.19369,-0.23004 -0.20835,-0.38047c-0.04529,-0.46502 0.09361,-0.78057 0.4167,-0.94664c0.85153,-0.44388 2.55458,0.62506 3.42876,1.155c0.19326,0.11776 0.62657,0.24459 1.29994,0.38047c0.13785,0.02578 0.25737,0.1121 0.32612,0.23553c0.63109,1.09309 0.69753,2.20884 0.19929,3.34723c-0.05943,0.14256 -0.21723,0.21954 -0.37141,0.18118c-0.54051,-0.12984 -0.89078,-0.36235 -1.05082,-0.69753" fill="none" stroke="#d2924a" stroke-width="2" stroke-linecap="butt"/><path d="M214.45869,158.02606c0.22345,-0.21137 0.42123,-0.34423 0.59335,-0.39859" fill="none" stroke="#e0c797" stroke-width="2" stroke-linecap="butt"/><path d="M218.75256,148.98539c0.38651,-0.21137 0.90588,0.08002 1.55811,0.87417c0.09361,0.11474 0.15098,0.2461 0.17212,0.39406c0.21137,1.42827 0.07851,2.80068 -0.39859,4.11722c-0.28988,0.80623 -0.80623,1.44488 -1.54905,1.91594c-1.05686,0.67337 -2.2179,1.12027 -3.48311,1.3407" fill="none" stroke="#d8ae61" stroke-width="2" stroke-linecap="butt"/><path d="M210.18294,153.26114c1.75439,-1.9567 3.11925,-3.27929 4.09458,-3.96775c1.32258,-0.93306 2.81427,-1.03572 4.47505,-0.308" fill="none" stroke="#e0c797" stroke-width="2" stroke-linecap="butt"/><path d="M208.74259,155.55754c0.25063,-0.85756 0.73074,-1.62303 1.44035,-2.29641" fill="none" stroke="#d8bf69" stroke-width="2" stroke-linecap="butt"/><path d="M207.90465,159.18559c-0.51937,-1.29843 -0.24006,-2.50778 0.83794,-3.62805" fill="none" stroke="#d8ae61" stroke-width="2" stroke-linecap="butt"/><path d="M210.9937,159.92842c-1.44337,0.26271 -2.47305,0.0151 -3.08905,-0.74282" fill="none" stroke="#d7b13f" stroke-width="2" stroke-linecap="butt"/><path d="M211.55535,159.43016l-0.56165,0.49823" fill="none" stroke="#d8ae61" stroke-width="2" stroke-linecap="butt"/><path d="M211.55535,159.43016c0.1842,-0.154 0.35782,-0.18571 0.52088,-0.09512" fill="none" stroke="#d8bf69" stroke-width="2" stroke-linecap="butt"/><path d="M207.25242,163.71046c0.37443,-0.29894 0.48615,-0.79114 0.33518,-1.47658c-0.03828,-0.17202 0.05589,-0.34689 0.22194,-0.41218c1.86007,-0.72168 3.28231,-1.55056 4.26669,-2.48664" fill="none" stroke="#cc9e45" stroke-width="2" stroke-linecap="butt"/><path d="M205.93436,165.23687l-0.616,0.41218c-0.12682,0.08455 -0.26271,0.10871 -0.40765,0.07247c-0.5707,-0.14192 -0.87417,-0.47861 -0.91041,-1.01006c-0.10267,-1.57623 0.47861,-2.75237 1.74382,-3.5284c0.1243,-0.07515 0.27529,-0.09485 0.4167,-0.05435c1.17161,0.3382 1.53547,1.19878 1.09159,2.58176" fill="none" stroke="#dbb960" stroke-width="2" stroke-linecap="butt"/><path d="M214.45869,158.02606c4.9461,-0.59486 7.06133,-3.27173 6.34569,-8.03063c-0.01812,-0.10871 -0.06643,-0.19779 -0.14494,-0.26723l-1.60341,-1.386c-0.11726,-0.10025 -0.16954,-0.25709 -0.13588,-0.40765c0.10871,-0.51031 0.41973,-0.8002 0.93306,-0.86964c0.154,-0.02114 0.28082,-0.09059 0.38047,-0.20835c0.5707,-0.67639 1.11272,-1.09762 1.62605,-1.2637c0.81831,-0.26874 1.41015,-0.56768 1.77552,-0.89682c0.10871,-0.09663 0.23553,-0.13135 0.38047,-0.10418c0.93909,0.17815 1.84649,0.43784 2.72217,0.77906c2.08805,0.80623 2.69952,-0.15853 4.3754,-0.93759c1.13235,-0.52239 1.90235,-0.97382 2.30999,-1.35429c0.74282,-0.69451 1.55661,-1.28635 2.44135,-1.77552c0.1389,-0.07851 0.25214,-0.18118 0.3397,-0.308c0.22043,-0.32612 0.48918,-0.61147 0.80623,-0.85606c0.29904,-0.23047 0.69977,-0.27943 1.0463,-0.12782c0.34654,0.15161 0.58418,0.47985 0.62052,0.85705c0.19929,2.05182 1.25917,4.65169 3.80017,4.47958c0.79114,-0.05133 1.62153,-0.31857 2.49117,-0.8017c0.7247,-0.40462 1.47809,-0.73074 2.26017,-0.97835c0.82133,-0.26271 1.61549,-0.27176 2.38246,-0.02718c1.1867,0.38047 2.24658,1.01459 3.17964,1.90235c0.11776,0.10871 0.25667,0.17514 0.4167,0.19929c1.31956,0.19326 2.5259,0.6779 3.61899,1.45394c0.11422,0.08195 0.25499,0.12195 0.39859,0.11323c0.98741,-0.05888 3.05282,1.35429 3.87717,1.94311c0.11949,0.08547 0.27252,0.10901 0.41218,0.06341c0.1842,-0.06341 0.28082,-0.01661 0.28988,0.14041c0.00604,0.12984 0.06039,0.23704 0.16306,0.32159c0.96476,0.78812 1.97029,1.09159 2.76293,2.07446c0.67337,0.83945 1.41015,1.61247 2.21035,2.31905c1.01761,0.90588 1.75439,1.6638 2.21035,2.27376c2.54552,3.39403 4.61093,7.05983 6.19622,10.99738c0.35329,0.87568 0.66431,1.99143 0.93306,3.34723c0.30347,1.54 0.78359,3.09358 0.95117,4.55205c0.33215,2.95619 0.29441,5.89879 -0.11323,8.8278c-0.21439,1.54302 -0.43029,3.05131 -0.6477,4.52487c-0.22345,1.51282 -0.54504,3.0045 -0.96476,4.47505c-0.44841,1.58076 -1.33617,3.13434 -2.03823,4.69699c-0.42576,0.94514 -0.97231,1.85705 -1.63964,2.73576c-2.38699,3.12982 -3.4967,6.01957 -7.88116,6.78051c-0.14192,0.02416 -0.26573,0.08304 -0.37141,0.17665l-0.847,0.73376c-0.13096,0.11387 -0.31295,0.14537 -0.47106,0.08153c-0.57976,-0.22647 -1.00402,-0.02416 -1.27276,0.60694c-0.02962,0.06641 -0.09124,0.11318 -0.16252,0.12337c-0.07128,0.01018 -0.14189,-0.0177 -0.18624,-0.07354c-0.4469,-0.55259 -1.01761,-0.66582 -1.71211,-0.3397c-0.07462,0.03572 -0.16083,0.0384 -0.23752,0.00738c-0.07669,-0.03102 -0.1368,-0.09288 -0.16559,-0.17044c-0.05435,-0.14192 -0.12984,-0.14041 -0.22647,0.00453c-0.12984,0.19326 -0.20684,0.17514 -0.231,-0.05435l-0.02718,-0.31253c-0.01208,-0.12079 -0.03624,-0.1238 -0.07247,-0.00906c-0.26573,0.86361 -0.78359,1.55358 -1.55358,2.06994c-0.04227,0.02718 -0.07247,0.01661 -0.09059,-0.03171c-0.0151,-0.03926 -0.03171,-0.08002 -0.04982,-0.12229c-0.02416,-0.05133 -0.05133,-0.05284 -0.08153,-0.00453l-1.37241,2.31905c-0.04672,0.07908 -0.06434,0.17201 -0.04982,0.26271c0.09059,0.52239 -0.02718,0.97986 -0.35329,1.37241c-0.04035,0.04582 -0.04584,0.11355 -0.01359,0.16759l0.11776,0.17665c0.03692,0.05833 0.04395,0.13074 0.01892,0.19508c-0.02502,0.06434 -0.07912,0.11298 -0.14575,0.13104l-1.75288,0.47106c-0.15098,0.03926 -0.26723,0.12682 -0.34876,0.26271c-0.24157,0.40765 -0.61147,0.55862 -1.1097,0.45294c-0.03967,-0.0081 -0.0809,0.00191 -0.11243,0.02732c-0.03153,0.0254 -0.0501,0.06355 -0.05063,0.10404l0.00453,0.13135c0,0.0151 0.00604,0.02265 0.01812,0.02265c0.99647,0.08455 1.99294,0.11173 2.9894,0.08153c0.67639,-0.02114 1.33315,0.09059 1.97029,0.33518c0.21758,0.08372 -27.57951,-0.37594 -27.57951,-0.37594c0.07353,-0.01656 0.12613,-0.08137 0.12721,-0.15674c0.00108,-0.07537 -0.04965,-0.14166 -0.12268,-0.16031c-4.17611,-0.96627 -7.90078,-2.87013 -11.17403,-5.71157c-2.20129,-1.91141 -4.26519,-3.96172 -6.19169,-6.15092c-0.45294,-0.50729 -1.078,-0.88323 -1.42223,-1.44035c-1.29541,-2.10466 -2.56968,-4.22291 -3.82281,-6.35475c-0.3231,-0.54655 -0.6477,-1.2335 -0.97382,-2.06088c-0.1842,-0.47408 -0.385,-0.94061 -0.60241,-1.39958c-0.24459,-0.52239 -0.42576,-0.99496 -0.54353,-1.4177c-0.35329,-1.27125 -0.56014,-2.19676 -0.62053,-2.77652c-0.21137,-2.06239 -0.40312,-5.31902 -0.57523,-9.76991c-0.01812,-0.47408 0.04379,-1.16255 0.18571,-2.06541c0.07247,-0.462 0.1072,-0.93004 0.10418,-1.40411c-0.01359,-1.55358 0.45294,-3.20229 0.73376,-4.72869c0.1238,-0.67941 0.34574,-1.27729 0.66582,-1.79364c0.3231,-0.52239 0.66884,-1.03421 1.03723,-1.53547c0.08455,-0.11474 0.14947,-0.24006 0.19476,-0.37594l0.51635,-1.56717" fill="none" stroke="#cc9e45" stroke-width="2" stroke-linecap="butt"/><path d="M205.93436,165.23687l1.31806,-1.52641" fill="none" stroke="#d7b255" stroke-width="2" stroke-linecap="butt"/><path d="M213.17687,158.45183l-1.10064,0.88323" fill="none" stroke="#d4b85f" stroke-width="2" stroke-linecap="butt"/><path d="M213.17687,158.45183l1.28182,-0.42576" fill="none" stroke="#dcc18c" stroke-width="2" stroke-linecap="butt"/><path d="M211.55535,159.43016c-1.14141,0.19627 -1.98991,-0.06794 -2.54552,-0.79264c-0.56467,-0.73678 -0.65374,-1.76344 -0.26723,-3.07999" fill="none" stroke="#e3ac6a" stroke-width="2" stroke-linecap="butt"/><path d="M218.75256,148.98539l0.76094,0.8787" fill="none" stroke="#e8d1a8" stroke-width="2" stroke-linecap="butt"/><path d="M219.5135,149.86408c0.7549,1.76344 0.4152,3.63409 -1.01911,5.61193" fill="none" stroke="#e4d7b8" stroke-width="2" stroke-linecap="butt"/><path d="M218.49438,155.476l-3.44234,2.15146" fill="none" stroke="#e8d1a8" stroke-width="2" stroke-linecap="butt"/><path d="M213.17687,158.45183c-1.5249,0.38349 -2.49872,0.01057 -2.92146,-1.11876c-0.462,-1.23502 -0.48615,-2.59232 -0.07247,-4.07193" fill="none" stroke="#e8e2b1" stroke-width="2" stroke-linecap="butt"/><path d="M219.5135,149.86408c1.36335,0.93306 0.54806,3.33817 0.00453,4.74228c-0.20231,0.51937 -0.54353,0.80925 -1.02364,0.86964" fill="none" stroke="#dcbe82" stroke-width="2" stroke-linecap="butt"/><path d="M216.92269,129.95285c0,0.92806 -0.75234,1.68041 -1.68041,1.68041c-0.92806,0 -1.68041,-0.75234 -1.68041,-1.68041c0,-0.92806 0.75234,-1.68041 1.68041,-1.68041c0.92806,0 1.68041,0.75234 1.68041,1.68041" fill="none" stroke="#c3af72" stroke-width="2" stroke-linecap="butt"/><path d="M216.68716,133.76207c-1.71513,-0.10568 -3.4967,-0.13437 -5.34469,-0.08606c-0.89682,0.02718 -1.74835,-0.12229 -1.63511,-1.20029c0.01812,-0.16306 0.10871,-0.25063 0.27176,-0.26271l9.38039,-0.67035c0.19627,-0.0151 0.3548,0.05737 0.47559,0.21741l0.98741,1.31353c0.12682,0.17212 0.1072,0.32612 -0.05888,0.462l-3.21134,2.64064c-0.06514,0.05149 -0.09526,0.13522 -0.07811,0.21715c0.01715,0.08193 0.0787,0.1484 0.15964,0.17238l4.92799,1.38147c0.0809,0.0215 0.14741,0.07905 0.18086,0.15651c0.03345,0.07746 0.03023,0.16648 -0.00874,0.24207l-1.001,1.89329c-0.08455,0.16306 -0.20684,0.2008 -0.36688,0.11323l-4.57016,-2.45946c-0.0679,-0.03612 -0.14965,-0.03452 -0.21608,0.00423c-0.06643,0.03875 -0.10806,0.10913 -0.11004,0.18601l-0.13135,4.80569c-0.00421,0.1616 -0.13104,0.29428 -0.29441,0.308l-1.74382,0.14041c-0.17815,0.0151 -0.26723,-0.06794 -0.26723,-0.24912l0.04076,-4.53393c-0.00012,-0.07987 -0.03996,-0.15444 -0.10627,-0.19895c-0.06631,-0.04451 -0.15042,-0.05313 -0.22438,-0.02299l-5.03669,2.10617c-0.18527,0.07941 -0.40138,0.00279 -0.49823,-0.17665c-0.36688,-0.67035 -0.16759,-1.06441 0.51182,-1.33617c2.89278,-1.15953 5.59079,-2.74784 8.09404,-4.76493c0.30196,-0.24157 0.25968,-0.37443 -0.12682,-0.39859" fill="none" stroke="#c3af72" stroke-width="2" stroke-linecap="butt"/><path d="M234.63264,134.35995c0.24459,-0.44992 0.46653,-0.82284 0.66582,-1.11876c0.07905,-0.11863 0.08693,-0.27127 0.02047,-0.39659c-0.06646,-0.12533 -0.19636,-0.20279 -0.33753,-0.20129l-4.25764,0.03171c-0.10885,0.00004 -0.21218,0.05003 -0.28082,0.13588c-1.09008,1.3709 -2.40511,2.47909 -3.94511,3.32458c-0.28181,0.14857 -0.6302,0.06322 -0.81142,-0.1988c-0.18122,-0.26202 -0.13816,-0.61811 0.1003,-0.82937c2.05937,-1.77855 3.56615,-3.93756 4.52034,-6.47704c0.03058,-0.08079 0.09235,-0.1458 0.171,-0.17999c0.07866,-0.0342 0.1674,-0.03462 0.24571,-0.00118l1.79817,0.75188c0.0956,0.0399 0.16777,0.12125 0.196,0.22093c0.02823,0.09968 0.00943,0.20679 -0.05106,0.29089l-0.62959,0.89229c-0.15098,0.21439 -0.09512,0.31102 0.16759,0.28988c1.40109,-0.11474 2.78558,-0.2159 4.15346,-0.30347c1.47658,-0.09512 2.11523,1.617 1.617,2.74029c-1.92952,4.36332 -5.02914,7.59278 -9.29886,9.68839c-0.38047,0.18721 -0.68243,0.25214 -0.90588,0.19476c-0.31102,-0.08455 -0.48767,-0.3382 -0.52994,-0.76094c-0.01208,-0.14494 0.04227,-0.25667 0.16306,-0.33518c3.07093,-1.95972 5.48057,-4.54601 7.22892,-7.75886" fill="none" stroke="#c3af72" stroke-width="2" stroke-linecap="butt"/><path d="M271.79183,138.7127c0.09361,-0.55862 0.28384,-0.97684 0.5707,-1.25464" fill="none" stroke="#ab8a20" stroke-width="2" stroke-linecap="butt"/><path d="M262.16233,144.3654c0.91947,-0.01812 3.1887,-0.21288 3.17964,-1.52641c-0.01208,-2.03823 0.0151,-4.01909 0.08153,-5.94257c0.00356,-0.10365 0.06222,-0.1975 0.15384,-0.24611c0.09161,-0.04861 0.20222,-0.04457 0.29004,0.01058c1.48866,0.90286 2.89278,1.82686 4.21234,2.77199c0.31706,0.22647 0.70055,0.23402 1.15047,0.02265" fill="none" stroke="#b09023" stroke-width="2" stroke-linecap="butt"/><path d="M264.35909,133.10078c-0.00302,0.14192 0.05888,0.18118 0.18571,0.11776c0.35933,-0.17815 0.73376,-0.2008 1.12329,-0.06794c2.01105,0.68243 4.01758,1.44488 6.01957,2.28735c0.20835,0.08757 0.26271,0.23402 0.16306,0.43935l-1.06894,2.16958c-0.03631,0.07479 -0.10437,0.12925 -0.18473,0.14779c-0.08036,0.01854 -0.16416,-0.00087 -0.22745,-0.05267c-1.79364,-1.41921 -3.72166,-2.6195 -5.78404,-3.60087c-0.16306,-0.07851 -0.24761,-0.02718 -0.25365,0.154l-0.17212,7.83133c-0.00523,0.17797 -0.1332,0.32851 -0.308,0.36235l-1.54905,0.31253c-0.24157,0.04832 -0.36235,-0.05133 -0.36235,-0.29894l0.01812,-14.24496c0,-0.16306 0.08153,-0.23402 0.24459,-0.21288l2.00652,0.25365c0.16004,0.02094 0.27781,0.1603 0.27176,0.32159l-0.12229,4.08099" fill="none" stroke="#c3af72" stroke-width="2" stroke-linecap="butt"/><path d="M250.37683,131.82799l-6.34569,-0.04982c-0.19023,-0.00302 -0.308,-0.09663 -0.35329,-0.28082l-0.24459,-1.01911c-0.05133,-0.20835 0.0302,-0.32159 0.24459,-0.3397l8.65568,-0.65223c0.15501,-0.01124 0.30513,0.057 0.39859,0.18118l1.04629,1.34976c0.09217,0.12082 0.11127,0.28224 0.04982,0.42123c-0.79717,1.74533 -1.79968,3.36081 -3.00752,4.84646c-0.10267,0.1238 -0.09059,0.23402 0.03624,0.33065l5.3311,3.99946c0.08177,0.06136 0.13382,0.15441 0.14331,0.2562c0.00949,0.10179 -0.02446,0.20285 -0.09349,0.27827l-1.60794,1.74835c-0.07007,0.0759 -0.17123,0.11525 -0.27345,0.10635c-0.10222,-0.00889 -0.19376,-0.06499 -0.24743,-0.15165c-1.17462,-1.88121 -2.59232,-3.5586 -4.25311,-5.03216c-0.09986,-0.08912 -0.25126,-0.08715 -0.34876,0.00453c-1.65323,1.59435 -4.89175,4.52487 -7.1021,5.03216c-0.3414,0.07292 -0.68594,-0.1095 -0.81751,-0.43286c-0.13157,-0.32335 -0.01229,-0.69451 0.28304,-0.88066c3.76544,-2.29791 6.68841,-5.38848 8.76892,-9.27168c0.04861,-0.09308 0.04564,-0.20467 -0.00784,-0.29504c-0.05348,-0.09037 -0.14988,-0.14666 -0.25486,-0.14884" fill="none" stroke="#c3af72" stroke-width="2" stroke-linecap="butt"/><path d="M267.49796,209.6431c0.71867,0.24459 1.22445,0.58278 1.51735,1.01459c0.28384,0.4167 0.31404,0.95721 0.09059,1.62153c-0.35329,1.04176 -1.01609,1.79515 -1.98841,2.26017c-0.35329,0.16608 -0.64167,0.34273 -0.86512,0.52994c-1.55811,1.31353 -3.30646,1.74382 -5.43075,1.56717" fill="none" stroke="#dfc97b" stroke-width="2" stroke-linecap="butt"/><path d="M265.2695,210.24551c0.09059,-0.08757 0.07549,-0.09965 -0.04529,-0.03624c-0.17212,0.08757 -0.34726,0.08002 -0.52541,-0.02265c-0.11656,-0.06757 -0.18046,-0.19909 -0.16155,-0.33248c0.01891,-0.13339 0.11686,-0.24196 0.24761,-0.27446c1.4947,-0.37443 2.74482,-0.04076 3.75034,1.001c0.62959,0.65676 0.60241,1.40411 0.21288,2.16052c-0.05703,0.09774 -0.17647,0.13978 -0.28214,0.09931c-0.10568,-0.04047 -0.16648,-0.15154 -0.14362,-0.26237c0.15098,-0.5707 0.04982,-1.05837 -0.30347,-1.463c-0.0973,-0.112 -0.22371,-0.191 -0.36235,-0.22647c-0.55259,-0.14796 -1.09611,-0.31555 -1.63058,-0.50276c-0.22647,-0.08153 -0.45143,-0.04379 -0.67488,0.11323c-0.154,0.10871 -0.20986,0.07096 -0.16759,-0.11323c0.0151,-0.05133 0.04379,-0.09814 0.08606,-0.14041" fill="none" stroke="#dcce8a" stroke-width="2" stroke-linecap="butt"/><path d="M268.00072,212.14333c-0.00507,-0.16357 -0.11184,-0.30652 -0.26723,-0.35782l-1.0327,-0.33065c-0.08439,-0.02526 -0.13941,-0.10634 -0.13173,-0.19409c0.00768,-0.08775 0.07595,-0.15804 0.16344,-0.16826c1.45394,-0.19929 1.93405,0.86059 1.47205,2.09711c-0.01401,0.04301 -0.05761,0.06909 -0.10213,0.0611c-0.04452,-0.00799 -0.07633,-0.04761 -0.07451,-0.09281l-0.02718,-1.01459" fill="none" stroke="#dcd289" stroke-width="2" stroke-linecap="butt"/><path d="M269.78078,140.56975c0.99043,0.17815 1.72721,0.00453 2.21035,-0.52088c0.22647,-0.24761 0.26723,-0.44388 0.12229,-0.58882c-0.13588,-0.13286 -0.43029,-0.13437 -0.88323,-0.00453c0.29894,-0.21439 0.48615,-0.462 0.56165,-0.74282c0.51333,-0.3231 0.70357,-0.74131 0.5707,-1.25464c0.40765,-1.01006 1.24106,-2.35982 -0.17665,-2.9894c-2.06843,-0.91796 -4.17309,-1.7725 -6.31398,-2.56364c-0.14796,-0.05435 -0.22496,-0.15853 -0.231,-0.31253c-0.07247,-1.29541 0.43935,-3.71411 -1.31353,-4.01758c-0.86059,-0.14796 -1.68644,-0.23553 -2.47758,-0.26271c-0.32738,-0.01101 -0.64531,0.11076 -0.88158,0.33764c-0.23627,0.22688 -0.37081,0.53962 -0.37307,0.86718c-0.02718,4.77399 -0.00906,9.58572 0.05435,14.4352c0.01208,0.8787 0.51635,1.34976 1.51282,1.41317c1.25011,0.09361 2.4489,-0.16457 3.59634,-0.77453c0.16004,-0.08455 0.24459,-0.21892 0.25365,-0.40312l0.10871,-2.10617c0.00851,-0.16354 0.09902,-0.31172 0.24063,-0.39395c0.14162,-0.08223 0.31518,-0.08738 0.46142,-0.0137l0.24912,0.12229c0.02114,0.06039 0.11021,0.11927 0.26723,0.17665c-0.6009,-0.09663 -0.90286,0.07398 -0.90588,0.51182c-0.01208,0.93608 -0.0151,1.87215 -0.00906,2.80823c0,0.14192 0.04076,0.27327 0.12229,0.39406c0.29894,0.44388 0.42123,0.70659 0.86964,1.0327c2.88674,2.11674 5.42471,4.58526 7.61392,7.40557c0.04529,0.06039 0.539,0.6009 1.48111,1.62153c0.51333,0.55862 0.90135,1.19576 1.16406,1.91141c0.42576,1.15047 0.71867,1.86762 0.8787,2.15146c1.35278,2.43682 2.17864,4.0206 2.47758,4.75134c0.99345,2.43984 1.79515,5.48661 2.40511,9.14033c0.07247,0.43784 0.16608,1.29088 0.28082,2.55911c0.06341,0.70961 0.16457,1.56566 0.30347,2.56817c0.50729,3.67183 0.21741,7.70753 -0.86964,12.10708c-1.02667,4.15497 -1.88574,6.83637 -2.57723,8.04421c-0.86059,1.50074 -1.70456,3.01205 -2.53193,4.53393c-0.51182,0.94664 -1.39506,1.68947 -1.91141,2.7584c-0.06235,0.12474 -0.15603,0.23091 -0.27176,0.308c-0.38047,0.25968 -0.67186,0.58127 -0.87417,0.96476c-0.40161,0.76396 -0.62808,1.17915 -0.67941,1.24558c-0.75188,0.98137 -1.43431,1.75439 -2.04729,2.31905c-0.62808,0.57674 -1.42072,0.84851 -2.37793,0.81529c-0.14494,-0.00302 -0.25365,-0.06794 -0.32612,-0.19476c-0.462,-0.77302 -1.14745,-1.13537 -2.05635,-1.08706c-1.10517,-0.69149 -2.3568,-0.63261 -3.75487,0.17665c-1.17764,0.67941 -2.59988,1.22747 -3.36081,2.31452c-0.83643,1.19576 -1.06441,2.4806 -0.68394,3.85452c0.1389,0.51031 0.51333,0.72621 1.12329,0.6477c0.90286,0.51031 -44.27145,-0.05878 -45.10829,-1.55811c-0.0733,-0.12911 -0.18788,-0.23095 -0.32612,-0.28988c-0.6462,-0.26271 -1.1867,-0.67639 -1.62153,-1.24106c-0.23553,-0.308 -0.91494,-0.39406 -1.29541,-0.693c-2.52438,-1.96274 -4.40408,-3.8515 -5.6391,-5.66628c-0.69451,-1.02062 -1.28182,-1.85403 -1.76194,-2.50023c-0.6009,-0.81227 -1.15953,-1.66078 -1.67588,-2.54552c-0.71565,-1.22294 -1.63511,-2.31452 -2.22394,-3.48764c-0.81831,-1.64266 -1.48715,-3.33968 -2.00652,-5.09105c-0.16306,-0.54957 -0.38802,-1.16406 -0.67488,-1.84347c-0.32914,-0.77302 -0.51635,-1.40261 -0.56165,-1.88876c-0.26271,-3.01658 -0.81982,-6.21434 -0.84247,-8.99992c-0.01812,-2.04427 0.077,-4.0825 0.28535,-6.11469c0.17514,-1.70305 0.57976,-3.51934 1.21388,-5.44887c0.58278,-1.77552 1.18821,-3.54501 1.81629,-5.30846c0.16608,-0.45898 0.54202,-1.21841 1.12782,-2.27829c0.41368,-0.74584 0.71715,-1.54453 0.91041,-2.39605c0.03513,-0.16006 0.12892,-0.30076 0.26271,-0.39406c0.48012,-0.33518 0.81227,-0.77755 0.99647,-1.32711c0.04529,-0.14192 0.13437,-0.25063 0.26723,-0.32612c0.48012,-0.28082 0.84851,-0.66129 1.10517,-1.14141c0.22345,-0.42576 0.45143,-0.78057 0.68394,-1.06441c0.27479,-0.33518 0.49823,-0.70508 0.67035,-1.1097c0.06039,-0.13588 0.15098,-0.24761 0.27176,-0.33518c1.04176,-0.76094 1.67135,-1.87064 2.57723,-2.68593c0.80623,-0.72923 1.29541,-1.40864 2.24205,-2.11523c0.60392,-0.44992 1.07196,-1.00855 1.40411,-1.67588c0.31706,-0.64015 0.35933,-1.32258 0.12682,-2.04729c-0.28686,-0.88776 -0.75641,-1.70608 -1.40864,-2.45493c-0.09965,-0.11173 -0.21892,-0.14041 -0.35782,-0.08606l-1.29994,0.52541c-0.85455,0.01812 -1.62002,-0.07398 -2.29641,-0.27629c-1.9567,-0.58429 -2.55005,-2.67688 -1.92047,-4.4524c0.46653,-1.32258 1.75288,-1.83441 3.01205,-2.16505c0.0846,-0.0228 0.14846,-0.09236 0.16396,-0.17859c0.0155,-0.08624 -0.02013,-0.17368 -0.09149,-0.22452c-1.53094,-1.09008 -1.99143,-2.61497 -1.38147,-4.57469c0.53447,-1.71211 2.16052,-1.155 3.39705,-1.68041c0.14326,-0.06285 0.2499,-0.18615 0.28988,-0.33518c0.67639,-2.49117 2.3417,-3.53746 4.99593,-3.13887c1.93858,0.29441 2.12882,1.4947 2.97582,2.7584c0.08757,0.13286 0.20533,0.22647 0.35329,0.28082c2.16203,0.7549 3.42573,2.2647 3.79111,4.5294c0.0053,0.03793 0.03018,0.07026 0.06547,0.08513c0.0353,0.01486 0.07581,0.01006 0.10664,-0.01266c1.95368,-1.39808 3.38346,-3.19473 4.28934,-5.38999c0.70659,-1.71211 1.57623,-2.64064 3.46499,-2.09258c1.28031,0.37141 2.57723,1.01006 3.89075,1.91594c0.12716,0.08937 0.28527,0.12066 0.43482,0.08606c1.59435,-0.36235 2.86258,0.07096 3.8047,1.29994c0.41218,0.53447 0.57523,1.32711 1.078,1.89782c0.0774,0.0846 0.19902,0.1126 0.30563,0.07036c0.1066,-0.04224 0.17604,-0.14594 0.17449,-0.26059c-0.06039,-2.22544 0.97835,-3.43328 3.11623,-3.62352c2.38246,-0.21137 5.04424,-0.34574 7.98533,-0.40312c0.93759,-0.01812 1.52188,0.08153 2.2647,0.693c2.0956,1.72419 2.41115,3.77299 0.94664,6.1464c-0.08104,0.13062 -0.09851,0.29096 -0.04759,0.4367c0.05092,0.14574 0.16485,0.26146 0.3103,0.31518l3.43328,1.25917c0.12792,0.04578 0.27012,0.02632 0.38105,-0.05213c0.11092,-0.07846 0.17663,-0.20607 0.17607,-0.34193c-0.00906,-2.2798 0.03926,-4.62754 0.14494,-7.04322c0.05737,-1.26823 0.68998,-2.02464 1.89782,-2.26923c3.69599,-0.74282 5.58626,0.70659 5.67081,4.34822c0.00604,0.16004 0.06492,0.29743 0.17665,0.41218c0.54353,0.55259 1.31353,0.58429 1.83894,0.78359c1.48564,0.56617 4.38446,1.42223 4.8374,3.03017c0.18118,0.6462 0.09814,1.44035 -0.24912,2.38246c-0.44086,1.1867 -1.10215,2.2496 -1.98388,3.1887c-0.10267,0.11173 -0.231,0.16608 -0.385,0.16306zM212.35705,135.18431c0.07319,0.00231 0.1364,0.05188 0.15611,0.12241c0.0197,0.07052 -0.00866,0.14567 -0.07005,0.18559c-1.22898,0.81227 -2.51533,1.49017 -3.85905,2.0337c-1.7257,0.69753 -2.2647,1.25464 -1.58982,3.11623c0.79717,2.21488 3.88622,0.28535 5.38999,-0.23553c0.18118,-0.06341 0.26723,0.00151 0.25818,0.19476c-0.16306,3.27476 0.308,5.04122 4.10364,3.60087c0.38892,-0.14584 0.65769,-0.50656 0.68847,-0.924l0.20835,-3.02564c0.00653,-0.08293 0.05476,-0.15686 0.12804,-0.19625c0.07328,-0.03939 0.16155,-0.03883 0.23431,0.00149l2.86711,1.59435c0.52988,0.29397 1.19597,0.16646 1.58529,-0.30347c0.78359,-0.9557 2.54099,-3.86811 0.42576,-4.53846c-1.0478,-0.33215 -1.82837,-0.59184 -2.3417,-0.77906c-0.07923,-0.02961 -0.14016,-0.09445 -0.16427,-0.1748c-0.02411,-0.08035 -0.00853,-0.16672 0.04197,-0.23285c0.73376,-1.01006 1.91141,-1.45847 1.37694,-2.9577c-0.56467,-1.59133 -1.65021,-2.40964 -3.25664,-2.45493c-0.16306,-0.00604 -0.25818,-0.08908 -0.28535,-0.24912c-0.70659,-4.1444 -6.31851,-3.76393 -6.08751,0.54806c0.00374,0.06843 -0.02037,0.13539 -0.06665,0.18509c-0.04628,0.04971 -0.11064,0.07778 -0.17793,0.07761c-0.79717,0.01359 -2.59988,-0.01359 -3.13434,0.52994c-1.001,1.01459 -0.04982,2.91693 0.88323,3.61899c0.10871,0.08153 0.231,0.12682 0.36688,0.13588zM232.9477,134.01572c0.09311,0.00559 0.17671,0.05946 0.21959,0.1415c0.04288,0.08204 0.0386,0.17991 -0.01124,0.25709c-1.71513,2.66932 -3.8666,4.8691 -6.45439,6.59934c-0.77604,0.51635 -0.97986,1.1867 -0.61147,2.01105c0.76094,1.694 1.94764,2.04578 3.56011,1.05535c1.90235,-1.16556 3.67334,-2.49419 5.31299,-3.98587c2.08805,-1.89782 3.8817,-5.1001 4.41616,-7.84945c0.02651,-0.13595 0.01234,-0.27763 -0.04076,-0.40765c-1.1867,-2.96223 -2.02464,-2.58176 -4.74228,-2.35076c-0.154,0.01208 -0.2778,-0.04227 -0.37141,-0.16306c-1.08403,-1.37694 -2.51684,-2.07296 -4.2984,-2.08805c-0.34148,-0.00236 -0.6457,0.21078 -0.75641,0.52994c-0.91192,2.65121 -2.44285,4.87967 -4.59281,6.68539c-0.12198,0.10167 -0.19988,0.24611 -0.21741,0.40312c-0.19023,1.73929 1.38147,3.54652 3.10264,2.36888c1.16556,-0.80321 2.40813,-1.85102 3.7277,-3.1434c0.09059,-0.09059 0.19929,-0.13286 0.32612,-0.12682zM242.10162,144.27028c0.8787,0.15702 1.69097,0.01359 2.43682,-0.43029c0.13286,-0.07549 0.12682,-0.13739 -0.01812,-0.18571c-0.16004,-0.04832 -0.40312,-0.01057 -0.72923,0.11323c0.65223,-0.45898 1.078,-0.6779 1.27729,-0.65676c0.87267,-0.07549 1.57321,-0.49823 2.10164,-1.26823c0.08455,-0.1238 0.19627,-0.21288 0.33518,-0.26723c0.53749,-0.21741 0.97231,-0.56617 1.30447,-1.04629c0.08153,-0.11776 0.19326,-0.19023 0.33518,-0.21741l1.13688,-0.21741c0.89984,0.96325 1.77402,1.97784 2.62252,3.04376c1.10517,1.39053 2.10164,1.27729 3.13887,-0.07247c0.37678,-0.05096 1.34523,-2.85956 0.63865,-3.46046c-1.11725,-0.95117 -1.95368,-1.65625 -2.50929,-2.11523c-2.06541,-1.69852 -0.58882,-2.26923 0.12229,-3.9134c0.36235,-0.84549 0.58127,-1.72721 0.65676,-2.64517c0.01154,-0.13377 -0.02903,-0.26683 -0.11323,-0.37141l-1.60794,-2.05182c-0.09376,-0.11931 -0.23687,-0.18666 -0.385,-0.18118c-1.64568,0.04227 -4.42372,0.19627 -8.3341,0.462c-2.6814,0.18571 -2.75387,1.27276 -1.96123,3.47858c0.21439,0.59486 0.62053,0.89229 1.21841,0.89229c1.53094,0 3.02262,0.00302 4.47505,0.00906c0.07391,0.00035 0.14156,0.04158 0.17575,0.10711c0.03419,0.06553 0.02931,0.1446 -0.01269,0.20542c-1.98086,2.83843 -4.39503,5.18163 -7.24251,7.02963c-1.73023,1.12329 -0.56165,3.32005 0.93759,3.7594zM258.33045,139.66386c0.16004,0.33518 0.51031,0.56768 1.05082,0.69753c0.15418,0.03837 0.31199,-0.03861 0.37141,-0.18118c0.49823,-1.13839 0.4318,-2.25413 -0.19929,-3.34723c-0.06874,-0.12343 -0.18826,-0.20975 -0.32612,-0.23553c-0.67337,-0.13588 -1.10668,-0.26271 -1.29994,-0.38047c-0.87417,-0.52994 -2.57723,-1.59888 -3.42876,-1.155c-0.3231,0.16608 -0.462,0.48162 -0.4167,0.94664c0.01467,0.15043 0.08998,0.28795 0.20835,0.38047l3.75034,2.9124c0.12682,0.09663 0.22345,0.21741 0.28988,0.36235z" fill="#e3ac6a" stroke="none" stroke-width="1" stroke-linecap="butt"/><path d="M212.35705,135.18431l-2.31905,-0.12682c-0.13588,-0.00906 -0.25818,-0.05435 -0.36688,-0.13588c-0.93306,-0.70206 -1.88423,-2.6044 -0.88323,-3.61899c0.53447,-0.54353 2.33717,-0.51635 3.13434,-0.52994c0.06729,0.00017 0.13165,-0.0279 0.17793,-0.07761c0.04628,-0.04971 0.07039,-0.11666 0.06665,-0.18509c-0.231,-4.31199 5.38093,-4.69246 6.08751,-0.54806c0.02718,0.16004 0.12229,0.24308 0.28535,0.24912c1.60643,0.04529 2.69197,0.86361 3.25664,2.45493c0.53447,1.49923 -0.64317,1.94764 -1.37694,2.9577c-0.05051,0.06613 -0.06608,0.1525 -0.04197,0.23285c0.02411,0.08035 0.08503,0.14519 0.16427,0.1748c0.51333,0.18721 1.2939,0.4469 2.3417,0.77906c2.11523,0.67035 0.35782,3.58276 -0.42576,4.53846c-0.38932,0.46993 -1.05541,0.59744 -1.58529,0.30347l-2.86711,-1.59435c-0.07277,-0.04031 -0.16104,-0.04087 -0.23431,-0.00149c-0.07328,0.03939 -0.12151,0.11332 -0.12804,0.19625l-0.20835,3.02564c-0.03078,0.41744 -0.29955,0.77816 -0.68847,0.924c-3.79564,1.44035 -4.26669,-0.32612 -4.10364,-3.60087c0.00906,-0.19326 -0.077,-0.25818 -0.25818,-0.19476c-1.50376,0.52088 -4.59281,2.45041 -5.38999,0.23553c-0.67488,-1.86158 -0.13588,-2.4187 1.58982,-3.11623c1.34372,-0.54353 2.63007,-1.22143 3.85905,-2.0337c0.06139,-0.03992 0.08975,-0.11507 0.07005,-0.18559c-0.0197,-0.07052 -0.08292,-0.12009 -0.15611,-0.12241zM216.92269,129.95285c0,-0.92806 -0.75234,-1.68041 -1.68041,-1.68041c-0.92806,0 -1.68041,0.75234 -1.68041,1.68041c0,0.92806 0.75234,1.68041 1.68041,1.68041c0.92806,0 1.68041,-0.75234 1.68041,-1.68041zM216.68716,133.76207c0.38651,0.02416 0.42878,0.15702 0.12682,0.39859c-2.50325,2.01709 -5.20126,3.6054 -8.09404,4.76493c-0.67941,0.27176 -0.8787,0.66582 -0.51182,1.33617c0.09685,0.17944 0.31296,0.25606 0.49823,0.17665l5.03669,-2.10617c0.07396,-0.03014 0.15807,-0.02152 0.22438,0.02299c0.06631,0.04451 0.10615,0.11909 0.10627,0.19895l-0.04076,4.53393c0,0.18118 0.08908,0.26421 0.26723,0.24912l1.74382,-0.14041c0.16337,-0.01372 0.2902,-0.1464 0.29441,-0.308l0.13135,-4.80569c0.00197,-0.07688 0.04361,-0.14726 0.11004,-0.18601c0.06643,-0.03875 0.14818,-0.04035 0.21608,-0.00423l4.57016,2.45946c0.16004,0.08757 0.28233,0.04982 0.36688,-0.11323l1.001,-1.89329c0.03898,-0.07559 0.04219,-0.16461 0.00874,-0.24207c-0.03345,-0.07746 -0.09996,-0.13502 -0.18086,-0.15651l-4.92799,-1.38147c-0.08093,-0.02398 -0.14249,-0.09045 -0.15964,-0.17238c-0.01715,-0.08193 0.01297,-0.16566 0.07811,-0.21715l3.21134,-2.64064c0.16608,-0.13588 0.18571,-0.28988 0.05888,-0.462l-0.98741,-1.31353c-0.12079,-0.16004 -0.27931,-0.23251 -0.47559,-0.21741l-9.38039,0.67035c-0.16306,0.01208 -0.25365,0.09965 -0.27176,0.26271c-0.11323,1.078 0.73829,1.22747 1.63511,1.20029c1.84799,-0.04832 3.62956,-0.01963 5.34469,0.08606z" fill="#8d5e12" stroke="none" stroke-width="1" stroke-linecap="butt"/><path d="M232.9477,134.01572l-1.43129,-0.06341c-0.12682,-0.00604 -0.23553,0.03624 -0.32612,0.12682c-1.31956,1.29239 -2.56213,2.34019 -3.7277,3.1434c-1.72117,1.17764 -3.29287,-0.62959 -3.10264,-2.36888c0.01753,-0.15701 0.09543,-0.30145 0.21741,-0.40312c2.14996,-1.80572 3.68089,-4.03419 4.59281,-6.68539c0.11071,-0.31916 0.41493,-0.5323 0.75641,-0.52994c1.78156,0.0151 3.21437,0.71112 4.2984,2.08805c0.09361,0.12079 0.21741,0.17514 0.37141,0.16306c2.71764,-0.231 3.55558,-0.61147 4.74228,2.35076c0.05311,0.13001 0.06728,0.2717 0.04076,0.40765c-0.53447,2.74935 -2.32811,5.95163 -4.41616,7.84945c-1.63964,1.49168 -3.41064,2.82031 -5.31299,3.98587c-1.61247,0.99043 -2.79917,0.63865 -3.56011,-1.05535c-0.36839,-0.82435 -0.16457,-1.4947 0.61147,-2.01105c2.5878,-1.73023 4.73926,-3.93001 6.45439,-6.59934c0.04984,-0.07718 0.05412,-0.17505 0.01124,-0.25709c-0.04288,-0.08204 -0.12648,-0.13591 -0.21959,-0.1415zM234.63264,134.35995c-1.74835,3.21285 -4.15799,5.79914 -7.22892,7.75886c-0.12079,0.07851 -0.17514,0.19023 -0.16306,0.33518c0.04227,0.42274 0.21892,0.67639 0.52994,0.76094c0.22345,0.05737 0.52541,-0.00755 0.90588,-0.19476c4.26972,-2.0956 7.36933,-5.32507 9.29886,-9.68839c0.49823,-1.12329 -0.14041,-2.8354 -1.617,-2.74029c-1.36788,0.08757 -2.75237,0.18873 -4.15346,0.30347c-0.26271,0.02114 -0.31857,-0.07549 -0.16759,-0.28988l0.62959,-0.89229c0.06048,-0.08411 0.07928,-0.19121 0.05106,-0.29089c-0.02823,-0.09968 -0.10039,-0.18103 -0.196,-0.22093l-1.79817,-0.75188c-0.07831,-0.03345 -0.16705,-0.03302 -0.24571,0.00118c-0.07866,0.0342 -0.14042,0.09921 -0.171,0.17999c-0.9542,2.53948 -2.46097,4.6985 -4.52034,6.47704c-0.23846,0.21126 -0.28152,0.56736 -0.1003,0.82937c0.18122,0.26202 0.5296,0.34737 0.81142,0.1988c1.54,-0.84549 2.85503,-1.95368 3.94511,-3.32458c0.06865,-0.08585 0.17197,-0.13585 0.28082,-0.13588l4.25764,-0.03171c0.14117,-0.00151 0.27107,0.07596 0.33753,0.20129c0.06646,0.12533 0.05858,0.27796 -0.02047,0.39659c-0.19929,0.29592 -0.42123,0.66884 -0.66582,1.11876z" fill="#8d5e12" stroke="none" stroke-width="1" stroke-linecap="butt"/><path d="M272.36253,137.45806c-0.28686,0.2778 -0.4771,0.69602 -0.5707,1.25464c-0.07549,0.28082 -0.26271,0.52843 -0.56165,0.74282c-0.44992,0.21137 -0.83341,0.20382 -1.15047,-0.02265c-1.31956,-0.94514 -2.72368,-1.86913 -4.21234,-2.77199c-0.08783,-0.05516 -0.19843,-0.05919 -0.29004,-0.01058c-0.09161,0.04861 -0.15028,0.14246 -0.15384,0.24611c-0.06643,1.92349 -0.09361,3.90434 -0.08153,5.94257c0.00906,1.31353 -2.26017,1.50829 -3.17964,1.52641c-0.99647,-0.06341 -1.50074,-0.53447 -1.51282,-1.41317c-0.06341,-4.84948 -0.08153,-9.66121 -0.05435,-14.4352c0.00226,-0.32756 0.1368,-0.64029 0.37307,-0.86718c0.23627,-0.22688 0.5542,-0.34865 0.88158,-0.33764c0.79114,0.02718 1.617,0.11474 2.47758,0.26271c1.75288,0.30347 1.24106,2.72217 1.31353,4.01758c0.00604,0.154 0.08304,0.25818 0.231,0.31253c2.1409,0.79114 4.24556,1.64568 6.31398,2.56364c1.4177,0.62959 0.58429,1.97935 0.17665,2.9894zM264.35909,133.10078l0.12229,-4.08099c0.00604,-0.16129 -0.11173,-0.30065 -0.27176,-0.32159l-2.00652,-0.25365c-0.16306,-0.02114 -0.24459,0.04982 -0.24459,0.21288l-0.01812,14.24496c0,0.24761 0.12079,0.34726 0.36235,0.29894l1.54905,-0.31253c0.1748,-0.03384 0.30277,-0.18438 0.308,-0.36235l0.17212,-7.83133c0.00604,-0.18118 0.09059,-0.23251 0.25365,-0.154c2.06239,0.98137 3.9904,2.18166 5.78404,3.60087c0.06329,0.05181 0.1471,0.07122 0.22745,0.05267c0.08036,-0.01854 0.14841,-0.073 0.18473,-0.14779l1.06894,-2.16958c0.09965,-0.20533 0.04529,-0.35178 -0.16306,-0.43935c-2.00199,-0.84247 -4.00852,-1.60492 -6.01957,-2.28735c-0.38953,-0.13286 -0.76396,-0.11021 -1.12329,0.06794c-0.12682,0.06341 -0.18873,0.02416 -0.18571,-0.11776z" fill="#8d5e12" stroke="none" stroke-width="1" stroke-linecap="butt"/><path d="M213.56187,129.95285c0,-0.92806 0.75234,-1.68041 1.68041,-1.68041c0.92806,0 1.68041,0.75234 1.68041,1.68041c0,0.92806 -0.75234,1.68041 -1.68041,1.68041c-0.92806,0 -1.68041,-0.75234 -1.68041,-1.68041z" fill="#fefbe0" stroke="none" stroke-width="1" stroke-linecap="butt"/><path d="M257.34756,141.56169l-1.30447,1.50376c-1.03723,1.34976 -2.0337,1.463 -3.13887,0.07247c-0.84851,-1.06592 -1.72268,-2.0805 -2.62252,-3.04376c-0.40161,-0.45294 -0.72017,-0.57523 -0.9557,-0.36688c-0.54957,0.4771 -1.08555,0.91796 -1.60794,1.32258c-0.48012,0.09965 -0.90135,0.28082 -1.2637,0.54353c-0.46502,0.33215 -0.83794,0.5707 -1.11876,0.71565c-0.61298,0.31102 -1.16103,0.74735 -1.64417,1.309l-1.58982,0.65223c-1.49923,-0.43935 -2.66782,-2.63611 -0.93759,-3.7594c2.84748,-1.84799 5.26165,-4.1912 7.24251,-7.02963c0.042,-0.06082 0.04688,-0.1399 0.01269,-0.20542c-0.03419,-0.06553 -0.10184,-0.10676 -0.17575,-0.10711c-1.45243,-0.00604 -2.94411,-0.00906 -4.47505,-0.00906c-0.59788,0 -1.00402,-0.29743 -1.21841,-0.89229c-0.79264,-2.20582 -0.72017,-3.29287 1.96123,-3.47858c3.91038,-0.26573 6.68841,-0.41973 8.3341,-0.462c0.14812,-0.00548 0.29124,0.06187 0.385,0.18118l1.60794,2.05182c0.0842,0.10458 0.12477,0.23764 0.11323,0.37141c-0.07549,0.91796 -0.29441,1.79968 -0.65676,2.64517c-0.71112,1.64417 -2.1877,2.21488 -0.12229,3.9134c0.55561,0.45898 1.39203,1.16406 2.50929,2.11523c0.70659,0.6009 0.92853,1.25314 0.66582,1.9567zM250.37683,131.82799c0.10499,0.00218 0.20138,0.05847 0.25486,0.14884c0.05348,0.09037 0.05645,0.20196 0.00784,0.29504c-2.0805,3.8832 -5.00348,6.97377 -8.76892,9.27168c-0.29533,0.18615 -0.41461,0.55731 -0.28304,0.88066c0.13157,0.32335 0.47611,0.50578 0.81751,0.43286c2.21035,-0.50729 5.44887,-3.43781 7.1021,-5.03216c0.0975,-0.09168 0.24891,-0.09365 0.34876,-0.00453c1.66078,1.47356 3.07848,3.15095 4.25311,5.03216c0.05366,0.08666 0.1452,0.14276 0.24743,0.15165c0.10222,0.00889 0.20339,-0.03046 0.27345,-0.10635l1.60794,-1.74835c0.06902,-0.07541 0.10298,-0.17648 0.09349,-0.27827c-0.00949,-0.10179 -0.06154,-0.19484 -0.14331,-0.2562l-5.3311,-3.99946c-0.12682,-0.09663 -0.1389,-0.20684 -0.03624,-0.33065c1.20784,-1.48564 2.21035,-3.10113 3.00752,-4.84646c0.06145,-0.13899 0.04235,-0.30041 -0.04982,-0.42123l-1.04629,-1.34976c-0.09346,-0.12418 -0.24357,-0.19241 -0.39859,-0.18118l-8.65568,0.65223c-0.21439,0.01812 -0.29592,0.13135 -0.24459,0.3397l0.24459,1.01911c0.04529,0.1842 0.16306,0.2778 0.35329,0.28082z" fill="#8d5e12" stroke="none" stroke-width="1" stroke-linecap="butt"/><path d="M234.63264,134.35995c0.24459,-0.44992 0.46653,-0.82284 0.66582,-1.11876c0.07905,-0.11863 0.08693,-0.27127 0.02047,-0.39659c-0.06646,-0.12533 -0.19636,-0.20279 -0.33753,-0.20129l-4.25764,0.03171c-0.10885,0.00004 -0.21218,0.05003 -0.28082,0.13588c-1.09008,1.3709 -2.40511,2.47909 -3.94511,3.32458c-0.28181,0.14857 -0.6302,0.06322 -0.81142,-0.1988c-0.18122,-0.26202 -0.13816,-0.61811 0.1003,-0.82937c2.05937,-1.77855 3.56615,-3.93756 4.52034,-6.47704c0.03058,-0.08079 0.09235,-0.1458 0.171,-0.17999c0.07866,-0.0342 0.1674,-0.03462 0.24571,-0.00118l1.79817,0.75188c0.0956,0.0399 0.16777,0.12125 0.196,0.22093c0.02823,0.09968 0.00943,0.20679 -0.05106,0.29089l-0.62959,0.89229c-0.15098,0.21439 -0.09512,0.31102 0.16759,0.28988c1.40109,-0.11474 2.78558,-0.2159 4.15346,-0.30347c1.47658,-0.09512 2.11523,1.617 1.617,2.74029c-1.92952,4.36332 -5.02914,7.59278 -9.29886,9.68839c-0.38047,0.18721 -0.68243,0.25214 -0.90588,0.19476c-0.31102,-0.08455 -0.48767,-0.3382 -0.52994,-0.76094c-0.01208,-0.14494 0.04227,-0.25667 0.16306,-0.33518c3.07093,-1.95972 5.48057,-4.54601 7.22892,-7.75886z" fill="#fefbe0" stroke="none" stroke-width="1" stroke-linecap="butt"/><path d="M264.54479,133.21855c0.35933,-0.17815 0.73376,-0.2008 1.12329,-0.06794c2.01105,0.68243 4.01758,1.44488 6.01957,2.28735c0.20835,0.08757 0.26271,0.23402 0.16306,0.43935l-1.06894,2.16958c-0.03631,0.07479 -0.10437,0.12925 -0.18473,0.14779c-0.08036,0.01854 -0.16416,-0.00087 -0.22745,-0.05267c-1.79364,-1.41921 -3.72166,-2.6195 -5.78404,-3.60087c-0.16306,-0.07851 -0.24761,-0.02718 -0.25365,0.154l-0.17212,7.83133c-0.00523,0.17797 -0.1332,0.32851 -0.308,0.36235l-1.54905,0.31253c-0.24157,0.04832 -0.36235,-0.05133 -0.36235,-0.29894l0.01812,-14.24496c0,-0.16306 0.08153,-0.23402 0.24459,-0.21288l2.00652,0.25365c0.16004,0.02094 0.27781,0.1603 0.27176,0.32159l-0.12229,4.08099c-0.00302,0.14192 0.05888,0.18118 0.18571,0.11776z" fill="#fefbe0" stroke="none" stroke-width="1" stroke-linecap="butt"/><path d="M250.37683,131.82799l-6.34569,-0.04982c-0.19023,-0.00302 -0.308,-0.09663 -0.35329,-0.28082l-0.24459,-1.01911c-0.05133,-0.20835 0.0302,-0.32159 0.24459,-0.3397l8.65568,-0.65223c0.15501,-0.01124 0.30513,0.057 0.39859,0.18118l1.04629,1.34976c0.09217,0.12082 0.11127,0.28224 0.04982,0.42123c-0.79717,1.74533 -1.79968,3.36081 -3.00752,4.84646c-0.10267,0.1238 -0.09059,0.23402 0.03624,0.33065l5.3311,3.99946c0.08177,0.06136 0.13382,0.15441 0.14331,0.2562c0.00949,0.10179 -0.02446,0.20285 -0.09349,0.27827l-1.60794,1.74835c-0.07007,0.0759 -0.17123,0.11525 -0.27345,0.10635c-0.10222,-0.00889 -0.19376,-0.06499 -0.24743,-0.15165c-1.17462,-1.88121 -2.59232,-3.5586 -4.25311,-5.03216c-0.09986,-0.08912 -0.25126,-0.08715 -0.34876,0.00453c-1.65323,1.59435 -4.89175,4.52487 -7.1021,5.03216c-0.3414,0.07292 -0.68594,-0.1095 -0.81751,-0.43286c-0.13157,-0.32335 -0.01229,-0.69451 0.28304,-0.88066c3.76544,-2.29791 6.68841,-5.38848 8.76892,-9.27168c0.04861,-0.09308 0.04564,-0.20467 -0.00784,-0.29504c-0.05348,-0.09037 -0.14988,-0.14666 -0.25486,-0.14884z" fill="#fefbe0" stroke="none" stroke-width="1" stroke-linecap="butt"/><path d="M216.68716,133.76207c-1.71513,-0.10568 -3.4967,-0.13437 -5.34469,-0.08606c-0.89682,0.02718 -1.74835,-0.12229 -1.63511,-1.20029c0.01812,-0.16306 0.10871,-0.25063 0.27176,-0.26271l9.38039,-0.67035c0.19627,-0.0151 0.3548,0.05737 0.47559,0.21741l0.98741,1.31353c0.12682,0.17212 0.1072,0.32612 -0.05888,0.462l-3.21134,2.64064c-0.06514,0.05149 -0.09526,0.13522 -0.07811,0.21715c0.01715,0.08193 0.0787,0.1484 0.15964,0.17238l4.92799,1.38147c0.0809,0.0215 0.14741,0.07905 0.18086,0.15651c0.03345,0.07746 0.03023,0.16648 -0.00874,0.24207l-1.001,1.89329c-0.08455,0.16306 -0.20684,0.2008 -0.36688,0.11323l-4.57016,-2.45946c-0.0679,-0.03612 -0.14965,-0.03452 -0.21608,0.00423c-0.06643,0.03875 -0.10806,0.10913 -0.11004,0.18601l-0.13135,4.80569c-0.00421,0.1616 -0.13104,0.29428 -0.29441,0.308l-1.74382,0.14041c-0.17815,0.0151 -0.26723,-0.06794 -0.26723,-0.24912l0.04076,-4.53393c-0.00012,-0.07987 -0.03996,-0.15444 -0.10627,-0.19895c-0.06631,-0.04451 -0.15042,-0.05313 -0.22438,-0.02299l-5.03669,2.10617c-0.18527,0.07941 -0.40138,0.00279 -0.49823,-0.17665c-0.36688,-0.67035 -0.16759,-1.06441 0.51182,-1.33617c2.89278,-1.15953 5.59079,-2.74784 8.09404,-4.76493c0.30196,-0.24157 0.25968,-0.37443 -0.12682,-0.39859z" fill="#fefbe0" stroke="none" stroke-width="1" stroke-linecap="butt"/><path d="M258.04057,139.30153l-3.75034,-2.9124c-0.11838,-0.09252 -0.19369,-0.23004 -0.20835,-0.38047c-0.04529,-0.46502 0.09361,-0.78057 0.4167,-0.94664c0.85153,-0.44388 2.55458,0.62506 3.42876,1.155c0.19326,0.11776 0.62657,0.24459 1.29994,0.38047c0.13785,0.02578 0.25737,0.1121 0.32612,0.23553c0.63109,1.09309 0.69753,2.20884 0.19929,3.34723c-0.05943,0.14256 -0.21723,0.21954 -0.37141,0.18118c-0.54051,-0.12984 -0.89078,-0.36235 -1.05082,-0.69753c-0.06643,-0.14494 -0.16306,-0.26573 -0.28988,-0.36235z" fill="#e3ac6a" stroke="none" stroke-width="1" stroke-linecap="butt"/><path d="M271.23019,139.4555c0.45294,-0.12984 0.74735,-0.12833 0.88323,0.00453c0.14494,0.14494 0.10418,0.34121 -0.12229,0.58882c-0.48314,0.52541 -1.21992,0.69904 -2.21035,0.52088l-2.48664,-1.47658c-0.09828,-0.05773 -0.21745,-0.06775 -0.32399,-0.02724c-0.10654,0.0405 -0.18896,0.12716 -0.22407,0.2356c-0.154,0.47106 -0.04529,0.96929 0.32612,1.4947l-0.24912,-0.12229c-0.14625,-0.07368 -0.31981,-0.06853 -0.46142,0.0137c-0.14162,0.08223 -0.23213,0.23041 -0.24063,0.39395l-0.10871,2.10617c-0.00906,0.1842 -0.09361,0.31857 -0.25365,0.40312c-1.14745,0.60996 -2.34623,0.86814 -3.59634,0.77453c0.91947,-0.01812 3.1887,-0.21288 3.17964,-1.52641c-0.01208,-2.03823 0.0151,-4.01909 0.08153,-5.94257c0.00356,-0.10365 0.06222,-0.1975 0.15384,-0.24611c0.09161,-0.04861 0.20222,-0.04457 0.29004,0.01058c1.48866,0.90286 2.89278,1.82686 4.21234,2.77199c0.31706,0.22647 0.70055,0.23402 1.15047,0.02265z" fill="#e3ac6a" stroke="none" stroke-width="1" stroke-linecap="butt"/><path d="M272.36253,137.45806c0.13286,0.51333 -0.05737,0.93155 -0.5707,1.25464c0.09361,-0.55862 0.28384,-0.97684 0.5707,-1.25464z" fill="#c0a03a" stroke="none" stroke-width="1" stroke-linecap="butt"/><path d="M250.28171,140.09417l-1.13688,0.21741c-0.14192,0.02718 -0.25365,0.09965 -0.33518,0.21741c-0.33215,0.48012 -0.76698,0.82888 -1.30447,1.04629c-0.1389,0.05435 -0.25063,0.14343 -0.33518,0.26723c-0.52843,0.77 -1.22898,1.19274 -2.10164,1.26823l2.6497,-2.06088c0.52239,-0.40462 1.05837,-0.84549 1.60794,-1.32258c0.23553,-0.20835 0.5541,-0.08606 0.9557,0.36688z" fill="#8d5e12" stroke="none" stroke-width="1" stroke-linecap="butt"/><path d="M205.93436,165.23687l1.31806,-1.52641c0.37443,-0.29894 0.48615,-0.79114 0.33518,-1.47658c-0.03828,-0.17202 0.05589,-0.34689 0.22194,-0.41218c1.86007,-0.72168 3.28231,-1.55056 4.26669,-2.48664l1.10064,-0.88323l1.28182,-0.42576c4.9461,-0.59486 7.06133,-3.27173 6.34569,-8.03063c-0.01812,-0.10871 -0.06643,-0.19779 -0.14494,-0.26723l-1.60341,-1.386c-0.11726,-0.10025 -0.16954,-0.25709 -0.13588,-0.40765c0.10871,-0.51031 0.41973,-0.8002 0.93306,-0.86964c0.154,-0.02114 0.28082,-0.09059 0.38047,-0.20835c0.5707,-0.67639 1.11272,-1.09762 1.62605,-1.2637c0.81831,-0.26874 1.41015,-0.56768 1.77552,-0.89682c0.10871,-0.09663 0.23553,-0.13135 0.38047,-0.10418c0.93909,0.17815 1.84649,0.43784 2.72217,0.77906c2.08805,0.80623 2.69952,-0.15853 4.3754,-0.93759c1.13235,-0.52239 1.90235,-0.97382 2.30999,-1.35429c0.74282,-0.69451 1.55661,-1.28635 2.44135,-1.77552c0.1389,-0.07851 0.25214,-0.18118 0.3397,-0.308c0.22043,-0.32612 0.48918,-0.61147 0.80623,-0.85606c0.29904,-0.23047 0.69977,-0.27943 1.0463,-0.12782c0.34654,0.15161 0.58418,0.47985 0.62052,0.85705c0.19929,2.05182 1.25917,4.65169 3.80017,4.47958c0.79114,-0.05133 1.62153,-0.31857 2.49117,-0.8017c0.7247,-0.40462 1.47809,-0.73074 2.26017,-0.97835c0.82133,-0.26271 1.61549,-0.27176 2.38246,-0.02718c1.1867,0.38047 2.24658,1.01459 3.17964,1.90235c0.11776,0.10871 0.25667,0.17514 0.4167,0.19929c1.31956,0.19326 2.5259,0.6779 3.61899,1.45394c0.11422,0.08195 0.25499,0.12195 0.39859,0.11323c0.98741,-0.05888 3.05282,1.35429 3.87717,1.94311c0.11949,0.08547 0.27252,0.10901 0.41218,0.06341c0.1842,-0.06341 0.28082,-0.01661 0.28988,0.14041c0.00604,0.12984 0.06039,0.23704 0.16306,0.32159c0.96476,0.78812 1.97029,1.09159 2.76293,2.07446c0.67337,0.83945 1.41015,1.61247 2.21035,2.31905c1.01761,0.90588 1.75439,1.6638 2.21035,2.27376c2.54552,3.39403 4.61093,7.05983 6.19622,10.99738c0.35329,0.87568 0.66431,1.99143 0.93306,3.34723c0.30347,1.54 0.78359,3.09358 0.95117,4.55205c0.33215,2.95619 0.29441,5.89879 -0.11323,8.8278c-0.21439,1.54302 -0.43029,3.05131 -0.6477,4.52487c-0.22345,1.51282 -0.54504,3.0045 -0.96476,4.47505c-0.44841,1.58076 -1.33617,3.13434 -2.03823,4.69699c-0.42576,0.94514 -0.97231,1.85705 -1.63964,2.73576c-2.38699,3.12982 -3.4967,6.01957 -7.88116,6.78051c-0.14192,0.02416 -0.26573,0.08304 -0.37141,0.17665l-0.847,0.73376c-0.13096,0.11387 -0.31295,0.14537 -0.47106,0.08153c-0.57976,-0.22647 -1.00402,-0.02416 -1.27276,0.60694c-0.02962,0.06641 -0.09124,0.11318 -0.16252,0.12337c-0.07128,0.01018 -0.14189,-0.0177 -0.18624,-0.07354c-0.4469,-0.55259 -1.01761,-0.66582 -1.71211,-0.3397c-0.07462,0.03572 -0.16083,0.0384 -0.23752,0.00738c-0.07669,-0.03102 -0.1368,-0.09288 -0.16559,-0.17044c-0.05435,-0.14192 -0.12984,-0.14041 -0.22647,0.00453c-0.12984,0.19326 -0.20684,0.17514 -0.231,-0.05435l-0.02718,-0.31253c-0.01208,-0.12079 -0.03624,-0.1238 -0.07247,-0.00906c-0.26573,0.86361 -0.78359,1.55358 -1.55358,2.06994c-0.04227,0.02718 -0.07247,0.01661 -0.09059,-0.03171c-0.0151,-0.03926 -0.03171,-0.08002 -0.04982,-0.12229c-0.02416,-0.05133 -0.05133,-0.05284 -0.08153,-0.00453l-1.37241,2.31905c-0.04672,0.07908 -0.06434,0.17201 -0.04982,0.26271c0.09059,0.52239 -0.02718,0.97986 -0.35329,1.37241c-0.04035,0.04582 -0.04584,0.11355 -0.01359,0.16759l0.11776,0.17665c0.03692,0.05833 0.04395,0.13074 0.01892,0.19508c-0.02502,0.06434 -0.07912,0.11298 -0.14575,0.13104l-1.75288,0.47106c-0.15098,0.03926 -0.26723,0.12682 -0.34876,0.26271c-0.24157,0.40765 -1.26219,0.73829 -1.25011,0.73829c0.99647,0.08455 -22.61982,0.04076 -22.61982,0.04076c0.07353,-0.01656 0.12613,-0.08137 0.12721,-0.15674c0.00108,-0.07537 -0.04965,-0.14166 -0.12268,-0.16031c-4.17611,-0.96627 -7.90078,-2.87013 -11.17403,-5.71157c-2.20129,-1.91141 -4.26519,-3.96172 -6.19169,-6.15092c-0.45294,-0.50729 -1.078,-0.88323 -1.42223,-1.44035c-1.29541,-2.10466 -2.56968,-4.22291 -3.82281,-6.35475c-0.3231,-0.54655 -0.6477,-1.2335 -0.97382,-2.06088c-0.1842,-0.47408 -0.385,-0.94061 -0.60241,-1.39958c-0.24459,-0.52239 -0.42576,-0.99496 -0.54353,-1.4177c-0.35329,-1.27125 -0.56014,-2.19676 -0.62053,-2.77652c-0.21137,-2.06239 -0.40312,-5.31902 -0.57523,-9.76991c-0.01812,-0.47408 0.04379,-1.16255 0.18571,-2.06541c0.07247,-0.462 0.1072,-0.93004 0.10418,-1.40411c-0.01359,-1.55358 0.45294,-3.20229 0.73376,-4.72869c0.1238,-0.67941 0.34574,-1.27729 0.66582,-1.79364c0.3231,-0.52239 0.66884,-1.03421 1.03723,-1.53547c0.08455,-0.11474 0.14947,-0.24006 0.19476,-0.37594z" fill="#d2924a" stroke="none" stroke-width="1" stroke-linecap="butt"/><path d="M247.71807,141.04987l-2.6497,2.06088c-0.19929,-0.02114 -0.62506,0.19779 -1.27729,0.65676c0.08455,-0.03321 0.05133,-0.08304 -0.09965,-0.14947c0.48314,-0.56165 1.03119,-0.99798 1.64417,-1.309c0.28082,-0.14494 0.65374,-0.38349 1.11876,-0.71565c0.36235,-0.26271 0.78359,-0.44388 1.2637,-0.54353z" fill="#8d5e12" stroke="none" stroke-width="1" stroke-linecap="butt"/><path d="M267.33941,140.97287c11.12421,7.89474 19.06424,20.96206 20.15583,34.59102c1.20029,15.04214 -4.01305,28.75716 -14.96061,39.18384c-1.3709,1.30447 -2.44135,2.26923 -3.21134,2.89429c-16.35014,12.29812 -37.0615,13.35031 -54.1962,2.96826c-1.44405,-0.87496 -2.86268,-1.83113 -4.25117,-2.86862l-0.19476,-0.14041c-0.08455,-0.22345 -0.22949,-0.38802 -0.43482,-0.4937l-1.33617,-1.16859c-1.771,-1.56717 -3.54652,-3.13434 -5.03669,-4.92799c-11.10609,-13.32549 -14.6979,-31.00827 -8.56057,-47.5134c2.98638,-8.03213 7.87512,-14.84888 14.6662,-20.45024l1.29994,-0.52541c0.1389,-0.05435 0.25818,-0.02567 0.35782,0.08606c0.65223,0.74886 1.12178,1.56717 1.40864,2.45493c0.23251,0.7247 0.19023,1.40713 -0.12682,2.04729c-0.33215,0.66733 -0.8002,1.22596 -1.40411,1.67588c-0.94664,0.70659 -1.43582,1.386 -2.24205,2.11523c-0.90588,0.81529 -1.53547,1.92499 -2.57723,2.68593c-0.12079,0.08757 -0.21137,0.19929 -0.27176,0.33518c-0.17212,0.40462 -0.39557,0.77453 -0.67035,1.1097c-0.23251,0.28384 -0.46049,0.63865 -0.68394,1.06441c-0.25667,0.48012 -0.62506,0.86059 -1.10517,1.14141c-0.13286,0.07549 -0.22194,0.1842 -0.26723,0.32612c-0.1842,0.54957 -0.51635,0.99194 -0.99647,1.32711c-0.13378,0.0933 -0.22758,0.234 -0.26271,0.39406c-0.19326,0.85153 -0.49673,1.65021 -0.91041,2.39605c-0.5858,1.05988 -0.96174,1.81931 -1.12782,2.27829c-0.62808,1.76344 -1.2335,3.53293 -1.81629,5.30846c-0.63412,1.92952 -1.03874,3.74581 -1.21388,5.44887c-0.20835,2.03219 -0.30347,4.07042 -0.28535,6.11469c0.02265,2.78558 0.57976,5.98334 0.84247,8.99992c0.04529,0.48615 0.23251,1.11574 0.56165,1.88876c0.28686,0.67941 0.51182,1.2939 0.67488,1.84347c0.51937,1.75137 1.18821,3.44838 2.00652,5.09105c0.58882,1.17311 1.50829,2.2647 2.22394,3.48764c0.51635,0.88474 1.07498,1.73325 1.67588,2.54552c0.48012,0.6462 1.06743,1.47961 1.76194,2.50023c1.23502,1.81478 3.11472,3.70354 5.6391,5.66628c0.38047,0.29894 1.05988,0.385 1.29541,0.693c0.43482,0.56467 47.95879,3.59936 47.05593,3.08905c2.12429,0.17665 3.87264,-0.25365 5.43075,-1.56717c0.22345,-0.18721 0.51182,-0.36386 0.86512,-0.52994c0.97231,-0.46502 1.63511,-1.21841 1.98841,-2.26017c0.22345,-0.66431 0.19326,-1.20482 -0.09059,-1.62153c-0.2929,-0.4318 -0.79868,-0.77 -1.51735,-1.01459c0.9089,-0.04832 1.59435,0.31404 2.05635,1.08706c0.07247,0.12682 0.18118,0.19174 0.32612,0.19476c0.95721,0.03321 1.74986,-0.23855 2.37793,-0.81529c0.61298,-0.56467 1.29541,-1.33768 2.04729,-2.31905c0.05133,-0.06643 0.2778,-0.48162 0.67941,-1.24558c0.20231,-0.38349 0.4937,-0.70508 0.87417,-0.96476c0.11574,-0.07709 0.20941,-0.18326 0.27176,-0.308c0.51635,-1.06894 1.39958,-1.81176 1.91141,-2.7584c0.82737,-1.52188 1.67135,-3.03319 2.53193,-4.53393c0.69149,-1.20784 1.55056,-3.88925 2.57723,-8.04421c1.08706,-4.39956 1.37694,-8.43525 0.86964,-12.10708c-0.1389,-1.00251 -0.24006,-1.85856 -0.30347,-2.56817c-0.11474,-1.26823 -0.20835,-2.12127 -0.28082,-2.55911c-0.60996,-3.65372 -1.41166,-6.70049 -2.40511,-9.14033c-0.29894,-0.73074 -1.1248,-2.31452 -2.47758,-4.75134c-0.16004,-0.28384 -0.45294,-1.001 -0.8787,-2.15146c-0.26271,-0.71565 -0.65073,-1.35278 -1.16406,-1.91141c-0.94212,-1.02062 -1.43582,-1.56113 -1.48111,-1.62153c-2.18921,-2.82031 -4.72718,-5.28883 -7.61392,-7.40557c-0.44841,-0.32612 -0.5707,-0.58882 -0.86964,-1.0327c-0.08153,-0.12079 -0.12229,-0.25214 -0.12229,-0.39406c-0.00604,-0.93608 -0.00302,-1.87215 0.00906,-2.80823c0.00302,-0.43784 0.30498,-0.60845 0.90588,-0.51182z" fill="#fbc488" stroke="none" stroke-width="1" stroke-linecap="butt"/><path d="M197.14231,179.39335c0,-0.19794 0.00396,-0.1336 0.00396,-0.1336l43.01726,12.36315l43.83507,-12.32128c0,0 0.00872,-0.20197 0.00872,0.09174c0,23.98711 -19.4454,43.4325 -43.4325,43.4325c-23.98711,0 -43.4325,-19.4454 -43.4325,-43.4325z" fill="#e3ac6a" stroke="none" stroke-width="0" stroke-linecap="butt"/><path d="M242.10162,144.27028l1.58982,-0.65223c0.15098,0.06643 0.66885,-0.01208 0.82888,0.03624c0.14494,0.04832 0.15098,0.11021 0.01812,0.18571c-0.74584,0.44388 -1.55811,0.58731 -2.43682,0.43029z" fill="#8d5e12" stroke="none" stroke-width="1" stroke-linecap="butt"/><path d="M218.75256,148.98539l0.76094,0.8787c0.7549,1.76344 0.4152,3.63409 -1.01911,5.61193l-3.44234,2.15146c-0.17212,0.05435 -0.3699,0.18721 -0.59335,0.39859l-1.28182,0.42576c-1.5249,0.38349 -2.49872,0.01057 -2.92146,-1.11876c-0.462,-1.23502 -0.48615,-2.59232 -0.07247,-4.07193c1.75439,-1.9567 3.11925,-3.27929 4.09458,-3.96775c1.32258,-0.93306 2.81427,-1.03572 4.47505,-0.308z" fill="#f0eade" stroke="none" stroke-width="1" stroke-linecap="butt"/><path d="M215.05204,157.62748l3.44234,-2.15146c0.48012,-0.06039 0.82133,-0.35027 1.02364,-0.86964c0.54353,-1.40411 1.35882,-3.80922 -0.00453,-4.74228l-0.76094,-0.8787c0.38651,-0.21137 0.90588,0.08002 1.55811,0.87417c0.09361,0.11474 0.15098,0.2461 0.17212,0.39406c0.21137,1.42827 0.07851,2.80068 -0.39859,4.11722c-0.28988,0.80623 -0.80623,1.44488 -1.54905,1.91594c-1.05686,0.67337 -2.2179,1.12027 -3.48311,1.3407z" fill="#dfb872" stroke="none" stroke-width="1" stroke-linecap="butt"/><path d="M219.5135,149.86408c1.36335,0.93306 0.54806,3.33817 0.00453,4.74228c-0.20231,0.51937 -0.54353,0.80925 -1.02364,0.86964c1.43431,-1.97784 1.77402,-3.84848 1.01911,-5.61193z" fill="#d8c391" stroke="none" stroke-width="1" stroke-linecap="butt"/><path d="M210.18294,153.26114c-0.41368,1.47961 -0.38953,2.83691 0.07247,4.07193c0.42274,1.12933 1.39656,1.50225 2.92146,1.11876l-1.10064,0.88323c-0.16306,-0.09059 -0.33668,-0.05888 -0.52088,0.09512c-1.14141,0.19627 -1.98991,-0.06794 -2.54552,-0.79264c-0.56467,-0.73678 -0.65374,-1.76344 -0.26723,-3.07999c0.25063,-0.85756 0.73074,-1.62303 1.44035,-2.29641z" fill="#ecd09c" stroke="none" stroke-width="1" stroke-linecap="butt"/><path d="M207.25242,163.71046l-1.31806,1.52641l-0.616,0.41218c-0.12682,0.08455 -0.26271,0.10871 -0.40765,0.07247c-0.5707,-0.14192 -0.87417,-0.47861 -0.91041,-1.01006c-0.10267,-1.57623 0.47861,-2.75237 1.74382,-3.5284c0.1243,-0.07515 0.27529,-0.09485 0.4167,-0.05435c1.17161,0.3382 1.53547,1.19878 1.09159,2.58176z" fill="#fbe685" stroke="none" stroke-width="1" stroke-linecap="butt"/><path d="M267.49796,209.6431c0.71867,0.24459 1.22445,0.58278 1.51735,1.01459c0.28384,0.4167 0.31404,0.95721 0.09059,1.62153c-0.35329,1.04176 -1.01609,1.79515 -1.98841,2.26017c-0.35329,0.16608 -0.64167,0.34273 -0.86512,0.52994c-1.55811,1.31353 -3.30646,1.74382 -5.43075,1.56717c-0.60996,0.07851 -0.98439,-0.13739 -1.12329,-0.6477c-0.38047,-1.37392 -0.15249,-2.65876 0.68394,-3.85452c0.76094,-1.08706 2.18317,-1.63511 3.36081,-2.31452c1.39808,-0.80925 2.6497,-0.86814 3.75487,-0.17665zM265.2695,210.24551c-0.04227,0.04227 -0.07096,0.08908 -0.08606,0.14041c-0.04227,0.1842 0.01359,0.22194 0.16759,0.11323c0.22345,-0.15702 0.44841,-0.19476 0.67488,-0.11323c0.53447,0.18721 1.078,0.3548 1.63058,0.50276c0.13864,0.03547 0.26506,0.11447 0.36235,0.22647c0.35329,0.40462 0.45445,0.89229 0.30347,1.463c-0.02285,0.11083 0.03795,0.2219 0.14362,0.26237c0.10568,0.04047 0.22512,-0.00157 0.28214,-0.09931c0.38953,-0.75641 0.4167,-1.50376 -0.21288,-2.16052c-1.00553,-1.04176 -2.25564,-1.37543 -3.75034,-1.001c-0.13074,0.0325 -0.22869,0.14107 -0.24761,0.27446c-0.01891,0.13339 0.045,0.26491 0.16155,0.33248c0.17815,0.10267 0.35329,0.11021 0.52541,0.02265c0.12079,-0.06341 0.13588,-0.05133 0.04529,0.03624zM268.00072,212.14333l0.02718,1.01459c-0.00182,0.0452 0.02998,0.08481 0.07451,0.09281c0.04452,0.00799 0.08812,-0.01809 0.10213,-0.0611c0.462,-1.23653 -0.01812,-2.29641 -1.47205,-2.09711c-0.08749,0.01023 -0.15576,0.08051 -0.16344,0.16826c-0.00768,0.08775 0.04735,0.16882 0.13173,0.19409l1.0327,0.33065c0.1554,0.0513 0.26216,0.19426 0.26723,0.35782z" fill="#f2dea1" stroke="none" stroke-width="1" stroke-linecap="butt"/><path d="M265.2242,210.20928c-0.17212,0.08757 -0.34726,0.08002 -0.52541,-0.02265c-0.11656,-0.06757 -0.18046,-0.19909 -0.16155,-0.33248c0.01891,-0.13339 0.11686,-0.24196 0.24761,-0.27446c1.4947,-0.37443 2.74482,-0.04076 3.75034,1.001c0.62959,0.65676 0.60241,1.40411 0.21288,2.16052c-0.05703,0.09774 -0.17647,0.13978 -0.28214,0.09931c-0.10568,-0.04047 -0.16648,-0.15154 -0.14362,-0.26237c0.15098,-0.5707 0.04982,-1.05837 -0.30347,-1.463c-0.0973,-0.112 -0.22371,-0.191 -0.36235,-0.22647c-0.55259,-0.14796 -1.09611,-0.31555 -1.63058,-0.50276c-0.22647,-0.08153 -0.45143,-0.04379 -0.67488,0.11323c-0.154,0.10871 -0.20986,0.07096 -0.16759,-0.11323c0.0151,-0.05133 0.04379,-0.09814 0.08606,-0.14041c0.09059,-0.08757 0.07549,-0.09965 -0.04529,-0.03624z" fill="#fbedb4" stroke="none" stroke-width="1" stroke-linecap="butt"/><path d="M267.73348,211.78551l-1.0327,-0.33065c-0.08439,-0.02526 -0.13941,-0.10634 -0.13173,-0.19409c0.00768,-0.08775 0.07595,-0.15804 0.16344,-0.16826c1.45394,-0.19929 1.93405,0.86059 1.47205,2.09711c-0.01401,0.04301 -0.05761,0.06909 -0.10213,0.0611c-0.04452,-0.00799 -0.07633,-0.04761 -0.07451,-0.09281l-0.02718,-1.01459c-0.00507,-0.16357 -0.11184,-0.30652 -0.26723,-0.35782z" fill="#fbedb4" stroke="none" stroke-width="1" stroke-linecap="butt"/><path d="M202.55881,180.24662c0,-0.1708 0.00342,-0.11529 0.00342,-0.11529l74.94542,0.03612c0,0 0.00752,-0.17429 0.00752,0.07916c0,20.69863 -16.77955,37.47818 -37.47818,37.47818c-20.69863,0 -37.47818,-16.77955 -37.47818,-37.47818z" fill="#d2924a" stroke="none" stroke-width="0" stroke-linecap="butt"/><path d="M248.20194,140.389c0,0 -0.93404,0.93778 -1.94896,1.72911c-0.98104,0.76492 -1.98435,1.28961 -1.98435,1.28961" fill="none" stroke="#8d5e12" stroke-width="1" stroke-linecap="round"/></g></g></svg>