<svg version="1.1" xmlns="http://www.w3.org/2000/svg" xmlns:xlink="http://www.w3.org/1999/xlink" width="100" height="100" viewBox="0,0,100,100"><g transform="translate(-190,-130)"><g data-paper-data="{&quot;isPaintingLayer&quot;:true}" fill-rule="nonzero" stroke="none" stroke-linecap="butt" stroke-linejoin="miter" stroke-miterlimit="10" stroke-dasharray="" stroke-dashoffset="0" style="mix-blend-mode: normal"><path d="M190,180c0,-27.61424 22.38576,-50 50,-50c27.61424,0 50,22.38576 50,50c0,27.61424 -22.38576,50 -50,50c-27.61424,0 -50,-22.38576 -50,-50z" fill="none" stroke-width="0"/><path d="M238.34136,184.5634c-2.24734,-1.32374 -2.35905,-4.44467 -1.78054,-6.69702c0.53183,-2.01894 2.18732,-3.06592 4.22795,-2.66747c1.48933,0.2912 2.40962,1.30373 2.76083,3.03758c0.36844,1.81387 0.3101,4.7431 -1.31706,5.97013c-1.092,0.82191 -2.62746,0.84025 -3.89118,0.35677zM240.37364,176.18254c-2.38739,-0.57685 -2.01894,4.0879 -1.96393,5.21657c0.06335,1.27372 0.60685,2.93755 2.17566,2.28402c0.23007,-0.09558 0.42069,-0.26619 0.57184,-0.51182c0.19784,-0.32121 0.30675,-0.56406 0.32677,-0.72855c0.18227,-1.46933 0.20451,-2.94311 0.06669,-4.42133c-0.06502,-0.71522 -0.40012,-1.6505 -1.17702,-1.83889z" fill="#5486af" stroke-width="1"/></g></g></svg>