<svg version="1.1" xmlns="http://www.w3.org/2000/svg" xmlns:xlink="http://www.w3.org/1999/xlink" width="100" height="100" viewBox="0,0,100,100"><defs><linearGradient x1="240" y1="171.61895" x2="240" y2="188.38103" gradientUnits="userSpaceOnUse" id="color-1"><stop offset="0" stop-color="#ffffdc"/><stop offset="1" stop-color="#ffc64c"/></linearGradient></defs><g transform="translate(-190,-130)"><g data-paper-data="{&quot;isPaintingLayer&quot;:true}" fill-rule="nonzero" stroke-linecap="butt" stroke-linejoin="miter" stroke-miterlimit="10" stroke-dasharray="" stroke-dashoffset="0" style="mix-blend-mode: normal"><path d="M190,180c0,-27.61424 22.38576,-50 50,-50c27.61424,0 50,22.38576 50,50c0,27.61424 -22.38576,50 -50,50c-27.61424,0 -50,-22.38576 -50,-50z" fill="none" stroke="none" stroke-width="0"/><path d="M237.54484,177.79149c-0.03564,0.09985 -0.01909,0.21106 0.04392,0.29509c0.06301,0.08401 0.16379,0.12924 0.2674,0.12001c0.79776,-0.05837 1.49173,-0.52535 2.1857,-0.58372c7.9321,-0.64858 7.72456,9.68973 1.53713,10.64963c-2.49053,0.38266 -9.5211,-0.05189 -7.25109,-4.52708c0.12539,-0.25078 0.32428,-0.34158 0.5967,-0.2724l1.95221,0.49292c0.10435,0.02928 0.19267,0.09668 0.24645,0.18808c1.82899,3.0548 5.90206,0.92747 5.2405,-2.43216c-0.57075,-2.90562 -4.20278,-0.69398 -5.48048,0.07134c-0.54559,0.32915 -1.22316,0.35063 -1.78849,0.05671c-0.56534,-0.29392 -0.93697,-0.86088 -0.98094,-1.49655c-0.11674,-1.69927 0.73289,-3.96929 1.03773,-5.701c0.03026,-0.19458 0.01081,-0.38699 -0.05837,-0.57723l-0.58372,-1.5955c-0.08348,-0.22981 0.00934,-0.48644 0.22051,-0.60966c0.8626,-0.48644 1.56956,-0.22051 2.37379,0.4086c2.38677,1.86142 5.37021,-1.16096 8.04884,0.8691c0.78695,0.5967 0.88423,1.28203 0.29186,2.056c-0.09513,0.12107 -0.22051,0.18808 -0.37618,0.20106l-6.49225,0.53833c-0.25078,0.02162 -0.41941,0.15133 -0.50589,0.38914l-0.52535,1.4593" fill="none" stroke="#9c5925" stroke-width="2"/><path d="M237.85615,178.20658c0.79776,-0.05837 1.49173,-0.52535 2.1857,-0.58372c7.9321,-0.64858 7.72456,9.68973 1.53713,10.64963c-2.49053,0.38266 -9.5211,-0.05189 -7.25109,-4.52708c0.12539,-0.25078 0.32428,-0.34158 0.5967,-0.2724l1.95221,0.49292c0.10435,0.02928 0.19267,0.09668 0.24645,0.18808c1.82899,3.0548 5.90206,0.92747 5.2405,-2.43216c-0.57075,-2.90562 -4.20278,-0.69398 -5.48048,0.07134c-0.54559,0.32915 -1.22316,0.35063 -1.78849,0.05671c-0.56534,-0.29392 -0.93697,-0.86088 -0.98094,-1.49655c-0.11674,-1.69927 0.73289,-3.96929 1.03773,-5.701c0.03026,-0.19458 0.01081,-0.38699 -0.05837,-0.57723l-0.58372,-1.5955c-0.08348,-0.22981 0.00934,-0.48644 0.22051,-0.60966c0.8626,-0.48644 1.56956,-0.22051 2.37379,0.4086c2.38677,1.86142 5.37021,-1.16096 8.04884,0.8691c0.78695,0.5967 0.88423,1.28203 0.29186,2.056c-0.09513,0.12107 -0.22051,0.18808 -0.37618,0.20106l-6.49225,0.53833c-0.25078,0.02162 -0.41941,0.15133 -0.50589,0.38914l-0.52535,1.4593c-0.03564,0.09985 -0.01909,0.21106 0.04392,0.29509c0.06301,0.08401 0.16379,0.12924 0.2674,0.12001z" fill="url(#color-1)" stroke="none" stroke-width="1"/></g></g></svg>