<svg version="1.1" xmlns="http://www.w3.org/2000/svg" xmlns:xlink="http://www.w3.org/1999/xlink" width="100" height="100" viewBox="0,0,100,100"><g transform="translate(-190,-130)"><g data-paper-data="{&quot;isPaintingLayer&quot;:true}" fill-rule="nonzero" stroke="none" stroke-linecap="butt" stroke-linejoin="miter" stroke-miterlimit="10" stroke-dasharray="" stroke-dashoffset="0" style="mix-blend-mode: normal"><path d="M190,180c0,-27.61424 22.38576,-50 50,-50c27.61424,0 50,22.38576 50,50c0,27.61424 -22.38576,50 -50,50c-27.61424,0 -50,-22.38576 -50,-50z" fill="none" stroke-width="0"/><path d="M236.14906,179.61152c-1.98726,-1.36206 -2.65936,-3.10147 -2.01629,-5.21823c1.17897,-3.85171 7.58286,-2.9943 10.10824,-2.35792c1.4469,0.36843 1.25263,1.72825 1.39331,2.79334c0.24561,1.85328 -0.52472,3.13049 -2.31102,3.83161c-0.18753,0.07341 -0.31202,0.25299 -0.31495,0.45435c-0.00293,0.20136 0.11624,0.3845 0.30155,0.46335c3.94549,1.67465 4.43449,7.53596 -0.25454,8.60103c-2.77324,0.62968 -7.55606,0.65647 -9.02305,-2.33782c-1.29953,-2.66606 0.43542,-3.98567 2.16365,-5.64694c0.22329,-0.21436 0.20765,-0.40862 -0.04689,-0.58279zM242.11081,176.08135c0.40459,-0.30347 0.57529,-0.82817 0.42665,-1.31161c-0.14863,-0.48342 -0.58461,-0.82162 -1.08982,-0.84537l-2.90051,-0.13397c-0.37861,-0.01868 -0.74375,0.1428 -0.98471,0.43542l-0.4555,0.55599c-0.21022,0.25332 -0.30705,0.58194 -0.26779,0.90877c0.03928,0.32685 0.2112,0.62317 0.47545,0.81947l1.4134,1.04499c0.42671,0.31509 1.00975,0.31237 1.4335,-0.0067zM237.59595,185.62018c3.8718,2.23733 7.22783,-2.82681 2.17036,-4.29381c-0.18917,-0.05137 -0.39087,-0.02735 -0.56269,0.06699c-0.99587,0.54036 -1.73048,1.30847 -2.20385,2.30432c-0.33005,0.69627 -0.0713,1.53066 0.59618,1.92251z" fill="#fff1af" stroke-width="1"/><path d="M242.11081,176.08135l-1.9493,1.467c-0.42375,0.31908 -1.00679,0.32179 -1.4335,0.0067l-1.4134,-1.04499c-0.26426,-0.19631 -0.43618,-0.49265 -0.47545,-0.81947c-0.03928,-0.32684 0.05756,-0.65546 0.26779,-0.90877l0.4555,-0.55599c0.24095,-0.29262 0.60609,-0.45408 0.98471,-0.43542l2.90051,0.13397c0.50521,0.02375 0.94118,0.36193 1.08982,0.84537c0.14863,0.48342 -0.02206,1.00813 -0.42666,1.31161z" fill="none" stroke-width="1"/></g></g></svg>