<svg version="1.1" xmlns="http://www.w3.org/2000/svg" xmlns:xlink="http://www.w3.org/1999/xlink" width="92.03659" height="101.61047" viewBox="0,0,92.03659,101.61047"><g transform="translate(-193.9817,-146.62499)"><g data-paper-data="{&quot;isPaintingLayer&quot;:true}" fill-rule="nonzero" stroke-linejoin="miter" stroke-miterlimit="10" stroke-dasharray="" stroke-dashoffset="0" style="mix-blend-mode: normal"><path d="M194.98171,198.37621c0,-7.54658 0,-26.6505 0,-39.14704c0,-6.77238 4.14241,-11.60417 10.83601,-11.60417c24.02935,0 48.43685,0.75 64.60545,0.75c8.82474,0 14.59513,8.33035 14.59513,14.65366c0,7.28405 0,24.86805 0,36.95051c0,7.16534 -6.82819,12.39584 -17.15111,12.39584c-28.00176,0 -49.21808,-0.75 -62.11475,-0.75c-5.47948,0 -10.77072,-6.8092 -10.77072,-13.24879z" fill="#afdeb5" stroke="#426547" stroke-width="2" stroke-linecap="butt"/><path d="" data-paper-data="{&quot;index&quot;:null}" fill="#fd96ff" stroke="none" stroke-width="2" stroke-linecap="butt"/><text transform="translate(198.10565,189.35463) scale(0.15713,0.14174)" font-size="40" xml:space="preserve" fill="#426547" fill-rule="nonzero" stroke="#426547" stroke-width="2" stroke-linecap="butt" stroke-linejoin="miter" stroke-miterlimit="10" stroke-dasharray="" stroke-dashoffset="0" font-family="Sans Serif" font-weight="normal" text-anchor="start" style="mix-blend-mode: normal"><tspan x="0" dy="0">チャットポイントに交換する</tspan></text><text transform="translate(201.75503,202.16976) scale(0.15713,0.14174)" font-size="40" xml:space="preserve" fill="#ff0000" fill-rule="nonzero" stroke="#ff0000" stroke-width="2" stroke-linecap="butt" stroke-linejoin="miter" stroke-miterlimit="10" stroke-dasharray="" stroke-dashoffset="0" font-family="Sans Serif" font-weight="normal" text-anchor="start" style="mix-blend-mode: normal"><tspan x="0" dy="0">※ 2ポイントから交換可能</tspan></text><text transform="translate(240.5395,224.48546) scale(0.5,0.5)" font-size="40" xml:space="preserve" fill="#ff0000" fill-rule="nonzero" stroke="none" stroke-width="1" stroke-linecap="butt" stroke-linejoin="miter" stroke-miterlimit="10" stroke-dasharray="" stroke-dashoffset="0" font-family="Sans Serif" font-weight="normal" text-anchor="start" style="mix-blend-mode: normal"><tspan x="0" dy="0"> </tspan></text><g><path d="" data-paper-data="{&quot;index&quot;:null}" fill="#fd96ff" stroke="none" stroke-width="2" stroke-linecap="butt"/><path d="M231.79364,166.54154c0,-6.06036 2.17077,-12.66862 8.62306,-12.66862c6.4523,0 8.62306,6.60826 8.62306,12.66862c0,6.06036 -2.17077,8.91683 -8.62306,8.91683c-6.4523,0 -8.62306,-2.85647 -8.62306,-8.91683z" data-paper-data="{&quot;index&quot;:null}" fill="#ffe299" stroke="#260e00" stroke-width="1.5" stroke-linecap="butt"/><path d="M248.85089,165.26315l-3.26786,2.7699" data-paper-data="{&quot;index&quot;:null}" fill="none" stroke="#260e00" stroke-width="2" stroke-linecap="round"/><path d="M242.76303,179.25908c-0.67147,0 -1.2158,-0.27686 -1.2158,-0.94832c0,-0.67147 0.54433,-1.2158 1.2158,-1.2158c0.67147,0 1.2158,0.54433 1.2158,1.2158c0,0.67147 -0.54433,0.94832 -1.2158,0.94832z" data-paper-data="{&quot;index&quot;:null}" fill="#260e00" stroke="none" stroke-width="2" stroke-linecap="butt"/><g data-paper-data="{&quot;index&quot;:null}"><path d="M241.82493,165.07796c0,-0.61071 0.66922,-0.84459 1.27994,-0.84459c0.61071,0 1.27994,0.23387 1.27994,0.84459c0,0.61071 -0.66922,0.87941 -1.27994,0.87941c-0.61071,0 -1.27994,-0.2687 -1.27994,-0.87941z" data-paper-data="{&quot;index&quot;:null}" fill-opacity="0.4" fill="#ff99b8" stroke="none" stroke-width="2" stroke-linecap="butt"/><path d="M236.44857,165.06664c0,-0.61071 0.66922,-0.84458 1.27994,-0.84458c0.61071,0 1.27994,0.23387 1.27994,0.84458c0,0.61071 -0.66922,0.87941 -1.27994,0.87941c-0.61071,0 -1.27994,-0.2687 -1.27994,-0.87941z" data-paper-data="{&quot;index&quot;:null}" fill-opacity="0.4" fill="#ff99b8" stroke="none" stroke-width="2" stroke-linecap="butt"/><path d="M241.44699,165.13396c-0.60383,0.60918 -1.56297,0.54434 -2.06057,0" data-paper-data="{&quot;index&quot;:null}" fill="none" stroke="#260e00" stroke-width="1.5" stroke-linecap="round"/><path d="M241.00884,161.78216c0,-1.03933 0.08178,-1.88188 1.12112,-1.88188c1.03933,0 1.11617,0.84255 1.11617,1.88188c0,1.03933 -0.07684,1.88188 -1.11617,1.88188c-1.03933,0 -1.12112,-0.84255 -1.12112,-1.88188z" data-paper-data="{&quot;index&quot;:null}" fill="#fff066" stroke="#260e00" stroke-width="0.5" stroke-linecap="butt"/><path d="M238.70341,163.66404c-1.03933,0 -1.11617,-0.84255 -1.11617,-1.88188c0,-1.03933 0.07684,-1.88188 1.11617,-1.88188c1.03934,0 1.12112,0.84255 1.12112,1.88188c0,1.03933 -0.08179,1.88188 -1.12112,1.88188z" data-paper-data="{&quot;index&quot;:null}" fill="#fff066" stroke="#260e00" stroke-width="0.5" stroke-linecap="butt"/></g><path d="M242.75982,175.58701v2.56209" data-paper-data="{&quot;index&quot;:null}" fill="none" stroke="#260e00" stroke-width="1" stroke-linecap="round"/><path d="M238.04692,179.26425c-0.67147,0 -1.2158,-0.27686 -1.2158,-0.94832c0,-0.67147 0.54433,-1.2158 1.2158,-1.2158c0.67147,0 1.2158,0.54433 1.2158,1.2158c0,0.67147 -0.54433,0.94832 -1.2158,0.94832z" data-paper-data="{&quot;index&quot;:null}" fill="#260e00" stroke="none" stroke-width="2" stroke-linecap="butt"/><path d="M238.04371,175.59219v2.56209" data-paper-data="{&quot;index&quot;:null}" fill="none" stroke="#260e00" stroke-width="1" stroke-linecap="round"/><path d="M235.29273,168.03887l-3.26786,-2.7699" data-paper-data="{&quot;index&quot;:null}" fill="none" stroke="#260e00" stroke-width="2" stroke-linecap="round"/></g></g></g></svg>