<svg version="1.1" xmlns="http://www.w3.org/2000/svg" xmlns:xlink="http://www.w3.org/1999/xlink" width="92.03659" height="66.75001" viewBox="0,0,92.03659,66.75001"><g transform="translate(-193.98177,-146.62501)"><g data-paper-data="{&quot;isPaintingLayer&quot;:true}" fill-rule="nonzero" stroke-linejoin="miter" stroke-miterlimit="10" stroke-dasharray="" stroke-dashoffset="0" style="mix-blend-mode: normal"><path d="M194.98178,198.37622c0,-7.54658 0,-26.6505 0,-39.14704c0,-6.77238 4.14241,-11.60417 10.83601,-11.60417c24.02935,0 48.43685,0.75 64.60545,0.75c8.82474,0 14.59513,8.33035 14.59513,14.65366c0,7.28405 0,24.86805 0,36.95051c0,7.16534 -6.82819,12.39584 -17.15111,12.39584c-28.00176,0 -49.21808,-0.75 -62.11475,-0.75c-5.47948,0 -10.77072,-6.8092 -10.77072,-13.24879z" fill="#afdeb5" stroke="#426547" stroke-width="2" stroke-linecap="butt"/><text transform="translate(202.43945,207.6236) scale(0.18957,0.18957)" font-size="40" xml:space="preserve" fill="#426547" fill-rule="nonzero" stroke="#426547" stroke-width="2" stroke-linecap="butt" stroke-linejoin="miter" stroke-miterlimit="10" stroke-dasharray="" stroke-dashoffset="0" font-family="Sans Serif" font-weight="normal" text-anchor="start" style="mix-blend-mode: normal"><tspan x="0" dy="0">タマコちゃんアイコン</tspan></text><path d="" data-paper-data="{&quot;index&quot;:null}" fill="#fd96ff" stroke="none" stroke-width="2" stroke-linecap="butt"/><path d="M216.75001,197.61719v-45.45052h45.92895v45.45052z" fill="#b2ffba" stroke="#000000" stroke-width="1" stroke-linecap="butt"/><g><path d="" data-paper-data="{&quot;index&quot;:null}" fill="#fd96ff" stroke="none" stroke-width="2" stroke-linecap="butt"/><path d="M227.21029,175.74635c0,-8.98873 3.21968,-18.7901 12.78973,-18.7901c9.57005,0 12.78973,9.80137 12.78973,18.7901c0,8.98873 -3.21968,13.22545 -12.78973,13.22545c-9.57005,0 -12.78973,-4.23671 -12.78973,-13.22545z" data-paper-data="{&quot;index&quot;:null}" fill="#ffe299" stroke="#260e00" stroke-width="2" stroke-linecap="butt"/><path d="M247.66272,177.95855l4.84689,-4.10832" data-paper-data="{&quot;index&quot;:null}" fill="none" stroke="#260e00" stroke-width="2" stroke-linecap="round"/><path d="M243.4801,194.609c-0.99592,0 -1.80327,-0.41064 -1.80327,-1.40655c0,-0.99592 0.80735,-1.80327 1.80327,-1.80327c0.99592,0 1.80327,0.80735 1.80327,1.80327c0,0.99592 -0.80735,1.40655 -1.80327,1.40655z" data-paper-data="{&quot;index&quot;:null}" fill="#260e00" stroke="none" stroke-width="2" stroke-linecap="butt"/><g data-paper-data="{&quot;index&quot;:null}"><path d="M242.08871,173.57556c0,-0.90581 0.99258,-1.25269 1.8984,-1.25269c0.90581,0 1.8984,0.34687 1.8984,1.25269c0,0.90581 -0.99259,1.30434 -1.8984,1.30434c-0.90581,0 -1.8984,-0.39853 -1.8984,-1.30434z" data-paper-data="{&quot;index&quot;:null}" fill-opacity="0.4" fill="#ff99b8" stroke="none" stroke-width="2" stroke-linecap="butt"/><path d="M234.11449,173.55878c0,-0.90581 0.99259,-1.25268 1.8984,-1.25268c0.90581,0 1.8984,0.34687 1.8984,1.25268c0,0.90581 -0.99259,1.30434 -1.8984,1.30434c-0.90581,0 -1.8984,-0.39853 -1.8984,-1.30434z" data-paper-data="{&quot;index&quot;:null}" fill-opacity="0.4" fill="#ff99b8" stroke="none" stroke-width="2" stroke-linecap="butt"/><path d="M241.52814,173.65862c-0.8956,0.90353 -2.3182,0.80736 -3.05624,0" data-paper-data="{&quot;index&quot;:null}" fill="none" stroke="#260e00" stroke-width="1.5" stroke-linecap="round"/><path d="M240.87828,168.68723c0,-1.54154 0.1213,-2.79121 1.66285,-2.79121c1.54154,0 1.65551,1.24967 1.65551,2.79121c0,1.54154 -0.11397,2.79121 -1.65551,2.79121c-1.54154,0 -1.66285,-1.24967 -1.66285,-2.79121z" data-paper-data="{&quot;index&quot;:null}" fill="#fff066" stroke="#260e00" stroke-width="1" stroke-linecap="butt"/><path d="M237.45886,171.47844c-1.54154,0 -1.65551,-1.24967 -1.65551,-2.79121c0,-1.54154 0.11397,-2.79121 1.65551,-2.79121c1.54155,0 1.66285,1.24967 1.66285,2.79121c0,1.54154 -0.12131,2.79121 -1.66285,2.79121z" data-paper-data="{&quot;index&quot;:null}" fill="#fff066" stroke="#260e00" stroke-width="1" stroke-linecap="butt"/></g><path d="M243.47534,192.96269v-3.8001" data-paper-data="{&quot;index&quot;:null}" fill="none" stroke="#260e00" stroke-width="2" stroke-linecap="round"/><path d="M236.48516,194.61668c-0.99592,0 -1.80327,-0.41064 -1.80327,-1.40655c0,-0.99592 0.80735,-1.80327 1.80327,-1.80327c0.99592,0 1.80327,0.80735 1.80327,1.80327c0,0.99592 -0.80735,1.40655 -1.80327,1.40655z" data-paper-data="{&quot;index&quot;:null}" fill="#260e00" stroke="none" stroke-width="2" stroke-linecap="butt"/><path d="M236.4804,192.97037v-3.8001" data-paper-data="{&quot;index&quot;:null}" fill="none" stroke="#260e00" stroke-width="2" stroke-linecap="round"/><path d="M227.55325,173.85887l4.84689,4.10832" data-paper-data="{&quot;index&quot;:null}" fill="none" stroke="#260e00" stroke-width="2" stroke-linecap="round"/></g></g></g></svg>