<svg version="1.1" xmlns="http://www.w3.org/2000/svg" xmlns:xlink="http://www.w3.org/1999/xlink" width="100" height="100" viewBox="0,0,100,100"><g transform="translate(-190,-130)"><g data-paper-data="{&quot;isPaintingLayer&quot;:true}" fill-rule="nonzero" stroke="none" stroke-linecap="butt" stroke-linejoin="miter" stroke-miterlimit="10" stroke-dasharray="" stroke-dashoffset="0" style="mix-blend-mode: normal"><path d="M190,180c0,-27.61424 22.38576,-50 50,-50c27.61424,0 50,22.38576 50,50c0,27.61424 -22.38576,50 -50,50c-27.61424,0 -50,-22.38576 -50,-50z" fill="none" stroke-width="0"/><path d="M240.69264,181.58716l-1.95902,1.36917c-0.04141,0.02777 -0.05927,0.07971 -0.04368,0.12707c0.01559,0.04736 0.06081,0.07854 0.11062,0.07628c1.18644,-0.03537 2.35815,-0.06147 3.51512,-0.07831c0.67322,-0.0101 1.12666,0.33219 1.01298,1.03193c-0.05642,0.35197 -0.29893,0.5347 -0.72753,0.54817c-1.92744,0.05978 -3.70626,0.05894 -5.33646,-0.00253c-0.29429,-0.0101 -0.51533,-0.18188 -0.58101,-0.4787c-0.09431,-0.42776 0.03537,-0.79152 0.38902,-1.09129c1.18644,-1.00709 2.2731,-2.10974 3.25998,-3.30797c0.35113,-0.42776 0.58354,-0.78942 0.69721,-1.08498c0.29682,-0.77679 0.29429,-1.99438 -0.8311,-2.07143c-1.2757,-0.08589 -1.67735,0.42944 -2.1649,1.48284c-0.13304,0.28882 -0.36839,0.41008 -0.70605,0.36376c-0.62522,-0.08463 -0.64795,-0.57343 -0.45597,-1.0635c0.22904,-0.58438 0.61006,-1.07908 1.14308,-1.4841c1.36032,-0.80331 3.50501,-0.96246 4.63546,0.26777c1.10266,1.19991 0.75153,3.12104 -0.45597,4.16181c-0.61301,0.5288 -1.11361,0.94014 -1.50179,1.23402z" fill="#5486af" stroke-width="1"/></g></g></svg>