<svg version="1.1" xmlns="http://www.w3.org/2000/svg" xmlns:xlink="http://www.w3.org/1999/xlink" width="199.32861" height="199.32861" viewBox="0,0,199.32861,199.32861"><g transform="translate(-140.33569,-80.33569)"><g data-paper-data="{&quot;isPaintingLayer&quot;:true}" fill-rule="nonzero" stroke="none" stroke-linecap="butt" stroke-linejoin="miter" stroke-miterlimit="10" stroke-dasharray="" stroke-dashoffset="0" style="mix-blend-mode: normal"><path d="M256.56969,138.21738c-1.00202,-0.13864 -1.6511,-0.46948 -1.94729,-0.99255c1.77084,-1.29819 3.66771,-1.95988 5.69061,-1.98511c0.21661,-0.00296 0.40874,-0.14374 0.47556,-0.34853c0.06682,-0.20477 -0.00691,-0.42675 -0.18251,-0.54948c-3.49125,-2.52707 -7.3732,-3.50699 -11.64588,-2.93985c-0.18047,0.02591 -0.3579,-0.06353 -0.44447,-0.22396c-0.08656,-0.16045 -0.06385,-0.35786 0.05691,-0.49446l5.03836,-5.7946c0.07321,-0.08594 0.09426,-0.20475 0.05505,-0.31064c-0.03922,-0.10589 -0.13258,-0.1823 -0.24413,-0.19981c-5.42592,-0.84131 -7.98766,1.26668 -12.35487,4.1309c-0.24182,0.16094 -0.56706,0.12957 -0.7846,-0.07562c-3.3274,-3.13204 -7.30391,-4.51216 -11.92949,-4.14034c-0.20574,0.0179 -0.38204,0.15679 -0.44627,0.3516c-0.06425,0.19482 -0.00372,0.40693 0.15324,0.53698c1.97248,1.67 3.6362,3.60469 4.99108,5.80404c0.22687,0.37182 0.12289,0.52935 -0.31194,0.47265c-4.35461,-0.60498 -8.31219,0.37182 -11.87276,2.93039c-0.14931,0.11014 -0.21231,0.30287 -0.15683,0.4799c0.05547,0.17705 0.21713,0.29941 0.40262,0.30466c2.11743,0.05042 4.09623,0.74677 5.93639,2.08909l-2.76022,0.84131l-4.08363,-1.01147c-0.61112,-0.15055 -1.12956,-0.5532 -1.42548,-1.10716c-0.29593,-0.55396 -0.34132,-1.20674 -0.1248,-1.79487c1.06818,-2.93039 6.92893,-4.66969 9.74588,-4.99108c0.55455,-0.06301 0.61442,-0.27097 0.1796,-0.62388c-1.38011,-1.13434 -4.00801,-3.1667 -2.6279,-5.14235c2.59009,-3.72441 11.67424,0.14181 14.37776,2.23087c0.22923,0.17773 0.54683,0.18162 0.77514,0.00946c2.93668,-2.18675 6.4437,-3.37782 10.52101,-3.57319c1.69205,-0.08508 3.97965,0.09452 4.09308,2.2025c0.07562,1.21625 -0.72785,2.56486 -2.41048,4.0458c-0.53566,0.47265 -0.45057,0.76569 0.25524,0.87912c3.20765,0.52305 6.10967,1.75192 8.70606,3.68662c0.2403,0.18476 0.42118,0.438 0.5199,0.72785c1.28558,3.98909 -3.507,3.90404 -6.21996,4.57516z" fill="#3d8004" stroke-width="1"/><path d="M254.6224,137.22483c-0.3277,0.14495 -1.0083,0.07562 -2.04181,-0.20796c-8.24287,-2.24977 -16.75358,-2.16785 -25.53212,0.24579c-1.84016,-1.34229 -3.81893,-2.03867 -5.93639,-2.08909c-0.18544,-0.00527 -0.34715,-0.12762 -0.40262,-0.30466c-0.05547,-0.17705 0.00753,-0.36978 0.15683,-0.4799c3.56056,-2.55857 7.51815,-3.53536 11.87276,-2.93039c0.43484,0.0567 0.53882,-0.10084 0.31195,-0.47265c-1.35491,-2.19935 -3.01861,-4.13404 -4.99108,-5.80404c-0.15695,-0.13003 -0.21749,-0.34217 -0.15324,-0.53697c0.06425,-0.19482 0.24055,-0.33369 0.44628,-0.3516c4.62559,-0.37182 8.60208,1.0083 11.92949,4.14034c0.21753,0.20521 0.54279,0.23656 0.7846,0.07562c4.36721,-2.86421 6.92892,-4.97221 12.35487,-4.1309c0.11153,0.01751 0.20491,0.09395 0.24413,0.19981c0.03922,0.10589 0.01816,0.22469 -0.05505,0.31064l-5.03836,5.7946c-0.12075,0.13658 -0.14348,0.334 -0.05692,0.49446c0.08656,0.16045 0.26402,0.24987 0.44447,0.22395c4.27268,-0.56717 8.15465,0.41278 11.64588,2.93985c0.1756,0.12272 0.24934,0.3447 0.18252,0.54948c-0.06682,0.20477 -0.25896,0.34559 -0.47557,0.34853c-2.0229,0.0252 -3.91978,0.6869 -5.69061,1.98511z" fill="#9ad915" stroke-width="1"/><path d="M254.6224,137.22483c0.2962,0.52305 0.94528,0.8539 1.94729,0.99255c17.81545,8.40041 27.22103,21.6092 28.21672,39.62631c0.36551,6.54768 -0.58608,12.71408 -2.85474,18.49921c-4.58779,11.6963 -13.03547,20.18181 -25.34306,25.45651c-1.34229,-0.13234 -2.36952,0.22686 -3.08162,1.07762c-4.17183,1.15955 -8.46975,1.78657 -12.89368,1.88111c-31.51576,0.67115 -53.64486,-31.04314 -42.5945,-60.36582c4.60668,-12.21937 13.36315,-20.98216 26.26944,-26.28835l2.76022,-0.8413c8.77854,-2.41363 17.28925,-2.49555 25.53212,-0.24579c1.03351,0.28358 1.71411,0.35291 2.04181,0.20796zM199.48399,170.41375c-1.6511,4.17183 -2.05756,8.56427 -1.21942,13.17725c0.32139,1.79603 0.61129,3.48179 0.86966,5.05727c0.27728,1.73301 0.70581,3.40302 1.28559,5.01c4.76423,12.43993 12.90942,20.91283 24.43558,25.41868c15.71063,6.1349 33.40634,2.41992 45.16567,-9.6041c21.11764,-21.58083 13.99967,-57.5489 -14.47229,-68.4102c-5.9679,-2.28129 -12.15004,-3.19191 -18.54646,-2.73188c-11.48835,0.82556 -21.24053,5.87337 -29.25654,15.14345c-4.23488,4.90287 -6.9888,10.54938 -8.26178,16.93948z" fill="#dca30e" stroke-width="1"/><path d="M200.41981,193.65828l0.29303,-0.62388c0.11343,-0.22687 0.25524,-0.24261 0.42538,-0.04727c1.90947,2.23087 3.35891,4.72011 4.3483,7.46774c0.11975,0.3277 0.34031,0.56086 0.66171,0.6995c2.16156,0.90748 3.5385,1.56917 4.1309,1.98511c7.38583,5.25578 15.46484,9.04638 24.23708,11.37177c0.29501,0.07367 0.49806,0.34396 0.48662,0.64779c-0.01143,0.30385 -0.23419,0.55813 -0.53391,0.60943l-8.97073,1.61643c-0.08664,0.01728 -0.14972,0.09225 -0.15199,0.18056c-0.00227,0.08831 0.05692,0.1664 0.14254,0.1881c3.91977,0.87598 7.78284,0.88541 11.58918,0.02837c1.43052,-0.32139 2.97135,-0.49471 4.62244,-0.5199c2.64051,-0.03782 5.48265,-0.57031 8.52647,-1.59752c0.3267,-0.11633 0.51098,-0.4624 0.42513,-0.79838c-0.08582,-0.33599 -0.41351,-0.55127 -0.75597,-0.49665l-1.72987,0.30249c-0.21242,0.04179 -0.42322,-0.07905 -0.49452,-0.28344c-0.0713,-0.2044 0.01861,-0.43012 0.21092,-0.52951c5.57086,-3.0312 10.90858,-6.39327 16.01312,-10.08618c1.58807,-1.15324 4.76423,-2.4861 5.94585,-4.17815c1.26668,-1.80549 5.51101,-8.83841 5.58663,-12.45884c0.0126,-0.73103 -0.17014,-0.7846 -0.54827,-0.16071c-2.23087,3.71181 -4.95015,7.02347 -8.1578,9.93492c-0.39072,0.35291 -0.84444,0.48211 -1.36121,0.38755c-7.11483,-1.38011 -13.9713,-3.45344 -20.56938,-6.21996c-0.52305,-0.22056 -1.21943,-0.38442 -2.08909,-0.49155c-1.10282,-0.13234 -1.76769,-0.49784 -1.99454,-1.09653c4.28528,-0.25207 6.60124,-1.92524 6.94783,-5.01946c6.24517,-4.05212 11.80659,-8.91403 16.68428,-14.58574c0.20796,-0.23947 0.46003,-0.2962 0.75623,-0.17014c3.61098,1.56287 7.37006,2.56802 11.27723,3.01545c0.11437,0.01073 0.22795,-0.02629 0.31261,-0.10196c0.08465,-0.07564 0.1325,-0.18285 0.13168,-0.29507v-1.79603c0,-0.40963 -0.20481,-0.62073 -0.61442,-0.63334c-3.34632,-0.11343 -6.54451,-0.89487 -9.59464,-2.3443c-0.30249,-0.14495 -0.34659,-0.34345 -0.13235,-0.59552c2.35061,-2.79805 4.22542,-5.87337 5.62444,-9.22598c0.3088,-0.74362 0.24261,-1.38011 -0.19851,-1.90947c-0.09675,-0.12001 -0.24688,-0.18401 -0.40046,-0.17074c-0.15357,0.01326 -0.29048,0.10208 -0.36523,0.2369c-1.94729,3.44084 -4.20021,6.70522 -6.75878,9.79315c-0.63334,0.76568 -1.56916,0.92637 -1.87168,2.03236c-0.08194,0.30249 -0.23002,0.57031 -0.44429,0.8035c-4.40502,4.70751 -9.20706,9.11884 -14.40613,13.23399c-0.61129,-1.14064 -0.14808,-2.23087 1.38956,-3.27069c0.27728,-0.18905 0.36867,-0.44743 0.27412,-0.77514c-0.34031,-1.16584 -1.14379,-1.57862 -2.41049,-1.23832c-1.46835,0.39072 -2.85791,0.51362 -4.16869,0.36867c-0.20948,-0.01834 -0.41039,-0.10068 -0.57663,-0.23633l-2.49555,-2.03236c-0.23864,-0.19382 -0.57937,-0.19773 -0.82239,-0.00946c-2.2876,1.74878 -5.12344,4.36721 -7.9971,2.004c-0.38517,-0.3113 -0.93334,-0.32491 -1.33215,-0.03305c-0.39878,0.29186 -0.54689,0.81502 -0.3599,1.27137c0.25838,0.63649 0.68375,1.10599 1.27613,1.40848c0.32,0.15936 0.54487,0.46506 0.60498,0.82239c0.05042,0.27728 0.03782,0.54512 -0.03782,0.80351c-0.14495,0.34659 -0.34976,0.57031 -0.61442,0.67115c-0.334,0.12604 -0.55772,0.01891 -0.67115,-0.32139c-0.22687,-0.69006 -0.34031,-1.27613 -0.86021,-1.83386c-3.07216,-3.35576 -6.31449,-7.76079 -10.27523,-10.05781c-0.20464,-0.11426 -0.46249,-0.07622 -0.62407,0.09209c-0.16157,0.16831 -0.18494,0.42317 -0.05655,0.61688c3.59838,5.59608 7.97503,10.3603 13.13001,14.2927c0.11343,2.6657 2.06073,4.41134 5.84187,5.23687c-0.86966,0.52935 -1.80235,0.90118 -2.79805,1.11545c-1.29819,0.28358 -2.24662,0.56086 -2.84529,0.83185c-6.96359,3.06902 -14.19186,5.2936 -21.68482,6.67371c-1.05242,0.18905 -1.95674,-0.23948 -2.71297,-1.28559c-1.65426,-2.29705 -3.04383,-4.54683 -5.02891,-6.58864c-0.47895,-0.49155 -0.88541,-1.18792 -1.21943,-2.08909c-1.83386,-4.89657 -2.36006,-9.95069 -1.57862,-15.16236c0.04266,-0.30444 0.28936,-0.53941 0.59552,-0.56717c5.62128,-0.61129 11.06928,-1.94729 16.34396,-4.00801c0.28989,-0.11343 0.48525,-0.31508 0.58609,-0.60498c1.45573,-4.24431 -0.92637,-5.41649 -2.41049,-8.81951c2.37267,-0.61442 4.28213,-3.26124 2.13634,-5.24632c-2.32539,-2.1647 -4.80204,-0.0567 -4.84931,2.78859l-0.27412,-1.40848c-0.08824,-0.45374 -0.25839,-0.4884 -0.51045,-0.10398l-0.17014,0.23633c-0.18905,0.28989 -0.22687,0.59869 -0.11344,0.92637c1.06503,3.10684 2.51761,6.02146 4.35775,8.74389c0.18191,0.2722 0.22081,0.61559 0.10442,0.92159c-0.11639,0.306 -0.37367,0.53672 -0.69051,0.61922l-14.62355,3.90404c1.27299,-6.39011 4.02689,-12.03661 8.26178,-16.93948c8.016,-9.27009 17.76819,-14.3179 29.25654,-15.14345c6.39642,-0.46003 12.57857,0.45057 18.54648,2.73188c28.47196,10.86133 35.58993,46.82938 14.47229,68.4102c-11.75932,12.02402 -29.45506,15.73898 -45.16567,9.6041c-11.52617,-4.50586 -19.67136,-12.97874 -24.43558,-25.41868zM236.45403,147.03688c0.03782,-2.004 -0.81293,-3.42508 -2.55226,-4.26323c-1.23517,-0.59238 -2.69093,-0.6428 -4.36721,-0.15125c-2.78859,0.82239 -8.73443,3.47865 -8.16726,7.08017c0.36551,2.3632 1.8811,3.33686 4.54682,2.92093c3.75591,-0.59238 7.09278,-1.75192 10.01056,-3.47865c1.07131,-0.10084 1.72987,0.62073 1.97566,2.1647c0.0567,0.32139 -0.02837,0.59869 -0.25524,0.83185c-5.05727,5.22741 -11.12598,8.1578 -17.34594,11.73099c-0.16576,0.10162 -0.24619,0.2992 -0.19853,0.4877c0.04767,0.1885 0.21235,0.32411 0.40649,0.3347c1.75824,0.03782 3.42192,0.38756 5.08564,-0.47265c5.12344,-2.6657 9.9822,-6.08762 14.57628,-10.26578c0.13308,-0.1197 0.30776,-0.18205 0.48527,-0.17318c0.17751,0.00888 0.34311,0.08824 0.46001,0.22044c4.24117,4.75162 9.5001,8.65564 15.77679,11.71207c-4.27268,1.3045 -6.6107,3.83156 -7.01402,7.58117c-0.03003,0.29376 0.06655,0.58354 0.26468,0.79404c0.65539,0.69321 1.43683,0.86652 2.3443,0.5199c0.28039,-0.10754 0.49626,-0.33732 0.58609,-0.62387c1.05242,-3.51017 3.40932,-5.42593 7.07073,-5.74731c0.58097,-0.04971 1.02354,-0.54194 1.01147,-1.1249c-0.01891,-0.81924 -0.6869,-1.35491 -2.004,-1.60698c-0.39701,-0.73732 -0.72785,-1.41793 -1.51246,-1.85276c-5.57086,-3.0312 -10.58089,-6.79343 -15.03002,-11.28669c-0.28828,-0.28874 -0.30473,-0.75312 -0.03782,-1.06817c2.71611,-3.15095 4.81148,-6.69891 6.28613,-10.6439c0.23492,-0.52468 0.00005,-1.14046 -0.52462,-1.37539c-0.52468,-0.23492 -1.14046,-0.00005 -1.37539,0.52463c-1.71411,3.25807 -3.79689,6.27353 -6.24834,9.04638c-0.20796,0.23947 -0.45688,0.2962 -0.74677,0.17014c-1.23517,-0.53566 -2.01976,-1.45259 -2.35376,-2.75077c-0.0441,-0.17014 -0.10712,-0.2962 -0.18905,-0.3781c-0.10712,-0.09452 -0.22687,-0.17014 -0.35922,-0.22687c-0.28989,-0.11975 -0.45057,-0.0252 -0.48211,0.28358zM218.75831,168.49482c4.51846,-0.09452 5.18017,2.29705 7.02347,5.60554c0.21918,0.38864 0.60065,0.65888 1.03872,0.73587c0.43809,0.07698 0.88631,-0.04746 1.2205,-0.33886c0.92008,-0.78143 1.1501,-1.72356 0.69006,-2.8264c-1.63218,-3.95128 -4.63188,-5.9553 -8.99909,-6.01201c-1.40533,-0.01891 -2.03867,0.65539 -1.90001,2.0229c0.0492,0.47127 0.45271,0.82537 0.92636,0.81293z" fill="#f6e809" stroke-width="1"/><path d="M259.15031,165.50773l-2.25923,0.20796c-6.27669,-3.05643 -11.53562,-6.96042 -15.77679,-11.71207c-0.1169,-0.13221 -0.28249,-0.21157 -0.46001,-0.22044c-0.17751,-0.00888 -0.35222,0.05348 -0.48528,0.17318c-4.59407,4.17815 -9.45284,7.60008 -14.57628,10.26578c-1.66369,0.86021 -3.32739,0.51044 -5.08564,0.47265c-0.19414,-0.01061 -0.35883,-0.1462 -0.4065,-0.3347c-0.04767,-0.1885 0.03277,-0.38609 0.19853,-0.4877c6.21996,-3.57318 12.28868,-6.50354 17.34595,-11.73099c0.22687,-0.23316 0.31194,-0.51045 0.25524,-0.83185c-0.24579,-1.54396 -0.90431,-2.26554 -1.97565,-2.1647c-0.0567,-0.67429 0.11974,-1.37696 0.52935,-2.10798l0.12289,-1.08708c0.0315,-0.3088 0.19222,-0.40332 0.48211,-0.28357c0.13234,0.0567 0.25207,0.13234 0.35922,0.22687c0.08194,0.08194 0.14495,0.20796 0.18905,0.3781c0.334,1.29819 1.11859,2.21512 2.35376,2.75077c0.28989,0.12604 0.53882,0.06933 0.74677,-0.17014c2.45143,-2.77282 4.5342,-5.78829 6.24834,-9.04638c0.23492,-0.52468 0.8507,-0.75955 1.37539,-0.52462c0.52468,0.23492 0.75956,0.8507 0.52463,1.37539c-1.47464,3.94499 -3.57001,7.49295 -6.28613,10.6439c-0.26692,0.31504 -0.25048,0.77944 0.03782,1.06818c4.44914,4.49325 9.45916,8.25547 15.03002,11.28669c0.7846,0.43484 1.11545,1.11545 1.51246,1.85276z" fill="#f3cf06" stroke-width="1"/><path d="M236.45403,147.03688c-0.40963,0.73103 -0.58608,1.43367 -0.52935,2.10798c-2.91777,1.72673 -6.25463,2.88625 -10.01057,3.47865c-2.6657,0.41592 -4.18129,-0.55772 -4.54682,-2.92093c-0.56717,-3.60152 5.37867,-6.25779 8.16726,-7.08017c1.67631,-0.49155 3.13204,-0.44113 4.3672,0.15125c1.73933,0.83816 2.59009,2.25922 2.55226,4.26323z" fill="#fef271" stroke-width="1"/><path d="M214.11697,159.03252c-1.43052,-0.35291 -2.33485,-1.17216 -2.71297,-2.45774c0.04728,-2.84529 2.5239,-4.95329 4.84931,-2.78858c2.14579,1.98511 0.23633,4.63189 -2.13634,5.24632z" fill="#fef271" stroke-width="1"/><path d="M211.40399,156.5748c0.3781,1.28558 1.28244,2.10483 2.71297,2.45774c1.48408,3.40302 3.86622,4.57516 2.41049,8.8195c-0.10084,0.28989 -0.2962,0.49155 -0.58609,0.60498c-5.27469,2.06072 -10.72266,3.39674 -16.34396,4.00802c-0.30616,0.02777 -0.55288,0.26274 -0.59552,0.56717c-0.78143,5.21166 -0.25524,10.26578 1.57862,15.16237c0.334,0.90118 0.74046,1.59753 1.21943,2.08909c1.98511,2.04181 3.37467,4.29158 5.02891,6.58864c0.75623,1.04612 1.66054,1.47464 2.71297,1.28558c7.49295,-1.38011 14.72122,-3.60469 21.68482,-6.6737c0.59869,-0.27097 1.54711,-0.54827 2.84529,-0.83185c0.9957,-0.21427 1.92838,-0.58609 2.79805,-1.11545l3.83785,-0.04727c0.22687,0.59869 0.89172,0.96418 1.99454,1.09653c0.86966,0.10712 1.56602,0.27097 2.08909,0.49155c6.5981,2.76654 13.45455,4.83986 20.56938,6.21996c0.51676,0.09452 0.9705,-0.03465 1.36121,-0.38755c3.20765,-2.91148 5.92693,-6.22312 8.1578,-9.93492c0.3781,-0.62388 0.56086,-0.57032 0.54827,0.16071c-0.07562,3.62043 -4.31995,10.65335 -5.58663,12.45884c-1.18161,1.69205 -4.35775,3.02491 -5.94585,4.17815c-5.10452,3.69291 -10.44223,7.05498 -16.01311,10.08618c-0.19231,0.09939 -0.28226,0.32511 -0.21093,0.52951c0.0713,0.2044 0.28211,0.32523 0.49452,0.28344l1.72987,-0.30249c0.34247,-0.05462 0.67015,0.16064 0.75597,0.49665c0.08582,0.33599 -0.09843,0.68205 -0.42513,0.79838c-3.04383,1.0272 -5.88598,1.55971 -8.52647,1.59753c-1.6511,0.0252 -3.19191,0.19852 -4.62244,0.5199c-3.80634,0.85707 -7.66941,0.84761 -11.58918,-0.02837c-0.08562,-0.0217 -0.1448,-0.0998 -0.14254,-0.1881c0.00227,-0.08831 0.06539,-0.16325 0.15199,-0.18056l8.97074,-1.61644c0.29971,-0.0513 0.52247,-0.30558 0.53391,-0.60942c0.01143,-0.30385 -0.19163,-0.57412 -0.48662,-0.64779c-8.77223,-2.32539 -16.85127,-6.11599 -24.23708,-11.37177c-0.59238,-0.41592 -1.96934,-1.07762 -4.1309,-1.98511c-0.32139,-0.13864 -0.54196,-0.37182 -0.66171,-0.6995c-0.98939,-2.74762 -2.43882,-5.23686 -4.34829,-7.46773c-0.17014,-0.19537 -0.31195,-0.1796 -0.42538,0.04727l-0.29304,0.62388c-0.57977,-1.60698 -1.0083,-3.27699 -1.28558,-5.01c-0.25838,-1.57547 -0.54828,-3.26124 -0.86967,-5.05727c-0.83816,-4.61299 -0.43169,-9.00541 1.21943,-13.17725l14.62355,-3.90404c0.31681,-0.08251 0.5741,-0.31322 0.69051,-0.61922c0.11639,-0.306 0.07747,-0.6494 -0.10442,-0.92159c-1.84016,-2.72242 -3.29276,-5.63705 -4.35775,-8.74389c-0.11343,-0.3277 -0.07562,-0.63649 0.11344,-0.92637l0.17014,-0.23633c0.25207,-0.38441 0.42223,-0.34976 0.51044,0.10398zM236.17046,192.36323c-7.73873,3.72441 -15.71691,6.53822 -23.93459,8.44138c-0.1255,0.02522 -0.2224,0.12349 -0.24698,0.25046c-0.02458,0.12697 0.02782,0.25866 0.13354,0.33563c7.88368,5.41649 17.20418,9.59464 26.4774,11.32448c6.56027,1.21943 19.31215,-7.77969 24.22763,-12.06183c0.11073,-0.09728 0.15669,-0.24895 0.11858,-0.39136c-0.03808,-0.14238 -0.15367,-0.25083 -0.29819,-0.27981c-7.80804,-1.48095 -15.23797,-4.10568 -22.28979,-7.87423c-1.57862,-0.84131 -2.73187,-0.45374 -4.1876,0.25524z" fill="#f3cf06" stroke-width="1"/><path d="M247.65565,184.47013v-2.71297c5.19907,-4.11513 10.00111,-8.52647 14.40614,-13.23399c0.21427,-0.23316 0.36236,-0.50099 0.44428,-0.80351c0.30249,-1.10599 1.23832,-1.26667 1.87168,-2.03236c2.55857,-3.08793 4.81149,-6.35231 6.75878,-9.79315c0.07474,-0.13482 0.21165,-0.22364 0.36523,-0.2369c0.15357,-0.01326 0.3037,0.05071 0.40046,0.17074c0.44113,0.52935 0.50731,1.16584 0.19852,1.90947c-1.39903,3.35259 -3.27384,6.42793 -5.62444,9.22598c-0.21427,0.25207 -0.17015,0.45057 0.13234,0.59552c3.05011,1.44943 6.24833,2.23087 9.59464,2.3443c0.40963,0.0126 0.61442,0.22372 0.61442,0.63334v1.79603c0.0008,0.11222 -0.04702,0.21941 -0.13168,0.29507c-0.08465,0.07564 -0.19823,0.11268 -0.3126,0.10196c-3.90718,-0.44743 -7.66626,-1.45259 -11.27724,-3.01546c-0.2962,-0.12604 -0.54827,-0.06932 -0.75623,0.17015c-4.87768,5.67171 -10.43908,10.5336 -16.68428,14.58572z" fill="#f3cf06" stroke-width="1"/><path d="M225.78176,174.10034c-1.8433,-3.30849 -2.505,-5.70007 -7.02346,-5.60554c-0.4737,0.01244 -0.8772,-0.34166 -0.92637,-0.81293c-0.13864,-1.36752 0.49471,-2.04181 1.90001,-2.0229c4.36721,0.0567 7.36693,2.06072 8.9991,6.01201c0.46003,1.10282 0.23002,2.04495 -0.69006,2.8264c-0.33423,0.2914 -0.78244,0.41584 -1.2205,0.33886c-0.43809,-0.07698 -0.81954,-0.34721 -1.03872,-0.73587z" fill="#c27c06" stroke-width="1"/><path d="M259.15031,165.50773c1.31709,0.25207 1.98511,0.78773 2.004,1.60698c0.01209,0.58296 -0.43049,1.07517 -1.01147,1.1249c-3.66139,0.32139 -6.01832,2.23718 -7.07073,5.74731c-0.08982,0.28656 -0.30568,0.51635 -0.58609,0.62388c-0.90748,0.34659 -1.68891,0.17331 -2.3443,-0.5199c-0.19813,-0.21051 -0.29473,-0.50026 -0.26468,-0.79404c0.40332,-3.74964 2.74131,-6.27669 7.01402,-7.58117z" fill="#c27c06" stroke-width="1"/><path d="M230.99975,180.84023l0.02837,3.45975c-5.15494,-3.93237 -9.53162,-8.69662 -13.13001,-14.2927c-0.1284,-0.19369 -0.10504,-0.44855 0.05655,-0.61688c0.16157,-0.16831 0.41941,-0.20635 0.62407,-0.09209c3.96074,2.29705 7.20307,6.70208 10.27523,10.05781c0.5199,0.55772 0.63334,1.14379 0.86021,1.83386c0.11343,0.34031 0.33715,0.44743 0.67115,0.32139c0.26468,-0.10084 0.46948,-0.32454 0.61442,-0.67115z" fill="#f3cf06" stroke-width="1"/><path d="M247.65565,181.75716v2.71297c-0.34659,3.09422 -2.66254,4.76739 -6.94783,5.01946l-3.83785,0.04727c-3.78114,-0.82556 -5.72843,-2.57118 -5.84187,-5.23687l-0.02837,-3.45975c0.07562,-0.25838 0.08824,-0.52621 0.03782,-0.8035c-0.0601,-0.35733 -0.28499,-0.66305 -0.60498,-0.82239c-0.59238,-0.30249 -1.01776,-0.77197 -1.27613,-1.40848c-0.18699,-0.45633 -0.03887,-0.97952 0.3599,-1.27137c0.39878,-0.29186 0.94698,-0.27826 1.33215,0.03305c2.87366,2.3632 5.70952,-0.25524 7.99709,-2.004c0.24305,-0.18829 0.58375,-0.18436 0.82239,0.00946l2.49555,2.03236c0.16625,0.13565 0.36713,0.21799 0.57663,0.23633c1.31078,0.14495 2.70038,0.02206 4.1687,-0.36867c1.26668,-0.34031 2.07018,0.07247 2.41048,1.23831c0.09452,0.3277 0.00315,0.58609 -0.27412,0.77514c-1.53766,1.03981 -2.00085,2.13002 -1.38956,3.27069zM242.31478,180.04619c-1.24777,-0.44429 -1.71097,-0.70895 -2.67515,-1.20051c-0.28989,-0.14495 -0.58609,-0.16071 -0.88858,-0.04728l-3.65825,1.43684c-0.34187,0.13097 -0.57002,0.45636 -0.57663,0.82239l-0.07562,3.71495c-0.00499,0.33257 0.22181,0.62585 0.54827,0.70895c2.62159,0.64911 5.25263,0.59238 7.89311,-0.17014c0.73103,-0.20796 1.11228,-0.90118 1.14378,-2.07963c0.05042,-1.69522 -0.5199,-2.75708 -1.71097,-3.1856z" fill="#c27c06" stroke-width="1"/><path d="M242.31478,180.04619c1.19106,0.42853 1.76138,1.4904 1.71097,3.1856c-0.0315,1.17846 -0.41278,1.87168 -1.14378,2.07963c-2.64051,0.76254 -5.27155,0.81924 -7.89311,0.17014c-0.32647,-0.0831 -0.55327,-0.37639 -0.54827,-0.70895l0.07562,-3.71495c0.00661,-0.36604 0.23474,-0.69143 0.57663,-0.82239l3.65825,-1.43684c0.30249,-0.11343 0.59869,-0.09766 0.88857,0.04728c0.96418,0.49155 1.42739,0.75623 2.67515,1.20052z" fill="#ffffff" stroke-width="1"/><path d="M236.17046,192.36323c1.45573,-0.70896 2.60899,-1.09653 4.18761,-0.25524c7.05182,3.76854 14.48175,6.39327 22.28979,7.87423c0.14451,0.02898 0.26006,0.13741 0.29819,0.27981c0.03808,0.14238 -0.00784,0.29406 -0.11858,0.39134c-4.91548,4.28213 -17.66736,13.28123 -24.22763,12.06184c-9.27325,-1.72987 -18.59374,-5.90803 -26.47739,-11.3245c-0.10572,-0.07697 -0.15811,-0.20865 -0.13354,-0.33563c0.02458,-0.12697 0.12147,-0.22523 0.24697,-0.25046c8.21768,-1.90318 16.19586,-4.71696 23.9346,-8.44137z" fill="#f6e809" stroke-width="1"/><path d="M256.58857,221.79939c-0.89487,0.64911 -1.92207,1.0083 -3.08162,1.07762c0.71213,-0.85075 1.73933,-1.20997 3.08162,-1.07762z" fill="#fef271" stroke-width="1"/><path d="M140.33569,180c0,-55.04307 44.62123,-99.6643 99.66431,-99.6643c55.04307,0 99.66431,44.62123 99.66431,99.66431c0,55.04307 -44.62123,99.66431 -99.66431,99.66431c-55.04307,0 -99.66431,-44.62123 -99.66431,-99.66431z" fill="none" stroke-width="0"/></g></g></svg>