<svg version="1.1" xmlns="http://www.w3.org/2000/svg" xmlns:xlink="http://www.w3.org/1999/xlink" width="199.32861" height="199.32861" viewBox="0,0,199.32861,199.32861"><g transform="translate(-140.33569,-80.33569)"><g data-paper-data="{&quot;isPaintingLayer&quot;:true}" fill-rule="nonzero" stroke="none" stroke-linecap="butt" stroke-linejoin="miter" stroke-miterlimit="10" stroke-dasharray="" stroke-dashoffset="0" style="mix-blend-mode: normal"><path d="M272.93078,135.77271c-1.56835,0.09439 -2.99876,0.66438 -4.2912,1.70994c-0.62443,-0.96571 -2.02943,-1.73535 -4.21497,-2.30896c-0.2977,-0.91489 -1.03831,-1.39046 -2.22184,-1.42676l-5.3041,-1.84064c-0.88583,-0.71158 -1.93504,-1.18353 -3.14762,-1.41589l-7.2101,-1.13271l-10.15077,-0.17427c-2.46872,-0.29043 -5.14072,0.22509 -8.01605,1.54656c-2.53406,0.0363 -4.81037,0.65349 -6.8289,1.85153c-1.29244,0.27591 -2.35981,0.74424 -3.20206,1.405c-1.75714,0.48649 -2.87168,1.05645 -3.34366,1.70994c-1.41589,0.51552 -2.41425,1.10003 -2.99514,1.75352l-5.14072,4.13874l-4.93379,4.51991c-3.77568,4.34204 -6.91965,9.47187 -9.43195,15.38954l-2.04757,6.80712c-0.45019,0.78419 -0.69704,1.74625 -0.74061,2.88623l-0.74061,10.21611l0.86042,8.85469l3.59416,11.29437c0.70431,1.43765 1.51753,2.52316 2.43966,3.25653c2.62845,6.51304 7.05035,11.66468 13.26571,15.45487l3.20206,3.11494l5.19519,2.90799c4.27668,2.22911 8.16127,3.65949 11.65379,4.2912c19.88042,3.59416 36.36996,-1.70632 49.46867,-15.90141c4.22586,-4.89387 7.45334,-10.07089 9.68245,-15.5311c7.26455,-17.98169 3.41989,-38.38125 -9.2141,-52.99747c-0.07261,-1.66275 0.30132,-2.74099 1.12181,-3.23475c0.10891,-0.2614 0.37031,-0.167 0.78419,0.28318c6.19358,6.68731 10.40852,14.34758 12.6449,22.98082c0.76965,2.96246 1.13995,6.80349 1.11092,11.52309c-0.02179,5.19519 0.43564,10.52108 -0.79508,15.4113c-5.79421,22.98082 -26.09576,41.55063 -50.53602,41.70312c-3.22385,0.02179 -11.41418,0.29408 -15.65091,-0.84952c-26.18288,-7.05762 -44.65468,-30.14735 -42.46552,-57.68076c2.0367,-25.59475 20.70453,-46.0161 45.99432,-50.32909c14.79776,-2.51954 28.66612,0.75151 41.6051,9.81315z" fill="#199d0d" stroke-width="1"/><path d="M280.23891,142.91745c-0.82049,0.49373 -1.19442,1.572 -1.12181,3.23475c-2.51227,3.39085 -5.66714,3.53969 -9.4646,0.44654l-1.7862,-4.411l-0.58813,-2.38522l1.36142,-2.31986c1.29244,-1.04558 2.72285,-1.61555 4.2912,-1.70994c2.78818,3.15124 5.51468,2.10931 8.17943,-3.12583c0.36304,-0.71158 0.18152,-0.89672 -0.54458,-0.55547l-2.53768,1.17626c-0.55524,0.26129 -1.21214,0.17218 -1.67771,-0.22755c-0.46557,-0.39974 -0.65304,-1.03559 -0.47877,-1.62398c0.80595,-2.77732 4.13874,-3.32187 6.37145,-4.40011c3.25653,-1.57924 5.67441,-1.91687 8.28834,0.6426c0.39902,0.38482 0.51222,0.97774 0.28334,1.48424c-0.2289,0.50648 -0.75108,0.81856 -1.30711,0.78117l-2.71195,-0.20693c-0.53445,-0.04014 -1.05867,0.16185 -1.42805,0.55019c-0.36936,0.38837 -0.54482,0.92205 -0.47795,1.45381c0.55182,4.3638 -0.90399,7.78372 -4.36745,10.25968c-0.20331,0.14521 -0.30497,0.34127 -0.30497,0.58813c-0.00727,0.10891 0,0.22509 0.02179,0.34852z" fill="#3d8004" stroke-width="1"/><path d="M236.3902,129.18341l6.22988,0.39209c0.45019,0.02903 0.78054,0.23961 0.99112,0.6317l1.1436,2.04757c0.28318,0.50828 0.13797,0.72245 -0.43564,0.6426l-15.94499,-2.16737c2.87533,-1.3215 5.54733,-1.83702 8.01605,-1.54656z" fill="#9ad915" stroke-width="1"/><path d="M236.3902,129.18341l10.15077,0.17427l2.30896,7.28633c0.10891,0.34852 0.3449,0.50101 0.70793,0.45743c0.31949,-0.0363 0.63533,-0.18879 0.94754,-0.45743c0.5954,0.00727 1.11454,0.67528 1.55746,2.00402c-2.14196,0.61719 -3.30008,2.17464 -3.47435,4.6724c-0.01219,0.16623 -0.09981,0.31772 -0.23784,0.41116c-0.13802,0.09344 -0.31124,0.11851 -0.4701,0.06806c-2.75553,-0.90399 -5.27142,-3.01692 -8.01605,-2.89712c-3.38723,0.15249 -6.48038,1.94955 -9.73689,2.92977c-0.28318,0.07988 -0.4175,0.26864 -0.40299,0.56634l0.22872,5.60907c0.00722,0.12713 0.05698,0.24955 0.14159,0.34852l4.84667,5.80511c0.35024,0.41698 0.32181,1.03295 -0.06534,1.41589l-3.01692,2.96246c-0.31949,0.31949 -0.42113,0.69342 -0.30497,1.12181l1.75352,6.5784c0.11618,0.43564 0.0363,0.83501 -0.23961,1.19804l-4.38924,5.76153c-0.23234,0.31222 -0.53731,0.41023 -0.91489,0.29408l-5.315,-1.66639c0.27591,-1.2271 0.24323,-2.59215 -0.09802,-4.09516c0.65349,0.11618 1.27792,0.40661 1.87332,0.87131c4.7922,3.73575 6.66552,-3.04958 5.0536,-6.38234c-0.07715,-0.15677 -0.21391,-0.2761 -0.37967,-0.33136c-0.16576,-0.05526 -0.34675,-0.04183 -0.50254,0.03728l-7.24276,3.74664c-3.02055,-2.83176 -6.04109,-2.67203 -9.06164,0.47922c-0.4647,-0.38482 -0.61719,-0.97295 -0.45743,-1.76441c0.08974,-0.45891 -0.04765,-0.93305 -0.36832,-1.27107c-0.32068,-0.33802 -0.78459,-0.49767 -1.2436,-0.42797c-2.65024,0.39209 -4.99916,1.10003 -7.04673,2.12382c-3.43078,1.72084 -5.41301,6.24078 -7.56952,9.47549c-0.34286,0.51542 -0.34286,1.1826 0,1.68816l2.30896,3.47435c0.26089,0.38575 0.21058,0.90251 -0.1198,1.23073l-7.76555,7.58041l-0.86042,-8.85469c0.77692,-0.167 1.572,0.20693 2.38522,1.12181c0.78419,0.87858 1.50302,0.9403 2.15651,0.18517c0.40354,-0.46076 0.46507,-1.12877 0.15249,-1.6555l-1.79707,-3.04958c-0.10169,-0.17779 -0.10981,-0.39688 -0.02179,-0.58813l2.10204,-4.2912c0.15973,-0.334 0.06171,-0.5591 -0.29408,-0.67528l-3.94268,-1.26341c0.04357,-1.13995 0.29043,-2.10204 0.74061,-2.88623c1.64823,1.21259 3.21296,1.76803 4.69419,1.66639c0.77367,-0.05042 1.47991,-0.45775 1.91095,-1.1022c0.43104,-0.64445 0.53789,-1.4527 0.28911,-2.18702c-0.81684,-2.43966 -1.24162,-5.32589 -4.84667,-5.1843c2.51227,-5.91764 5.65627,-11.04749 9.43195,-15.38954l3.26743,1.3941c0.37758,0.15973 0.68252,0.06898 0.91489,-0.27229c1.21259,-1.77893 1.46309,-3.65949 0.75151,-5.64173l5.14072,-4.13874l-3.47435,11.26169c-0.14521,0.47197 0.01817,0.7624 0.49011,0.87131l3.74664,0.8931c0.4284,0.10167 0.78781,-0.01452 1.07824,-0.34852l3.74664,-4.24765c0.24667,-0.28866 0.38527,-0.65058 0.39209,-1.0238c0.06534,-3.71034 -0.9294,-6.76354 -2.98424,-9.15966c0.47197,-0.65349 1.58652,-1.22345 3.34366,-1.70994c0.87858,1.74262 1.37594,3.73575 1.49212,5.97938c0.00502,0.18572 0.1146,0.35262 0.283,0.43107c0.1684,0.07842 0.36668,0.05492 0.51206,-0.06076l3.51793,-2.65751c0.30497,-0.23234 0.45381,-0.53731 0.44654,-0.91489c-0.05082,-2.22911 -1.06735,-3.62319 -3.04958,-4.18229c2.01854,-1.19804 4.29485,-1.81523 6.8289,-1.85153l15.94499,2.16737c0.57361,0.07988 0.71883,-0.13432 0.43564,-0.6426l-1.1436,-2.04757c-0.21058,-0.39209 -0.54093,-0.60264 -0.99112,-0.6317zM231.66333,133.82313c-0.06954,-0.22649 -0.27509,-0.38395 -0.5119,-0.39209l-3.79019,-0.10891c-0.17866,-0.00442 -0.34855,0.07742 -0.45648,0.21988c-0.10793,0.14246 -0.14072,0.32816 -0.08808,0.49897l2.20005,7.18832c0.04434,0.14778 0.14818,0.27047 0.28659,0.33863c0.13842,0.06817 0.29894,0.0757 0.44313,0.02078l3.40899,-1.25251c0.27713,-0.10251 0.42552,-0.40405 0.33763,-0.68615zM239.79919,135.21724c0.04442,-0.22705 -0.00447,-0.4624 -0.13562,-0.65296c-0.13115,-0.19059 -0.3335,-0.32031 -0.56142,-0.35994l-3.99715,-0.65349c-0.29627,-0.04566 -0.59495,0.06616 -0.78839,0.29516c-0.19344,0.22901 -0.25373,0.54217 -0.15918,0.82665l1.33964,3.99715c0.15016,0.44572 0.63041,0.68826 1.07824,0.54458l2.13472,-0.68615c0.29672,-0.09699 0.51761,-0.34707 0.57723,-0.65349zM245.69145,140.46689c0.25814,0.14387 0.57663,0.12308 0.81388,-0.05309c0.23726,-0.17618 0.34923,-0.47504 0.28615,-0.76375l-0.75151,-3.57237c-0.06576,-0.30947 -0.31832,-0.54461 -0.6317,-0.58813l-2.66838,-0.3812c-0.2193,-0.03221 -0.44164,0.03408 -0.60754,0.18107c-0.16589,0.14701 -0.25843,0.35973 -0.25288,0.58133l0.03268,2.12382c0.00452,0.2752 0.15912,0.52589 0.40299,0.65349zM227.43747,150.06219c1.11092,-3.07137 -0.02179,-7.15564 -1.80796,-9.70424c-0.19868,-0.27911 -0.5807,-0.35928 -0.88221,-0.18517l-3.56148,2.08025c-0.54942,0.31925 -0.90878,0.88622 -0.96298,1.51936c-0.0542,0.63313 0.20354,1.25294 0.69072,1.66092l5.73977,4.83578c0.12623,0.10333 0.29426,0.14032 0.45034,0.09913c0.15608,-0.0412 0.28065,-0.15539 0.33384,-0.30608zM216.68768,150.3018c-1.7862,1.84426 -1.52115,3.77205 0.79508,5.78332c0.36304,0.31222 0.68615,0.27591 0.96933,-0.10891c1.34326,-1.8225 3.15487,-2.70468 5.4348,-2.64662c0.37435,0.01021 0.71528,-0.21423 0.85394,-0.56208c0.13866,-0.34786 0.04558,-0.74529 -0.23313,-0.9954l-4.01891,-3.6486c-0.29149,-0.25672 -0.69223,-0.34347 -1.05645,-0.22872c-1.23073,0.3812 -2.09114,1.73173 -2.74463,2.40701zM201.42886,149.57208c-0.53131,-0.15643 -1.10495,0.01391 -1.46478,0.43493c-0.35986,0.42102 -0.43882,1.01415 -0.20159,1.51465l1.04558,2.24363c0.22419,0.48681 0.70582,0.80368 1.24162,0.81684l1.74262,0.03268c0.7284,0.01557 1.34786,-0.52821 1.42676,-1.25251l0.15249,-1.42676c0.07501,-0.67779 -0.34751,-1.31156 -1.00201,-1.50302zM213.51829,154.61479c-1.3941,-1.6192 -3.03144,-2.56674 -4.91201,-2.84265c-0.32673,-0.05082 -0.58451,0.06534 -0.7733,0.34852c-2.30896,3.50704 1.04558,7.42793 3.46346,9.7151c0.71883,0.68252 1.39773,0.64622 2.0367,-0.10891c2.09114,-2.46145 2.15286,-4.83216 0.18517,-7.11206zM231.7178,156.52079l-3.20206,-3.67039c-0.35579,-0.41388 -0.73699,-0.43564 -1.1436,-0.06534l-1.51391,1.38321c-0.20243,0.18681 -0.30024,0.46132 -0.26092,0.73223c0.03932,0.27092 0.21063,0.50272 0.45695,0.6183l4.71597,2.24363c0.34138,0.17044 0.75571,0.07433 0.98718,-0.22901c0.23149,-0.30333 0.21486,-0.72832 -0.03964,-1.01261zM195.52571,157.63171l-0.47922,0.47922c-0.11415,0.11663 -0.17245,0.27686 -0.15994,0.43958c0.01251,0.16272 0.09463,0.31214 0.22528,0.40994l0.56634,0.41388c0.36304,0.26864 0.66801,0.21058 0.91489,-0.17427c0.78419,-1.23435 1.3578,-2.52681 1.72084,-3.87734c0.11034,-0.42758 -0.1344,-0.8665 -0.55613,-0.99738c-0.42176,-0.13088 -0.87197,0.09233 -1.02311,0.50727l-0.72972,2.0367c-0.10167,0.29043 -0.2614,0.54458 -0.47922,0.7624zM227.40482,161.70509c0.48205,-0.20513 0.80524,-0.66682 0.83303,-1.18995c0.02779,-0.52314 -0.24471,-1.01645 -0.70233,-1.2715l-4.7922,-2.63572c-0.49252,-0.2721 -1.10122,-0.21597 -1.5357,0.14159l-3.11494,2.58125c-0.30386,0.251 -0.48514,0.62055 -0.49765,1.01446c-0.01251,0.39392 0.14498,0.77422 0.43228,1.044l2.51592,2.35254c0.39778,0.37406 0.97946,0.47671 1.48123,0.2614zM201.9952,156.85842c-0.54677,-0.10658 -1.10333,0.1307 -1.405,0.59902l-2.15651,3.23475c-0.23961,0.36304 -0.27953,0.74789 -0.1198,1.1545l1.1545,2.91888c0.05727,0.13596 0.16729,0.24289 0.30484,0.29625c0.13755,0.05338 0.29088,0.04865 0.42488,-0.01309l6.69821,-3.13673c0.24688,-0.11618 0.32673,-0.30132 0.23961,-0.55547c-0.88583,-2.52681 -2.59942,-4.02618 -5.14072,-4.49815z" fill="#fef271" stroke-width="1"/><path d="M246.54097,129.35769l7.2101,1.13271l0.99112,3.59416c0.11618,0.41388 -0.02179,0.70793 -0.41388,0.88221l-3.82287,1.67726c-0.31222,0.26864 -0.62808,0.42113 -0.94754,0.45743c-0.36304,0.04357 -0.59902,-0.10891 -0.70793,-0.45743z" fill="#9ad915" stroke-width="1"/><path d="M253.75108,130.49037c1.21259,0.23234 2.26177,0.70431 3.14762,1.41589l-0.01089,2.06936c-0.00727,0.36304 0.167,0.58088 0.52279,0.65349c2.01854,0.42113 3.61595,0.12708 4.7922,-0.88221c1.18353,0.0363 1.92414,0.5119 2.22184,1.42676c-0.5954,2.34527 0.35579,3.88824 2.85354,4.62885l0.58813,2.38522c-4.08065,1.75714 -4.4945,4.17866 -1.24162,7.26455c0.25048,0.23974 0.63773,0.2628 0.91489,0.05447c0.87858,-0.63895 1.58289,-1.6083 2.11293,-2.90799c3.79746,3.09315 6.95233,2.94432 9.4646,-0.44654c12.63401,14.61624 16.47867,35.01581 9.2141,52.99747c-2.48324,0.52279 -5.09717,0.40299 -7.02494,1.96045c-3.08226,2.47234 -4.25854,5.79421 -3.47435,9.73689c0.25412,1.26341 0.52641,2.54133 0.81684,3.83377c-13.09871,14.19512 -29.58825,19.49557 -49.46867,15.90141c-3.49249,-0.6317 -7.37711,-2.06211 -11.65379,-4.2912l5.03181,-0.92578c0.39209,-0.07261 0.60992,-0.30497 0.65349,-0.69704l0.57723,-5.9358c0.02179,-0.24688 -0.08712,-0.39934 -0.32673,-0.45743l-6.14273,-1.42676c-0.32044,-0.07832 -0.65563,0.05227 -0.83863,0.32673l-4.14961,6.20809l-3.20206,-3.11494l-3.43078,-7.18832c-0.13942,-0.29971 -0.3945,-0.53125 -0.70793,-0.6426l-2.84265,-1.00201c-0.19347,-0.07176 -0.36534,-0.18757 -0.50101,-0.33763l-5.78332,-6.28432c-0.92213,-0.73334 -1.73535,-1.81885 -2.43966,-3.25653c0.29043,-0.90034 1.04558,-1.11092 2.26542,-0.6317c1.76441,0.69704 2.53768,0.69704 3.67039,2.36343c1.26341,1.85881 2.67203,3.6123 4.22586,5.26053c1.70994,1.82975 4.94469,1.66639 7.18832,2.78818c5.36582,2.65751 11.04749,4.28758 17.04501,4.89022c3.38723,0.34852 4.56349,-3.25653 8.02695,-1.45944c0.34127,0.18152 0.67528,0.16338 1.00201,-0.05447l1.57924,-1.03469c0.22509,-0.15249 0.45381,-0.15973 0.68615,-0.02179c3.6958,2.14923 4.98099,5.21336 3.85555,9.19234c-0.07988,0.28318 0.02903,0.4284 0.32673,0.43564c2.40701,0.05447 4.18229,-0.02179 6.43681,-0.94754c10.06365,-4.1605 22.57783,-13.46175 26.4116,-24.09174c1.61193,-4.48726 4.22586,-8.12497 4.90111,-12.43795c1.3578,-8.69858 1.15085,-17.46979 -0.62081,-26.31358c-0.02541,-0.11661 -0.09863,-0.21698 -0.20087,-0.27541c-0.10225,-0.05843 -0.22356,-0.0692 -0.33279,-0.02956l-7.02494,2.36343c-0.14299,0.05042 -0.25061,0.16994 -0.28583,0.3174c-0.03522,0.14746 0.0068,0.30272 0.11158,0.41232c3.06412,3.20206 5.5183,5.91039 7.36256,8.12497c0.77692,0.93665 1.17626,1.85516 1.19804,2.75553c0.08712,3.56148 -1.61193,3.48525 -3.98625,5.1734c-0.15016,0.10603 -0.2487,0.27039 -0.27152,0.45278c-0.02279,0.18239 0.03226,0.36594 0.15172,0.50569c0.65349,0.76965 0.94392,1.63734 0.87131,2.60304c-0.03924,0.46018 -0.36719,0.84429 -0.81555,0.95516c-0.44836,0.11087 -0.91753,-0.07615 -1.16669,-0.46505l-1.54656,-2.47234c-0.22414,-0.35804 -0.63834,-0.55019 -1.05645,-0.49011l-2.0367,0.30497c-0.19326,0.02919 -0.3578,0.15595 -0.43533,0.33535c-0.07753,0.1794 -0.05706,0.38612 0.05412,0.54685c1.80796,2.67927 4.03345,4.95196 6.67642,6.81801c0.35338,0.24918 0.58654,0.6404 0.6426,1.07824c0.21782,1.71357 -0.06534,3.34728 -0.84952,4.90111c-0.09069,0.17295 -0.28324,0.2669 -0.47536,0.23197c-0.19212,-0.03493 -0.33927,-0.19067 -0.36327,-0.38445l-0.35941,-3.74664c-0.02745,-0.2854 -0.16928,-0.5454 -0.39209,-0.71883l-4.08427,-3.12583c-0.34127,-0.2614 -0.54093,-0.1779 -0.59902,0.2505c-0.59902,4.23676 3.50704,6.86159 4.72687,10.66267c0.09617,0.29725 -0.02776,0.62131 -0.2977,0.77856c-0.26994,0.15724 -0.61298,0.10518 -0.82411,-0.12509c-2.73374,-2.94067 -6.8398,-6.38234 -6.30611,-10.89139c0.44291,-3.72486 -0.07261,-6.84704 -1.54656,-9.36658c2.53406,-1.79344 3.38723,-4.10968 2.55947,-6.94871c2.23636,0.82049 3.36544,-0.45019 3.38723,-3.81198c0.00727,-0.41388 -0.15973,-0.73699 -0.50101,-0.96933l-3.00603,-2.05846c-0.19154,-0.13199 -0.43572,-0.16145 -0.65315,-0.07882c-0.21745,0.08263 -0.38043,0.26682 -0.43599,0.4927c-0.2977,1.13271 -0.2142,2.46145 0.2505,3.98625l-3.60505,-1.81885c1.94593,-3.07864 1.81523,-5.81238 -0.39209,-8.20122c-0.25259,-0.27285 -0.35796,-0.65378 -0.28318,-1.0238c0.79508,-3.73575 0.55547,-5.92491 -1.93866,-9.08343c-2.45418,-3.10767 -4.71235,-6.33514 -6.77444,-9.68245c-0.19603,-0.31949 -0.4647,-0.40661 -0.80595,-0.2614l-2.70106,1.13271c-0.44291,-1.32874 -0.96208,-1.99675 -1.55746,-2.00402l3.82287,-1.67726c0.39209,-0.17427 0.53004,-0.46832 0.41388,-0.88221zM261.96317,137.88564c-0.0706,-0.11745 -0.18371,-0.20325 -0.31584,-0.23961l-3.34366,-0.90399c-0.21732,-0.05568 -0.44627,0.03046 -0.57295,0.2156c-0.12668,0.18514 -0.12403,0.42975 0.00658,0.61214l4.48726,6.21899c0.10492,0.15114 0.2803,0.23755 0.46407,0.22869c0.18377,-0.00886 0.35,-0.11174 0.43993,-0.27226l1.0129,-1.7862c0.09625,-0.16986 0.09207,-0.37872 -0.01089,-0.54458zM277.87547,150.79464c0.07922,-0.0674 0.07485,-0.22639 -0.01214,-0.44204c-0.08696,-0.21565 -0.24942,-0.47028 -0.45164,-0.70785c-0.20219,-0.2376 -0.4276,-0.43871 -0.62657,-0.55904c-0.199,-0.12036 -0.35526,-0.15008 -0.43445,-0.08268c-0.07922,0.0674 -0.07485,0.22639 0.01214,0.44204c0.08696,0.21565 0.24942,0.47028 0.45164,0.70785c0.20219,0.2376 0.4276,0.43871 0.62657,0.55904c0.199,0.12036 0.35526,0.15008 0.43445,0.08268zM266.37417,155.67127c-0.02628,0.16092 0.01293,0.32565 0.10891,0.45743l2.79908,3.8991c0.14974,0.20505 0.41084,0.2959 0.6555,0.22805c0.24469,-0.06782 0.42173,-0.28014 0.44453,-0.53303l0.66438,-8.49527c0.01787,-0.22189 -0.08657,-0.43593 -0.2725,-0.55836c-0.18593,-0.12245 -0.4238,-0.13384 -0.6206,-0.02977l-2.91888,1.51391c-0.16711,0.08842 -0.28379,0.24934 -0.31584,0.43564zM279.57455,157.05448c0.11565,-0.02969 0.2059,-0.12007 0.23538,-0.23577c0.02948,-0.11571 -0.00648,-0.23826 -0.09379,-0.31967l-5.66351,-5.33678c-0.09104,-0.08271 -0.22078,-0.10727 -0.33577,-0.06359c-0.11497,0.04368 -0.19566,0.14823 -0.2088,0.27052l-0.45743,6.91603c-0.00637,0.10352 0.03678,0.20391 0.11629,0.27052c0.07951,0.06661 0.18591,0.09151 0.2867,0.06711zM275.7081,168.84983c-0.12197,-0.133 -0.30606,-0.19014 -0.48189,-0.14955c-0.17583,0.04059 -0.31626,0.17258 -0.36764,0.34558l-0.86042,2.99514c-0.03414,0.1197 -0.0225,0.24783 0.03268,0.35941l1.82975,3.67039c0.0688,0.1316 0.19244,0.22589 0.33755,0.25743c0.14511,0.03154 0.29672,-0.00291 0.41396,-0.09405l3.02782,-2.35254c0.11153,-0.08702 0.18107,-0.21716 0.19143,-0.35822c0.01036,-0.14109 -0.03937,-0.27998 -0.13696,-0.38239zM270.09903,174.79653c-0.7987,1.56111 -0.26502,2.21457 1.60103,1.96045c0.42369,-0.05241 0.75389,-0.38808 0.80029,-0.81362c0.04643,-0.42552 -0.20288,-0.83128 -0.60426,-0.98347l-1.1436,-0.42478c-0.25264,-0.0945 -0.53572,0.01872 -0.65349,0.2614zM212.29846,218.51456c0.08916,0.11084 0.23017,0.16647 0.37099,0.14635c0.14083,-0.02012 0.2606,-0.11298 0.31518,-0.24437l1.00201,-2.39611c0.04381,-0.09815 0.04662,-0.20976 0.00775,-0.30997c-0.03887,-0.10021 -0.11616,-0.18075 -0.21467,-0.22372l-4.69419,-2.05846c-0.17017,-0.07697 -0.37094,-0.02692 -0.48506,0.12091c-0.11412,0.14786 -0.11171,0.35473 0.00584,0.49989zM240.98637,224.28699c-0.56634,-1.59014 -0.70793,-3.36179 -0.42478,-5.315c0.07668,-0.54088 -0.16785,-1.078 -0.62533,-1.37359c-0.45748,-0.29561 -1.04342,-0.29511 -1.49849,0.00127c-1.44492,0.92213 -2.86444,0.81684 -4.25854,-0.31584c-0.37076,-0.30873 -0.89839,-0.34286 -1.30582,-0.08448c-0.40743,0.25838 -0.60153,0.75019 -0.48038,1.21719l1.80796,7.10119c0.07988,0.34127 0.29043,0.5482 0.6317,0.62081c0.54458,0.12343 1.10365,0.0835 1.67726,-0.1198c0.09754,-0.02697 0.49926,-0.0619 1.00201,-0.08712c1.0964,-0.05809 2.1202,-0.2977 3.07137,-0.71883c0.42113,-0.18152 0.55547,-0.49011 0.40299,-0.92578zM225.4008,225.79c-0.01261,0.20389 0.06214,0.40352 0.20553,0.549c0.14342,0.14548 0.34194,0.22308 0.54598,0.21341l5.58729,-0.22872c0.2271,-0.01103 0.43562,-0.12882 0.56222,-0.31769c0.12663,-0.18884 0.15643,-0.42647 0.08035,-0.64075l-2.14561,-6.05561c-0.09228,-0.26512 -0.33049,-0.45227 -0.60992,-0.47922l-3.04958,-0.2614c-0.19434,-0.01806 -0.38765,0.04368 -0.53554,0.17105c-0.14788,0.12734 -0.23765,0.30936 -0.24863,0.50423z" fill="#bbee7a" stroke-width="1"/><path d="M256.89868,131.90626l5.3041,1.84064c-1.17626,1.00928 -2.77367,1.30333 -4.7922,0.88221c-0.35579,-0.07261 -0.53004,-0.29043 -0.52279,-0.65349z" fill="#9ad915" stroke-width="1"/><path d="M221.54524,132.58154c1.98223,0.5591 2.99876,1.9532 3.04958,4.18229c0.00727,0.37758 -0.14159,0.68252 -0.44654,0.91489l-3.51793,2.65751c-0.14537,0.11565 -0.34365,0.13919 -0.51206,0.06076c-0.1684,-0.07842 -0.278,-0.24535 -0.283,-0.43107c-0.11618,-2.24363 -0.61354,-4.23676 -1.49212,-5.97938c0.84228,-0.66074 1.90963,-1.12909 3.20206,-1.405z" fill="#9ad915" stroke-width="1"/><path d="M231.66333,133.82313l1.82975,5.82689c0.08786,0.28213 -0.0605,0.58366 -0.33763,0.68615l-3.40899,1.25251c-0.14418,0.05492 -0.30473,0.04738 -0.44313,-0.02078c-0.13842,-0.06817 -0.24223,-0.19085 -0.28659,-0.33863l-2.20005,-7.18832c-0.05262,-0.17081 -0.01983,-0.3565 0.08808,-0.49897c0.10793,-0.14246 0.27782,-0.2243 0.45648,-0.21988l3.79019,0.10891c0.23678,0.00814 0.44236,0.1656 0.5119,0.39209z" fill="#9ad915" stroke-width="1"/><path d="M239.79919,135.21724l-0.5119,2.65751c-0.05962,0.3064 -0.28054,0.5565 -0.57723,0.65349l-2.13472,0.68615c-0.44783,0.14368 -0.92808,-0.09886 -1.07824,-0.54458l-1.33964,-3.99715c-0.09458,-0.28445 -0.03427,-0.59765 0.15918,-0.82665c0.19344,-0.22901 0.49212,-0.34083 0.78839,-0.29516l3.99715,0.65349c0.22792,0.03961 0.43028,0.16935 0.56142,0.35994c0.13115,0.19059 0.18004,0.42594 0.13562,0.65296z" fill="#9ad915" stroke-width="1"/><path d="M245.69145,140.46689l-3.37634,-1.81885c-0.24387,-0.1276 -0.39844,-0.37829 -0.40299,-0.65349l-0.03268,-2.12382c-0.00555,-0.22158 0.08699,-0.43432 0.25288,-0.58133c0.16589,-0.14701 0.38823,-0.21327 0.60754,-0.18107l2.66838,0.3812c0.31338,0.04352 0.56592,0.27866 0.6317,0.58813l0.75151,3.57237c0.06309,0.28871 -0.04889,0.58757 -0.28615,0.76375c-0.23726,0.17618 -0.55574,0.19696 -0.81388,0.05309z" fill="#9ad915" stroke-width="1"/><path d="M264.42462,135.17369c2.18554,0.57361 3.59054,1.34326 4.21497,2.30896l-1.36142,2.31986c-2.49775,-0.74061 -3.44894,-2.28356 -2.85354,-4.62885z" fill="#9ad915" stroke-width="1"/><path d="M214.99952,135.69645c2.05484,2.39611 3.04958,5.44932 2.98424,9.15966c-0.00682,0.37322 -0.14543,0.73514 -0.39209,1.0238l-3.74664,4.24765c-0.29043,0.334 -0.64984,0.45019 -1.07824,0.34852l-3.74664,-0.8931c-0.47197,-0.10891 -0.63533,-0.39934 -0.49011,-0.87131l3.47435,-11.26169c0.58088,-0.65349 1.57924,-1.238 2.99514,-1.75352z" fill="#9ad915" stroke-width="1"/><path d="M261.96317,137.88564l2.16737,3.5288c0.10296,0.16586 0.10714,0.37472 0.01089,0.54458l-1.0129,1.7862c-0.0899,0.16052 -0.25616,0.26341 -0.43993,0.27226c-0.18377,0.00886 -0.35915,-0.07758 -0.46407,-0.22869l-4.48726,-6.21899c-0.13065,-0.18239 -0.13326,-0.427 -0.00658,-0.61214c0.12668,-0.18514 0.35563,-0.27131 0.57295,-0.2156l3.34366,0.90399c0.13215,0.03636 0.24524,0.12216 0.31584,0.23961z" fill="#9ad915" stroke-width="1"/><path d="M264.95831,165.76757c-4.2803,-0.20693 -7.25365,2.88623 -6.51304,7.18832c0.68252,3.9935 3.52155,5.33316 8.51706,4.01891c1.47396,2.51954 1.9895,5.64173 1.54656,9.36658c-0.53369,4.50905 3.57237,7.95072 6.30611,10.89139c0.21113,0.23028 0.55415,0.28234 0.82411,0.12509c0.26994,-0.15724 0.39387,-0.48133 0.2977,-0.77856c-1.21983,-3.80109 -5.32589,-6.42592 -4.72687,-10.66267c0.05809,-0.4284 0.25777,-0.5119 0.59902,-0.2505l4.08427,3.12583c0.22282,0.17343 0.36462,0.43342 0.39209,0.71883l0.35941,3.74664c0.02401,0.19379 0.17115,0.34952 0.36327,0.38445c0.19212,0.03493 0.38466,-0.05902 0.47536,-0.23197c0.78419,-1.55383 1.06735,-3.18755 0.84952,-4.90111c-0.05606,-0.43784 -0.28921,-0.82909 -0.6426,-1.07824c-2.64297,-1.86605 -4.86846,-4.13874 -6.67642,-6.81801c-0.11118,-0.16074 -0.13165,-0.36742 -0.05412,-0.54685c0.07753,-0.1794 0.24207,-0.30616 0.43533,-0.33535l2.0367,-0.30497c0.41811,-0.06007 0.83231,0.1321 1.05645,0.49011l1.54656,2.47234c0.24915,0.3889 0.71832,0.57589 1.16669,0.46505c0.44836,-0.11087 0.77631,-0.49495 0.81555,-0.95516c0.07261,-0.96571 -0.21782,-1.8334 -0.87131,-2.60304c-0.11943,-0.13971 -0.17451,-0.32327 -0.15172,-0.50569c0.02279,-0.18239 0.12136,-0.34675 0.27152,-0.45278c2.37433,-1.68816 4.07338,-1.61193 3.98625,-5.1734c-0.02179,-0.90034 -0.42113,-1.81885 -1.19804,-2.75553c-1.84426,-2.21457 -4.29847,-4.9229 -7.36256,-8.12497c-0.10479,-0.1096 -0.14677,-0.26483 -0.11158,-0.41232c0.03522,-0.14746 0.14286,-0.267 0.28583,-0.3174l7.02494,-2.36343c0.10925,-0.03964 0.23057,-0.02887 0.33279,0.02956c0.10225,0.05843 0.17546,0.1588 0.20087,0.27541c1.77166,8.84379 1.97861,17.615 0.62081,26.31358c-0.67528,4.31299 -3.28919,7.95072 -4.90111,12.43795c-3.83377,10.62999 -16.34797,19.93124 -26.4116,24.09174c-2.25452,0.92578 -4.0298,1.00201 -6.43681,0.94754c-0.2977,-0.00727 -0.40661,-0.15249 -0.32673,-0.43564c1.12544,-3.97898 -0.15973,-7.0431 -3.85555,-9.19234c-0.23234,-0.13797 -0.46108,-0.1307 -0.68615,0.02179l-1.57924,1.03469c-0.32673,0.21782 -0.66074,0.23599 -1.00201,0.05447c-3.46346,-1.79707 -4.63972,1.80796 -8.02695,1.45944c-5.99752,-0.60264 -11.6792,-2.23274 -17.04501,-4.89022c-2.24363,-1.12181 -5.47837,-0.95844 -7.18832,-2.78818c-1.55383,-1.64823 -2.96246,-3.40175 -4.22586,-5.26053c-1.13271,-1.66639 -1.906,-1.66639 -3.67039,-2.36343c-1.21983,-0.47922 -1.97496,-0.26864 -2.26542,0.6317l-3.59416,-11.29437l7.76555,-7.58041c0.33038,-0.32821 0.3807,-0.84498 0.1198,-1.23073l-2.30896,-3.47435c-0.34286,-0.50555 -0.34286,-1.17274 0,-1.68816c2.15651,-3.23475 4.13874,-7.75466 7.56952,-9.47549c2.04757,-1.0238 4.39649,-1.73173 7.04673,-2.12382c0.45902,-0.0697 0.9229,0.08995 1.2436,0.42797c0.32068,0.33802 0.45809,0.81216 0.36832,1.27107c-0.15973,0.79143 -0.00727,1.37959 0.45743,1.76441c-4.05159,7.48237 5.47837,13.71225 10.3577,5.67441l5.315,1.66639c0.37758,0.11618 0.68252,0.01817 0.91489,-0.29408l4.38924,-5.76153c0.27591,-0.36304 0.35579,-0.7624 0.23961,-1.19804l-1.75352,-6.5784c-0.11618,-0.4284 -0.01452,-0.80233 0.30497,-1.12181l3.01692,-2.96246c0.38718,-0.38295 0.4156,-0.99892 0.06534,-1.41589l-4.84667,-5.80511c-0.08461,-0.09897 -0.13435,-0.22142 -0.14159,-0.34852l-0.22872,-5.60907c-0.01452,-0.2977 0.1198,-0.48649 0.40299,-0.56634c3.25653,-0.98022 6.34969,-2.77732 9.73689,-2.92977c2.74463,-0.1198 5.26053,1.99313 8.01605,2.89712c0.15886,0.05045 0.33207,0.02536 0.4701,-0.06806c0.13802,-0.09344 0.22567,-0.24492 0.23784,-0.41116c0.17427,-2.49775 1.33239,-4.05524 3.47435,-4.6724l2.70106,-1.13271c0.34127,-0.14521 0.60992,-0.05809 0.80595,0.2614c2.06211,3.34728 4.32026,6.57475 6.77444,9.68245c2.49413,3.15849 2.73374,5.34768 1.93866,9.08343c-0.0748,0.37002 0.03057,0.75095 0.28318,1.0238c2.20733,2.38884 2.33802,5.12258 0.39209,8.20122zM237.98034,179.40359c-0.96933,3.19117 -4.0407,4.08427 -7.01404,4.01891c-0.70854,-0.01407 -1.32324,0.48657 -1.45288,1.18332c-0.12961,0.69675 0.26388,1.38496 0.93009,1.62665c2.79545,0.98749 5.45659,0.72972 7.98337,-0.7733c0.32996,-0.19519 0.73744,-0.19934 1.06735,-0.01089c2.18916,1.23073 5.816,3.15849 7.65664,0.39209c0.36671,-0.54833 0.39693,-1.25542 0.07832,-1.83305c-0.31861,-0.5776 -0.93281,-0.92927 -1.59223,-0.91158c-2.57763,0.05809 -4.14961,-1.13633 -4.71597,-3.58327c-0.15587,-0.67012 -0.74117,-1.15283 -1.42872,-1.17829c-0.68752,-0.02546 -1.30695,0.41264 -1.51195,1.06938z" fill="#9ad915" stroke-width="1"/><path d="M225.62951,140.35798c1.7862,2.54857 2.91888,6.63284 1.80796,9.70424c-0.05317,0.15069 -0.17774,0.26489 -0.33384,0.30608c-0.15608,0.0412 -0.32411,0.0042 -0.45034,-0.09913l-5.73977,-4.83578c-0.48715,-0.40799 -0.74492,-1.02782 -0.69072,-1.66092c0.0542,-0.63313 0.41356,-1.20011 0.96298,-1.51936l3.56148,-2.08025c0.30151,-0.17414 0.68353,-0.09395 0.88221,0.18517z" fill="#9ad915" stroke-width="1"/><path d="M206.86366,141.58871c0.71158,1.98223 0.46108,3.8628 -0.75151,5.64173c-0.23234,0.34127 -0.53731,0.43202 -0.91489,0.27229l-3.26743,-1.3941z" fill="#9ad915" stroke-width="1"/><path d="M267.86629,142.18773l1.7862,4.411c-0.53004,1.29971 -1.23435,2.26904 -2.11293,2.90799c-0.27716,0.20833 -0.66441,0.18527 -0.91489,-0.05447c-3.25288,-3.08588 -2.83903,-5.50741 1.24162,-7.26455z" fill="#9ad915" stroke-width="1"/><path d="M216.68768,150.3018c0.65349,-0.67528 1.51391,-2.02581 2.74463,-2.40701c0.36425,-0.11475 0.76497,-0.028 1.05645,0.22872l4.01891,3.6486c0.27872,0.25011 0.37179,0.64754 0.23313,0.9954c-0.13866,0.34786 -0.47961,0.57229 -0.85394,0.56208c-2.27993,-0.05809 -4.09154,0.82411 -5.4348,2.64662c-0.28318,0.38482 -0.60629,0.42113 -0.96933,0.10891c-2.31624,-2.01127 -2.58125,-3.93906 -0.79508,-5.78332z" fill="#9ad915" stroke-width="1"/><path d="M276.35071,149.00305c0.16491,-0.14035 0.63993,0.14693 1.06095,0.64165c0.42105,0.49471 0.62869,1.00955 0.46378,1.14989c-0.16491,0.14035 -0.63993,-0.14693 -1.06095,-0.64165c-0.42105,-0.49471 -0.62869,-1.00955 -0.46378,-1.14989z" fill="#4eb90f" stroke-width="1"/><path d="M201.42886,149.57208l2.94067,0.86042c0.6545,0.19146 1.077,0.82523 1.00201,1.50302l-0.15249,1.42676c-0.0789,0.72427 -0.69836,1.26809 -1.42676,1.25251l-1.74262,-0.03268c-0.5358,-0.01317 -1.01743,-0.33004 -1.24162,-0.81684l-1.04558,-2.24363c-0.23723,-0.50048 -0.15828,-1.09363 0.20159,-1.51465c0.35986,-0.42102 0.93347,-0.59133 1.46478,-0.43493z" fill="#9ad915" stroke-width="1"/><path d="M266.37417,155.67127l0.54458,-3.08226c0.03207,-0.18633 0.14873,-0.34725 0.31584,-0.43564l2.91888,-1.51391c0.1968,-0.10407 0.43466,-0.09268 0.6206,0.02977c0.18593,0.12245 0.29038,0.33646 0.2725,0.55836l-0.66438,8.49527c-0.02279,0.25288 -0.19984,0.4652 -0.44453,0.53303c-0.24469,0.06782 -0.50579,-0.023 -0.6555,-0.22805l-2.79908,-3.8991c-0.09598,-0.13178 -0.13522,-0.29654 -0.10891,-0.45743z" fill="#9ad915" stroke-width="1"/><path d="M279.57455,157.05448l-6.12095,1.56835c-0.10079,0.02441 -0.20719,-0.0005 -0.2867,-0.06711c-0.07951,-0.06661 -0.12266,-0.167 -0.11629,-0.27052l0.45743,-6.91603c0.01314,-0.12229 0.09384,-0.22684 0.2088,-0.27052c0.11497,-0.04368 0.24474,-0.01912 0.33577,0.06359l5.66351,5.33678c0.08733,0.08141 0.12329,0.20399 0.09379,0.31967c-0.02948,0.11571 -0.11973,0.20608 -0.23538,0.23577z" fill="#9ad915" stroke-width="1"/><path d="M213.51829,154.61479c1.96772,2.27993 1.906,4.65061 -0.18517,7.11206c-0.63895,0.75513 -1.31785,0.79143 -2.0367,0.10891c-2.41788,-2.2872 -5.77243,-6.20809 -3.46346,-9.7151c0.18879,-0.28318 0.44654,-0.39934 0.7733,-0.34852c1.88057,0.27591 3.51793,1.22345 4.91201,2.84265z" fill="#9ad915" stroke-width="1"/><path d="M231.7178,156.52079c0.25447,0.28429 0.27113,0.70931 0.03964,1.01261c-0.23149,0.30333 -0.6458,0.39944 -0.98718,0.22901l-4.71597,-2.24363c-0.24632,-0.11557 -0.41764,-0.34738 -0.45695,-0.6183c-0.03932,-0.27092 0.05849,-0.54543 0.26092,-0.73223l1.51391,-1.38321c0.40661,-0.37031 0.78781,-0.34852 1.1436,0.06534z" fill="#9ad915" stroke-width="1"/><path d="M196.00496,156.86931l0.72972,-2.0367c0.15114,-0.41494 0.60135,-0.63815 1.02311,-0.50727c0.42176,0.13088 0.6665,0.5698 0.55613,0.99738c-0.36304,1.35053 -0.93665,2.64297 -1.72084,3.87734c-0.24688,0.38482 -0.55182,0.44291 -0.91489,0.17427l-0.56634,-0.41388c-0.13065,-0.09781 -0.21277,-0.24722 -0.22528,-0.40994c-0.01251,-0.16272 0.04577,-0.32295 0.15994,-0.43958l0.47922,-0.47922c0.21782,-0.21782 0.37758,-0.47197 0.47922,-0.7624z" fill="#9ad915" stroke-width="1"/><path d="M227.40482,161.70509l-5.38033,2.29807c-0.50177,0.21531 -1.08345,0.11267 -1.48123,-0.2614l-2.51592,-2.35254c-0.28733,-0.26978 -0.44479,-0.65008 -0.43228,-1.044c0.01251,-0.39392 0.19379,-0.76346 0.49765,-1.01446l3.11494,-2.58125c0.43445,-0.35756 1.04318,-0.4137 1.5357,-0.14159l4.7922,2.63572c0.45762,0.25502 0.73009,0.74833 0.70233,1.2715c-0.02779,0.52314 -0.35098,0.98482 -0.83303,1.18995z" fill="#9ad915" stroke-width="1"/><path d="M201.9952,156.85842c2.54133,0.47197 4.25489,1.97134 5.14072,4.49815c0.08712,0.25412 0.00727,0.43929 -0.23961,0.55547l-6.69821,3.13673c-0.134,0.06174 -0.28733,0.06647 -0.42488,0.01309c-0.13755,-0.05338 -0.24757,-0.16029 -0.30484,-0.29625l-1.1545,-2.91888c-0.15973,-0.40661 -0.1198,-0.79143 0.1198,-1.1545l2.15651,-3.23475c0.30167,-0.46832 0.85822,-0.70561 1.405,-0.59902z" fill="#9ad915" stroke-width="1"/><path d="M192.49792,161.49816c3.60505,-0.14159 4.0298,2.74463 4.84667,5.1843c0.24878,0.73432 0.14196,1.54257 -0.28911,2.18702c-0.43104,0.64445 -1.13728,1.05177 -1.91095,1.1022c-1.48123,0.10167 -3.04596,-0.45381 -4.69419,-1.66639z" fill="#9ad915" stroke-width="1"/><path d="M269.52179,170.02611l-0.95844,-2.43966c-0.4647,-1.5248 -0.5482,-2.85354 -0.2505,-3.98625c0.05555,-0.22589 0.21854,-0.41007 0.43599,-0.4927c0.21745,-0.08263 0.46161,-0.05317 0.65315,0.07882l3.00603,2.05846c0.34127,0.23234 0.50828,0.55547 0.50101,0.96933c-0.02179,3.36179 -1.15085,4.63247 -3.38723,3.81198z" fill="#9ad915" stroke-width="1"/><path d="M222.35119,169.73204l-1.19804,-2.05846l7.24276,-3.74664c0.15579,-0.07911 0.33678,-0.09254 0.50254,-0.03728c0.16576,0.05526 0.30249,0.17459 0.37967,0.33136c1.61193,3.33276 -0.2614,10.11809 -5.0536,6.38234c-0.5954,-0.4647 -1.21983,-0.75513 -1.87332,-0.87131z" fill="#9ad915" stroke-width="1"/><path d="M221.15315,167.67357l1.19804,2.05846c0.34127,1.50302 0.37393,2.86806 0.09802,4.09516c-4.87935,8.03784 -14.40929,1.80796 -10.3577,-5.67441c3.02055,-3.15124 6.04109,-3.31098 9.06164,-0.47922z" fill="#3d8004" stroke-width="1"/><path d="M264.95831,165.76757l3.60505,1.81885l0.95844,2.43966c0.82774,2.83903 -0.02541,5.15526 -2.55947,6.94871c-4.99551,1.31423 -7.83454,-0.02541 -8.51706,-4.01891c-0.74061,-4.30209 2.23274,-7.39525 6.51304,-7.18832z" fill="#3d8004" stroke-width="1"/><path d="M275.7081,168.84983l3.98625,4.2912c0.09759,0.10241 0.14736,0.2413 0.13696,0.38239c-0.01036,0.14109 -0.0799,0.27121 -0.19143,0.35822l-3.02782,2.35254c-0.11724,0.09114 -0.26885,0.1256 -0.41396,0.09405c-0.14511,-0.03154 -0.26875,-0.12583 -0.33755,-0.25743l-1.82975,-3.67039c-0.05516,-0.11158 -0.06682,-0.23971 -0.03268,-0.35941l0.86042,-2.99514c0.05135,-0.173 0.19178,-0.30502 0.36764,-0.34558c0.17583,-0.04059 0.35992,0.01655 0.48189,0.14955z" fill="#9ad915" stroke-width="1"/><path d="M189.70971,171.19148l3.94268,1.26341c0.35579,0.11618 0.45381,0.34127 0.29408,0.67528l-2.10204,4.2912c-0.08802,0.19127 -0.0799,0.41034 0.02179,0.58813l1.79707,3.04958c0.31261,0.52673 0.25108,1.19474 -0.15249,1.6555c-0.65349,0.75513 -1.37232,0.69342 -2.15651,-0.18517c-0.81322,-0.91489 -1.6083,-1.28882 -2.38522,-1.12181z" fill="#9ad915" stroke-width="1"/><path d="M270.09903,174.79653c0.11777,-0.24268 0.40085,-0.3559 0.65349,-0.2614l1.1436,0.42478c0.40138,0.15219 0.65066,0.55796 0.60426,0.98347c-0.04643,0.42552 -0.3766,0.76119 -0.80029,0.81362c-1.86605,0.25412 -2.39974,-0.39934 -1.60103,-1.96045z" fill="#4eb90f" stroke-width="1"/><path d="M230.9663,183.4225c2.97335,0.06534 6.04472,-0.82774 7.01404,-4.01891c0.205,-0.65674 0.82443,-1.09484 1.51195,-1.06938c0.68752,0.02546 1.27285,0.5082 1.42872,1.17829c0.56634,2.44693 2.13834,3.64136 4.71597,3.58327c0.65941,-0.01766 1.27361,0.33398 1.59223,0.91158c0.31861,0.5776 0.28839,1.28472 -0.07832,1.83305c-1.84064,2.76642 -5.46748,0.83863 -7.65664,-0.39209c-0.32993,-0.18845 -0.73741,-0.18429 -1.06735,0.01089c-2.52681,1.50302 -5.18792,1.76076 -7.98337,0.7733c-0.66621,-0.2417 -1.05973,-0.92993 -0.93009,-1.62665c0.12961,-0.69675 0.74432,-1.19738 1.45288,-1.18332z" fill="#3d8004" stroke-width="1"/><path d="M288.33122,199.14966c-2.22911,5.46021 -5.45659,10.63726 -9.68245,15.5311c-0.29043,-1.29244 -0.56272,-2.57036 -0.81684,-3.83377c-0.78419,-3.94268 0.39209,-7.26455 3.47435,-9.73689c1.92776,-1.55746 4.5417,-1.43765 7.02494,-1.96045z" fill="#ffffff" stroke-width="1"/><path d="M195.86337,204.81318l5.78332,6.28432c0.13567,0.15005 0.30754,0.26586 0.50101,0.33763l2.84265,1.00201c0.31346,0.11134 0.56854,0.34289 0.70793,0.6426l3.43078,7.18832c-6.21534,-3.79019 -10.63726,-8.94184 -13.26571,-15.45487z" fill="#9ad915" stroke-width="1"/><path d="M212.29846,218.51456l-3.69218,-4.46547c-0.11756,-0.14513 -0.11999,-0.35204 -0.00584,-0.49989c0.11412,-0.14786 0.31489,-0.19791 0.48506,-0.12091l4.69419,2.05846c0.09855,0.04297 0.17583,0.12351 0.21467,0.22372c0.03887,0.10021 0.03607,0.21182 -0.00775,0.30997l-1.00201,2.39611c-0.05457,0.13139 -0.17435,0.22425 -0.31518,0.24437c-0.14083,0.02012 -0.28184,-0.03551 -0.37099,-0.14635z" fill="#9ad915" stroke-width="1"/><path d="M217.52634,226.29101l-5.19519,-2.90799l4.14961,-6.20809c0.183,-0.27446 0.51819,-0.40505 0.83863,-0.32673l6.14273,1.42676c0.23961,0.05809 0.34852,0.21058 0.32673,0.45743l-0.57723,5.9358c-0.04357,0.39209 -0.2614,0.62443 -0.65349,0.69704z" fill="#9ad915" stroke-width="1"/><path d="M240.58338,225.21274c-0.95119,0.42113 -1.97496,0.66074 -3.07137,0.71883c-0.50275,0.02525 -0.90447,0.06018 -1.00201,0.08712c-0.57361,0.20331 -1.13271,0.24323 -1.67726,0.1198c-0.34127,-0.07261 -0.55182,-0.27953 -0.6317,-0.62081l-1.80796,-7.10119c-0.12115,-0.467 0.07292,-0.95881 0.48038,-1.21719c0.40743,-0.25838 0.93506,-0.22425 1.30582,0.08448c1.3941,1.13271 2.81362,1.238 4.25854,0.31584c0.45508,-0.29638 1.04101,-0.29688 1.49849,-0.00127c0.45748,0.29561 0.70198,0.83271 0.62533,1.37359c-0.28318,1.9532 -0.14159,3.72486 0.42478,5.315c0.15249,0.43564 0.01817,0.74424 -0.40299,0.92578z" fill="#9ad915" stroke-width="1"/><path d="M225.4008,225.79l0.39209,-6.54572c0.011,-0.19487 0.10074,-0.37686 0.24863,-0.50423c0.14788,-0.12734 0.34122,-0.18911 0.53554,-0.17105l3.04958,0.2614c0.27943,0.02694 0.51764,0.21409 0.60992,0.47922l2.14561,6.05561c0.07607,0.21428 0.04625,0.4519 -0.08035,0.64075c-0.12663,0.18884 -0.33511,0.30666 -0.56222,0.31769l-5.58729,0.22872c-0.20405,0.00968 -0.40257,-0.06793 -0.54598,-0.21341c-0.14342,-0.14548 -0.21814,-0.34511 -0.20553,-0.549z" fill="#9ad915" stroke-width="1"/><path d="M140.33569,180c0,-55.04307 44.62123,-99.6643 99.66431,-99.6643c55.04307,0 99.66431,44.62123 99.66431,99.66431c0,55.04307 -44.62123,99.66431 -99.66431,99.66431c-55.04307,0 -99.66431,-44.62123 -99.66431,-99.66431z" fill="none" stroke-width="0"/></g></g></svg>