<svg version="1.1" xmlns="http://www.w3.org/2000/svg" xmlns:xlink="http://www.w3.org/1999/xlink" width="945" height="293.56" viewBox="0,0,945,293.56"><g transform="translate(232,-23.5)"><g data-paper-data="{&quot;isPaintingLayer&quot;:true}" fill="#000000" fill-rule="nonzero" stroke="none" stroke-width="1" stroke-linecap="butt" stroke-linejoin="miter" stroke-miterlimit="10" stroke-dasharray="" stroke-dashoffset="0" style="mix-blend-mode: normal"><path d="M-232,265.5v-242h10v242z"/><path d="M-217,265.5v-242h5v242z"/><path d="M-202,265.5v-242h15v242z"/><path d="M-177,265.5v-242h5v242z"/><path d="M-167,265.5v-242h10v242z"/><path d="M-147,265.5v-242h5v242z"/><path d="M-122,265.5v-242h5v242z"/><path d="M-102,265.5v-242h10v242z"/><path d="M-82,265.5v-242h5v242z"/><path d="M-67,265.5v-242h5v242z"/><path d="M-52,265.5v-242h10v242z"/><path d="M-37,265.5v-242h15v242z"/><path d="M-12,265.5v-242h15v242z"/><path d="M8,265.5v-242h5v242z"/><path d="M23,265.5v-242h10v242z"/><path d="M43,265.5v-242h10v242z"/><path d="M73,265.5v-242h5v242z"/><path d="M88,265.5v-242h5v242z"/><path d="M98,265.5v-242h5v242z"/><path d="M113,265.5v-242h10v242z"/><path d="M128,265.5v-242h5v242z"/><path d="M153,265.5v-242h10v242z"/><path d="M173,265.5v-242h5v242z"/><path d="M188,265.5v-242h15v242z"/><path d="M208,265.5v-242h15v242z"/><path d="M238,265.5v-242h10v242z"/><path d="M253,265.5v-242h5v242z"/><path d="M263,265.5v-242h5v242z"/><path d="M273,265.5v-242h20v242z"/><path d="M303,265.5v-242h5v242z"/><path d="M318,265.5v-242h5v242z"/><path d="M328,265.5v-242h15v242z"/><path d="M358,265.5v-242h10v242z"/><path d="M373,265.5v-242h15v242z"/><path d="M393,265.5v-242h10v242z"/><path d="M408,265.5v-242h15v242z"/><path d="M428,265.5v-242h5v242z"/><path d="M443,265.5v-242h20v242z"/><path d="M468,265.5v-242h5v242z"/><path d="M483,265.5v-242h5v242z"/><path d="M498,265.5v-242h10v242z"/><path d="M513,265.5v-242h5v242z"/><path d="M538,265.5v-242h5v242z"/><path d="M548,265.5v-242h5v242z"/><path d="M558,265.5v-242h20v242z"/><path d="M593,265.5v-242h10v242z"/><path d="M608,265.5v-242h10v242z"/><path d="M633,265.5v-242h10v242z"/><path d="M648,265.5v-242h10v242z"/><path d="M673,265.5v-242h15v242z"/><path d="M693,265.5v-242h5v242z"/><path d="M703,265.5v-242h10v242z"/><path d="M-127.951,302.865c0,-1.933 0.135,-3.823 0.406,-5.669c0.271,-1.845 0.729,-3.563 1.374,-5.152c0.644,-1.59 1.523,-2.985 2.636,-4.186c1.114,-1.201 2.502,-2.142 4.164,-2.824c1.663,-0.681 3.659,-1.021 5.988,-1.021c1.318,0 3.025,0.124 4.021,0.417v3.142c-1.084,-0.381 -2.549,-0.549 -3.955,-0.549c-2.725,0 -4.867,0.593 -6.427,1.78c-1.56,1.186 -2.685,2.794 -3.373,4.823c-0.689,2.029 -1.084,4.31 -1.187,6.844h0.242c0.454,-0.732 1.033,-1.395 1.736,-1.988c0.703,-0.594 1.556,-1.066 2.56,-1.418c1.003,-0.351 2.171,-0.527 3.504,-0.527c1.875,0 3.512,0.381 4.911,1.143c1.399,0.761 2.483,1.867 3.252,3.318c0.769,1.45 1.154,3.208 1.154,5.273c0,2.212 -0.41,4.124 -1.231,5.735c-0.82,1.611 -1.988,2.853 -3.504,3.724c-1.517,0.872 -3.322,1.308 -5.417,1.308c-1.567,0 -3.01,-0.301 -4.328,-0.901c-1.319,-0.601 -2.465,-1.494 -3.439,-2.681c-0.974,-1.186 -1.732,-2.662 -2.274,-4.427c-0.542,-1.766 -0.813,-3.82 -0.813,-6.164zM-117.141,313.961c3.985,0 6.592,-2.534 6.592,-7.69c0,-4.219 -2.131,-6.855 -6.438,-6.855c-1.465,0 -2.739,0.303 -3.823,0.911c-1.084,0.608 -1.926,1.374 -2.527,2.297c-0.601,0.922 -0.901,1.86 -0.901,2.812c0,0.967 0.143,1.948 0.429,2.944c0.285,0.996 0.721,1.919 1.307,2.769c0.586,0.85 1.326,1.531 2.219,2.043c0.894,0.513 1.941,0.769 3.142,0.769zM-80.685,298.163c0,1.948 -0.136,3.845 -0.407,5.691c-0.271,1.846 -0.732,3.567 -1.384,5.164c-0.652,1.596 -1.534,2.995 -2.648,4.196c-1.113,1.202 -2.508,2.143 -4.185,2.824c-1.678,0.681 -3.681,1.022 -6.01,1.022c-1.26,0 -3.105,-0.169 -4.131,-0.462v-3.164c1.084,0.381 2.659,0.615 4.065,0.615c2.739,0 4.893,-0.589 6.46,-1.768c1.568,-1.18 2.695,-2.784 3.384,-4.812c0.688,-2.029 1.077,-4.311 1.164,-6.845h-0.263c-0.44,0.703 -1.015,1.351 -1.725,1.945c-0.711,0.593 -1.571,1.069 -2.582,1.428c-1.011,0.359 -2.19,0.538 -3.537,0.538c-1.861,0 -3.483,-0.381 -4.867,-1.142c-1.385,-0.762 -2.461,-1.868 -3.23,-3.318c-0.769,-1.45 -1.154,-3.201 -1.154,-5.252c0,-2.212 0.421,-4.127 1.263,-5.746c0.843,-1.618 2.026,-2.867 3.549,-3.746c1.524,-0.879 3.318,-1.318 5.383,-1.318c1.582,0 3.033,0.3 4.351,0.901c1.318,0.6 2.465,1.497 3.439,2.691c0.974,1.194 1.728,2.67 2.263,4.428c0.535,1.758 0.802,3.801 0.802,6.13zM-91.54,287.111c-3.896,0 -6.547,2.541 -6.547,7.668c0,4.248 2.036,6.878 6.372,6.878c1.494,0 2.786,-0.301 3.878,-0.901c1.091,-0.601 1.933,-1.362 2.527,-2.285c0.593,-0.923 0.89,-1.868 0.89,-2.835c0,-0.967 -0.143,-1.948 -0.429,-2.944c-0.286,-0.996 -0.721,-1.915 -1.307,-2.758c-0.586,-0.842 -1.326,-1.523 -2.22,-2.043c-0.893,-0.52 -1.948,-0.78 -3.164,-0.78zM-54.051,300.492c0,2.608 -0.198,4.937 -0.594,6.987c-0.395,2.051 -1.018,3.787 -1.867,5.208c-0.85,1.421 -1.949,2.501 -3.296,3.241c-1.348,0.74 -2.967,1.11 -4.856,1.11c-2.388,0 -4.362,-0.652 -5.922,-1.956c-1.56,-1.304 -2.724,-3.19 -3.493,-5.658c-0.77,-2.468 -1.154,-5.445 -1.154,-8.932c0,-3.428 0.348,-6.376 1.044,-8.844c0.695,-2.468 1.82,-4.365 3.372,-5.691c1.553,-1.325 3.604,-1.988 6.153,-1.988c2.417,0 4.409,0.655 5.976,1.966c1.568,1.311 2.732,3.201 3.494,5.669c0.762,2.469 1.143,5.431 1.143,8.888zM-71.564,300.492c0,2.988 0.227,5.479 0.682,7.471c0.454,1.992 1.19,3.483 2.208,4.471c1.018,0.989 2.355,1.483 4.01,1.483c1.655,0 2.992,-0.49 4.01,-1.472c1.018,-0.981 1.758,-2.468 2.219,-4.46c0.461,-1.992 0.692,-4.49 0.692,-7.493c0,-2.944 -0.227,-5.409 -0.681,-7.394c-0.454,-1.984 -1.187,-3.479 -2.197,-4.482c-1.011,-1.003 -2.359,-1.505 -4.043,-1.505c-1.685,0 -3.032,0.502 -4.043,1.505c-1.011,1.003 -1.74,2.498 -2.186,4.482c-0.447,1.985 -0.671,4.45 -0.671,7.394zM-38.162,284.013c1.86,0 3.508,0.293 4.944,0.879c1.435,0.586 2.559,1.446 3.372,2.581c0.813,1.136 1.22,2.531 1.22,4.186c0,1.304 -0.282,2.443 -0.846,3.417c-0.564,0.974 -1.322,1.824 -2.274,2.549c-0.952,0.725 -2.007,1.373 -3.164,1.944c1.377,0.63 2.618,1.341 3.724,2.132c1.106,0.791 1.981,1.721 2.626,2.79c0.644,1.07 0.967,2.337 0.967,3.801c0,1.802 -0.436,3.359 -1.308,4.67c-0.871,1.311 -2.091,2.318 -3.658,3.021c-1.568,0.703 -3.406,1.055 -5.515,1.055c-2.271,0 -4.201,-0.341 -5.79,-1.022c-1.59,-0.681 -2.798,-1.663 -3.626,-2.944c-0.827,-1.282 -1.241,-2.824 -1.241,-4.626c0,-1.479 0.315,-2.765 0.945,-3.856c0.63,-1.091 1.464,-2.032 2.505,-2.823c1.04,-0.791 2.175,-1.458 3.405,-2c-1.069,-0.586 -2.047,-1.252 -2.933,-1.999c-0.886,-0.747 -1.589,-1.623 -2.109,-2.626c-0.52,-1.004 -0.78,-2.172 -0.78,-3.505c0,-1.626 0.413,-3.006 1.241,-4.142c0.828,-1.135 1.963,-1.999 3.406,-2.592c1.443,-0.594 3.072,-0.89 4.889,-0.89zM-45.15,308.468c0,3.282 2.3,5.647 6.988,5.647c4.453,0 6.987,-2.322 6.987,-5.779c0,-1.069 -0.278,-2.01 -0.835,-2.823c-0.557,-0.813 -1.348,-1.542 -2.373,-2.186c-1.025,-0.645 -2.234,-1.231 -3.626,-1.758l-0.791,-0.286c-1.347,0.557 -2.493,1.176 -3.438,1.857c-0.945,0.681 -1.667,1.454 -2.165,2.318c-0.498,0.864 -0.747,1.868 -0.747,3.01zM-38.206,287.001c-3.457,0 -5.889,1.707 -5.889,4.812c0,1.113 0.267,2.054 0.802,2.823c0.535,0.77 1.263,1.429 2.186,1.978c0.923,0.549 1.956,1.058 3.098,1.527c1.114,-0.469 2.103,-0.985 2.967,-1.549c0.864,-0.564 1.545,-1.234 2.043,-2.01c0.498,-0.777 0.747,-1.707 0.747,-2.791c0,-3.105 -2.38,-4.79 -5.954,-4.79zM-8.694,316.598h-3.56v-22.764c0,-0.864 0.004,-1.607 0.011,-2.23c0.008,-0.622 0.022,-1.194 0.044,-1.714c0.022,-0.52 0.055,-1.051 0.099,-1.593c-0.908,0.938 -1.575,1.451 -2.746,2.417l-3.67,2.945l-1.912,-2.483l8.702,-6.702h3.032zM24.092,291.967c0,1.435 -0.278,2.68 -0.835,3.735c-0.557,1.055 -1.333,1.915 -2.329,2.582c-0.996,0.666 -2.168,1.132 -3.516,1.395v0.176c5.098,0.645 7.669,3.369 7.669,7.646c0,1.861 -0.436,3.509 -1.308,4.944c-0.871,1.436 -2.204,2.56 -3.999,3.373c-1.794,0.813 -4.09,1.22 -6.888,1.22c-3.399,0 -6.218,-0.498 -8.855,-1.758v-3.428c2.666,1.318 5.969,2.109 8.899,2.109c5.859,0 8.305,-2.482 8.305,-6.525c0,-1.392 -0.362,-2.516 -1.087,-3.373c-0.725,-0.857 -1.765,-1.487 -3.12,-1.89c-1.355,-0.403 -2.985,-0.604 -4.889,-0.604h-3.208v-3.12h3.23c1.743,0 3.222,-0.257 4.438,-0.769c1.216,-0.513 2.143,-1.234 2.78,-2.165c0.637,-0.93 0.956,-2.032 0.956,-3.307c0,-3.251 -2.322,-5.097 -6.043,-5.097c-1.142,0 -2.183,0.117 -3.12,0.351c-0.938,0.235 -1.816,0.557 -2.637,0.967c-0.82,0.41 -1.64,0.886 -2.461,1.428l-1.845,-2.504c2.343,-1.817 5.742,-3.34 10.019,-3.34c6.563,0 9.844,3.325 9.844,7.954zM51.78,316.598h-21.05v-3.054l8.592,-8.723c1.596,-1.612 2.94,-3.047 4.032,-4.307c1.091,-1.26 1.922,-2.501 2.494,-3.724c0.571,-1.223 0.857,-2.567 0.857,-4.032c0,-3.633 -2.351,-5.603 -5.867,-5.603c-3.076,0 -5.244,1.098 -7.734,3.032l-1.956,-2.461c0.85,-0.718 1.776,-1.355 2.78,-1.912c1.003,-0.556 2.08,-0.996 3.23,-1.318c1.149,-0.322 2.376,-0.483 3.68,-0.483c1.977,0 3.684,0.344 5.12,1.032c1.435,0.689 2.545,1.67 3.328,2.945c0.784,1.274 1.176,2.79 1.176,4.548c0,1.699 -0.337,3.278 -1.011,4.735c-0.674,1.458 -1.618,2.901 -2.834,4.329c-1.216,1.428 -2.637,2.94 -4.263,4.537l-6.987,6.965v0.154h16.413zM79.886,309.149h-4.812v7.449h-3.559v-7.449h-15.535v-3.076l15.293,-21.775h3.801v21.556h4.812zM71.515,305.854v-10.503c0,-0.806 0.007,-1.535 0.022,-2.187c0.014,-0.652 0.036,-1.259 0.065,-1.823c0.03,-0.564 0.055,-1.103 0.077,-1.615c0.022,-0.513 0.041,-1.018 0.055,-1.517h-0.175c-0.557,1.172 -1.311,2.579 -2.044,3.604l-9.91,14.041zM87.887,316.598l13.184,-28.784h-17.513v-3.34h21.424v2.813l-13.096,29.311zM120.388,296.955c2.182,0 4.079,0.369 5.69,1.109c1.612,0.74 2.861,1.813 3.747,3.219c0.886,1.406 1.329,3.113 1.329,5.12c0,2.197 -0.476,4.09 -1.428,5.68c-0.952,1.589 -2.322,2.812 -4.109,3.669c-1.787,0.857 -3.926,1.286 -6.416,1.286c-3.34,0 -6.321,-0.586 -8.284,-1.758v-3.472c2.139,1.289 5.457,2.109 8.328,2.109c1.626,0 3.05,-0.26 4.274,-0.78c1.223,-0.52 2.175,-1.311 2.856,-2.373c0.681,-1.062 1.022,-2.398 1.022,-4.01c0,-4.277 -2.52,-6.701 -8.174,-6.701c-1.816,0 -4.263,0.351 -5.669,0.703l-1.846,-1.209l1.231,-15.073h15.974v3.34h-12.854l-0.813,9.69c1.113,-0.234 2.915,-0.549 5.142,-0.549zM140.891,316.598l13.183,-28.784h-17.512v-3.34h21.424v2.813l-13.096,29.311zM176.819,316.598h-3.56v-22.764c0,-0.864 0.004,-1.607 0.011,-2.23c0.008,-0.622 0.022,-1.194 0.044,-1.714c0.022,-0.52 0.055,-1.051 0.099,-1.593c-0.908,0.938 -1.574,1.451 -2.746,2.417l-3.67,2.945l-1.911,-2.483l8.701,-6.702h3.032zM210.792,316.598h-21.05v-3.054l8.591,-8.723c1.597,-1.612 2.941,-3.047 4.032,-4.307c1.091,-1.26 1.923,-2.501 2.494,-3.724c0.571,-1.223 0.857,-2.567 0.857,-4.032c0,-3.633 -2.351,-5.603 -5.867,-5.603c-3.076,0 -5.244,1.098 -7.734,3.032l-1.956,-2.461c0.85,-0.718 1.776,-1.355 2.78,-1.912c1.003,-0.556 2.08,-0.996 3.23,-1.318c1.15,-0.322 2.377,-0.483 3.68,-0.483c1.978,0 3.684,0.344 5.12,1.032c1.435,0.689 2.545,1.67 3.329,2.945c0.783,1.274 1.175,2.79 1.175,4.548c0,1.699 -0.337,3.278 -1.011,4.735c-0.673,1.458 -1.618,2.901 -2.834,4.329c-1.216,1.428 -2.637,2.94 -4.263,4.537l-6.987,6.965v0.154h16.414zM237.469,300.492c0,2.608 -0.197,4.937 -0.593,6.987c-0.396,2.051 -1.018,3.787 -1.868,5.208c-0.849,1.421 -1.948,2.501 -3.296,3.241c-1.347,0.74 -2.966,1.11 -4.856,1.11c-2.387,0 -4.361,-0.652 -5.921,-1.956c-1.56,-1.304 -2.725,-3.19 -3.494,-5.658c-0.769,-2.468 -1.153,-5.445 -1.153,-8.932c0,-3.428 0.348,-6.376 1.043,-8.844c0.696,-2.468 1.82,-4.365 3.373,-5.691c1.553,-1.325 3.604,-1.988 6.152,-1.988c2.417,0 4.41,0.655 5.977,1.966c1.567,1.311 2.732,3.201 3.494,5.669c0.761,2.469 1.142,5.431 1.142,8.888zM219.957,300.492c0,2.988 0.227,5.479 0.681,7.471c0.454,1.992 1.19,3.483 2.208,4.471c1.019,0.989 2.355,1.483 4.01,1.483c1.656,0 2.992,-0.49 4.01,-1.472c1.019,-0.981 1.758,-2.468 2.22,-4.46c0.461,-1.992 0.692,-4.49 0.692,-7.493c0,-2.944 -0.227,-5.409 -0.681,-7.394c-0.454,-1.984 -1.187,-3.479 -2.198,-4.482c-1.01,-1.003 -2.358,-1.505 -4.043,-1.505c-1.684,0 -3.032,0.502 -4.042,1.505c-1.011,1.003 -1.74,2.498 -2.187,4.482c-0.447,1.985 -0.67,4.45 -0.67,7.394zM252.897,296.955c2.183,0 4.08,0.369 5.691,1.109c1.611,0.74 2.86,1.813 3.746,3.219c0.886,1.406 1.33,3.113 1.33,5.12c0,2.197 -0.477,4.09 -1.429,5.68c-0.952,1.589 -2.321,2.812 -4.109,3.669c-1.787,0.857 -3.925,1.286 -6.416,1.286c-3.339,0 -6.32,-0.586 -8.283,-1.758v-3.472c2.138,1.289 5.456,2.109 8.327,2.109c1.626,0 3.051,-0.26 4.274,-0.78c1.223,-0.52 2.175,-1.311 2.856,-2.373c0.682,-1.062 1.022,-2.398 1.022,-4.01c0,-4.277 -2.519,-6.701 -8.174,-6.701c-1.816,0 -4.262,0.351 -5.669,0.703l-1.845,-1.209l1.23,-15.073h15.974v3.34h-12.854l-0.813,9.69c1.114,-0.234 2.915,-0.549 5.142,-0.549zM290.341,298.163c0,1.948 -0.135,3.845 -0.406,5.691c-0.271,1.846 -0.733,3.567 -1.385,5.164c-0.651,1.596 -1.534,2.995 -2.647,4.196c-1.114,1.202 -2.509,2.143 -4.186,2.824c-1.677,0.681 -3.68,1.022 -6.01,1.022c-1.259,0 -3.105,-0.169 -4.13,-0.462v-3.164c1.084,0.381 2.658,0.615 4.065,0.615c2.739,0 4.892,-0.589 6.459,-1.768c1.568,-1.18 2.696,-2.784 3.384,-4.812c0.689,-2.029 1.077,-4.311 1.165,-6.845h-0.264c-0.439,0.703 -1.014,1.351 -1.725,1.945c-0.71,0.593 -1.571,1.069 -2.582,1.428c-1.01,0.359 -2.189,0.538 -3.537,0.538c-1.86,0 -3.483,-0.381 -4.867,-1.142c-1.384,-0.762 -2.461,-1.868 -3.23,-3.318c-0.769,-1.45 -1.154,-3.201 -1.154,-5.252c0,-2.212 0.422,-4.127 1.264,-5.746c0.842,-1.618 2.025,-2.867 3.548,-3.746c1.524,-0.879 3.318,-1.318 5.384,-1.318c1.582,0 3.032,0.3 4.35,0.901c1.319,0.6 2.465,1.497 3.439,2.691c0.974,1.194 1.729,2.67 2.263,4.428c0.535,1.758 0.802,3.801 0.802,6.13zM279.487,287.111c-3.897,0 -6.548,2.541 -6.548,7.668c0,4.248 2.036,6.878 6.372,6.878c1.494,0 2.787,-0.301 3.878,-0.901c1.091,-0.601 1.934,-1.362 2.527,-2.285c0.593,-0.923 0.89,-1.868 0.89,-2.835c0,-0.967 -0.143,-1.948 -0.429,-2.944c-0.285,-0.996 -0.721,-1.915 -1.307,-2.758c-0.586,-0.842 -1.326,-1.523 -2.219,-2.043c-0.894,-0.52 -1.948,-0.78 -3.164,-0.78zM306.362,284.013c1.861,0 3.508,0.293 4.944,0.879c1.436,0.586 2.56,1.446 3.373,2.581c0.813,1.136 1.219,2.531 1.219,4.186c0,1.304 -0.282,2.443 -0.846,3.417c-0.564,0.974 -1.322,1.824 -2.274,2.549c-0.952,0.725 -2.007,1.373 -3.164,1.944c1.377,0.63 2.619,1.341 3.724,2.132c1.106,0.791 1.982,1.721 2.626,2.79c0.645,1.07 0.967,2.337 0.967,3.801c0,1.802 -0.436,3.359 -1.307,4.67c-0.872,1.311 -2.091,2.318 -3.659,3.021c-1.567,0.703 -3.406,1.055 -5.515,1.055c-2.27,0 -4.2,-0.341 -5.79,-1.022c-1.589,-0.681 -2.798,-1.663 -3.625,-2.944c-0.828,-1.282 -1.242,-2.824 -1.242,-4.626c0,-1.479 0.315,-2.765 0.945,-3.856c0.63,-1.091 1.465,-2.032 2.505,-2.823c1.04,-0.791 2.175,-1.458 3.406,-2c-1.07,-0.586 -2.047,-1.252 -2.934,-1.999c-0.886,-0.747 -1.589,-1.623 -2.109,-2.626c-0.52,-1.004 -0.78,-2.172 -0.78,-3.505c0,-1.626 0.414,-3.006 1.241,-4.142c0.828,-1.135 1.963,-1.999 3.406,-2.592c1.443,-0.594 3.073,-0.89 4.889,-0.89zM299.375,308.468c0,3.282 2.3,5.647 6.987,5.647c4.453,0 6.987,-2.322 6.987,-5.779c0,-1.069 -0.278,-2.01 -0.835,-2.823c-0.556,-0.813 -1.347,-1.542 -2.373,-2.186c-1.025,-0.645 -2.233,-1.231 -3.625,-1.758l-0.791,-0.286c-1.348,0.557 -2.494,1.176 -3.439,1.857c-0.945,0.681 -1.666,1.454 -2.164,2.318c-0.498,0.864 -0.747,1.868 -0.747,3.01zM306.318,287.001c-3.457,0 -5.888,1.707 -5.888,4.812c0,1.113 0.267,2.054 0.802,2.823c0.534,0.77 1.263,1.429 2.186,1.978c0.923,0.549 1.955,1.058 3.098,1.527c1.113,-0.469 2.102,-0.985 2.966,-1.549c0.865,-0.564 1.546,-1.234 2.044,-2.01c0.498,-0.777 0.747,-1.707 0.747,-2.791c0,-3.105 -2.381,-4.79 -5.955,-4.79zM342.115,291.967c0,1.435 -0.279,2.68 -0.835,3.735c-0.557,1.055 -1.333,1.915 -2.33,2.582c-0.996,0.666 -2.167,1.132 -3.515,1.395v0.176c5.098,0.645 7.668,3.369 7.668,7.646c0,1.861 -0.435,3.509 -1.307,4.944c-0.872,1.436 -2.205,2.56 -3.999,3.373c-1.795,0.813 -4.091,1.22 -6.889,1.22c-3.398,0 -6.218,-0.498 -8.855,-1.758v-3.428c2.667,1.318 5.97,2.109 8.899,2.109c5.86,0 8.306,-2.482 8.306,-6.525c0,-1.392 -0.362,-2.516 -1.088,-3.373c-0.725,-0.857 -1.765,-1.487 -3.12,-1.89c-1.355,-0.403 -2.984,-0.604 -4.889,-0.604h-3.208v-3.12h3.23c1.744,0 3.223,-0.257 4.439,-0.769c1.216,-0.513 2.142,-1.234 2.779,-2.165c0.638,-0.93 0.956,-2.032 0.956,-3.307c0,-3.251 -2.322,-5.097 -6.042,-5.097c-1.143,0 -2.183,0.117 -3.12,0.351c-0.938,0.235 -1.817,0.557 -2.637,0.967c-0.82,0.41 -1.641,0.886 -2.461,1.428l-1.846,-2.504c2.344,-1.817 5.742,-3.34 10.02,-3.34c6.562,0 9.844,3.325 9.844,7.954zM371.407,309.149h-4.812v7.449h-3.56v-7.449h-15.534v-3.076l15.293,-21.775h3.801v21.556h4.812zM363.035,305.854v-10.503c0,-0.806 0.008,-1.535 0.022,-2.187c0.015,-0.652 0.037,-1.259 0.066,-1.823c0.03,-0.564 0.055,-1.103 0.077,-1.615c0.022,-0.513 0.04,-1.018 0.055,-1.517h-0.176c-0.556,1.172 -1.311,2.579 -2.043,3.604l-9.91,14.041zM375.585,302.865c0,-1.933 0.135,-3.823 0.406,-5.669c0.271,-1.845 0.729,-3.563 1.373,-5.152c0.645,-1.59 1.524,-2.985 2.637,-4.186c1.113,-1.201 2.501,-2.142 4.164,-2.824c1.663,-0.681 3.658,-1.021 5.987,-1.021c1.319,0 3.025,0.124 4.021,0.417v3.142c-1.084,-0.381 -2.548,-0.549 -3.955,-0.549c-2.724,0 -4.867,0.593 -6.427,1.78c-1.56,1.186 -2.684,2.794 -3.372,4.823c-0.689,2.029 -1.084,4.31 -1.187,6.844h0.242c0.454,-0.732 1.032,-1.395 1.736,-1.988c0.703,-0.594 1.556,-1.066 2.559,-1.418c1.004,-0.351 2.172,-0.527 3.505,-0.527c1.875,0 3.512,0.381 4.911,1.143c1.399,0.761 2.483,1.867 3.252,3.318c0.769,1.45 1.153,3.208 1.153,5.273c0,2.212 -0.41,4.124 -1.23,5.735c-0.82,1.611 -1.989,2.853 -3.505,3.724c-1.516,0.872 -3.321,1.308 -5.416,1.308c-1.567,0 -3.01,-0.301 -4.329,-0.901c-1.318,-0.601 -2.464,-1.494 -3.438,-2.681c-0.974,-1.186 -1.732,-2.662 -2.274,-4.427c-0.542,-1.766 -0.813,-3.82 -0.813,-6.164zM386.395,313.961c3.985,0 6.592,-2.534 6.592,-7.69c0,-4.219 -2.131,-6.855 -6.438,-6.855c-1.465,0 -2.739,0.303 -3.823,0.911c-1.084,0.608 -1.927,1.374 -2.527,2.297c-0.601,0.922 -0.901,1.86 -0.901,2.812c0,0.967 0.143,1.948 0.428,2.944c0.286,0.996 0.722,1.919 1.308,2.769c0.586,0.85 1.325,1.531 2.219,2.043c0.894,0.513 1.941,0.769 3.142,0.769zM422.807,316.598h-21.05v-3.054l8.591,-8.723c1.597,-1.612 2.941,-3.047 4.032,-4.307c1.091,-1.26 1.923,-2.501 2.494,-3.724c0.571,-1.223 0.857,-2.567 0.857,-4.032c0,-3.633 -2.351,-5.603 -5.867,-5.603c-3.076,0 -5.244,1.098 -7.734,3.032l-1.956,-2.461c0.85,-0.718 1.777,-1.355 2.78,-1.912c1.003,-0.556 2.08,-0.996 3.23,-1.318c1.15,-0.322 2.377,-0.483 3.68,-0.483c1.978,0 3.684,0.344 5.12,1.032c1.435,0.689 2.545,1.67 3.329,2.945c0.783,1.274 1.175,2.79 1.175,4.548c0,1.699 -0.337,3.278 -1.01,4.735c-0.674,1.458 -1.619,2.901 -2.835,4.329c-1.216,1.428 -2.637,2.94 -4.263,4.537l-6.987,6.965v0.154h16.414zM448.122,291.967c0,1.435 -0.278,2.68 -0.835,3.735c-0.557,1.055 -1.333,1.915 -2.329,2.582c-0.996,0.666 -2.168,1.132 -3.516,1.395v0.176c5.098,0.645 7.669,3.369 7.669,7.646c0,1.861 -0.436,3.509 -1.308,4.944c-0.871,1.436 -2.204,2.56 -3.999,3.373c-1.794,0.813 -4.09,1.22 -6.888,1.22c-3.398,0 -6.218,-0.498 -8.855,-1.758v-3.428c2.666,1.318 5.969,2.109 8.899,2.109c5.859,0 8.306,-2.482 8.306,-6.525c0,-1.392 -0.363,-2.516 -1.088,-3.373c-0.725,-0.857 -1.765,-1.487 -3.12,-1.89c-1.355,-0.403 -2.985,-0.604 -4.889,-0.604h-3.208v-3.12h3.23c1.743,0 3.223,-0.257 4.438,-0.769c1.216,-0.513 2.143,-1.234 2.78,-2.165c0.637,-0.93 0.956,-2.032 0.956,-3.307c0,-3.251 -2.322,-5.097 -6.043,-5.097c-1.142,0 -2.182,0.117 -3.12,0.351c-0.937,0.235 -1.816,0.557 -2.637,0.967c-0.82,0.41 -1.64,0.886 -2.461,1.428l-1.845,-2.504c2.344,-1.817 5.742,-3.34 10.019,-3.34c6.563,0 9.844,3.325 9.844,7.954zM465.373,284.013c1.861,0 3.509,0.293 4.944,0.879c1.436,0.586 2.56,1.446 3.373,2.581c0.813,1.136 1.22,2.531 1.22,4.186c0,1.304 -0.282,2.443 -0.846,3.417c-0.564,0.974 -1.322,1.824 -2.275,2.549c-0.952,0.725 -2.006,1.373 -3.164,1.944c1.377,0.63 2.619,1.341 3.725,2.132c1.106,0.791 1.981,1.721 2.626,2.79c0.644,1.07 0.966,2.337 0.966,3.801c0,1.802 -0.435,3.359 -1.307,4.67c-0.872,1.311 -2.091,2.318 -3.658,3.021c-1.568,0.703 -3.406,1.055 -5.516,1.055c-2.27,0 -4.2,-0.341 -5.789,-1.022c-1.59,-0.681 -2.798,-1.663 -3.626,-2.944c-0.828,-1.282 -1.241,-2.824 -1.241,-4.626c0,-1.479 0.315,-2.765 0.944,-3.856c0.63,-1.091 1.465,-2.032 2.505,-2.823c1.04,-0.791 2.176,-1.458 3.406,-2c-1.069,-0.586 -2.047,-1.252 -2.933,-1.999c-0.886,-0.747 -1.59,-1.623 -2.11,-2.626c-0.52,-1.004 -0.78,-2.172 -0.78,-3.505c0,-1.626 0.414,-3.006 1.242,-4.142c0.827,-1.135 1.963,-1.999 3.406,-2.592c1.442,-0.594 3.072,-0.89 4.888,-0.89zM458.386,308.468c0,3.282 2.3,5.647 6.987,5.647c4.454,0 6.988,-2.322 6.988,-5.779c0,-1.069 -0.279,-2.01 -0.835,-2.823c-0.557,-0.813 -1.348,-1.542 -2.373,-2.186c-1.026,-0.645 -2.234,-1.231 -3.626,-1.758l-0.791,-0.286c-1.347,0.557 -2.494,1.176 -3.438,1.857c-0.945,0.681 -1.667,1.454 -2.165,2.318c-0.498,0.864 -0.747,1.868 -0.747,3.01zM465.33,287.001c-3.458,0 -5.889,1.707 -5.889,4.812c0,1.113 0.267,2.054 0.802,2.823c0.535,0.77 1.263,1.429 2.186,1.978c0.923,0.549 1.956,1.058 3.098,1.527c1.114,-0.469 2.102,-0.985 2.967,-1.549c0.864,-0.564 1.545,-1.234 2.043,-2.01c0.498,-0.777 0.747,-1.707 0.747,-2.791c0,-3.105 -2.38,-4.79 -5.954,-4.79zM503.916,309.149h-4.812v7.449h-3.559v-7.449h-15.535v-3.076l15.293,-21.775h3.801v21.556h4.812zM495.545,305.854v-10.503c0,-0.806 0.007,-1.535 0.022,-2.187c0.014,-0.652 0.036,-1.259 0.066,-1.823c0.029,-0.564 0.055,-1.103 0.077,-1.615c0.022,-0.513 0.04,-1.018 0.055,-1.517h-0.176c-0.557,1.172 -1.311,2.579 -2.044,3.604l-9.909,14.041zM511.917,316.598l13.184,-28.784h-17.512v-3.34h21.423v2.813l-13.096,29.311zM547.845,316.598h-3.559v-22.764c0,-0.864 0.004,-1.607 0.011,-2.23c0.007,-0.622 0.022,-1.194 0.044,-1.714c0.022,-0.52 0.055,-1.051 0.099,-1.593c-0.909,0.938 -1.575,1.451 -2.747,2.417l-3.669,2.945l-1.912,-2.483l8.701,-6.702h3.032zM581.862,298.163c0,1.948 -0.135,3.845 -0.406,5.691c-0.271,1.846 -0.733,3.567 -1.385,5.164c-0.652,1.596 -1.534,2.995 -2.647,4.196c-1.114,1.202 -2.509,2.143 -4.186,2.824c-1.678,0.681 -3.681,1.022 -6.01,1.022c-1.26,0 -3.105,-0.169 -4.131,-0.462v-3.164c1.084,0.381 2.659,0.615 4.065,0.615c2.74,0 4.893,-0.589 6.46,-1.768c1.568,-1.18 2.696,-2.784 3.384,-4.812c0.689,-2.029 1.077,-4.311 1.165,-6.845h-0.264c-0.44,0.703 -1.014,1.351 -1.725,1.945c-0.71,0.593 -1.571,1.069 -2.582,1.428c-1.01,0.359 -2.19,0.538 -3.537,0.538c-1.861,0 -3.483,-0.381 -4.867,-1.142c-1.385,-0.762 -2.461,-1.868 -3.23,-3.318c-0.769,-1.45 -1.154,-3.201 -1.154,-5.252c0,-2.212 0.421,-4.127 1.264,-5.746c0.842,-1.618 2.025,-2.867 3.548,-3.746c1.524,-0.879 3.318,-1.318 5.384,-1.318c1.582,0 3.032,0.3 4.35,0.901c1.318,0.6 2.465,1.497 3.439,2.691c0.974,1.194 1.728,2.67 2.263,4.428c0.535,1.758 0.802,3.801 0.802,6.13zM571.008,287.111c-3.897,0 -6.548,2.541 -6.548,7.668c0,4.248 2.036,6.878 6.372,6.878c1.494,0 2.787,-0.301 3.878,-0.901c1.091,-0.601 1.933,-1.362 2.527,-2.285c0.593,-0.923 0.89,-1.868 0.89,-2.835c0,-0.967 -0.143,-1.948 -0.429,-2.944c-0.285,-0.996 -0.721,-1.915 -1.307,-2.758c-0.586,-0.842 -1.326,-1.523 -2.219,-2.043c-0.894,-0.52 -1.949,-0.78 -3.164,-0.78zM608.32,316.598h-21.05v-3.054l8.591,-8.723c1.597,-1.612 2.941,-3.047 4.032,-4.307c1.092,-1.26 1.923,-2.501 2.494,-3.724c0.572,-1.223 0.857,-2.567 0.857,-4.032c0,-3.633 -2.351,-5.603 -5.866,-5.603c-3.077,0 -5.245,1.098 -7.735,3.032l-1.955,-2.461c0.849,-0.718 1.776,-1.355 2.779,-1.912c1.004,-0.556 2.08,-0.996 3.23,-1.318c1.15,-0.322 2.377,-0.483 3.681,-0.483c1.977,0 3.684,0.344 5.119,1.032c1.436,0.689 2.545,1.67 3.329,2.945c0.784,1.274 1.176,2.79 1.176,4.548c0,1.699 -0.337,3.278 -1.011,4.735c-0.674,1.458 -1.619,2.901 -2.835,4.329c-1.215,1.428 -2.636,2.94 -4.262,4.537l-6.988,6.965v0.154h16.414z"/></g></g></svg>