<svg version="1.1" xmlns="http://www.w3.org/2000/svg" xmlns:xlink="http://www.w3.org/1999/xlink" width="199.32861" height="199.32861" viewBox="0,0,199.32861,199.32861"><g transform="translate(-140.33569,-80.33569)"><g data-paper-data="{&quot;isPaintingLayer&quot;:true}" fill-rule="nonzero" stroke="none" stroke-linecap="butt" stroke-linejoin="miter" stroke-miterlimit="10" stroke-dasharray="" stroke-dashoffset="0" style="mix-blend-mode: normal"><path d="M304.86742,180c0,35.8253 -29.04212,64.86742 -64.86742,64.86742c-35.8253,0 -64.86742,-29.04212 -64.86742,-64.86742c0,-35.8253 29.04212,-64.86742 64.86742,-64.86742c35.8253,0 64.86742,29.04212 64.86742,64.86742zM192.53322,142.34737c-8.79156,11.26101 -13.05156,24.04526 -12.78002,38.35275c-0.05939,3.25863 0.25457,6.83553 0.94194,10.73063c0.22911,1.31533 0.87408,2.03666 1.93483,2.16394c0.43279,0.05093 0.82315,0.21215 1.17108,0.48372c5.32925,4.09028 11.30767,6.33061 17.93529,6.72094c2.6137,0.15275 4.88373,0.53038 6.81007,1.13288c9.02917,2.80888 18.24079,4.32365 27.63486,4.5443c2.39305,-0.9165 5.01952,-1.19654 7.87929,-0.84011c4.54853,0.57704 6.85673,0.86558 6.92462,0.86558c11.65137,0.24611 22.82748,-2.287 33.52842,-7.59925c0.29765,-0.14944 0.65294,-0.12568 0.928,0.06211c0.27506,0.18779 0.42661,0.51001 0.39583,0.84166c-0.19095,2.46945 -1.51478,4.49337 -2.43125,6.46637c-1.91784,4.10724 -4.17514,8.00661 -6.77187,11.69803c-0.21215,0.3055 -0.47098,0.56008 -0.77649,0.76375l-3.11861,2.08758c-0.10884,0.07543 -0.23464,0.1275 -0.36913,0.15275c-5.21893,1.09469 -9.55955,3.37322 -14.81664,3.5514c-16.87876,0.59827 -32.63737,1.94757 -46.37206,-5.53716c-8.22299,-4.48064 -15.14761,-7.94295 -22.19952,-12.76729c-1.41292,-0.9674 -2.72402,-2.94043 -4.46791,-3.93329c-0.69586,-0.39036 -0.89527,-0.21215 -0.59827,0.53461c3.87813,9.76746 10.03053,17.60009 18.45717,23.49788c1.90087,1.3323 4.70128,2.65189 8.4012,3.95876c6.22453,2.20214 12.24537,6.10997 18.06257,7.23012c5.80447,1.12015 11.6556,1.14562 17.55343,0.07636c1.96027,-0.35643 4.41698,-1.55294 6.8228,-1.73116c0.20476,-0.00643 0.38891,0.12386 0.45102,0.31907c0.06211,0.19521 -0.01289,0.40794 -0.18372,0.52105l-0.67463,0.42006c-0.07874,0.04249 -0.12052,0.13143 -0.10297,0.21916c0.01755,0.08773 0.09033,0.15377 0.17936,0.1627l4.06058,0.52188c0.34326,0.04719 0.68953,-0.07611 0.92924,-0.33097c0.77222,-0.82315 1.73116,-1.14562 2.87677,-0.9674c0.34793,0.05093 0.6789,0.01273 0.99286,-0.11456c2.0027,-0.81465 4.00542,-1.62083 6.00812,-2.41852c2.07059,-0.82315 3.9248,-1.87967 5.56263,-3.16954c5.21043,-4.09878 8.56242,-6.90766 10.05597,-8.42667c8.32481,-8.45213 13.70499,-19.00451 16.14047,-31.65724l0.6492,-5.49897c1.02683,-7.97688 0.18668,-15.8562 -2.52037,-23.6379c-1.30686,-3.75085 -3.45808,-8.53699 -6.45364,-14.35842c-2.14698,-4.1921 -5.23166,-7.03494 -9.25405,-8.52849c-1.96027,-1.80752 -3.57263,-2.83434 -4.83707,-3.08045c-3.70842,-0.70433 -6.53003,0.76799 -8.46483,4.41698c-11.75319,-2.40155 -23.99433,-3.03376 -36.72342,-1.89664c-4.35335,0.39036 -8.44786,1.58264 -12.28357,3.57687c-4.84977,2.52037 -9.97961,2.68582 -14.89303,5.00252c-0.58554,-1.12015 -0.89951,-2.29546 -0.94194,-3.52597c-0.01697,-0.40733 0.10609,-0.76375 0.36913,-1.06926c2.65613,-3.04649 3.75508,-6.43244 3.29683,-10.15782c17.37944,-7.62898 35.23411,-9.38133 53.56399,-5.25712c5.40988,1.22201 8.31208,4.88796 14.07838,4.91343c0.25695,0.00519 0.48594,-0.1614 0.56005,-0.40748c0.07413,-0.24611 -0.02475,-0.51144 -0.24184,-0.64901c-28.39858,-19.13183 -60.90867,-13.6583 -82.87907,11.57074z" fill="#106f0d" stroke-width="1"/><path d="M207.45172,132.17682c-4.8795,1.90087 -9.24555,5.21043 -13.09822,9.92868c-0.80618,0.9844 -1.41292,1.06499 -1.82025,0.24184c21.97041,-25.22904 54.48049,-30.70257 82.87907,-11.57074c0.21709,0.13758 0.31595,0.40294 0.24184,0.64901c-0.07413,0.24611 -0.30309,0.4127 -0.56005,0.40748c-5.76627,-0.02546 -8.66851,-3.69142 -14.07838,-4.91343c-18.32988,-4.12421 -36.18454,-2.37186 -53.56399,5.25712z" fill="#4eb90f" stroke-width="1"/><path d="M207.45172,132.17682c0.45825,3.72538 -0.6407,7.1113 -3.29683,10.15782c-0.26307,0.3055 -0.38613,0.6619 -0.36913,1.06926c0.04243,1.23047 0.35643,2.40579 0.94194,3.52597c-8.69821,5.94872 -16.18717,13.20854 -22.46685,21.77946c-0.1738,0.24122 -0.1755,0.56805 -0.0042,0.809c0.17126,0.24095 0.47639,0.34095 0.75522,0.2475l11.92714,-3.78054l-4.96435,11.53255l-10.22145,3.18227c-0.27154,-14.30749 3.98846,-27.09174 12.78002,-38.35275c0.40733,0.82315 1.01409,0.74252 1.82025,-0.24184c3.85267,-4.71825 8.21875,-8.02781 13.09822,-9.92868z" fill="#199d0d" stroke-width="1"/><path d="M281.92962,138.91053c3.46231,4.17514 5.58806,13.87471 -2.16394,15.09671c-5.77901,-1.81601 -9.49166,-6.40274 -11.13795,-13.76015c1.93483,-3.64899 4.75644,-5.12134 8.46483,-4.41698c1.26444,0.24611 2.87677,1.2729 4.83707,3.08045z" fill="#ffffff" stroke-width="1"/><path d="M268.62772,140.24705c1.6463,7.35741 5.35895,11.94414 11.13795,13.76015c-0.60251,0.72132 -0.44129,2.18091 0.48372,4.37882c0.3055,0.73829 0.37763,1.34503 0.21641,1.82025c-0.25457,0.75526 -0.78072,1.19654 -1.5784,1.32383c-10.24268,-5.45654 -21.15999,-7.39561 -32.75193,-5.8172c-2.73252,0.37339 -5.2274,0.44975 -7.4847,0.22911c-9.47043,-0.92924 -18.68631,1.40019 -33.00654,5.10437c-2.17244,0.56008 -5.74081,2.20637 -10.70516,4.93889l-11.92714,3.78054c-0.27883,0.09342 -0.58396,-0.00658 -0.75522,-0.2475c-0.17126,-0.24095 -0.16956,-0.56777 0.0042,-0.809c6.27969,-8.57092 13.76862,-15.83074 22.46685,-21.77946c4.91343,-2.31669 10.04323,-2.48218 14.89303,-5.00252c3.8357,-1.99423 7.93022,-3.18651 12.28357,-3.57687c12.72909,-1.13712 24.97023,-0.50492 36.72342,1.89664z" fill="#4eb90f" stroke-width="1"/><path d="M281.92962,138.91053c4.02239,1.49355 7.10707,4.33639 9.25405,8.52849c2.99559,5.82143 5.1468,10.60757 6.45364,14.35842c2.70705,7.7817 3.54717,15.66102 2.52037,23.6379l-8.71944,-5.2062c-0.14506,-0.08566 -0.32256,-0.09604 -0.47664,-0.02787c-0.15405,0.0682 -0.26573,0.20655 -0.29985,0.37154l-3.43685,16.02592c-0.09713,0.43813 0.07979,0.8916 0.44796,1.14818c0.36817,0.25661 0.85482,0.26564 1.23227,0.0229l10.60334,-6.83553c-2.43548,12.6527 -7.81566,23.20511 -16.14047,31.65724c-1.49355,1.51901 -4.84553,4.32789 -10.05597,8.42667c-1.6378,1.28987 -3.49201,2.34639 -5.56263,3.16954c-2.0027,0.79768 -4.00542,1.60387 -6.00812,2.41852c-0.31397,0.12729 -0.64493,0.16548 -0.99286,0.11456c-1.14562,-0.17821 -2.10455,0.14425 -2.87677,0.9674c-0.23971,0.25482 -0.58597,0.37815 -0.92924,0.33097l-4.06058,-0.52188c-0.08903,-0.00893 -0.16181,-0.07497 -0.17936,-0.1627c-0.01755,-0.08773 0.02423,-0.17667 0.10297,-0.21916l0.67463,-0.42006c0.17083,-0.1131 0.24583,-0.32584 0.18372,-0.52105c-0.06211,-0.19521 -0.24626,-0.3255 -0.45102,-0.31907c-2.40579,0.17821 -4.8625,1.37473 -6.8228,1.73116c-5.89783,1.06926 -11.74896,1.04379 -17.55343,-0.07636c-5.8172,-1.12015 -11.83805,-5.02798 -18.06257,-7.23012c-3.69992,-1.30686 -6.50033,-2.62643 -8.4012,-3.95876c-8.42667,-5.89783 -14.57903,-13.73045 -18.45717,-23.49788c-0.297,-0.74676 -0.09759,-0.92497 0.59827,-0.53461c1.74389,0.99286 3.05499,2.96586 4.46791,3.93329c7.05191,4.82434 13.97653,8.28665 22.19952,12.76729c13.73469,7.4847 29.4933,6.13543 46.37206,5.53716c5.25712,-0.17821 9.59774,-2.45671 14.81664,-3.5514c0.13449,-0.02525 0.26029,-0.07732 0.36913,-0.15275l3.11861,-2.08758c0.3055,-0.20368 0.56431,-0.45825 0.77649,-0.76375c2.59673,-3.69142 4.85403,-7.59079 6.77187,-11.69803c0.9165,-1.973 2.2403,-3.99692 2.43125,-6.46637c0.03078,-0.33165 -0.12077,-0.65386 -0.39583,-0.84166c-0.27506,-0.18779 -0.63035,-0.21156 -0.928,-0.06211c-10.70093,5.31229 -21.87705,7.84536 -33.52842,7.59925c-0.06789,0 -2.37609,-0.28854 -6.92462,-0.86558c-2.85981,-0.35643 -5.48624,-0.07636 -7.87929,0.84011c4.2006,-3.87813 7.13253,-6.33908 8.7958,-7.38287c4.27696,-2.69009 7.76473,-6.1227 10.46332,-10.29784c1.6548,-2.5543 2.87254,-4.30669 3.65326,-5.25712c1.35776,-1.67176 2.71129,-3.33079 4.06058,-4.97709c5.19347,2.99559 8.98674,1.6675 11.3798,-3.98419l14.39659,3.84417c0.29608,0.07812 0.61165,0.00949 0.84852,-0.18455c0.23687,-0.19404 0.36632,-0.48993 0.34799,-0.79558l-0.58554,-10.19599c-0.00797,-0.20581 -0.08903,-0.40396 -0.22911,-0.56008l-1.34929,-1.56567c3.25863,-0.9759 4.33639,-2.86827 3.2332,-5.67718c-0.63492,-1.62269 -2.3942,-2.50233 -4.07331,-2.03666c-2.76645,0.76375 -3.61506,2.65189 -2.54581,5.66445c-1.96876,0.10182 -3.8654,-0.41156 -5.68991,-1.54021c0.79768,-0.12729 1.32383,-0.56857 1.5784,-1.32383c0.16125,-0.47522 0.08909,-1.08199 -0.21641,-1.82025c-0.92497,-2.19787 -1.08622,-3.65749 -0.48372,-4.37882c7.752,-1.22201 5.62625,-10.92154 2.16394,-15.09671z" fill="#199d0d" stroke-width="1"/><path d="M278.88736,161.53009c1.82451,1.12865 3.72115,1.64206 5.68991,1.54021c0.9674,0.9674 2.09605,1.65053 3.38595,2.04939l1.34929,1.56567c0.14011,0.15612 0.22114,0.35427 0.22911,0.56008l0.58554,10.19599c0.01829,0.30566 -0.11113,0.60155 -0.34799,0.79558c-0.23687,0.19404 -0.55244,0.26267 -0.84852,0.18455l-14.39659,-3.84417c0.0085,-5.72808 -2.53307,-8.36724 -7.62472,-7.91749c-2.94466,0.26307 -4.98132,1.9221 -6.10997,4.97709c-10.48029,3.34352 -20.52352,3.5599 -30.12973,0.6492c-1.5784,-0.48372 -4.63339,-0.30127 -9.16496,0.54734c-3.38595,-2.97859 -10.22145,-8.82126 -13.79835,-8.7067c-0.73362,0.02806 -1.36975,0.51579 -1.58724,1.217c-0.21752,0.70118 0.0309,1.46332 0.61984,1.90164l6.45364,4.76068c0.18767,0.13937 0.29512,0.3619 0.28749,0.59552c-0.00763,0.23365 -0.1293,0.4487 -0.32568,0.57553l-1.89664,1.2729c-0.01697,-0.11882 -0.0297,-0.23338 -0.0382,-0.3437c-0.01697,-0.11032 -0.08062,-0.15698 -0.19095,-0.14002l-21.0539,3.5514l4.96435,-11.53255c4.96435,-2.73252 8.53272,-4.37882 10.70516,-4.93889c14.32023,-3.70415 23.53608,-6.03358 33.00654,-5.10437c2.2573,0.22064 4.75218,0.14425 7.4847,-0.22911c11.59194,-1.5784 22.50928,0.36066 32.75193,5.8172z" fill="#106f0d" stroke-width="1"/><path d="M287.9632,165.1197c-1.28987,-0.39886 -2.41852,-1.08199 -3.38595,-2.04939c-1.06926,-3.01256 -0.22064,-4.9007 2.54581,-5.66445c1.67912,-0.46567 3.43839,0.41397 4.07331,2.03666c1.10319,2.80888 0.02546,4.70128 -3.2332,5.67718z" fill="#ffffff" stroke-width="1"/><path d="M221.50464,172.83354c-2.78341,3.25017 -6.34758,6.16087 -10.69243,8.73217c-0.58977,0.35053 -1.2979,0.44271 -1.95776,0.25485c-0.65986,-0.18786 -1.21326,-0.63916 -1.53001,-1.24775c-1.08199,-2.10028 2.53307,-4.92616 3.93329,-6.1227l1.89664,-1.2729c0.19635,-0.12685 0.31805,-0.3419 0.32568,-0.57553c0.00763,-0.23365 -0.09981,-0.45618 -0.28749,-0.59552l-6.45364,-4.76068c-0.58894,-0.43832 -0.83736,-1.20044 -0.61984,-1.90164c0.21752,-0.70118 0.85365,-1.18891 1.58724,-1.217c3.57687,-0.11456 10.41239,5.72808 13.79835,8.7067z" fill="#062f05" stroke-width="1"/><path d="M274.534,174.57742c-2.39305,5.65172 -6.18633,6.97978 -11.3798,3.98419c-1.82451,-1.66326 -2.60946,-3.97149 -2.35489,-6.92462c1.12865,-3.05499 3.16531,-4.71401 6.10997,-4.97709c5.09164,-0.44975 7.63321,2.18941 7.62472,7.91749z" fill="#062f05" stroke-width="1"/><path d="M260.79933,171.63699c-0.25457,2.95316 0.53038,5.26136 2.35489,6.92462c-1.34929,1.6463 -2.70282,3.30533 -4.06058,4.97709c-0.78072,0.95044 -1.99846,2.70282 -3.65326,5.25712c-2.69856,4.17514 -6.18633,7.60775 -10.46332,10.29784c-1.66326,1.04379 -4.59519,3.50474 -8.7958,7.38287c-9.39407,-0.22064 -18.60569,-1.73539 -27.63486,-4.5443c-1.92634,-0.60251 -4.19637,-0.98013 -6.81007,-1.13288c-6.62762,-0.39036 -12.60604,-2.63066 -17.93529,-6.72094c-0.34793,-0.27154 -0.73829,-0.43279 -1.17108,-0.48372c-1.06076,-0.12729 -1.70569,-0.84861 -1.93483,-2.16394c-0.68736,-3.8951 -1.00136,-7.47197 -0.94194,-10.73063l10.22145,-3.18227l21.0539,-3.5514c0.11032,-0.01697 0.17395,0.0297 0.19095,0.14002c0.0085,0.11032 0.02123,0.22488 0.0382,0.3437c-1.40019,1.19654 -5.01525,4.02239 -3.93329,6.1227c0.31675,0.60859 0.87015,1.05989 1.53001,1.24775c0.65986,0.18786 1.36799,0.09567 1.95776,-0.25485c4.34485,-2.57127 7.90902,-5.482 10.69243,-8.73217c4.53157,-0.84861 7.58652,-1.03106 9.16496,-0.54734c9.60621,2.91073 19.64948,2.69432 30.12973,-0.6492zM240.02546,184.21333l-4.03512,-4.8625c-0.26307,-0.31397 -0.58977,-0.52615 -0.98013,-0.63647c-1.21351,-0.32247 -1.97726,0.17821 -2.29123,1.50204c-0.09067,0.38875 -0.05498,0.79475 0.10182,1.15835c1.28563,3.04225 4.9007,8.87219 8.47756,9.7632c0.50813,0.12911 1.0458,-0.08597 1.33656,-0.53461l5.63899,-8.89762c0.38257,-0.60788 0.38752,-1.37813 0.01273,-1.98573c-1.00136,-1.6378 -2.11302,-2.09605 -3.33502,-1.37473c-1.38746,0.81465 -2.96586,4.35335 -3.86964,5.80447c-0.31397,0.50915 -0.66616,0.53038 -1.05652,0.06366z" fill="#4eb90f" stroke-width="1"/><path d="M241.08196,184.1497c0.90377,-1.45112 2.48218,-4.98979 3.86964,-5.80447c1.22201,-0.72132 2.33366,-0.26307 3.33502,1.37473c0.37478,0.6076 0.36984,1.37785 -0.01273,1.98573l-5.63899,8.89762c-0.29073,0.44867 -0.8284,0.66372 -1.33656,0.53461c-3.57687,-0.89104 -7.19193,-6.72094 -8.47756,-9.7632c-0.1568,-0.3636 -0.19249,-0.76959 -0.10182,-1.15835c0.31397,-1.32383 1.07772,-1.82451 2.29123,-1.50204c0.39036,0.11032 0.71706,0.32247 0.98013,0.63647l4.03512,4.8625c0.39036,0.46672 0.74252,0.44552 1.05652,-0.06366z" fill="#062f05" stroke-width="1"/><path d="M300.15767,185.43534l-0.6492,5.49897l-10.60334,6.83553c-0.37744,0.24277 -0.86409,0.23372 -1.23227,-0.0229c-0.36817,-0.25661 -0.54509,-0.71005 -0.44796,-1.14818l3.43685,-16.02592c0.03412,-0.16499 0.1458,-0.30337 0.29985,-0.37154c0.15405,-0.0682 0.33155,-0.05782 0.47664,0.02787z" fill="#4eb90f" stroke-width="1"/><path d="M140.33569,180c0,-55.04308 44.62123,-99.66431 99.66431,-99.66431c55.04308,0 99.66431,44.62123 99.66431,99.66431c0,55.04308 -44.62123,99.66431 -99.66431,99.66431c-55.04308,0 -99.66431,-44.62123 -99.66431,-99.66431z" fill="none" stroke-width="0"/></g></g></svg>