<svg version="1.1" xmlns="http://www.w3.org/2000/svg" xmlns:xlink="http://www.w3.org/1999/xlink" width="100" height="100" viewBox="0,0,100,100"><g transform="translate(-190,-130)"><g data-paper-data="{&quot;isPaintingLayer&quot;:true}" fill-rule="nonzero" stroke="none" stroke-linecap="butt" stroke-linejoin="miter" stroke-miterlimit="10" stroke-dasharray="" stroke-dashoffset="0" style="mix-blend-mode: normal"><path d="M190,180c0,-27.61424 22.38576,-50 50,-50c27.61424,0 50,22.38576 50,50c0,27.61424 -22.38576,50 -50,50c-27.61424,0 -50,-22.38576 -50,-50z" fill="none" stroke-width="0"/><path d="M241.11144,184.32003c-0.84511,0.21189 -1.65641,0.25956 -2.43388,0.14303c-0.63567,-0.09535 -1.77254,-0.57088 -1.98402,-1.26278c-0.11002,-0.35777 0.06071,-0.63608 0.5122,-0.83493c0.24775,0.1524 0.49672,0.31417 0.74691,0.48531c0.30398,0.20781 0.56477,0.34147 0.78236,0.40096c1.11609,0.30683 2.26518,-0.25182 2.49011,-1.42414c0.16992,-0.89116 -0.12347,-1.94735 -1.14298,-2.15639c-0.73672,-0.15077 -1.38014,-0.00244 -1.93023,0.44497c-0.16218,0.13202 -0.29502,0.20741 -0.39852,0.22615c-1.0134,0.18337 -0.78236,-0.72002 -0.68457,-1.33124c0.1255,-0.79377 0.22778,-1.5904 0.30683,-2.38987c0.06234,-0.63445 0.17603,-1.11609 0.9315,-1.12709c1.24363,-0.01793 2.48767,-0.02323 3.73211,-0.01589c0.621,0.00367 0.79459,0.42908 0.73713,0.96084c-0.05134,0.48164 -0.45475,0.57332 -0.89727,0.57944c-0.99099,0.01548 -2.00725,0.01752 -3.04877,0.00611c-0.13446,-0.00126 -0.24968,0.09527 -0.27138,0.22737l-0.24082,1.47182c-0.00442,0.02534 0.00496,0.05107 0.02472,0.06782c0.01976,0.01676 0.04702,0.0221 0.07185,0.01408c1.63318,-0.52809 4.01694,-0.28972 4.71495,1.55861c0.64667,1.70897 -0.25671,3.47784 -2.01825,3.95582z" fill="#5486af" stroke-width="1"/></g></g></svg>