<svg version="1.1" xmlns="http://www.w3.org/2000/svg" xmlns:xlink="http://www.w3.org/1999/xlink" width="49.25" height="49.25" viewBox="0,0,49.25,49.25"><g transform="translate(-215.375,-155.375)"><g data-paper-data="{&quot;isPaintingLayer&quot;:true}" fill-rule="nonzero" stroke="none" stroke-linecap="butt" stroke-linejoin="miter" stroke-miterlimit="10" stroke-dasharray="" stroke-dashoffset="0" style="mix-blend-mode: normal"><path d="M215.375,204.625v-49.25h49.25v49.25z" fill="#f0f6ff" stroke-width="0"/><path d="M231.81306,171.36954l5.42155,-5.15719c0.57123,-0.58096 0.57881,-1.51026 0.01713,-2.10047c-0.56168,-0.5902 -1.49021,-0.62865 -2.09875,-0.08688l-5.4442,5.18288c-0.2937,0.29542 -0.69636,0.45645 -1.11278,0.44501c-0.41643,-0.01144 -0.80962,-0.19433 -1.08666,-0.50544l-2.39431,-2.136c-0.62321,-0.55563 -1.57885,-0.50086 -2.13448,0.12236c-0.55563,0.62321 -0.50086,1.57885 0.12235,2.13448l2.33237,2.07557c0.84833,0.85286 2.00258,1.33097 3.20551,1.32782c1.18832,0.00412 2.32953,-0.46433 3.17226,-1.30214zM257.34222,171.16107h-15.10602c-0.83428,0 -1.5106,-0.67632 -1.5106,-1.5106c0,-0.83428 0.67632,-1.51059 1.5106,-1.51059h15.10602c0.83428,0 1.5106,0.67631 1.5106,1.51059c0,0.83428 -0.67632,1.5106 -1.5106,1.5106zM231.81909,183.45435c-1.77391,1.74599 -4.62399,1.73453 -6.3838,-0.02569l-2.3943,-2.3943c-0.57247,-0.59273 -0.56429,-1.5349 0.01841,-2.11759c0.58269,-0.58269 1.52487,-0.59088 2.11759,-0.01841l2.40185,2.3943c0.59742,0.57126 1.53858,0.57126 2.136,0l5.43816,-5.18288c0.38677,-0.39336 0.95721,-0.54461 1.48806,-0.39455c0.53085,0.15006 0.9377,0.57756 1.06129,1.1152c0.12359,0.53763 -0.05571,1.09989 -0.46775,1.4667l-5.42155,5.1572zM257.34222,183.24589h-15.10602c-0.83428,0 -1.5106,-0.67631 -1.5106,-1.51059c0,-0.83428 0.67632,-1.5106 1.5106,-1.5106h15.10602c0.83428,0 1.5106,0.67632 1.5106,1.5106c0,0.83428 -0.67632,1.51059 -1.5106,1.51059zM231.81909,195.53917c-1.77391,1.74599 -4.62399,1.73453 -6.3838,-0.02567l-2.33237,-2.07557c-0.62321,-0.55563 -0.67799,-1.51127 -0.12235,-2.13448c0.55563,-0.62321 1.51126,-0.67799 2.13448,-0.12236l2.39431,2.136c0.27704,0.31111 0.67023,0.494 1.08666,0.50545c0.41643,0.01144 0.81908,-0.14959 1.11278,-0.44502l5.43816,-5.18288c0.38677,-0.39336 0.95721,-0.54461 1.48806,-0.39455c0.53085,0.15006 0.9377,0.57756 1.06129,1.1152c0.12359,0.53763 -0.05571,1.09989 -0.46775,1.46671l-5.41551,5.15719zM257.34222,195.33071h-15.10602c-0.83428,0 -1.5106,-0.67631 -1.5106,-1.51059c0,-0.83428 0.67632,-1.5106 1.5106,-1.5106h15.10602c0.83428,0 1.5106,0.67632 1.5106,1.5106c0,0.83428 -0.67632,1.51059 -1.5106,1.51059z" fill="#182246" stroke-width="1"/><path d="M231.83623,171.41385c-0.84273,0.83781 -2.02281,1.30943 -3.21113,1.30531c-1.20293,0.00315 -2.38287,-0.49437 -3.2312,-1.34723l-2.34038,-2.09583c-0.62321,-0.55563 -0.67809,-1.52615 -0.12246,-2.14936c0.55563,-0.62322 1.60951,-0.65978 2.23272,-0.10415l2.39235,2.10721c0.27704,0.31111 0.65928,0.47679 1.07571,0.48822c0.41642,0.01144 0.80195,-0.16109 1.09565,-0.45651l5.4641,-5.16828c0.60854,-0.54177 1.54193,-0.49625 2.10361,0.09395c0.56168,0.59021 0.55886,1.531 -0.01237,2.11196l-5.4466,5.2147z" data-paper-data="{&quot;noHover&quot;:false,&quot;origItem&quot;:[&quot;Path&quot;,{&quot;applyMatrix&quot;:true,&quot;segments&quot;:[[463.62612,342.73908],[[474.46922,332.4247],[0,0],[1.14246,-1.16192]],[[474.50348,328.22376],[1.12336,1.18042],[-1.12336,-1.1804]],[[470.30598,328.05],[1.21708,-1.08354],[0,0]],[[459.41758,338.41576],[0,0],[-0.5874,0.59084]],[[457.19202,339.30578],[0.83284,0.02288],[-0.83286,-0.02288]],[[455.0187,338.2949],[0.55408,0.62222],[0,0]],[[450.23008,334.0229],[0,0],[-1.24642,-1.11126]],[[445.96112,334.26762],[1.11126,-1.24644],[-1.11126,1.24642]],[[446.20582,338.53658],[-1.24642,-1.11126],[0,0]],[[450.87056,342.68772],[0,0],[1.69666,1.70572]],[[457.28158,345.34336],[-2.40586,0.0063],[2.37664,0.00824]],[[463.6261,342.73908],[-1.68546,1.67562],[0,0]]],&quot;closed&quot;:true,&quot;fillColor&quot;:[0,0,0,1]}]}" fill="#182246" stroke-width="0.5"/></g></g></svg>