<svg version="1.1" xmlns="http://www.w3.org/2000/svg" xmlns:xlink="http://www.w3.org/1999/xlink" width="49.88502" height="50.62294" viewBox="0,0,49.88502,50.62294"><g transform="translate(-215.24602,-145.52186)"><g data-paper-data="{&quot;isPaintingLayer&quot;:true}" fill-rule="nonzero" stroke="none" stroke-linecap="butt" stroke-linejoin="miter" stroke-miterlimit="10" stroke-dasharray="" stroke-dashoffset="0" style="mix-blend-mode: normal"><path d="M265.13104,170.83333c0,13.97914 -11.16715,25.31147 -24.94251,25.31147c-13.77536,0 -24.94251,-11.33233 -24.94251,-25.31147c0,-13.97914 11.16715,-25.31147 24.94251,-25.31147c13.77536,0 24.94251,11.33233 24.94251,25.31147z" fill="#76d881" stroke-width="0"/><path d="M235.52072,174.60976c0,-0.96741 -0.7842,-1.75044 -1.75044,-1.75044h-2.33391c-0.96507,0 -1.75044,-0.78536 -1.75044,-1.75044v-2.33391c0,-0.96741 -0.7842,-1.75044 -1.75044,-1.75044c-0.96624,0 -1.75044,0.78303 -1.75044,1.75044v2.33391c0,2.89521 2.35608,5.2513 5.2513,5.2513h2.33391c0.96624,0 1.75044,-0.78303 1.75044,-1.75044zM248.9407,176.3602h-2.33391c-0.96624,0 -1.75044,-0.78303 -1.75044,-1.75044c0,-0.96741 0.7842,-1.75044 1.75044,-1.75044h2.33391c0.96507,0 1.75044,-0.78536 1.75044,-1.75044v-2.33391c0,-0.96741 0.7842,-1.75044 1.75044,-1.75044c0.96624,0 1.75044,0.78303 1.75044,1.75044v2.33391c0,2.89521 -2.35608,5.2513 -5.2513,5.2513zM252.44157,162.35674c-0.96624,0 -1.75044,-0.78303 -1.75044,-1.75044v-2.33391c0,-0.96507 -0.78536,-1.75044 -1.75044,-1.75044h-2.33391c-0.96624,0 -1.75044,-0.78303 -1.75044,-1.75044c0,-0.96741 0.7842,-1.75044 1.75044,-1.75044h2.33391c2.89521,0 5.2513,2.35608 5.2513,5.2513v2.33391c0,0.96741 -0.7842,1.75044 -1.75044,1.75044zM227.9355,162.35674c-0.96624,0 -1.75044,-0.78303 -1.75044,-1.75044v-2.33391c0,-2.89521 2.35608,-5.2513 5.2513,-5.2513h2.33391c0.96624,0 1.75044,0.78303 1.75044,1.75044c0,0.96741 -0.7842,1.75044 -1.75044,1.75044h-2.33391c-0.96507,0 -1.75044,0.78536 -1.75044,1.75044v2.33391c0,0.96741 -0.7842,1.75044 -1.75044,1.75044zM234.35375,170.52542c-1.28832,0 -2.33391,-1.0456 -2.33391,-2.33391v-7.00174c0,-1.28832 1.0456,-2.33391 2.33391,-2.33391c1.28832,0 2.33391,1.0456 2.33391,2.33391v7.00174c0,1.28832 -1.0456,2.33391 -2.33391,2.33391zM244.85635,160.6063v8.16869c0,0.96624 -0.7842,1.75044 -1.75044,1.75044c-0.96624,0 -1.75044,-0.7842 -1.75044,-1.75044v-8.16869c0,-0.96624 0.7842,-1.75044 1.75044,-1.75044c0.96624,0 1.75044,0.7842 1.75044,1.75044zM248.35722,160.02282v9.33564c0,0.64416 -0.5228,1.16695 -1.16695,1.16695c-0.64416,0 -1.16695,-0.5228 -1.16695,-1.16695v-9.33564c0,-0.64416 0.5228,-1.16695 1.16695,-1.16695c0.64416,0 1.16695,0.5228 1.16695,1.16695zM240.18853,160.02282v9.33564c0,0.64416 -0.5228,1.16695 -1.16695,1.16695c-0.64416,0 -1.16695,-0.5228 -1.16695,-1.16695v-9.33564c0,-0.64416 0.5228,-1.16695 1.16695,-1.16695c0.64416,0 1.16695,0.5228 1.16695,1.16695z" fill="#ffffff" stroke-width="1"/><text transform="translate(229.16708,186.27555) scale(0.20542,0.20542)" font-size="40" xml:space="preserve" fill="#ffffff" fill-rule="nonzero" stroke="none" stroke-width="1" stroke-linecap="butt" stroke-linejoin="miter" stroke-miterlimit="10" stroke-dasharray="" stroke-dashoffset="0" font-family="Sans Serif" font-weight="normal" text-anchor="start" style="mix-blend-mode: normal"><tspan x="0" dy="0">支払う</tspan></text></g></g></svg>