<svg version="1.1" xmlns="http://www.w3.org/2000/svg" xmlns:xlink="http://www.w3.org/1999/xlink" width="64.80961" height="33.57044" viewBox="0,0,64.80961,33.57044"><g transform="translate(-207.5952,-163.21478)"><g data-paper-data="{&quot;isPaintingLayer&quot;:true}" fill-rule="nonzero" stroke="none" stroke-linecap="butt" stroke-linejoin="miter" stroke-miterlimit="10" stroke-dasharray="" stroke-dashoffset="0" style="mix-blend-mode: normal"><path d="M207.59521,191.37665c0,-7.31572 0,-19.88798 0,-23.68581c0,-2.14335 1.50952,-4.47606 4.05643,-4.47606c12.41814,0 49.49799,0 56.51025,0c2.23664,0 4.24293,2.11101 4.24293,4.10305c0,3.85607 0,17.51597 0,24.80483c0,2.80205 -2.0063,4.66256 -4.24293,4.66256c-6.81266,0 -42.00572,0 -55.39123,0c-3.21788,0 -5.17544,-2.19813 -5.17544,-5.40857z" fill="#cde4ff" stroke-width="0"/><path d="M236.5,172h-2c-1.378,0 -2.5,1.122 -2.5,2.5v2c0,1.378 1.122,2.5 2.5,2.5h2c1.378,0 2.5,-1.122 2.5,-2.5v-2c0,-1.378 -1.122,-2.5 -2.5,-2.5zM237,176.5c0,0.276 -0.224,0.5 -0.5,0.5h-2c-0.276,0 -0.5,-0.224 -0.5,-0.5v-2c0,-0.276 0.224,-0.5 0.5,-0.5h2c0.276,0 0.5,0.224 0.5,0.5zM243.5,179h2c1.378,0 2.5,-1.122 2.5,-2.5v-2c0,-1.378 -1.122,-2.5 -2.5,-2.5h-2c-1.378,0 -2.5,1.122 -2.5,2.5v2c0,1.378 1.122,2.5 2.5,2.5zM243,174.5c0,-0.276 0.224,-0.5 0.5,-0.5h2c0.276,0 0.5,0.224 0.5,0.5v2c0,0.276 -0.224,0.5 -0.5,0.5h-2c-0.276,0 -0.5,-0.224 -0.5,-0.5zM236.5,181h-2c-1.378,0 -2.5,1.122 -2.5,2.5v2c0,1.378 1.122,2.5 2.5,2.5h2c1.378,0 2.5,-1.122 2.5,-2.5v-2c0,-1.378 -1.122,-2.5 -2.5,-2.5zM237,185.5c0,0.276 -0.224,0.5 -0.5,0.5h-2c-0.276,0 -0.5,-0.224 -0.5,-0.5v-2c0,-0.276 0.224,-0.5 0.5,-0.5h2c0.276,0 0.5,0.224 0.5,0.5zM236,191c0,0.552 -0.448,1 -1,1h-2c-2.757,0 -5,-2.243 -5,-5v-2c0,-0.552 0.448,-1 1,-1c0.552,0 1,0.448 1,1v2c0,1.654 1.346,3 3,3h2c0.552,0 1,0.448 1,1zM252,185v2c0,2.757 -2.243,5 -5,5h-2c-0.552,0 -1,-0.448 -1,-1c0,-0.552 0.448,-1 1,-1h2c1.654,0 3,-1.346 3,-3v-2c0,-0.552 0.448,-1 1,-1c0.552,0 1,0.448 1,1zM252,173v2c0,0.552 -0.448,1 -1,1c-0.552,0 -1,-0.448 -1,-1v-2c0,-1.654 -1.346,-3 -3,-3h-2c-0.552,0 -1,-0.448 -1,-1c0,-0.552 0.448,-1 1,-1h2c2.757,0 5,2.243 5,5zM228,175v-2c0,-2.757 2.243,-5 5,-5h2c0.552,0 1,0.448 1,1c0,0.552 -0.448,1 -1,1h-2c-1.654,0 -3,1.346 -3,3v2c0,0.552 -0.448,1 -1,1c-0.552,0 -1,-0.448 -1,-1zM244,186.5c0,0.828 -0.672,1.5 -1.5,1.5c-0.828,0 -1.5,-0.672 -1.5,-1.5c0,-0.828 0.672,-1.5 1.5,-1.5c0.828,0 1.5,0.672 1.5,1.5zM246.5,181c0.828,0 1.5,0.672 1.5,1.5c0,0.828 -0.672,1.5 -1.5,1.5c-0.828,0 -1.5,-0.672 -1.5,-1.5c0,-0.828 0.672,-1.5 1.5,-1.5zM241,182.5c0,-0.828 0.672,-1.5 1.5,-1.5c0.828,0 1.5,0.672 1.5,1.5c0,0.828 -0.672,1.5 -1.5,1.5c-0.828,0 -1.5,-0.672 -1.5,-1.5z" fill="#487ab3" stroke-width="1"/></g></g></svg>