<svg version="1.1" xmlns="http://www.w3.org/2000/svg" xmlns:xlink="http://www.w3.org/1999/xlink" width="133" height="143" viewBox="0,0,133,143"><g transform="translate(-173.5,-108.5)"><g data-paper-data="{&quot;isPaintingLayer&quot;:true}" fill-rule="nonzero" stroke="none" stroke-linecap="butt" stroke-linejoin="miter" stroke-miterlimit="10" stroke-dasharray="" stroke-dashoffset="0" style="mix-blend-mode: normal"><path d="M173.5,251.5v-143h133v143z" fill="#e6ebf2" stroke-width="0"/><path d="M280.46145,213.03501c2.05085,2.05069 2.05085,5.37575 0,7.4266c-2.05069,2.05085 -5.37575,2.05085 -7.4266,0l-33.03493,-33.03853l-33.03492,33.03853c-2.05069,2.05085 -5.37575,2.05069 -7.4266,0c-2.05085,-2.05069 -2.05085,-5.37575 0,-7.4266l33.03837,-33.03509l-33.03837,-33.03492c-2.05085,-2.05069 -2.05069,-5.37575 0,-7.4266c2.05069,-2.05085 5.37575,-2.05085 7.4266,0l33.03492,33.03837l33.03509,-33.03837c2.05069,-2.05085 5.37575,-2.05085 7.4266,0c2.05085,2.05069 2.05085,5.37575 0,7.4266l-33.03853,33.03492z" fill="#000000" stroke-width="1"/></g></g></svg>